<svg width="1064" height="1024" viewBox="0 0 1064 1024" fill="none" xmlns="http://www.w3.org/2000/svg">
<path d="M1047.41 391.272C1016.71 278.933 952.128 192.975 860.483 142.492C812.502 116.113 756.559 99.5122 698.118 94.5102L693.797 94.0552C664.462 91.7812 632.625 92.9182 601.471 96.7842C285.38 114.522 178.727 324.87 178.271 326.689C178.271 326.916 173.269 349.202 171.221 372.397C170.311 381.947 170.085 389.907 170.311 397.411C159.851 404.688 153.939 416.967 154.849 429.701C156.213 449.713 173.724 465.404 193.962 464.04C228.527 461.765 257.635 464.495 279.693 472.68L278.329 479.503C269.687 523.846 261.046 567.281 250.131 611.17C245.81 610.943 241.261 610.714 236.487 610.714C226.936 610.259 219.887 605.711 210.107 599.572C192.825 588.657 171.449 575.012 124.148 574.785L119.828 575.011C92.0854 576.376 69.7984 579.333 54.1084 597.07C45.2394 606.847 40.9184 619.356 40.9184 635.045C40.9184 636.182 40.9184 637.32 41.1454 639.138V639.821C40.0094 655.511 32.2774 793.773 29.7764 883.597C29.7764 899.743 40.2374 913.842 55.7004 918.845C76.6214 925.441 97.0884 928.623 116.872 928.623C147.117 928.623 175.77 920.664 201.694 905.2C263.32 868.361 277.42 819.014 298.794 744.198C301.069 735.784 303.798 726.915 306.299 717.819C317.669 717.592 329.949 716.909 344.274 716.227C346.094 731.237 349.96 747.836 358.601 777.626L359.283 779.218C381.796 826.745 415.223 857.218 459.113 869.952C478.67 875.637 497.544 882.688 515.737 889.509C553.259 903.609 588.733 917.025 624.435 917.025C649.222 917.025 671.736 910.43 693.339 896.786C710.393 883.824 738.365 868.588 774.066 868.588C785.665 868.588 797.49 870.18 809.314 873.591L812.725 876.091C835.239 888.599 883.449 894.967 899.367 897.241C903.461 897.696 907.099 897.923 910.282 897.923C927.564 897.923 938.934 890.191 946.212 873.363C949.622 865.631 951.67 857.217 956.218 836.296C957.582 830.383 958.264 825.381 958.492 821.742L959.174 818.558C960.084 813.1 961.674 806.506 963.494 798.092L965.314 789.905C969.179 772.622 978.73 745.789 989.645 714.407C1022.39 621.171 1071.51 480.18 1047.41 391.265L1047.41 391.272ZM217.153 790.593C211.923 801.508 208.739 809.696 206.238 816.29C198.961 834.937 196.46 841.077 172.127 855.631C154.844 865.865 136.879 870.867 116.867 870.867C109.818 870.867 102.542 870.185 95.2644 869.048L88.6704 867.911L88.8974 861.089C89.5794 840.849 90.7164 818.111 92.0814 791.503L92.5364 789.456C95.9474 781.269 100.495 774.676 106.408 768.762C117.778 758.074 126.874 759.666 143.929 764.897C156.891 768.762 176.449 774.674 211.242 779.45L221.702 780.815L217.155 790.592L217.153 790.593ZM247.398 711.684C242.394 727.831 236.71 743.749 230.798 758.984L228.524 764.669L222.384 763.759C195.549 759.666 176.22 753.072 160.757 747.841C137.107 739.882 122.782 736.471 107.09 746.704L94.1284 755.119L95.0384 739.656C96.4034 718.28 97.7684 685.534 99.3604 645.283L99.8154 637.095L106.181 634.139C110.275 633.684 116.642 633.002 125.056 632.776C172.357 633.002 194.188 660.518 210.106 680.531C219.202 691.901 226.251 700.769 234.438 700.997L250.356 701.678L247.4 711.684H247.398ZM354.051 618.221L353.596 625.043L346.775 625.498C335.405 626.18 325.625 626.635 316.53 627.09L306.296 627.545L308.797 617.539C317.211 582.519 324.26 547.499 330.173 517.709L335.403 491.103L344.954 516.573C357.916 550.228 355.642 589.57 354.05 618.222L354.051 618.221ZM574.178 675.527C536.202 675.527 505.048 644.599 505.048 606.624C505.048 568.649 535.974 537.72 574.178 537.72C612.155 537.72 643.081 568.648 643.081 606.624C643.081 644.6 612.155 675.527 574.178 675.527Z" fill="white"/>
</svg>
