<?xml version="1.0" encoding="UTF-8"?>
<svg id="Layer_1" data-name="Layer 1" xmlns="http://www.w3.org/2000/svg" viewBox="0 0 64 64">
  <defs>
    <style>
      .cls-1 {
        fill: #000;
        stroke-width: 0px;
      }
    </style>
  </defs>
  <path class="cls-1" d="M49.207,33.186c0-2.252-.587-8.59-1.707-16.344-.311-2.18-.662-4.435-1.045-6.702-.082-.481-.498-.833-.986-.833h-9.75c-1.461-4.338-5.538-7.307-10.181-7.307-5.925,0-10.745,4.82-10.745,10.745,0,5.022,3.509,9.356,8.31,10.463-.535,4.448-.867,8.189-.867,9.977,0,6.108,4.087,11.273,9.667,12.923v8.417h-5.447c-2.175,0-3.943,1.769-3.943,3.943v2.532c0,.552.447,1,1,1h24.418c.553,0,1-.448,1-1v-2.532c0-2.174-1.769-3.943-3.943-3.943h-5.449v-8.418c5.582-1.652,9.67-6.815,9.67-12.921ZM46.93,58.468v1.532h-22.418v-1.532c0-1.072.872-1.943,1.943-1.943h18.531c1.071,0,1.943.872,1.943,1.943ZM45.351,15.982h-19.259c.218-1.461.461-3.056.729-4.676h17.802c.262,1.578.502,3.138.729,4.676ZM16.793,12.745c0-4.822,3.923-8.745,8.745-8.745,3.546,0,6.685,2.128,8.041,5.307h-7.605c-.488,0-.904.352-.986.833-.397,2.354-.751,4.707-1.045,6.701-.212,1.481-.409,2.945-.59,4.363-3.8-.973-6.559-4.443-6.559-8.459ZM24.235,33.186c0-1.6.329-5.514.965-10.655,0-.001,0-.002,0-.003s0-.002,0-.003c.177-1.426.378-2.95.601-4.542h19.84c1.027,7.265,1.565,13.105,1.565,15.203,0,6.331-5.155,11.48-11.492,11.48s-11.479-5.15-11.479-11.48ZM37.537,54.521h-3.635v-7.991c.594.08,1.196.136,1.812.136.62,0,1.225-.057,1.822-.138v7.993Z"/>
  <path class="cls-1" d="M37.714,27.086c.391-.391.391-1.023,0-1.414l-4.037-4.037c-.391-.391-1.023-.391-1.414,0l-4.037,4.037c-.391.391-.391,1.023,0,1.414l4.037,4.038c.188.188.441.293.707.293s.52-.105.707-.293l4.037-4.038ZM30.347,26.379l2.623-2.623,2.623,2.623-2.623,2.624-2.623-2.624Z"/>
  <path class="cls-1" d="M38.059,42.005c.266,0,.52-.105.707-.293l4.038-4.038c.188-.188.293-.442.293-.707s-.105-.52-.293-.707l-4.038-4.037c-.391-.391-1.023-.391-1.414,0l-4.037,4.037c-.391.391-.391,1.023,0,1.414l4.037,4.038c.188.188.441.293.707.293ZM38.059,34.344l2.624,2.623-2.624,2.624-2.623-2.624,2.623-2.623Z"/>
</svg>