<svg width="1064" height="1024" viewBox="0 0 1064 1024" fill="none" xmlns="http://www.w3.org/2000/svg">
<g clip-path="url(#clip0_195_293)">
<path d="M583.687 81.716C595.269 66.366 593.407 33.806 591.758 5.08598C591.696 3.84798 591.626 2.63598 591.558 1.40798C575.324 -0.142023 558.889 -0.999023 542.258 -0.999023C478.525 -0.999023 417.541 10.742 361.258 32.027C401.408 51.322 463.558 84.532 532.638 133.601C556.208 113.318 573.985 94.593 583.688 81.717L583.687 81.716ZM843.108 373.868C817.872 376.718 796.589 380.86 778.388 386.668C865.398 538.585 899.323 730.513 907.623 869.557C993.823 781.727 1048.56 662.995 1053.74 531.477C994.346 458.471 915.663 365.637 843.107 373.869L843.108 373.868ZM325.847 242.738C386.984 230.016 444.419 199.247 490.214 166.766C394.676 100.966 314.992 66.818 299.141 60.318C200.024 113.9 120.707 199.272 74.5649 302.713C134.542 278.817 199.499 266.659 263.298 254.812C283.938 250.979 305.274 247.017 325.848 242.739L325.847 242.738ZM679.734 257.625C685.232 263.145 690.667 268.727 696.038 274.371C715.982 295.308 734.078 318.208 750.673 342.436C774.84 333.311 803.292 326.841 837.348 322.99C917.592 313.913 988.945 377.479 1050.18 447.461C1037.05 341.372 991.554 245.354 923.757 169.631C886.751 174.091 845.496 181.648 803.445 194.195C775.861 202.433 731.931 224.818 679.734 257.625ZM612.366 522.036C633.366 450.908 657.69 399.635 704.818 366.352C690.674 346.047 675.454 326.992 658.966 309.68C651.339 301.67 643.626 293.934 635.88 286.334C446.8 415.034 187.798 651.451 164.247 856.289C242.863 942.304 350.454 1001.29 471.573 1018.03C515.673 930.225 557.181 751.733 581.853 645.577C593.707 594.588 603.939 550.564 612.365 522.034L612.366 522.036ZM397.982 409.244C463.908 348.494 533.53 294.017 597.208 250.235C575.982 231.455 554.691 214.143 533.789 198.267C480.899 238.027 411.65 277.185 336.272 292.863C315.162 297.255 293.547 301.271 272.65 305.151C192.131 320.102 114.838 334.584 49.8379 370.851C37.1779 415.409 30.2559 462.385 30.2559 511.001C30.2559 619.754 64.2719 720.518 122.088 803.438C159.544 655.134 288.021 510.57 397.981 409.244H397.982ZM641.311 220.992C702.222 182.159 754.737 155.308 788.807 145.139C819.404 136.002 849.417 129.346 877.838 124.493C812.161 67.421 731.88 26.745 643.254 9.01398C645.219 44.773 646.076 84.03 624.566 112.552C614.345 126.097 597.055 144.673 574.556 164.827C596.59 181.977 618.982 200.679 641.311 220.992ZM661.465 536.534C653.471 563.615 643.387 606.97 631.722 657.167C597.277 805.382 564.316 938.005 525.822 1022.58C531.287 1022.75 536.75 1023 542.256 1023C661.58 1023 771.273 982.068 858.324 913.639C854.887 768.135 820.005 562.327 732.139 409.55C698.061 434.878 679.721 474.722 661.465 536.534Z" fill="white"/>
</g>
<defs>
<clipPath id="clip0_195_293">
<rect width="1064" height="1024" fill="white"/>
</clipPath>
</defs>
</svg>
