<svg width="1064" height="1024" viewBox="0 0 1064 1024" fill="none" xmlns="http://www.w3.org/2000/svg">
<g clip-path="url(#clip0_195_299)">
<path d="M493.956 0.976023C379.405 11.658 267.582 60.966 179.699 148.798C91.8164 236.606 42.5584 348.43 31.9024 463.13C157.684 477.715 291.423 542.007 401.219 651.804C511.067 761.626 575.434 895.464 589.893 1021.15C704.769 1010.49 816.318 961.208 904.276 873.425C992.133 785.641 1041.34 673.768 1051.95 559.093C926.465 544.533 792.502 480.241 682.705 370.419C572.983 260.622 508.615 126.759 493.956 0.976023ZM1054 495.577C1050.27 369.619 1000.44 244.837 904.426 148.698C808.363 52.559 683.43 2.90202 557.472 -1.00098C571.632 108.997 630.045 227.199 727.959 325.139C825.873 423.079 943.927 481.392 1054 495.577ZM30.0254 526.598C33.7274 652.506 83.5854 777.314 179.699 873.403C275.737 969.441 400.519 1019.35 526.453 1023C512.294 913.155 453.955 795.027 355.991 697.087C258.126 599.197 139.95 540.859 30.0264 526.6L30.0254 526.598Z" fill="white"/>
</g>
<defs>
<clipPath id="clip0_195_299">
<rect width="1064" height="1024" fill="white"/>
</clipPath>
</defs>
</svg>
