<?xml version="1.0" encoding="UTF-8"?>
<svg id="Layer_1" data-name="Layer 1" xmlns="http://www.w3.org/2000/svg" viewBox="0 0 64 64">
  <defs>
    <style>
      .cls-1 {
        fill: #000;
        stroke-width: 0px;
      }
    </style>
  </defs>
  <path class="cls-1" d="M32.003,19.883c0,.552.447,1,1,1s1-.448,1-1c0-3.205-2.359-5.861-5.431-6.344v-1.179c0-.552-.447-1-1-1s-1,.448-1,1v1.179c-3.071.483-5.43,3.139-5.43,6.344s2.359,5.861,5.43,6.344v8.821c-1.96-.456-3.43-2.209-3.43-4.306,0-.552-.447-1-1-1s-1,.448-1,1c0,3.204,2.359,5.861,5.43,6.344v1.179c0,.552.447,1,1,1s1-.448,1-1v-1.179c3.072-.483,5.431-3.139,5.431-6.344s-2.359-5.861-5.431-6.344v-8.822c1.961.456,3.431,2.209,3.431,4.306ZM23.143,19.883c0-2.097,1.469-3.85,3.43-4.306v8.612c-1.96-.456-3.43-2.209-3.43-4.306ZM32.003,30.743c0,2.097-1.469,3.85-3.431,4.306v-8.612c1.961.456,3.431,2.209,3.431,4.306Z"/>
  <path class="cls-1" d="M27.572,48.626c3.535,0,7.031-.815,10.167-2.344,1.302,1.316,2.902,2.331,4.685,2.954v2.032c-4.707.769-8.271,4.875-8.271,9.732,0,.552.447,1,1,1h22.61c.553,0,1-.448,1-1,0-2.518-.949-4.916-2.676-6.755-1.499-1.589-3.462-2.626-5.603-2.976v-2.032c4.706-1.644,8.109-6.07,8.224-11.302.002-.02.002-.039.003-.059.001-.071.011-.141.011-.213,0-1.944-.466-3.776-1.275-5.411,1.412-1.011,2.291-2.65,2.291-4.423,0-3.012-2.446-5.462-5.454-5.462-1.302,0-2.517.466-3.47,1.251-.872-12.066-10.96-21.617-23.245-21.617C14.717,2,4.259,12.458,4.259,25.313s10.458,23.313,23.313,23.313ZM56.576,35.993c-.529-.372-1.03-.782-1.499-1.232-.894-.858-1.668-1.858-2.303-2.973-.147-.259-.402-.438-.694-.49-.296-.052-.594.029-.821.222-2.725,2.308-5.769,4.196-9.047,5.613-1.919.823-3.904,1.47-5.913,1.95-.065-.465-.11-.937-.11-1.42,0-5.662,4.606-10.268,10.268-10.268,5.091,0,9.318,3.729,10.119,8.598ZM44.422,25.579c-5.797.974-10.232,6.015-10.232,12.084,0,.96.122,1.89.332,2.787.003.018-.003.034,0,.052.007.034.027.06.037.092.004.017.009.033.013.05-2.177.998-4.579,1.527-6.999,1.527-9.296,0-16.858-7.562-16.858-16.858s7.562-16.858,16.858-16.858,16.858,7.562,16.858,16.858c0,.09-.008.177-.009.266ZM49.418,53.156c1.995.137,3.848,1.01,5.214,2.458,1.145,1.22,1.861,2.75,2.069,4.385h-2.741c-.01,0-.019-.006-.029-.006h-14.936c-.01,0-.019.006-.029.006h-2.748c.472-3.668,3.497-6.592,7.273-6.844.525-.035.934-.471.934-.998v-2.411c.663.111,1.339.183,2.032.183s1.368-.072,2.029-.182v2.41c0,.526.407.962.932.998ZM46.457,47.931c-4.482,0-8.293-2.892-9.69-6.904,2.118-.507,4.212-1.189,6.236-2.057,3.106-1.343,6.014-3.086,8.655-5.189.597.886,1.278,1.699,2.034,2.424.901.864,1.909,1.6,2.994,2.209-.387,5.311-4.822,9.517-10.229,9.517ZM54.287,24.367c1.904,0,3.454,1.553,3.454,3.462,0,1.067-.504,2.057-1.322,2.703-1.321-1.84-3.13-3.306-5.245-4.19.564-1.177,1.76-1.975,3.113-1.975ZM27.572,4c11.752,0,21.313,9.561,21.313,21.313,0,.117-.004.216-.006.325-.784-.158-1.594-.243-2.423-.243-.01,0-.019.001-.029.001,0-.028.003-.056.003-.084,0-10.398-8.46-18.858-18.858-18.858S8.714,14.915,8.714,25.313s8.46,18.858,18.858,18.858c2.635,0,5.254-.557,7.641-1.617.332.759.74,1.476,1.212,2.147-2.75,1.261-5.785,1.926-8.853,1.926-11.752,0-21.313-9.561-21.313-21.313S15.82,4,27.572,4Z"/>
</svg>