<?xml version="1.0" encoding="UTF-8"?>
<svg id="Layer_1" data-name="Layer 1" xmlns="http://www.w3.org/2000/svg" viewBox="0 0 64 64">
  <defs>
    <style>
      .cls-1 {
        fill: #000;
        stroke-width: 0px;
      }
    </style>
  </defs>
  <path class="cls-1" d="M45.456,4.886c-7.607,0-14.015,3.629-15.939,8.547h-2.051v-3.276c0-.552-.448-1-1-1H3c-.552,0-1,.448-1,1v39.393c0,.552.448,1,1,1h4.095v3.281c0,.552.448,1,1,1h4.092v3.283c0,.552.448,1,1,1h23.465c.552,0,1-.448,1-1v-13.881c0-.007.004-.013.004-.019v-11.209c0-.007-.004-.013-.004-.019v-4.866h7.803c9.123,0,16.544-5.211,16.544-11.617s-7.421-11.617-16.544-11.617ZM29.013,17.72h-15.825c-.552,0-1,.448-1,1v12.41l-3.092-2.068v-13.629h17.358s.008.002.012.002.008-.002.012-.002h2.511c-.046.353-.077.709-.077,1.07,0,.409.041.814.101,1.217ZM4,37.021v-8.962l8.187,5.477v8.962l-8.187-5.477ZM25.466,11.157v2.276H8.096c-.552,0-1,.448-1,1v13.291l-3.096-2.071v-14.496h21.466ZM4,48.55v-9.123l3.095,2.071v7.052h-3.095ZM9.095,52.831v-9.995l3.092,2.069v7.927h-3.092ZM14.187,57.114v-3.256c0-.009.005-.017.005-.027,0-.009-.005-.017-.005-.026v-8.591h21.465v11.9H14.187ZM35.653,43.214H14.191v-9.209h21.461v9.209ZM35.653,32.005H14.187v-12.285h15.377c.52,1.277,1.335,2.488,2.44,3.57l-3.123,3.123c-.286.286-.372.716-.217,1.09.155.374.52.617.924.617h6.063v3.885ZM45.456,26.12h-13.452l2.16-2.16c.199-.199.305-.473.292-.754s-.145-.543-.361-.723c-2.083-1.726-3.184-3.793-3.184-5.979,0-5.303,6.524-9.617,14.544-9.617s14.544,4.314,14.544,9.617-6.524,9.617-14.544,9.617Z"/>
  <path class="cls-1" d="M44.532,11.702c-.533-.143-1.082.173-1.226.706l-1.113,4.134-1.146-4.141c-.119-.428-.505-.726-.949-.733-.458-.015-.839.28-.97.704l-1.293,4.168-.968-4.102c-.127-.538-.668-.873-1.203-.744-.538.126-.871.665-.744,1.203l1.81,7.67c.104.439.488.754.938.77.012,0,.023,0,.035,0,.437,0,.824-.284.955-.704l1.37-4.417,1.215,4.387c.12.433.515.733.964.733h.003c.451-.001.845-.305.962-.74l2.065-7.67c.144-.533-.172-1.082-.706-1.226Z"/>
  <path class="cls-1" d="M47.38,11.667c-.552,0-1,.448-1,1v7.67c0,.552.448,1,1,1s1-.448,1-1v-7.67c0-.552-.448-1-1-1Z"/>
  <path class="cls-1" d="M54.696,11.667c-.552,0-1,.448-1,1v3.636l-2.167-4.104c-.214-.406-.679-.615-1.125-.503-.446.111-.759.511-.759.971v7.67c0,.552.448,1,1,1s1-.448,1-1v-3.636l2.167,4.104c.176.333.52.533.884.533.08,0,.161-.009.241-.029.446-.111.759-.511.759-.971v-7.67c0-.552-.448-1-1-1Z"/>
</svg>