<?xml version="1.0" encoding="UTF-8"?>
<svg id="Layer_1" data-name="Layer 1" xmlns="http://www.w3.org/2000/svg" viewBox="0 0 64 64">
  <defs>
    <style>
      .cls-1 {
        fill: #000;
        stroke-width: 0px;
      }
    </style>
  </defs>
  <path class="cls-1" d="M44.956,45.465c.552-.032.973-.505.94-1.057-.031-.551-.501-.972-1.056-.94-.524.03-3.204.077-4.96-1.955-.842-.975-1.16-2.066-1.279-2.811-.087-.544-.6-.921-1.145-.83-.546.087-.917.6-.83,1.145.159,1,.591,2.472,1.74,3.803,2.072,2.398,5.033,2.655,6.203,2.655.168,0,.3-.005.386-.01Z"/>
  <path class="cls-1" d="M48.28,44.53c.069,0,.14,0,.199-.02.061-.01.13-.03.19-.05.06-.03.12-.06.17-.1.06-.03.11-.07.15-.12.05-.05.09-.1.13-.15.029-.06.06-.11.09-.17.02-.06.04-.13.06-.19.011-.07.021-.13.021-.2,0-.26-.11-.52-.3-.7-.36-.37-1.04-.38-1.41,0-.09.09-.17.2-.221.32-.05.12-.069.25-.069.38,0,.27.1.53.29.71.189.19.439.29.7.29Z"/>
  <path class="cls-1" d="M56.003,37.363c0-1.919-.499-7.314-1.452-13.91-.265-1.86-.563-3.777-.889-5.699-.082-.481-.498-.833-.986-.833h-16.567c-.488,0-.905.353-.986.833-.327,1.94-.617,3.86-.888,5.698-.854,5.974-1.452,11.694-1.452,13.911,0,5.22,3.465,9.643,8.215,11.097v6.886h-4.479c-1.931,0-3.502,1.571-3.502,3.501v2.151c0,.552.447,1,1,1h20.751c.553,0,1-.448,1-1v-2.151c0-1.931-1.57-3.501-3.501-3.501h-4.48v-6.888c4.751-1.456,8.217-5.878,8.217-11.096ZM53.768,58.849v1.151h-18.751v-1.151c0-.828.674-1.501,1.502-1.501h15.748c.827,0,1.501.673,1.501,1.501ZM51.829,18.921c.204,1.236.393,2.461.573,3.673h-16.016c.18-1.203.366-2.427.571-3.673h14.873ZM34.782,37.363c0-1.721.451-6.607,1.312-12.77h16.599c.86,6.107,1.31,11.004,1.31,12.77,0,5.296-4.313,9.605-9.615,9.605s-9.605-4.309-9.605-9.605ZM45.786,55.344h-2.789v-6.467c.457.055.919.092,1.391.092.474,0,.939-.037,1.398-.093v6.468Z"/>
  <path class="cls-1" d="M11.64,23.839l-1.895,5.613c-1.158,3.429-1.745,7.004-1.745,10.626v12.387c0,.005-.003.009-.003.015s.003.009.003.015v6.215c0,1.814,1.476,3.291,3.29,3.291h12.654c1.814,0,3.29-1.476,3.29-3.291v-18.63c0-3.622-.587-7.197-1.745-10.626l-1.896-5.613c-1.088-3.223-1.64-6.583-1.64-9.987v-4.693h.995c.553,0,1-.448,1-1V3c0-.552-.447-1-1-1h-10.664c-.553,0-1,.448-1,1v5.16c0,.552.447,1,1,1h.995v4.693c0,3.402-.552,6.762-1.641,9.986ZM10.616,34.03h9.452v17.45h-10.067v-11.401c0-2.04.223-4.06.616-6.049ZM13.285,4h8.664v3.16h-8.664v-3.16ZM19.954,9.16v4.693c0,3.622.587,7.197,1.745,10.626l1.896,5.613c1.088,3.223,1.64,6.583,1.64,9.987v18.63c0,.711-.579,1.291-1.29,1.291h-12.654c-.711,0-1.29-.579-1.29-1.291v-5.229h11.067c.553,0,1-.448,1-1v-19.45c0-.552-.447-1-1-1h-9.995c.174-.649.352-1.298.568-1.938l1.895-5.613c1.158-3.431,1.746-7.006,1.746-10.626v-4.693h4.674Z"/>
</svg>