<?xml version="1.0" encoding="UTF-8"?>
<svg id="Layer_1" data-name="Layer 1" xmlns="http://www.w3.org/2000/svg" viewBox="0 0 64 64">
  <defs>
    <style>
      .cls-1 {
        fill: #000;
        stroke-width: 0px;
      }
    </style>
  </defs>
  <path class="cls-1" d="M24.131,19.82c-1.153,1.404-2.154,3.101-2.986,5.007-.002.003-.005.005-.006.008-.003.006-.002.013-.005.02-1.749,4.022-2.734,8.984-2.734,14.166,0,4.776.817,9.371,2.364,13.288.341.861.561,1.584.691,2.274l.861,4.534c.058.306.255.567.533.707,1.992,1.001,5.176,2.176,9.151,2.176.116,0,.233,0,.351-.003,3.036-.052,6.079-.804,8.802-2.175.191-.096.347-.252.443-.443l.811-1.61c.096-.191.128-.407.092-.618-.248-1.456-.028-2.903.737-4.842,1.547-3.916,2.364-8.511,2.364-13.287,0-4.892-.879-9.586-2.448-13.48-.005-.014-.003-.029-.009-.043-.006-.014-.018-.022-.024-.036-.88-2.166-1.972-4.086-3.251-5.643-1.401-1.708-2.215-3.755-2.353-5.921l-.133-2.104h.766c.553,0,1-.448,1-1V3c0-.552-.447-1-1-1h-12.299c-.553,0-1,.448-1,1v7.796c0,.552.447,1,1,1h.766l-.133,2.103c-.138,2.167-.951,4.214-2.353,5.921ZM41.377,51.574c-.575,1.456-1.186,3.387-.899,5.579l-.517,1.027c-2.38,1.145-5.015,1.772-7.645,1.817-3.416.062-6.262-.871-8.129-1.747l-.768-4.04c-.155-.818-.408-1.656-.797-2.636-.626-1.586-1.116-3.298-1.482-5.089,2.918,1.518,6.088,2.478,9.287,2.781.789.075,1.575.113,2.36.113,3.351,0,6.664-.696,9.896-2.062-.344,1.49-.779,2.918-1.307,4.257ZM43.142,44.911c-4.067,1.967-8.277,2.77-12.525,2.363-4.287-.406-7.691-1.978-9.903-3.317-.208-1.604-.314-3.257-.314-4.937,0-4.513.774-8.829,2.165-12.413,2.518,1.127,5.154,1.855,7.865,2.116.775.074,1.552.111,2.326.111,2.994,0,5.972-.556,8.891-1.652,1.256,3.468,1.955,7.562,1.955,11.838,0,2.016-.161,3.99-.458,5.89ZM26.851,4h10.299v5.796h-.829s-.001,0-.002,0h-8.637s-.002,0-.002,0h-.829v-5.796ZM35.38,11.796l.141,2.23c.164,2.587,1.134,5.029,2.804,7.063.98,1.193,1.84,2.627,2.569,4.236-3.372,1.256-6.822,1.736-10.274,1.408-2.498-.241-4.93-.913-7.256-1.956.672-1.386,1.445-2.632,2.312-3.688,1.67-2.034,2.64-4.476,2.804-7.064l.141-2.229h6.76Z"/>
</svg>