<svg width="1054" height="1024" viewBox="0 0 1054 1024" fill="none" xmlns="http://www.w3.org/2000/svg">
<g clip-path="url(#clip0_195_305)">
<path d="M443 747.6L442.8 747.8L452.4 802.4L507 812L507.2 811.8L496.8 758.2L443 747.6ZM926 328.6C714.2 117 592.8 225.8 573.2 299.6C563.8 334.8 564.8 349.6 564.8 349.6C533 334 451.8 312 382 567.8L232 752.401C265.6 810.401 304.2 861.201 348.8 905.8C393.4 950.399 444.2 989 502.2 1022.6L686.8 872.6C746.8 844.8 844.2 833.8 906.4 771.401C1034.2 644.001 1117.6 520.401 926 328.6ZM626.8 783.2C614.2 795.8 593.8 795.8 581.2 783.2C578.2 780.2 576 776.8 574.4 773.2L535 765.6L542.6 805C546.2 806.6 549.6 808.8 552.6 811.8C565.2 824.4 565.2 844.8 552.6 857.4C540 870 519.6 870 507 857.4C504.2 854.6 502 851.4 500.4 847.8L458.8 840.6L466.2 882.2C469.6 883.8 473 886 475.8 888.8C488.4 901.4 488.4 921.8 475.8 934.4C463.2 947 442.8 947 430.2 934.4C417.6 921.8 417.6 901.4 430.2 888.8L430.6 888.4L421 833.8L366.4 824.2C366.2 824.4 366.2 824.4 366.2 824.6C353.6 837.2 333.2 837.2 320.6 824.6C308 812 308 791.6 320.6 779C333.2 766.4 353.6 766.4 366.2 779C369 781.8 371.2 785 372.8 788.6L414.4 796L407 754.4C403.6 752.8 400.4 750.6 397.4 747.8C384.8 735.2 384.8 714.8 397.4 702.2C410 689.6 430.4 689.6 443 702.2C446 705.2 448.2 708.6 449.8 712.2L489.2 719.8L481.6 680.4C478 678.8 474.6 676.6 471.6 673.6C459 661 459 640.6 471.6 628C484.2 615.4 504.6 615.4 517.2 628C529.8 640.6 529.8 661 517.2 673.6L527.6 727.2L581.2 737.6C593.8 725 614.2 725.2 626.6 737.6C639.4 750.2 639.4 770.6 626.8 783.2ZM297.4 620.2L283.8 602.6L231.2 617.6C231.2 617.8 231.2 617.8 231 618L263.8 661.8L297.4 620.2ZM176.6 680.2C180.4 681.4 183.8 683.4 186.8 685.8L227.2 673.6L202 639.6C198.2 639.8 194.4 639.4 190.6 638C173.6 632.4 164.4 614.2 170 597.4C175.6 580.4 193.8 571.2 210.6 576.8C214.6 578.2 218.2 580.2 221.2 582.6L259.8 571.6L235.2 540C231.2 540.2 227.2 539.8 223.2 538.4C206.2 532.8 197 514.6 202.6 497.8C208.2 480.8 226.4 471.6 243.2 477.2C260 482.8 269.2 500.8 263.8 517.8L297.4 561L350 546C351.6 541 354.4 536.8 357.8 533.4C387.4 436 418.8 383 418.8 383C418.8 383 386.6 296.8 288.2 335.2C404.6 280 320 191.8 320 191.8C320 191.8 420 268 516.8 309.6C521.6 308.8 526.4 308.4 531.2 308.401C533.2 308.401 535.4 308.401 537.4 308.601C538.6 303.401 540 297.601 541.6 291.201C555 240.401 601.2 186.401 673 174.801C649 121.201 592 64.6009 472.6 25.6009C215.2 -58.7991 142.6 71.4009 86.4 243.001C59 326.801 93.2 418.601 95.4 484.601L45 717.202C101.2 753.802 158.6 781.602 218.6 801.202C220.6 801.802 222.6 802.402 224.6 803.202C217.401 792.002 210.401 780.602 203.6 768.802L192.401 749.402L222.001 713.002L197.401 720.402C197.401 720.602 197.401 720.602 197.201 720.802C191.601 737.802 173.401 747.002 156.601 741.402C139.601 735.802 130.401 717.602 136.001 700.802C141.601 683.802 159.801 674.602 176.601 680.202L176.6 680.2Z" fill="white"/>
</g>
<defs>
<clipPath id="clip0_195_305">
<rect width="1054" height="1024" fill="white"/>
</clipPath>
</defs>
</svg>
