<?xml version="1.0" encoding="UTF-8"?>
<svg id="Layer_1" data-name="Layer 1" xmlns="http://www.w3.org/2000/svg" viewBox="0 0 64 64">
  <defs>
    <style>
      .cls-1 {
        fill: #000;
        stroke-width: 0px;
      }
    </style>
  </defs>
  <path class="cls-1" d="M3.682,62h56.637c.553,0,1-.448,1-1V12.096c0-.334-.167-.646-.444-.831l-13.603-9.096c-.336-.226-.775-.226-1.111,0l-13.604,9.096c-.277.186-.444.497-.444.831v5.231H15.143c-.266,0-.52.105-.707.293L2.975,29.082c-.188.188-.293.442-.293.707v31.211c0,.552.447,1,1,1ZM39.871,60v-9.933c0-3.774,3.07-6.844,6.845-6.844s6.845,3.07,6.845,6.844v9.933h-13.689ZM34.112,12.63l12.604-8.427,12.603,8.427v47.37h-3.758v-9.933c0-4.877-3.968-8.844-8.845-8.844s-8.845,3.967-8.845,8.844v9.933h-3.759V12.63ZM4.682,30.203l10.875-10.875h16.556v40.672H4.682v-29.797Z"/>
  <path class="cls-1" d="M37.953,23.333h6.453c.553,0,1-.448,1-1v-6.454c0-.552-.447-1-1-1h-6.453c-.553,0-1,.448-1,1v6.454c0,.552.447,1,1,1ZM38.953,16.879h4.453v4.454h-4.453v-4.454Z"/>
  <path class="cls-1" d="M49.024,23.333h6.454c.553,0,1-.448,1-1v-6.454c0-.552-.447-1-1-1h-6.454c-.553,0-1,.448-1,1v6.454c0,.552.447,1,1,1ZM50.024,16.879h4.454v4.454h-4.454v-4.454Z"/>
  <path class="cls-1" d="M37.953,34.794h6.453c.553,0,1-.448,1-1v-6.454c0-.552-.447-1-1-1h-6.453c-.553,0-1,.448-1,1v6.454c0,.552.447,1,1,1ZM38.953,28.34h4.453v4.454h-4.453v-4.454Z"/>
  <path class="cls-1" d="M49.024,34.794h6.454c.553,0,1-.448,1-1v-6.454c0-.552-.447-1-1-1h-6.454c-.553,0-1,.448-1,1v6.454c0,.552.447,1,1,1ZM50.024,28.34h4.454v4.454h-4.454v-4.454Z"/>
  <path class="cls-1" d="M16.088,32.266h-6.453c-.553,0-1,.448-1,1v6.454c0,.552.447,1,1,1h6.453c.553,0,1-.448,1-1v-6.454c0-.552-.447-1-1-1ZM15.088,38.719h-4.453v-4.454h4.453v4.454Z"/>
  <path class="cls-1" d="M27.16,32.266h-6.454c-.553,0-1,.448-1,1v6.454c0,.552.447,1,1,1h6.454c.553,0,1-.448,1-1v-6.454c0-.552-.447-1-1-1ZM26.16,38.719h-4.454v-4.454h4.454v4.454Z"/>
  <path class="cls-1" d="M16.088,43.727h-6.453c-.553,0-1,.448-1,1v6.454c0,.552.447,1,1,1h6.453c.553,0,1-.448,1-1v-6.454c0-.552-.447-1-1-1ZM15.088,50.18h-4.453v-4.454h4.453v4.454Z"/>
  <path class="cls-1" d="M27.16,43.727h-6.454c-.553,0-1,.448-1,1v6.454c0,.552.447,1,1,1h6.454c.553,0,1-.448,1-1v-6.454c0-.552-.447-1-1-1ZM26.16,50.18h-4.454v-4.454h4.454v4.454Z"/>
</svg>