<?xml version="1.0" encoding="UTF-8"?>
<svg id="Layer_1" data-name="Layer 1" xmlns="http://www.w3.org/2000/svg" viewBox="0 0 64 64">
  <defs>
    <style>
      .cls-1 {
        fill: #000;
        stroke-width: 0px;
      }
    </style>
  </defs>
  <path class="cls-1" d="M21.512,32.035h-13.347c-.552,0-1,.448-1,1v8.065c0,.552.448,1,1,1h13.347c.552,0,1-.448,1-1v-8.065c0-.552-.448-1-1-1ZM20.512,40.101h-11.347v-6.065h11.347v6.065Z"/>
  <path class="cls-1" d="M55.284,30.441V10.173c0-2.336-1.9-4.236-4.236-4.236H6.236c-2.336,0-4.236,1.9-4.236,4.236v31.693c0,2.336,1.9,4.236,4.236,4.236h25.93c1.442,6.823,7.507,11.96,14.753,11.96,8.316,0,15.082-6.766,15.082-15.082,0-5.223-2.671-9.832-6.716-12.539ZM6.236,7.937h44.811c1.233,0,2.236,1.003,2.236,2.236v3.354H4v-3.354c0-1.233,1.003-2.236,2.236-2.236ZM53.28,15.527v6.894H4.003v-6.894h49.277ZM6.236,44.103c-1.233,0-2.236-1.003-2.236-2.236v-17.446h49.284v4.908c-1.937-.907-4.089-1.429-6.365-1.429-8.316,0-15.082,6.766-15.082,15.082,0,.379.029.75.057,1.122H6.236ZM46.918,56.063c-7.213,0-13.082-5.869-13.082-13.082s5.868-13.082,13.082-13.082,13.082,5.868,13.082,13.082-5.868,13.082-13.082,13.082Z"/>
  <path class="cls-1" d="M46.918,35.928c1.669,0,3.027,1.358,3.027,3.027,0,.552.448,1,1,1s1-.448,1-1c0-2.43-1.733-4.461-4.027-4.926v-.65c0-.552-.448-1-1-1s-1,.448-1,1v.65c-2.294.465-4.027,2.496-4.027,4.926,0,2.771,2.255,5.026,5.027,5.026,1.669,0,3.027,1.358,3.027,3.027s-1.358,3.027-3.027,3.027-3.027-1.358-3.027-3.027c0-.552-.448-1-1-1s-1,.448-1,1c0,2.43,1.733,4.461,4.027,4.926v.65c0,.552.448,1,1,1s1-.448,1-1v-.65c2.294-.465,4.027-2.496,4.027-4.926,0-2.772-2.255-5.027-5.027-5.027-1.669,0-3.027-1.357-3.027-3.026s1.358-3.027,3.027-3.027Z"/>
</svg>