<?xml version="1.0" encoding="UTF-8"?>
<svg id="Layer_1" data-name="Layer 1" xmlns="http://www.w3.org/2000/svg" viewBox="0 0 64 64">
  <defs>
    <style>
      .cls-1 {
        fill: #000;
        stroke-width: 0px;
      }
    </style>
  </defs>
  <path class="cls-1" d="M16.959,62h30.082c2.867,0,5.199-2.332,5.199-5.199V7.199c0-2.867-2.332-5.199-5.199-5.199h-30.082c-2.867,0-5.199,2.332-5.199,5.199v49.603c0,2.867,2.332,5.199,5.199,5.199ZM13.76,7.199c0-1.764,1.436-3.199,3.199-3.199h30.082c1.764,0,3.199,1.435,3.199,3.199v49.603c0,1.764-1.436,3.199-3.199,3.199h-30.082c-1.764,0-3.199-1.435-3.199-3.199V7.199Z"/>
  <path class="cls-1" d="M18.617,31.123c-.321.175-.521.512-.521.877s.199.702.521.877l3.405,1.862c3.061,1.674,5.563,4.177,7.238,7.238l1.862,3.405c.175.321.512.52.877.52s.702-.199.877-.52l1.862-3.405c1.675-3.061,4.178-5.564,7.238-7.238l3.405-1.862c.321-.175.521-.512.521-.877s-.199-.702-.521-.877l-3.405-1.862c-3.061-1.674-5.563-4.177-7.238-7.238l-1.862-3.405c-.35-.642-1.404-.642-1.754,0l-1.862,3.405c-1.675,3.061-4.178,5.564-7.238,7.238l-3.405,1.862ZM31.015,22.982l.985-1.801.985,1.801c1.857,3.397,4.635,6.175,8.033,8.033l1.801.985-1.801.985c-3.398,1.858-6.176,4.636-8.033,8.033l-.985,1.801-.985-1.801c-1.857-3.397-4.635-6.175-8.033-8.033l-1.801-.985,1.801-.985c3.398-1.858,6.176-4.636,8.033-8.033Z"/>
  <path class="cls-1" d="M18.549,14.645h3.935c1.085,0,1.968-.883,1.968-1.968v-3.936c0-1.085-.883-1.967-1.968-1.967h-3.935c-1.085,0-1.968.882-1.968,1.967v3.936c0,1.085.883,1.968,1.968,1.968ZM22.451,8.742v3.904l-3.87.032-.032-3.903,3.902-.033Z"/>
  <path class="cls-1" d="M41.517,49.355c-1.085,0-1.968.883-1.968,1.968v3.936c0,1.085.883,1.967,1.968,1.967h3.935c1.085,0,1.968-.882,1.968-1.967v-3.936c0-1.085-.883-1.968-1.968-1.968h-3.935ZM45.419,55.226l-3.87.032-.032-3.903,3.902-.032v3.903Z"/>
</svg>