<?xml version="1.0" encoding="UTF-8"?>
<svg id="Layer_1" data-name="Layer 1" xmlns="http://www.w3.org/2000/svg" viewBox="0 0 64 64">
  <defs>
    <style>
      .cls-1 {
        fill: #000;
        stroke-width: 0px;
      }
    </style>
  </defs>
  <path class="cls-1" d="M50.795,25.557v-10.711h4.547c1.96,0,3.554-1.594,3.554-3.554s-1.594-3.553-3.554-3.553H8.654c-1.96,0-3.554,1.594-3.554,3.553s1.594,3.554,3.554,3.554h4.542v10.711c-7.12,3.265-11.196,8.142-11.196,13.459,0,9.509,13.456,17.245,29.996,17.245s30.004-7.736,30.004-17.245c0-5.319-4.081-10.196-11.205-13.459ZM46.512,23.908c-.181-.057-.367-.108-.55-.163-.585-.176-1.178-.34-1.781-.493-.13-.033-.253-.074-.384-.106v-8.296h4.998v9.854c-.038-.015-.079-.026-.117-.041-.704-.27-1.427-.521-2.166-.755ZM41.797,22.713c-1.704-.337-3.477-.584-5.298-.74v-7.127h5.298v7.867ZM32.061,21.772h-.131c-.728,0-1.458.022-2.194.054-.082.004-.161.002-.243.006v-6.982h5.007v6.982c-.083-.004-.162-.002-.245-.006-.735-.032-1.466-.053-2.194-.054ZM7.101,11.292c0-.856.697-1.553,1.554-1.553h46.688c.856,0,1.554.696,1.554,1.553s-.697,1.554-1.554,1.554H8.654c-.856,0-1.554-.697-1.554-1.554ZM27.492,14.846v7.127c-1.822.156-3.593.402-5.289.739v-7.866h5.289ZM18.021,23.748c-.176.053-.355.102-.53.157-.744.235-1.47.487-2.179.759-.038.014-.078.026-.116.04v-9.854h5.007v8.295c-.134.032-.26.075-.392.109-.606.153-1.203.318-1.79.495ZM31.996,54.261c-15.438,0-27.996-6.839-27.996-15.245,0-4.634,3.862-8.973,10.597-11.903.682-.298,1.393-.57,2.116-.83,1.495-.538,3.068-1.001,4.713-1.369,2.243-.512,4.644-.856,7.134-1.024,2.331-.156,4.539-.156,6.872,0,2.486.167,4.89.513,7.146,1.025.771.173,1.523.373,2.264.584,1.598.456,3.126.991,4.555,1.615,6.738,2.929,10.604,7.267,10.604,11.902,0,8.406-12.562,15.245-28.004,15.245Z"/>
  <path class="cls-1" d="M48.014,29.35H15.986c-1.202,0-2.18.978-2.18,2.18v14.973c0,1.202.978,2.181,2.18,2.181h32.027c1.202,0,2.18-.979,2.18-2.181v-14.973c0-1.202-.978-2.18-2.18-2.18ZM37.139,31.35v15.333h-10.277v-15.333h10.277ZM15.807,46.502v-14.973c0-.099.081-.18.18-.18h8.875v15.333h-8.875c-.099,0-.18-.081-.18-.181ZM48.193,46.502c0,.1-.081.181-.18.181h-8.875v-15.333h8.875c.099,0,.18.081.18.18v14.973Z"/>
  <path class="cls-1" d="M23.156,34.528c-.187-.272-.494-.435-.824-.435h-4.745c-.553,0-1,.447-1,1s.447,1,1,1h3.288l-2.499,6.484c-.199.515.058,1.094.573,1.292.118.046.239.067.359.067.401,0,.78-.243.933-.641l3.023-7.844c.119-.308.078-.653-.108-.925Z"/>
  <path class="cls-1" d="M29.628,36.094h3.287l-2.499,6.484c-.198.516.059,1.094.574,1.293.118.045.239.066.359.066.401,0,.78-.243.934-.641l3.022-7.844c.118-.308.077-.653-.109-.925-.187-.272-.495-.435-.824-.435h-4.744c-.553,0-1,.447-1,1s.447,1,1,1Z"/>
  <path class="cls-1" d="M46.413,34.094h-4.745c-.553,0-1,.447-1,1s.447,1,1,1h3.288l-2.499,6.484c-.199.515.058,1.094.573,1.292.118.046.239.067.359.067.401,0,.78-.243.933-.641l3.023-7.844c.119-.308.078-.653-.108-.925-.187-.272-.494-.435-.824-.435Z"/>
</svg>