<?xml version="1.0" encoding="UTF-8"?>
<svg id="Layer_1" data-name="Layer 1" xmlns="http://www.w3.org/2000/svg" viewBox="0 0 64 64">
  <defs>
    <style>
      .cls-1 {
        fill: #000;
        stroke-width: 0px;
      }
    </style>
  </defs>
  <path class="cls-1" d="M32.001,27.982c.878-2.004,1.324-4.123,1.324-6.299,0-.506-.032-1.009-.081-1.509-.074-.758-.195-1.51-.379-2.249-.102-.41-.221-.815-.356-1.217,0,0,0-.001-.001-.002-1.487-4.44-4.841-7.948-9.199-9.624-.716-.278-1.456-.485-2.203-.652-2.273-.509-4.646-.505-6.911.005-.271.061-.544.114-.811.189-.463.131-.92.283-1.369.458-.002,0-.003.002-.004.003-4.358,1.678-7.709,5.184-9.194,9.62,0,.001-.002.002-.002.004-.541,1.604-.815,3.279-.815,4.976,0,.544.028,1.085.083,1.621.166,1.608.582,3.176,1.24,4.678,0,.001.002.002.002.004,1.665,3.802,4.833,6.834,8.69,8.315.45.175.906.328,1.368.459,1.386.394,2.822.594,4.287.594h0c1.58,0,3.127-.247,4.617-.71.343-.106.685-.212,1.021-.343.002,0,.003-.002.004-.002,3.859-1.484,7.025-4.516,8.688-8.317ZM21.947,34.65c-.117.039-.233.082-.351.118-.132.04-.265.078-.398.114-.26.069-.521.129-.784.183-.129.026-.257.055-.386.077-.283.049-.568.086-.853.117-.11.012-.219.03-.329.039-.791.068-1.586.067-2.376-.001-.112-.01-.224-.028-.336-.04-.282-.031-.563-.068-.842-.116-.134-.023-.266-.053-.399-.08-.255-.052-.509-.11-.761-.178-.142-.038-.284-.079-.425-.122-.111-.033-.219-.074-.329-.11v-4.713c1.284.67,2.74,1.054,4.286,1.054s3-.384,4.284-1.053v4.712ZM4.929,26.581c-.055-.142-.112-.283-.161-.425-.059-.17-.119-.341-.171-.513-.081-.265-.148-.532-.212-.8-.04-.166-.083-.332-.117-.499-.059-.294-.1-.591-.139-.889-.019-.144-.046-.287-.06-.432-.043-.443-.069-.89-.069-1.339,0-.344.016-.686.042-1.027.008-.105.022-.21.032-.315.024-.238.051-.476.087-.712.018-.118.039-.235.061-.353.041-.226.087-.451.139-.674.027-.115.054-.231.084-.345.02-.077.046-.153.067-.23h4.597c-.482,1.124-.752,2.36-.752,3.658,0,1.797.521,3.471,1.407,4.896h-4.836ZM13.377,8.733c.103-.034.206-.072.31-.104.16-.049.32-.095.482-.138.209-.055.419-.103.631-.148.183-.039.365-.079.55-.11.191-.033.384-.055.577-.08.2-.025.4-.055.601-.071.185-.015.372-.018.558-.025.406-.017.812-.016,1.218.002.162.007.325.009.486.022.212.017.423.048.634.075.182.024.365.045.546.076.187.032.371.072.556.111.213.046.425.094.635.15.157.042.313.087.469.134.106.032.211.071.317.107v4.7c-1.284-.669-2.739-1.053-4.284-1.053s-3.002.385-4.286,1.054v-4.701ZM17.664,28.991c-4.029,0-7.306-3.277-7.306-7.306s3.277-7.306,7.306-7.306,7.306,3.277,7.306,7.306-3.277,7.306-7.306,7.306ZM26.218,18.027h4.595c.021.074.045.147.065.221.032.123.061.246.09.369.05.214.094.43.133.646.023.125.045.25.065.375.035.23.062.461.085.693.011.109.025.218.034.328.026.34.042.682.042,1.025,0,.449-.025.895-.069,1.339-.014.146-.041.289-.06.434-.039.297-.08.593-.139.886-.034.17-.078.337-.118.506-.063.265-.13.529-.21.791-.054.177-.115.352-.176.528-.049.139-.104.277-.157.415h-4.834c.886-1.424,1.407-3.098,1.407-4.896,0-1.298-.269-2.534-.752-3.658ZM30.091,16.027h-5.056c-.328-.426-.692-.822-1.087-1.186v-5.283c2.72,1.401,4.876,3.673,6.143,6.469ZM11.377,9.559v5.285c-.395.363-.758.758-1.085,1.183h-5.058c1.267-2.794,3.421-5.066,6.143-6.468ZM5.88,28.581h5.497v5.236c-2.28-1.184-4.196-3.012-5.497-5.236ZM23.947,33.816v-5.235h5.498c-1.301,2.223-3.217,4.05-5.498,5.235Z"/>
  <path class="cls-1" d="M61.54,38.541c-.102-.41-.22-.816-.356-1.217,0,0,0-.001-.001-.002-1.487-4.44-4.841-7.948-9.199-9.623-.716-.278-1.456-.485-2.203-.652-2.273-.509-4.646-.505-6.911.005-.271.061-.544.114-.811.189-.463.131-.92.283-1.369.458-.002,0-.003.002-.004.003-4.358,1.678-7.709,5.184-9.194,9.619,0,.001-.002.002-.002.004-.541,1.605-.815,3.28-.815,4.977,0,.544.028,1.085.083,1.621.166,1.608.582,3.176,1.24,4.678,0,.001.002.002.002.004,1.664,3.801,4.832,6.832,8.69,8.315.45.175.906.328,1.368.459,1.386.394,2.822.594,4.287.594h0c1.919,0,3.792-.349,5.569-1.029.023-.009.047-.014.07-.023,0,0,.002-.001.003-.001,3.86-1.486,7.027-4.517,8.69-8.318.878-2.004,1.324-4.123,1.324-6.299,0-.506-.032-1.009-.081-1.509-.074-.758-.195-1.51-.379-2.25ZM59.931,43.638c-.014.146-.041.289-.06.434-.039.297-.08.593-.139.886-.034.17-.078.337-.118.506-.063.265-.13.529-.21.791-.054.177-.115.352-.176.528-.049.139-.104.277-.157.415h-4.834c.886-1.424,1.407-3.098,1.407-4.896,0-1.299-.269-2.535-.752-3.659h4.595c.021.075.046.149.065.224.032.121.06.243.089.364.05.216.095.433.134.651.022.124.045.247.064.372.035.231.062.464.085.697.011.108.025.216.033.325.026.341.042.682.042,1.025,0,.449-.025.895-.069,1.339ZM50.622,55.266c-.117.039-.233.082-.352.118-.132.04-.264.078-.398.114-.26.069-.522.129-.785.183-.128.026-.256.055-.385.077-.283.049-.568.086-.854.117-.11.012-.219.029-.329.039-.791.068-1.586.067-2.376-.001-.112-.01-.223-.027-.334-.04-.282-.031-.564-.068-.844-.117-.133-.023-.264-.052-.396-.08-.257-.053-.512-.111-.765-.179-.141-.038-.281-.078-.42-.12-.112-.034-.221-.074-.332-.111v-4.713c1.284.67,2.74,1.054,4.286,1.054s3-.384,4.284-1.053v4.712ZM33.604,47.197c-.055-.142-.112-.283-.161-.425-.059-.17-.119-.341-.171-.513-.081-.265-.148-.532-.212-.8-.04-.166-.083-.332-.117-.499-.059-.294-.1-.591-.139-.889-.019-.144-.046-.287-.06-.432-.043-.443-.069-.89-.069-1.339,0-.343.016-.685.042-1.026.008-.108.022-.214.033-.322.023-.235.05-.47.086-.703.018-.121.04-.241.062-.362.04-.224.086-.446.138-.668.027-.116.054-.231.084-.346.02-.078.046-.154.068-.231h4.597c-.483,1.124-.752,2.36-.752,3.659,0,1.797.521,3.471,1.407,4.896h-4.836ZM42.052,29.349c.104-.035.207-.073.312-.105.157-.048.315-.094.474-.136.215-.057.432-.106.65-.153.175-.037.35-.076.527-.106.205-.035.412-.06.619-.086.186-.023.372-.051.559-.067.229-.019.46-.024.691-.031.332-.011.663-.01.995.003.198.008.397.011.594.027.2.016.398.045.597.071.194.025.389.048.582.081.18.031.359.07.538.108.218.047.435.096.65.153.155.041.309.086.463.132.107.033.212.072.319.107v4.699c-1.284-.669-2.739-1.053-4.284-1.053s-3.002.385-4.286,1.054v-4.7ZM46.338,49.607c-4.029,0-7.306-3.277-7.306-7.306s3.277-7.307,7.306-7.307,7.306,3.277,7.306,7.307-3.277,7.306-7.306,7.306ZM58.765,36.643h-5.056c-.328-.426-.692-.822-1.087-1.186v-5.282c2.72,1.401,4.876,3.673,6.143,6.468ZM40.052,30.175v5.284c-.395.363-.757.758-1.085,1.183h-5.058c1.267-2.794,3.421-5.065,6.143-6.467ZM34.555,49.197h5.497v5.235c-2.28-1.184-4.196-3.012-5.497-5.235ZM52.622,54.432v-5.235h5.498c-1.301,2.222-3.217,4.05-5.498,5.235Z"/>
</svg>