<?xml version="1.0" encoding="UTF-8"?>
<svg id="Layer_1" data-name="Layer 1" xmlns="http://www.w3.org/2000/svg" viewBox="0 0 64 64">
  <defs>
    <style>
      .cls-1 {
        fill: #000;
        stroke-width: 0px;
      }
    </style>
  </defs>
  <path class="cls-1" d="M60.853,23.803s-.001-.002-.002-.003c-2.19-7.694-7.377-14.135-14.218-17.975-.011-.006-.016-.017-.027-.023-.01-.005-.02-.005-.03-.01-4.319-2.412-9.288-3.792-14.576-3.792-2.841,0-5.587.405-8.193,1.147-.001,0-.002,0-.003,0s-.002.001-.003.002c-7.694,2.19-14.135,7.377-17.975,14.218-.006.011-.017.016-.023.027-.005.01-.005.02-.01.03-2.412,4.319-3.792,9.288-3.792,14.576,0,2.841.405,5.587,1.147,8.193,0,.001,0,.002,0,.003,0,.001.001.002.002.004,2.19,7.694,7.377,14.135,14.217,17.974.011.006.016.017.027.023.014.008.029.01.044.017,4.316,2.407,9.28,3.784,14.563,3.784,2.84,0,5.586-.405,8.192-1.146.002,0,.003,0,.005,0,.001,0,.002-.001.003-.002,7.688-2.188,14.125-7.369,17.966-14.201.01-.016.024-.027.033-.044.005-.01.005-.02.01-.03,2.412-4.319,3.792-9.288,3.792-14.576,0-2.841-.405-5.587-1.147-8.193,0-.001,0-.002,0-.003ZM58.64,23.392l-5.817,1.652c-1.64-4.897-4.959-9.029-9.273-11.709l2.946-5.282c5.693,3.459,10.056,8.892,12.144,15.339ZM32,51.959c-11.005,0-19.959-8.954-19.959-19.959s8.954-19.959,19.959-19.959,19.959,8.954,19.959,19.959-8.954,19.959-19.959,19.959ZM44.747,7.082l-2.943,5.277c-2.953-1.48-6.281-2.318-9.804-2.318-1.732,0-3.415.208-5.032.589l-1.652-5.817c2.143-.527,4.381-.812,6.684-.812,4.589,0,8.92,1.117,12.747,3.082ZM23.392,5.36l1.652,5.817c-4.897,1.64-9.029,4.959-11.709,9.273l-5.282-2.946c3.459-5.693,8.892-10.056,15.339-12.144ZM7.082,19.253l5.277,2.943c-1.48,2.953-2.318,6.281-2.318,9.804,0,1.732.208,3.415.589,5.032l-5.817,1.652c-.527-2.143-.812-4.381-.812-6.684,0-4.589,1.117-8.92,3.082-12.747ZM5.36,40.608l5.817-1.652c1.64,4.897,4.959,9.029,9.273,11.709l-2.946,5.282c-5.693-3.459-10.056-8.892-12.144-15.339ZM19.253,56.918l2.943-5.277c2.953,1.48,6.281,2.318,9.804,2.318,1.732,0,3.415-.208,5.032-.589l1.652,5.817c-2.143.527-4.381.812-6.684.812-4.589,0-8.92-1.117-12.747-3.082ZM40.608,58.64l-1.652-5.817c4.897-1.64,9.029-4.959,11.709-9.273l5.282,2.946c-3.459,5.693-8.892,10.056-15.339,12.144ZM56.918,44.747l-5.277-2.943c1.48-2.953,2.318-6.281,2.318-9.804,0-1.732-.208-3.415-.589-5.032l5.817-1.652c.527,2.143.813,4.381.813,6.684,0,4.589-1.117,8.92-3.082,12.747Z"/>
  <path class="cls-1" d="M37.545,25.455c0,.552.448,1,1,1s1-.448,1-1c0-3.821-2.857-6.979-6.545-7.471v-1.597c0-.552-.448-1-1-1s-1,.448-1,1v1.597c-3.688.492-6.545,3.65-6.545,7.471s2.857,6.979,6.545,7.471v11.069c-2.581-.473-4.545-2.735-4.545-5.45,0-.552-.448-1-1-1s-1,.448-1,1c0,3.821,2.857,6.979,6.545,7.471v1.597c0,.552.448,1,1,1s1-.448,1-1v-1.597c3.688-.492,6.545-3.65,6.545-7.471s-2.857-6.979-6.545-7.471v-11.069c2.581.473,4.545,2.735,4.545,5.45ZM26.455,25.455c0-2.716,1.964-4.977,4.545-5.45v10.9c-2.581-.473-4.545-2.734-4.545-5.45ZM37.545,38.545c0,2.716-1.964,4.977-4.545,5.45v-10.9c2.581.473,4.545,2.734,4.545,5.45Z"/>
</svg>