<?xml version="1.0" encoding="UTF-8"?>
<svg id="Layer_1" data-name="Layer 1" xmlns="http://www.w3.org/2000/svg" viewBox="0 0 64 64">
  <defs>
    <style>
      .cls-1 {
        fill: #000;
        stroke-width: 0px;
      }
    </style>
  </defs>
  <path class="cls-1" d="M7.814,17.18c-.562,1.435-.497,2.996.183,4.396.692,1.427,1.972,2.558,3.556,3.157-1.569.62-2.826,1.768-3.491,3.203-.654,1.412-.687,2.974-.094,4.396,1.079,2.606,4.003,4.149,6.965,3.893-.582,1.518-.461,3.204.361,4.67-.392,1.727-.605,3.489-.605,5.269v8.785s-.002.006-.002.01.002.006.002.01v4.408c0,1.447,1.177,2.624,2.625,2.624h8.974c1.447,0,2.624-1.177,2.624-2.624v-12.917c.947.442,2.007.685,3.089.685.262,0,.517-.018.769-.044.879,2.452,2.845,4.386,5.321,5.215v4.385h-2.886c-1.53,0-2.774,1.244-2.774,2.774v1.525c0,.553.448,1,1,1h14.716c.552,0,1-.447,1-1v-1.525c0-1.53-1.244-2.774-2.774-2.774h-2.887v-4.386c3.381-1.132,5.828-4.321,5.828-8.076,0-1.221-.282-4.4-.821-8.387,3.24.598,6.574-1.034,7.693-3.892.562-1.43.497-2.988-.18-4.387-.692-1.428-1.972-2.56-3.557-3.159,1.569-.621,2.826-1.77,3.49-3.204.654-1.411.687-2.974.094-4.395-1.076-2.61-3.992-4.166-6.962-3.894.36-.936.457-1.944.272-2.949-.299-1.629-1.34-3.09-2.857-4.008-2.505-1.515-5.797-1.302-8.043.34-.828-2.485-3.402-4.303-6.441-4.303-2.648,0-5,1.396-6.084,3.472-2.125-1.277-4.958-1.393-7.217-.185-1.588.85-2.723,2.273-3.114,3.905-.356,1.487-.083,3.009.767,4.305l-.044-.014c-3.473-1.054-7.28.604-8.494,3.696ZM47.146,59.475v.525h-12.716v-.525c0-.427.347-.774.774-.774h11.168c.427,0,.774.348.774.774ZM16.689,46.163c0-1.347.137-2.682.383-3.998h6.175v11.793h-6.558v-7.795ZM26.911,59.376c0,.344-.28.624-.624.624h-8.974c-.344,0-.625-.28-.625-.624v-3.418h7.558c.552,0,1-.447,1-1v-13.793c0-.553-.448-1-1-1h-6.7c.095-.331.18-.663.29-.99l1.344-3.98c.832-2.463,1.253-5.029,1.253-7.629v-3.037h2.733v3.036c0,2.601.422,5.168,1.253,7.63l1.344,3.98c.761,2.255,1.147,4.606,1.147,6.988v13.213ZM45.815,31.45c.112.683.216,1.356.316,2.022h-10.684c.1-.666.204-1.339.315-2.022h10.054ZM44.063,29.45h-9.15c-.488,0-.905.353-.986.833-.233,1.378-.439,2.742-.631,4.048-.158,1.106-.304,2.198-.433,3.239-2.096.147-4.028-.198-5.857-.966l-.692-2.051c-.762-2.255-1.148-4.606-1.148-6.989v-3.036h.415c.552,0,1-.447,1-1v-3.66c0-.553-.448-1-1-1h-5.29c2.156-4.432,6.69-7.328,11.708-7.328,7.186,0,13.032,5.847,13.032,13.032,0,1.693-.338,3.327-.969,4.878ZM24.167,22.527h-4.733s-.003,0-.005,0h-.41v-1.66h5.563v1.66h-.41s-.003,0-.005,0ZM32,45.145c-1.191,0-2.325-.407-3.189-1.1-.153-1.717-.499-3.408-1.02-5.057,1.358.397,2.763.617,4.209.617.206,0,.417-.011.627-.021-.228,2.068-.364,3.759-.364,4.653,0,.301.017.597.047.89-.104.006-.204.017-.311.017ZM41.485,56.698h-1.396v-3.975c.23.019.46.035.695.035.237,0,.469-.016.701-.035v3.975ZM40.785,50.759c-3.596,0-6.521-2.926-6.521-6.521,0-1.186.306-4.524.892-8.765h11.264c.585,4.194.893,7.547.893,8.765,0,3.596-2.929,6.521-6.528,6.521ZM18.526,16.235c.406.121.848-.027,1.097-.372.249-.345.253-.81.009-1.158l-1.544-2.211c-.595-.851-.793-1.857-.559-2.836.261-1.093,1.011-2.019,2.111-2.607,1.962-1.048,4.508-.733,6.052.75.262.25.64.341.984.234.347-.105.609-.39.686-.744.415-1.907,2.365-3.291,4.637-3.291,2.603,0,4.72,1.804,4.72,4.021v.438c0,.427.271.808.675.946.403.137.852.005,1.114-.332l.28-.36c1.466-1.859,4.517-2.335,6.66-1.04,1.043.631,1.727,1.575,1.926,2.658.183.999-.077,2.012-.729,2.844l-.536.674c-.273.344-.291.826-.042,1.188.248.361.703.518,1.123.39l.895-.279c2.439-.788,5.23.325,6.099,2.431.375.901.354,1.892-.062,2.789-.493,1.064-1.491,1.903-2.742,2.302l-2.551.82c-.417.134-.698.523-.694.962.004.438.293.822.712.948l2.564.771c1.26.382,2.277,1.211,2.792,2.272.431.891.473,1.88.118,2.785-.826,2.109-3.595,3.261-6.049,2.52l-.085-.026c-.164-1.12-.343-2.271-.541-3.439-.082-.48-.498-.833-.986-.833h-.449c.54-1.564.818-3.198.818-4.878,0-8.289-6.744-15.032-15.032-15.032-6.112,0-11.602,3.723-13.896,9.328h-.085c-.552,0-1,.447-1,1v3.66c0,.553.448,1,1,1h.415v3.037c0,2.109-.32,4.19-.918,6.205-.219-.1-.468-.129-.709-.053l-.883.278c-2.441.785-5.238-.327-6.108-2.431-.375-.901-.354-1.892.062-2.788.493-1.064,1.491-1.903,2.742-2.302l2.551-.821c.417-.135.698-.524.693-.962s-.293-.822-.712-.948l-2.564-.771c-1.258-.382-2.275-1.209-2.79-2.271-.433-.893-.476-1.886-.121-2.794.827-2.105,3.596-3.257,6.055-2.511l2.795.837Z"/>
  <path class="cls-1" d="M37.29,14.705c-1.115-.615-2.336-1.022-3.629-1.211-.551-.089-1.054.298-1.134.845-.08.547.299,1.055.845,1.134,1.055.154,2.048.485,2.953.984,2.328,1.283,3.473,3.358,3.948,4.481.161.382.532.61.921.61.13,0,.262-.025.389-.079.509-.215.747-.802.531-1.311-.576-1.361-1.969-3.88-4.824-5.454Z"/>
  <path class="cls-1" d="M40.81,24c-.05.05-.09.1-.12.149-.04.061-.07.12-.1.181-.02.06-.04.12-.05.18-.02.07-.02.14-.02.2,0,.13.02.26.07.38s.13.229.22.33c.19.18.44.29.71.29.13,0,.26-.03.38-.08s.23-.12.32-.21c.1-.101.17-.21.22-.33.05-.12.08-.25.08-.38,0-.061-.01-.13-.02-.2-.02-.06-.04-.12-.06-.18l-.09-.181c-.04-.05-.08-.1-.13-.149-.09-.09-.2-.16-.32-.21-.37-.16-.81-.07-1.09.21Z"/>
</svg>