<?xml version="1.0" encoding="UTF-8"?>
<svg id="Layer_1" data-name="Layer 1" xmlns="http://www.w3.org/2000/svg" viewBox="0 0 64 64">
  <defs>
    <style>
      .cls-1 {
        fill: #000;
        stroke-width: 0px;
      }
    </style>
  </defs>
  <path class="cls-1" d="M26.023,23.839l-1.896,5.613c-1.158,3.429-1.745,7.004-1.745,10.626v12.387c0,.005-.003.009-.003.015s.003.009.003.015v6.215c0,1.814,1.476,3.291,3.29,3.291h12.654c1.814,0,3.29-1.476,3.29-3.291v-18.63c0-3.622-.587-7.197-1.745-10.626l-1.896-5.613c-1.088-3.223-1.64-6.583-1.64-9.987v-4.693h.995c.553,0,1-.448,1-1V3c0-.552-.447-1-1-1h-10.664c-.553,0-1,.448-1,1v5.16c0,.552.447,1,1,1h.995v4.693c0,3.401-.552,6.761-1.64,9.986ZM24.999,34.03h9.452v17.45h-10.067v-11.401c0-2.04.223-4.06.616-6.049ZM27.668,4h8.664v3.16h-8.664v-3.16ZM34.337,9.16v4.693c0,3.622.587,7.197,1.745,10.626l1.896,5.613c1.088,3.223,1.64,6.583,1.64,9.987v18.63c0,.711-.579,1.291-1.29,1.291h-12.654c-.711,0-1.29-.579-1.29-1.291v-5.229h11.067c.553,0,1-.448,1-1v-19.45c0-.552-.447-1-1-1h-9.995c.174-.649.352-1.298.568-1.938l1.896-5.613c1.158-3.432,1.745-7.007,1.745-10.626v-4.693h4.674Z"/>
</svg>