<?xml version="1.0" encoding="UTF-8"?>
<svg id="Layer_1" data-name="Layer 1" xmlns="http://www.w3.org/2000/svg" viewBox="0 0 64 64">
  <defs>
    <style>
      .cls-1 {
        fill: #000;
        stroke-width: 0px;
      }
    </style>
  </defs>
  <path class="cls-1" d="M60.774,53.961c-2.126-4.644-6.807-7.886-12.24-7.886h-.366c-1.897-.932-6.096-3.476-8.385-8.578-1.444-3.217-1.623-6.265-1.451-8.48h5.408c1.282,0,2.324-1.043,2.324-2.324v-5.662c0-1.281-1.042-2.324-2.324-2.324h-6.227c1.899-1.583,3.11-3.964,3.11-6.623,0-4.755-3.869-8.624-8.624-8.624s-8.624,3.869-8.624,8.624c0,2.659,1.211,5.04,3.11,6.623h-6.227c-1.282,0-2.324,1.043-2.324,2.324v5.662c0,1.281,1.042,2.324,2.324,2.324h5.408c.171,2.216-.008,5.263-1.451,8.48-2.289,5.102-6.488,7.646-8.385,8.578h-.366c-5.433,0-10.113,3.241-12.239,7.885-.021.039-.041.076-.057.118-.746,1.672-1.169,3.517-1.169,5.463,0,.553.448,1,1,1h58c.552,0,1-.447,1-1,0-1.945-.423-3.791-1.169-5.463-.015-.042-.036-.078-.057-.117ZM25.376,12.083c0-3.652,2.971-6.624,6.624-6.624s6.624,2.972,6.624,6.624-2.971,6.623-6.624,6.623-6.624-2.971-6.624-6.623ZM19.936,26.692v-5.662c0-.179.146-.324.324-.324h23.48c.179,0,.324.146.324.324v5.662c0,.179-.146.324-.324.324h-23.48c-.179,0-.324-.146-.324-.324ZM26.042,38.315c1.578-3.518,1.8-6.845,1.629-9.299h8.659c-.171,2.454.051,5.781,1.629,9.299,1.651,3.681,4.135,6.153,6.353,7.76h-24.624c2.218-1.607,4.702-4.079,6.353-7.76ZM15.465,48.075h33.069c4.072,0,7.651,2.137,9.686,5.345H5.78c2.035-3.208,5.614-5.345,9.686-5.345ZM4.043,58.541c.095-1.091.344-2.138.724-3.121h54.467c.38.983.629,2.03.724,3.121H4.043Z"/>
</svg>