<?xml version="1.0" encoding="UTF-8"?>
<svg id="Layer_1" data-name="Layer 1" xmlns="http://www.w3.org/2000/svg" viewBox="0 0 64 64">
  <defs>
    <style>
      .cls-1 {
        fill: #000;
        stroke-width: 0px;
      }
    </style>
  </defs>
  <path class="cls-1" d="M38.437,3.722c-12.993,0-23.563,7.362-23.563,16.411,0,3.52,1.622,6.94,4.585,9.743-8.778.227-17.459,2.618-17.459,6.875,0,.021.005.042.006.064v16.543c0,.012.007.023.007.035.041,3.274,5.255,5.443,11.632,6.371.055.009.105.033.163.033.01,0,.018-.005.027-.005,2.278.322,4.697.487,7.078.487s4.797-.165,7.074-.486c.008,0,.015.005.024.005.051,0,.095-.022.144-.029,6.414-.929,11.661-3.113,11.661-6.413,0-.015-.008-.028-.009-.044v-8.065c.004-.065.009-.13.009-.193,0-.015-.008-.028-.009-.044v-8.231c0-.009.002-.018.002-.027,0-.079-.011-.157-.018-.236,12.364-.491,22.208-7.65,22.208-16.382,0-9.049-10.57-16.411-23.563-16.411ZM17.576,31.961l-2.876,2.876c-.286.286-.372.716-.217,1.09.155.374.52.617.924.617h22.368c.014.068.034.137.034.204,0,.003-.002.006-.002.009v.012c-.026,1.503-3.438,3.504-9.939,4.438-2.162.311-4.505.468-6.963.468s-4.8-.158-6.948-.468c-6.477-.93-9.889-2.914-9.951-4.413v-.036c0-.006-.003-.011-.004-.018.022-1.776,5.125-4.248,13.574-4.778ZM37.808,45.097c-.047,1.039-1.736,2.249-4.437,3.168-1.302.431-2.774.784-4.36,1.057v-6.273c3.959-.648,6.973-1.712,8.796-3.056v5.104ZM8.479,48.266c-.032-.011-.067-.02-.103-.027-3.217-1.087-4.366-2.356-4.366-3.187,0-.008-.004-.014-.004-.022v-5.038c1.825,1.343,4.841,2.407,8.802,3.056v6.272c-1.578-.273-3.039-.625-4.328-1.055ZM14.808,43.327c1.922.226,3.962.348,6.097.348s4.175-.121,6.106-.348v6.284c-1.93.236-3.982.365-6.098.365s-4.177-.13-6.105-.366v-6.283ZM4.01,53.354c0-.008-.004-.014-.004-.022v-5.03c.95.698,2.215,1.326,3.819,1.861.033.011.069.02.106.028,1.452.478,3.102.861,4.877,1.152v6.282c-5.576-.965-8.797-2.818-8.797-4.271ZM14.808,57.917v-6.294c1.941.228,3.994.353,6.105.353s4.156-.125,6.098-.353v6.295c-1.839.224-3.871.36-6.098.36s-4.265-.136-6.105-.361ZM29.011,57.626v-6.282c1.817-.297,3.509-.69,4.997-1.183,1.707-.581,2.927-1.214,3.8-1.853v5.049c0,.007.004.013.004.021-.035,1.45-3.25,3.288-8.801,4.248ZM38.437,34.544h-20.616l2.981-2.981c.006-.006.012-.012.018-.018l.907-.907c.199-.199.305-.473.292-.754s-.145-.543-.361-.723c-3.085-2.556-4.784-5.762-4.784-9.028,0-7.946,9.673-14.411,21.563-14.411s21.563,6.464,21.563,14.411-9.673,14.411-21.563,14.411Z"/>
  <path class="cls-1" d="M36.979,13.6c-.532-.142-1.082.173-1.226.706l-2.045,7.598-2.105-7.605c-.119-.427-.505-.726-.949-.733-.454-.011-.839.28-.97.704l-2.368,7.632-1.785-7.565c-.126-.538-.669-.875-1.203-.744-.538.126-.871.665-.744,1.203l2.626,11.134c.104.439.488.754.938.77.452.019.856-.272.99-.703l2.445-7.88,2.174,7.851c.12.433.515.733.964.733h.003c.451-.001.845-.305.962-.74l2.998-11.134c.144-.533-.172-1.082-.706-1.226Z"/>
  <path class="cls-1" d="M41.229,13.566c-.552,0-1,.448-1,1v11.134c0,.552.448,1,1,1s1-.448,1-1v-11.134c0-.552-.448-1-1-1Z"/>
  <path class="cls-1" d="M51.85,13.566c-.552,0-1,.448-1,1v7.1l-3.997-7.566c-.214-.406-.676-.614-1.125-.504-.446.111-.759.511-.759.971v11.134c0,.552.448,1,1,1s1-.448,1-1v-7.1l3.997,7.566c.176.333.52.533.884.533.08,0,.16-.009.241-.029.446-.111.759-.511.759-.971v-11.134c0-.552-.448-1-1-1Z"/>
</svg>