<?xml version="1.0" encoding="UTF-8"?>
<svg id="Layer_1" data-name="Layer 1" xmlns="http://www.w3.org/2000/svg" viewBox="0 0 64 64">
  <defs>
    <style>
      .cls-1 {
        fill: #000;
        stroke-width: 0px;
      }
    </style>
  </defs>
  <path class="cls-1" d="M32,51.235c1.866,0,3.385-1.518,3.385-3.384s-1.519-3.384-3.385-3.384-3.385,1.518-3.385,3.384,1.519,3.384,3.385,3.384ZM32,46.466c.764,0,1.385.621,1.385,1.384s-.621,1.384-1.385,1.384-1.385-.621-1.385-1.384.621-1.384,1.385-1.384Z"/>
  <path class="cls-1" d="M58.108,48.749h-17.98l-3.382-6.228c-.132-.243-.357-.416-.616-.487V8.887c0-2.277-1.853-4.129-4.13-4.129s-4.13,1.853-4.13,4.129v33.147c-.26.071-.484.244-.616.487l-3.382,6.228H5.892c-.553,0-1,.448-1,1v8.494c0,.552.447,1,1,1h52.217c.553,0,1-.448,1-1v-8.494c0-.552-.447-1-1-1ZM29.87,8.887c0-1.174.955-2.129,2.13-2.129s2.13.955,2.13,2.129v33.111h-4.26V8.887ZM24.467,50.749c.366,0,.704-.201.879-.523l3.382-6.228h6.545l3.382,6.228c.175.322.513.523.879.523h12.121v6.494H12.346v-6.494h12.121ZM6.892,50.749h3.454v6.494h-3.454v-6.494ZM57.108,57.243h-3.454v-6.494h3.454v6.494Z"/>
  <path class="cls-1" d="M62,37.008c0-.009-.005-.016-.005-.024v-4.994c0-3.005-5.951-4.578-11.83-4.578s-11.829,1.572-11.829,4.578v10.043c0,.015.008.027.009.042.06,2.98,5.975,4.539,11.824,4.539,5.879,0,11.831-1.574,11.831-4.583,0-.009-.005-.016-.005-.024v-4.883c.002-.039.005-.078.005-.115ZM42.772,38.578c-.026-.009-.054-.016-.082-.023-1.724-.586-2.352-1.244-2.352-1.546,0-.005-.003-.009-.003-.015v-2.349c1.163.659,2.744,1.154,4.534,1.475v2.991c-.761-.148-1.473-.324-2.098-.532ZM46.87,36.4c1.074.111,2.186.167,3.295.167s2.223-.057,3.298-.168v3.016c-1.049.114-2.156.177-3.294.177-1.128,0-2.241-.064-3.299-.181v-3.011ZM55.463,36.119c1.79-.321,3.37-.816,4.532-1.475v2.384c-.025.308-.676.957-2.414,1.549-.641.212-1.356.39-2.118.538v-2.996ZM50.165,29.412c6.485,0,9.83,1.807,9.83,2.578s-3.345,2.578-9.83,2.578-9.829-1.807-9.829-2.578,3.344-2.578,9.829-2.578ZM40.339,42.031c0-.005-.003-.009-.003-.015v-2.315c.481.271,1.067.533,1.79.774.027.009.057.017.086.024.802.263,1.697.481,2.658.652v2.989c-2.996-.591-4.531-1.587-4.531-2.109ZM46.87,44.444v-3.016c1.058.108,2.166.164,3.299.164s2.236-.056,3.294-.163v3.016c-.989.107-2.086.17-3.294.17s-2.309-.063-3.299-.171ZM55.463,44.141v-2.99c.997-.177,1.925-.404,2.755-.678.717-.244,1.298-.506,1.777-.777v2.337s.002.006.002.009c-.021.526-1.555,1.512-4.534,2.099Z"/>
  <path class="cls-1" d="M13.833,40.52c5.879,0,11.831-1.574,11.831-4.583,0-.009-.005-.016-.005-.024v-4.883c.002-.038.005-.078.005-.115,0-.009-.005-.016-.005-.024v-4.994c0-3.005-5.951-4.578-11.83-4.578s-11.829,1.572-11.829,4.578v10.043c0,.015.008.027.008.041.058,2.98,5.975,4.54,11.825,4.54ZM23.659,30.934c-.025.308-.676.957-2.414,1.548-.641.212-1.356.39-2.118.538v-2.996c1.79-.321,3.37-.816,4.532-1.475v2.384ZM17.127,33.321c-1.049.114-2.156.177-3.294.177-1.128,0-2.241-.064-3.299-.181v-3.011c1.074.111,2.186.167,3.295.167s2.223-.057,3.298-.168v3.016ZM8.534,33.016c-.761-.148-1.472-.324-2.098-.533-.026-.009-.054-.016-.082-.023-1.724-.586-2.352-1.243-2.352-1.546,0-.005-.003-.009-.003-.015v-2.349c1.163.659,2.744,1.154,4.534,1.475v2.99ZM4.003,35.937c0-.005-.003-.009-.003-.015v-2.315c.481.271,1.067.533,1.79.773.027.009.057.017.086.024.802.263,1.697.481,2.658.652v2.989c-2.996-.591-4.531-1.587-4.531-2.109ZM10.534,38.349v-3.016c1.058.108,2.167.164,3.299.164s2.236-.056,3.294-.164v3.016c-.989.107-2.086.17-3.294.17s-2.309-.063-3.299-.171ZM19.127,38.047v-2.99c.997-.177,1.925-.404,2.755-.679.717-.244,1.298-.506,1.777-.777v2.337s.002.006.002.01c-.021.526-1.555,1.512-4.534,2.099ZM13.829,23.318c6.485,0,9.83,1.807,9.83,2.578s-3.345,2.578-9.83,2.578-9.829-1.807-9.829-2.578,3.344-2.578,9.829-2.578Z"/>
</svg>