<?xml version="1.0" encoding="UTF-8"?>
<svg id="Layer_1" data-name="Layer 1" xmlns="http://www.w3.org/2000/svg" viewBox="0 0 64 64">
  <defs>
    <style>
      .cls-1 {
        fill: #000;
        stroke-width: 0px;
      }
    </style>
  </defs>
  <path class="cls-1" d="M46.387,41.665c0-.01-.006-.019-.006-.029v-6.173c0-3.56-7.236-5.422-14.384-5.422s-14.384,1.862-14.384,5.422v12.412c0,.016.008.029.009.045.066,3.532,7.264,5.381,14.38,5.381s14.385-1.864,14.385-5.429c0-.01-.006-.019-.006-.029v-6.044c.002-.045.006-.09.006-.134ZM22.785,43.828c-.028-.01-.059-.019-.09-.025-2.126-.721-3.079-1.59-3.079-2.138,0-.005-.003-.009-.003-.015v-3.294c1.464.923,3.617,1.598,6.075,2.017v4.175c-1.06-.194-2.044-.435-2.903-.721ZM27.688,40.65c1.4.153,2.854.234,4.309.234s2.911-.081,4.312-.234v4.199c-1.368.158-2.816.245-4.307.245-1.478,0-2.935-.09-4.313-.25v-4.193ZM38.309,40.373c2.457-.419,4.609-1.094,6.072-2.016v3.336c-.031.545-1.005,1.407-3.145,2.134-.88.291-1.868.534-2.928.728v-4.182ZM31.997,32.041c7.444,0,12.384,2.06,12.384,3.422s-4.939,3.421-12.384,3.421-12.384-2.059-12.384-3.421,4.939-3.422,12.384-3.422ZM19.616,47.872c0-.005-.003-.009-.003-.015v-3.278c.636.401,1.455.79,2.522,1.145.03.011.062.019.094.025,1.037.341,2.205.619,3.459.834v4.168c-3.791-.706-6.072-1.953-6.072-2.88ZM27.688,51.051v-4.19c1.378.151,2.827.233,4.313.233s2.928-.082,4.307-.232v4.191c-1.314.155-2.752.249-4.307.249s-2.997-.094-4.313-.25ZM38.309,50.753v-4.17c1.292-.221,2.497-.507,3.564-.861,1.059-.36,1.874-.751,2.508-1.151v3.303s.002.008.002.012c-.024.926-2.3,2.164-6.075,2.866Z"/>
  <path class="cls-1" d="M22.321,21.304c.129.397.49.674.907.692.437.021.803-.225.966-.608l1.762-4.156,1.559,4.119c.147.39.52.646.936.646h.005c.417-.002.789-.263.934-.654l2.374-6.451c.19-.519-.075-1.094-.593-1.284-.518-.189-1.094.074-1.284.593l-1.448,3.937-1.493-3.944c-.145-.383-.508-.639-.916-.646-.429.003-.78.233-.94.609l-1.687,3.979-1.256-3.896c-.169-.525-.733-.812-1.259-.646-.525.17-.814.733-.646,1.259l2.08,6.451Z"/>
  <path class="cls-1" d="M34.396,21.997c.553,0,1-.447,1-1v-6.451c0-.553-.447-1-1-1s-1,.447-1,1v6.451c0,.553.447,1,1,1Z"/>
  <path class="cls-1" d="M38.149,21.997c.553,0,1-.447,1-1v-3.357l2.847,3.942c.191.266.495.415.811.415.103,0,.206-.016.308-.049.413-.133.692-.518.692-.951v-6.451c0-.553-.447-1-1-1s-1,.447-1,1v3.357l-2.847-3.942c-.253-.352-.703-.502-1.118-.366-.413.133-.692.518-.692.951v6.451c0,.553.447,1,1,1Z"/>
  <path class="cls-1" d="M50.148,10.699H13.854c-.553,0-1,.447-1,1v4.552H3c-.365,0-.701.199-.877.52s-.162.711.034,1.019l3.119,4.883-3.118,4.872c-.197.308-.211.698-.035,1.02.175.32.512.52.877.52h18.758c.553,0,1-.447,1-1v-3.239h18.484v3.239c0,.553.447,1,1,1h18.758c.365,0,.702-.199.877-.52.176-.321.162-.712-.035-1.02l-3.118-4.872,3.119-4.883c.196-.308.21-.698.034-1.019s-.512-.52-.877-.52h-9.852v-4.552c0-.553-.447-1-1-1ZM14.854,12.699h34.294v10.145h-6.901s-.003,0-.005,0-.003,0-.005,0h-20.475s-.003,0-.005,0-.003,0-.005,0h-6.898v-10.145ZM20.758,27.083H4.827l2.479-3.872c.211-.328.211-.749,0-1.077l-2.48-3.883h8.028v5.593c0,.553.447,1,1,1h6.903v2.239ZM59.174,18.251l-2.48,3.883c-.21.328-.21.749,0,1.077l2.479,3.872h-15.931v-2.239h6.906c.553,0,1-.447,1-1v-5.593h8.025Z"/>
</svg>