<?xml version="1.0" encoding="UTF-8"?>
<svg id="Layer_1" data-name="Layer 1" xmlns="http://www.w3.org/2000/svg" viewBox="0 0 64 64">
  <defs>
    <style>
      .cls-1 {
        fill: #000;
        stroke-width: 0px;
      }
    </style>
  </defs>
  <path class="cls-1" d="M45.058,32.559V7.934c0-.553-.448-1-1-1H8.737c-.552,0-1,.447-1,1v24.625c0,.553.448,1,1,1h35.321c.552,0,1-.447,1-1ZM9.737,8.934h9.773v22.625h-9.773V8.934ZM21.511,8.934h9.774v22.625h-9.774V8.934ZM43.058,31.559h-9.773V8.934h9.773v22.625Z"/>
  <path class="cls-1" d="M14.624,16.924c-.552,0-1,.447-1,1v4.644c0,.553.448,1,1,1s1-.447,1-1v-4.644c0-.553-.448-1-1-1Z"/>
  <path class="cls-1" d="M26.398,16.924c-.552,0-1,.447-1,1v4.644c0,.553.448,1,1,1s1-.447,1-1v-4.644c0-.553-.448-1-1-1Z"/>
  <path class="cls-1" d="M38.171,23.567c.552,0,1-.447,1-1v-4.644c0-.553-.448-1-1-1s-1,.447-1,1v4.644c0,.553.448,1,1,1Z"/>
  <path class="cls-1" d="M17.05,36.7c-.25-.101-.52-.101-.77,0-.12.05-.23.13-.32.22-.19.189-.3.439-.3.71,0,.13.03.26.08.38.05.12.12.23.22.32.19.189.44.3.71.3.26,0,.51-.11.7-.3.19-.181.29-.431.29-.7s-.1-.521-.29-.71c-.09-.09-.2-.16-.32-.22Z"/>
  <path class="cls-1" d="M20.82,36.92c-.18.189-.29.439-.29.71s.11.52.29.7c.1.1.21.17.33.22s.25.08.38.08c.27,0,.52-.11.71-.3.09-.09.17-.2.22-.32.05-.12.07-.25.07-.38,0-.26-.1-.521-.29-.71-.37-.37-1.05-.37-1.42,0Z"/>
  <path class="cls-1" d="M26.78,36.7c-.25-.101-.52-.101-.76,0-.13.05-.24.13-.33.22-.19.189-.29.439-.29.71,0,.13.02.26.07.38.05.12.13.23.22.32.1.1.2.17.32.22.13.05.26.08.39.08.27,0,.52-.11.7-.3.1-.09.17-.2.22-.32s.08-.25.08-.38c0-.271-.11-.521-.3-.71-.09-.09-.2-.16-.32-.22Z"/>
  <path class="cls-1" d="M30.88,36.7c-.12.05-.23.13-.32.22-.19.189-.29.439-.29.71s.1.52.29.7c.09.1.2.17.32.22s.25.08.38.08c.27,0,.52-.11.71-.3.19-.181.29-.431.29-.7s-.1-.521-.29-.71c-.28-.28-.72-.37-1.09-.22Z"/>
  <path class="cls-1" d="M36.51,38.55c.13-.05.23-.12.33-.22.09-.09.16-.2.22-.32.05-.12.07-.25.07-.38,0-.26-.11-.521-.29-.71-.09-.09-.2-.17-.33-.22-.36-.15-.81-.061-1.09.22-.18.189-.29.439-.29.71s.1.52.29.7c.19.189.44.3.71.3.13,0,.26-.03.38-.08Z"/>
  <path class="cls-1" d="M60.922,51.803c0-.009-.005-.017-.005-.027v-5.337c0-2.934-5.431-4.569-11.199-4.794V3c0-.553-.448-1-1-1H4.078c-.552,0-1,.447-1,1v44.649c0,.553.448,1,1,1h31.693v8.523c0,.013.007.024.007.037.054,3.144,6.348,4.79,12.57,4.79s12.575-1.659,12.575-4.83c0-.009-.005-.017-.005-.027v-5.216c.002-.042.005-.084.005-.125ZM40.42,53.546c-.026-.01-.054-.017-.083-.023-1.88-.639-2.565-1.376-2.565-1.72,0-.004-.002-.008-.002-.012v-2.628c1.254.736,2.999,1.284,4.983,1.634v3.336c-.849-.161-1.64-.356-2.333-.587ZM44.754,51.076c1.169.123,2.38.187,3.59.187s2.423-.064,3.593-.187v3.361c-1.142.127-2.348.197-3.589.197-1.23,0-2.443-.072-3.594-.201v-3.356ZM53.937,50.796c1.984-.35,3.727-.899,4.98-1.634v2.666c-.027.307-.597,1.026-2.626,1.717-.711.235-1.506.431-2.354.593v-3.342ZM58.917,46.439c0,.995-4.014,2.823-10.573,2.823s-10.573-1.828-10.573-2.823,4.014-2.823,10.573-2.823c.113,0,.219.005.33.006.016,0,.029.009.044.009.013,0,.024-.007.037-.008,6.311.076,10.162,1.842,10.162,2.816ZM20.215,46.648v-3.478c0-.478.388-.865.866-.865h10.633c.478,0,.866.388.866.865v3.478h-12.365ZM34.58,46.649v-3.479c0-1.58-1.286-2.865-2.866-2.865h-10.633c-1.58,0-2.866,1.285-2.866,2.865v3.479H5.078V4h42.64v37.627c-6.037.107-11.947,1.753-11.947,4.813v.21h-1.19ZM37.773,57.17s-.002-.008-.002-.012v-2.592c.527.307,1.185.604,2.003.877.028.01.057.018.087.024.871.285,1.845.522,2.893.705v3.325c-3.168-.615-4.981-1.658-4.981-2.327ZM44.754,59.802v-3.353c1.151.12,2.359.184,3.594.184s2.437-.063,3.589-.184v3.353c-1.09.123-2.287.198-3.589.198s-2.502-.075-3.594-.198ZM53.937,59.498v-3.326c1.082-.19,2.091-.434,2.991-.731.812-.276,1.465-.574,1.99-.881v2.614s.002.007.002.011c-.023.67-1.832,1.703-4.983,2.314Z"/>
</svg>