<?xml version="1.0" encoding="UTF-8"?>
<svg id="Layer_1" data-name="Layer 1" xmlns="http://www.w3.org/2000/svg" viewBox="0 0 64 64">
  <defs>
    <style>
      .cls-1 {
        fill: #000;
        stroke-width: 0px;
      }
    </style>
  </defs>
  <path class="cls-1" d="M16.372,57.579c6.971,0,14.38-2.205,14.38-6.291,0-.006-.003-.011-.003-.017v-7.667c0-.01.003-.02.003-.03,0-.006-.003-.011-.003-.017v-7.666c0-.01.003-.02.003-.03,0-.006-.003-.011-.003-.017v-7.676c0-.01.003-.02.003-.03,0-.006-.003-.011-.003-.017v-7.667c0-.01.003-.02.003-.03,0-.006-.003-.011-.003-.017v-7.699c0-4.084-7.406-6.288-14.375-6.288S2,8.625,2,12.708v38.58c0,.008.004.014.004.022.028,4.071,7.414,6.268,14.368,6.268ZM28.749,43.595c-.018.975-1.38,2.084-3.564,2.898-2.388.878-5.518,1.362-8.812,1.362s-6.423-.484-8.798-1.361c-2.203-.821-3.572-1.94-3.572-2.92,0-.003-.002-.006-.002-.01v-4.404c.759.559,1.721,1.064,2.878,1.495,2.595.958,5.967,1.486,9.494,1.486s6.897-.527,9.506-1.487c1.154-.43,2.113-.932,2.87-1.49v4.43ZM28.749,35.882c-.018.975-1.38,2.084-3.564,2.898-2.389.878-5.519,1.362-8.812,1.362s-6.422-.484-8.798-1.361c-2.203-.821-3.572-1.94-3.572-2.92,0-.003-.002-.006-.002-.01v-4.405c.759.56,1.721,1.065,2.878,1.496,2.595.958,5.966,1.486,9.494,1.486s6.898-.528,9.506-1.487c1.154-.43,2.113-.933,2.87-1.491v4.431ZM28.749,28.159c-.018.981-1.38,2.094-3.564,2.907-2.389.879-5.519,1.363-8.812,1.363s-6.423-.484-8.798-1.361c-2.203-.821-3.572-1.943-3.572-2.929,0-.003-.002-.006-.002-.01v-4.404c.758.559,1.719,1.063,2.875,1.493,2.585.965,5.958,1.497,9.498,1.497s6.911-.532,9.506-1.497c1.154-.43,2.113-.932,2.87-1.49v4.43ZM28.749,20.445c-.018.975-1.38,2.084-3.568,2.899-2.377.885-5.506,1.372-8.809,1.372s-6.431-.487-8.798-1.371c-2.203-.821-3.572-1.94-3.572-2.92,0-.003-.002-.006-.002-.01v-4.392c2.672,1.947,7.622,2.974,12.374,2.974s9.703-1.027,12.375-2.974v4.422ZM16.372,55.579c-7.664,0-12.37-2.499-12.37-4.291,0-.003-.002-.006-.002-.01v-4.404c.759.559,1.721,1.064,2.878,1.495,2.594.958,5.966,1.486,9.494,1.486s6.899-.527,9.506-1.487c1.154-.43,2.113-.932,2.87-1.49v4.41s.002.006.002.009c-.016,1.791-4.722,4.281-12.378,4.281ZM16.374,8.421c7.083,0,12.375,2.264,12.375,4.288s-5.292,4.288-12.375,4.288-12.374-2.264-12.374-4.288,5.292-4.288,12.374-4.288Z"/>
  <path class="cls-1" d="M47.622,21.855c-6.968,0-14.375,2.204-14.375,6.288,0,.012.004.022.004.034v7.672s-.002.006-.002.01c0,.006.002.011.002.017v7.687s-.002.006-.002.01c0,.006.002.011.002.017v7.71c0,1.915,1.729,3.617,4.877,4.795,2.612.958,5.982,1.485,9.489,1.485s6.875-.527,9.513-1.487c3.141-1.176,4.87-2.878,4.87-4.793v-23.155c0-.017-.009-.032-.01-.049-.059-4.052-7.428-6.24-14.369-6.24ZM60,35.856s0,.002,0,.002c0,.98-1.369,2.099-3.571,2.919-2.377.884-5.505,1.371-8.809,1.371s-6.432-.487-8.798-1.371c-2.195-.818-3.559-1.931-3.57-2.908v-4.411c2.673,1.945,7.621,2.971,12.371,2.971s9.708-1.028,12.378-2.976v4.403ZM35.251,39.161c.757.558,1.717,1.061,2.871,1.491,2.584.965,5.958,1.497,9.498,1.497s6.912-.531,9.507-1.497c1.155-.431,2.116-.934,2.874-1.493v4.41s0,.002,0,.002c0,.986-1.369,2.108-3.568,2.928-2.389.879-5.519,1.363-8.812,1.363s-6.423-.484-8.798-1.361c-2.195-.818-3.559-1.935-3.57-2.918v-4.422ZM47.622,23.855c7.082,0,12.374,2.264,12.374,4.288s-5.292,4.287-12.374,4.287-12.329-2.245-12.371-4.263v-.023s-.002-.007-.002-.011c.018-2.021,5.302-4.277,12.373-4.277ZM56.437,54.215c-2.416.879-5.549,1.364-8.82,1.364s-6.404-.484-8.794-1.36c-2.203-.825-3.572-1.944-3.572-2.92v-4.416c.758.559,1.719,1.063,2.874,1.494,2.595.958,5.966,1.486,9.494,1.486s6.898-.528,9.507-1.487c1.155-.431,2.116-.935,2.874-1.494v4.418c0,.976-1.369,2.095-3.563,2.917Z"/>
</svg>