<?xml version="1.0" encoding="UTF-8"?>
<svg id="Layer_1" data-name="Layer 1" xmlns="http://www.w3.org/2000/svg" viewBox="0 0 64 64">
  <defs>
    <style>
      .cls-1 {
        fill: #000;
        stroke-width: 0px;
      }
    </style>
  </defs>
  <path class="cls-1" d="M39.081,25.919c0-3.904-3.177-7.081-7.081-7.081s-7.081,3.176-7.081,7.081c0,2.585,1.397,4.844,3.472,6.081-2.074,1.236-3.472,3.495-3.472,6.081,0,3.904,3.177,7.081,7.081,7.081s7.081-3.176,7.081-7.081c0-2.585-1.397-4.844-3.472-6.081,2.074-1.236,3.472-3.495,3.472-6.081ZM37.081,38.081c0,2.801-2.279,5.081-5.081,5.081s-5.081-2.279-5.081-5.081,2.279-5.081,5.081-5.081,5.081,2.279,5.081,5.081ZM26.919,25.919c0-2.801,2.279-5.081,5.081-5.081s5.081,2.279,5.081,5.081-2.279,5.081-5.081,5.081-5.081-2.279-5.081-5.081Z"/>
  <path class="cls-1" d="M32,9.742c-12.273,0-22.258,9.985-22.258,22.258s9.984,22.258,22.258,22.258,22.258-9.985,22.258-22.258-9.984-22.258-22.258-22.258ZM32,52.258c-11.17,0-20.258-9.088-20.258-20.258s9.088-20.258,20.258-20.258,20.258,9.088,20.258,20.258-9.088,20.258-20.258,20.258Z"/>
  <path class="cls-1" d="M32,2C15.458,2,2,15.458,2,32s13.458,30,30,30,30-13.458,30-30S48.542,2,32,2ZM32,60c-15.439,0-28-12.561-28-28S16.561,4,32,4s28,12.561,28,28-12.561,28-28,28Z"/>
</svg>