<svg width="295" height="284" viewBox="0 0 295 284" fill="none" xmlns="http://www.w3.org/2000/svg">
<path d="M212.855 103.469C188.392 103.469 168.493 123.393 168.493 147.887C168.493 172.381 188.392 192.305 212.855 192.305C237.318 192.305 257.217 172.381 257.217 147.887C257.217 123.393 237.318 103.469 212.855 103.469ZM69.5105 254.387L37.3178 222.154L42.6708 216.794L74.8632 249.027L69.5105 254.387ZM286.333 58.4732L233.389 5.46255C226.138 -1.80718 213.48 -1.80718 206.23 5.46255L66.3746 145.493C61.5142 150.359 59.873 157.698 62.1892 164.178C64.6739 171.122 71.0769 175.752 79.3186 176.551C80.0973 176.631 80.4371 177.134 80.5851 177.548C80.7083 177.899 80.8316 178.585 80.2205 179.197L49.6447 209.811L81.8371 242.044L109.623 214.223C110.348 213.498 111.191 213.123 112.127 213.123C113.635 213.123 115.518 214.174 116.115 216.488C118.323 225.13 125.456 230.939 133.86 230.939C138.631 230.939 143.111 229.078 146.488 225.698L180.667 191.471C167.333 181.571 158.638 165.748 158.638 147.892C158.638 117.959 182.964 93.603 212.859 93.603C230.693 93.603 246.501 102.309 256.384 115.659L286.339 85.672C293.826 78.1752 293.826 65.9701 286.333 58.4729L286.333 58.4732ZM12.7364 246.767C9.88284 249.624 8.31006 253.425 8.31006 257.476C8.31006 261.518 9.88256 265.323 12.7364 268.181L23.5412 278.999C26.3951 281.857 30.1955 283.431 34.2327 283.431C38.2699 283.431 42.07 281.857 44.9241 278.999L62.541 261.36L30.3486 229.128L12.7364 246.767Z" fill="white"/>
</svg>
