<?xml version="1.0" encoding="UTF-8"?>
<svg id="Layer_1" data-name="Layer 1" xmlns="http://www.w3.org/2000/svg" viewBox="0 0 64 64">
  <defs>
    <style>
      .cls-1 {
        fill: #000;
        stroke-width: 0px;
      }
    </style>
  </defs>
  <path class="cls-1" d="M61.193,12.712l-29-5.709c-.128-.025-.259-.025-.387,0L2.807,12.712c-.469.093-.807.504-.807.981v36.613c0,.478.338.889.807.981l29,5.709c.064.013.129.019.193.019s.129-.006.193-.019l29-5.709c.469-.093.807-.504.807-.981V13.693c0-.478-.338-.889-.807-.981ZM60,49.484l-28,5.512-28-5.512V14.516l28-5.512,28,5.512v34.969Z"/>
  <path class="cls-1" d="M24.724,24.207c0,1,.208,1.985.601,2.893-3.708.33-6.625,3.454-6.625,7.246,0,4.012,3.264,7.276,7.276,7.276.767,0,1.522-.121,2.242-.354l-.389,4.719c-.023.278.072.554.261.76.189.205.457.322.736.322h6.351c.279,0,.546-.117.735-.322.189-.206.284-.481.261-.76l-.419-5.081c.729.24,1.494.364,2.271.364,4.012,0,7.276-3.264,7.276-7.275,0-3.745-2.845-6.839-6.487-7.233.305-.811.462-1.673.462-2.554,0-4.012-3.264-7.275-7.276-7.275s-7.276,3.264-7.276,7.275ZM37.276,24.207c0,1.079-.327,2.119-.944,3.007-.227.326-.239.756-.031,1.095s.595.525.991.467c.24-.033.484-.058.733-.058,2.909,0,5.276,2.367,5.276,5.276s-2.367,5.275-5.276,5.275c-1.019,0-2.01-.294-2.866-.85-.319-.208-.731-.216-1.057-.02-.328.195-.515.561-.484.94l.472,5.728h-4.179l.442-5.358c.031-.379-.156-.743-.482-.939-.327-.195-.736-.19-1.056.017-.848.546-1.83.835-2.839.835-2.909,0-5.276-2.367-5.276-5.276s2.367-5.275,5.276-5.275c.322,0,.644.031.985.095.414.079.831-.111,1.045-.473.214-.362.179-.819-.087-1.144-.77-.939-1.194-2.126-1.194-3.342,0-2.909,2.367-5.275,5.276-5.275s5.276,2.366,5.276,5.275Z"/>
  <path class="cls-1" d="M52.077,25.662c2.828,0,5.129-2.301,5.129-5.129s-2.301-5.129-5.129-5.129-5.129,2.301-5.129,5.129,2.301,5.129,5.129,5.129ZM52.077,17.404c1.726,0,3.129,1.403,3.129,3.129s-1.404,3.129-3.129,3.129-3.129-1.403-3.129-3.129,1.404-3.129,3.129-3.129Z"/>
  <path class="cls-1" d="M52.077,48.596c2.828,0,5.129-2.301,5.129-5.129s-2.301-5.129-5.129-5.129-5.129,2.301-5.129,5.129,2.301,5.129,5.129,5.129ZM52.077,40.338c1.726,0,3.129,1.403,3.129,3.129s-1.404,3.129-3.129,3.129-3.129-1.403-3.129-3.129,1.404-3.129,3.129-3.129Z"/>
  <path class="cls-1" d="M11.923,15.404c-2.828,0-5.129,2.301-5.129,5.129s2.301,5.129,5.129,5.129,5.129-2.301,5.129-5.129-2.301-5.129-5.129-5.129ZM11.923,23.662c-1.726,0-3.129-1.403-3.129-3.129s1.404-3.129,3.129-3.129,3.129,1.403,3.129,3.129-1.404,3.129-3.129,3.129Z"/>
  <path class="cls-1" d="M11.923,38.338c-2.828,0-5.129,2.301-5.129,5.129s2.301,5.129,5.129,5.129,5.129-2.301,5.129-5.129-2.301-5.129-5.129-5.129ZM11.923,46.596c-1.726,0-3.129-1.403-3.129-3.129s1.404-3.129,3.129-3.129,3.129,1.403,3.129,3.129-1.404,3.129-3.129,3.129Z"/>
</svg>