<?xml version="1.0" encoding="UTF-8"?>
<svg id="Layer_1" data-name="Layer 1" xmlns="http://www.w3.org/2000/svg" viewBox="0 0 64 64">
  <defs>
    <style>
      .cls-1 {
        fill: #000;
        stroke-width: 0px;
      }
    </style>
  </defs>
  <path class="cls-1" d="M6.152,21.95v29.917h-2.895c-.552,0-1,.448-1,1,0,5.036,4.097,9.133,9.133,9.133h41.22c5.036,0,9.133-4.097,9.133-9.133,0-.552-.448-1-1-1h-2.895v-29.917c0-1.502-1.227-2.725-2.734-2.725h-11.665c.229-.664.359-1.373.359-2.113,0-3.3-2.467-6.035-5.654-6.457.238-.683.361-1.405.361-2.141,0-3.592-2.922-6.514-6.514-6.514s-6.514,2.922-6.514,6.514c0,.839.164,1.667.474,2.436-3.241.372-5.767,3.132-5.767,6.472,0,.626.094,1.23.26,1.804h-11.566c-1.508,0-2.734,1.222-2.734,2.725ZM38.314,53.867l-.756,1.59c-.138.289-.434.476-.754.476h-9.607c-.32,0-.616-.187-.754-.476l-.756-1.59h12.628ZM52.61,60H11.39c-3.594,0-6.575-2.672-7.063-6.133h19.144l1.165,2.45c.467.982,1.472,1.617,2.56,1.617h9.607c1.087,0,2.092-.635,2.56-1.617l1.165-2.45h19.144c-.488,3.461-3.469,6.133-7.063,6.133ZM26.707,12.907c.27,0,.553.028.841.082.417.076.832-.111,1.046-.472.215-.362.18-.819-.086-1.144-.659-.804-1.021-1.819-1.021-2.859,0-2.489,2.025-4.514,4.514-4.514s4.514,2.025,4.514,4.514c0,.923-.279,1.813-.808,2.572-.227.326-.239.756-.031,1.095s.598.525.991.467c.206-.029.414-.049.627-.049,2.489,0,4.514,2.025,4.514,4.514s-2.025,4.514-4.514,4.514c-.872,0-1.72-.251-2.451-.727-.32-.208-.73-.217-1.058-.02-.328.195-.515.561-.484.94l.404,4.901h-3.407l.377-4.576c.031-.379-.155-.744-.482-.939-.326-.195-.735-.189-1.056.016-.727.467-1.566.714-2.429.714-2.489,0-4.514-2.025-4.514-4.514s2.025-4.514,4.514-4.514ZM32,35.339c1.481,0,2.963-.083,4.388-.239v4.287c-1.393.161-2.868.25-4.387.25-1.505,0-2.989-.092-4.392-.256v-4.282c1.426.156,2.909.239,4.391.239ZM25.609,39.088c-1.084-.198-2.089-.444-2.967-.736-.029-.009-.059-.018-.09-.024-2.167-.735-3.137-1.625-3.137-2.186,0-.005-.003-.009-.003-.015v-3.363c1.487.945,3.686,1.633,6.197,2.06v4.264ZM19.412,39.073c.647.411,1.486.811,2.581,1.176.03.01.061.018.093.025,1.056.347,2.245.629,3.523.847v4.261c-3.867-.719-6.194-1.994-6.194-2.941,0-.005-.003-.009-.003-.015v-3.354ZM27.609,41.399c1.403.154,2.878.238,4.392.238s2.983-.083,4.387-.237v4.283c-1.338.159-2.803.255-4.387.255s-3.052-.096-4.392-.255v-4.283ZM38.388,41.122c1.316-.224,2.542-.515,3.628-.875,1.087-.37,1.92-.771,2.565-1.181v3.379s.003.009.003.014c-.026.945-2.347,2.21-6.196,2.925v-4.262ZM44.582,36.174c-.032.52-.882,1.387-3.202,2.177-.899.298-1.908.545-2.992.743v-4.271c2.51-.427,4.708-1.116,6.193-2.061v3.412ZM37.391,32.972s-.002,0-.003,0c-.005,0-.009.003-.013.003-1.55.226-3.342.365-5.375.365-7.563,0-12.583-2.098-12.588-3.487v-.005c.005-1.059,3.158-2.763,8.893-3.316l-.091,1.108c-.023.278.072.554.261.759.189.206.456.323.735.323h5.579c.279,0,.546-.117.735-.323.189-.206.284-.481.261-.759l-.091-1.108c5.733.553,8.884,2.26,8.884,3.319,0,.917-2.452,2.431-7.187,3.123ZM26.707,23.935c.625,0,1.242-.09,1.834-.264l-.069.838c-5.288.466-11.06,2.098-11.06,5.34,0,.001,0,.003,0,.004v12.592c0,.016.008.029.009.045.066,3.576,7.365,5.448,14.58,5.448s14.586-1.888,14.586-5.496c0-.011-.006-.02-.006-.031v-6.124c.003-.049.006-.098.006-.144,0-.011-.006-.02-.006-.031v-6.264c0-.014-.007-.025-.008-.039-.051-3.214-5.786-4.835-11.045-5.298l-.095-1.154c.6.179,1.225.271,1.859.271,2.033,0,3.85-.937,5.045-2.4h12.775c.405,0,.734.325.734.725v29.914H8.152v-29.914c0-.399.33-.725.734-.725h12.543c1.184,1.638,3.106,2.71,5.277,2.71Z"/>
</svg>