<?xml version="1.0" encoding="UTF-8"?>
<svg id="Layer_1" data-name="Layer 1" xmlns="http://www.w3.org/2000/svg" viewBox="0 0 64 64">
  <defs>
    <style>
      .cls-1 {
        fill: #000;
        stroke-width: 0px;
      }
    </style>
  </defs>
  <path class="cls-1" d="M51.146,26.697c0-5.498-4.347-9.999-9.783-10.248.589-1.311.896-2.731.896-4.19,0-5.657-4.603-10.259-10.259-10.259s-10.259,4.602-10.259,10.259c0,1.641.397,3.256,1.142,4.701-5.551.123-10.029,4.676-10.029,10.257,0,2.833,1.155,5.402,3.019,7.26-2.346,1.349-2.899,2.785-2.903,3.823,0,.006-.003.011-.003.017v16.721c0,.011.006.02.006.031.037,3.296,5.288,5.48,11.709,6.414.055.009.105.033.163.033.01,0,.017-.005.027-.005,2.295.324,4.731.49,7.13.49s4.832-.166,7.126-.49c.008,0,.015.005.024.005.051,0,.095-.022.143-.029,6.457-.935,11.739-3.132,11.739-6.453,0-.015-.008-.028-.009-.044v-8.125c.004-.065.009-.13.009-.193,0-.015-.008-.028-.009-.044v-8.253c0-.021.006-.042.006-.064,0-1.105-.614-2.63-3.261-4.03,2.068-1.878,3.376-4.579,3.376-7.586ZM14.854,27.217c0-4.554,3.705-8.259,8.259-8.259.498,0,1.016.05,1.538.149.415.079.832-.11,1.046-.472.215-.362.181-.819-.086-1.145-1.205-1.471-1.869-3.329-1.869-5.232,0-4.554,3.705-8.259,8.259-8.259s8.259,3.705,8.259,8.259c0,1.689-.511,3.317-1.479,4.708-.227.326-.239.755-.031,1.094s.6.527.99.467c.441-.061.807-.09,1.148-.09,4.554,0,8.259,3.705,8.259,8.259s-3.705,8.259-8.259,8.259c-1.596,0-3.147-.46-4.486-1.331-.325-.212-.745-.216-1.074-.01-.33.206-.511.584-.463.97l.69,5.637h-7.105l.642-5.087c.049-.385-.131-.764-.459-.971-.328-.207-.746-.205-1.074.005-1.329.855-2.866,1.307-4.445,1.307-4.554,0-8.259-3.705-8.259-8.259ZM49.025,46.717c-.047,1.049-1.75,2.271-4.474,3.198-1.313.435-2.799.79-4.4,1.066v-6.339c3.997-.655,7.038-1.729,8.874-3.083v5.159ZM38.151,51.269c-1.945.238-4.016.369-6.149.369s-4.213-.131-6.157-.369v-6.349c1.967.231,4.028.355,6.155.355s4.19-.124,6.151-.355v6.35ZM23.845,50.979c-1.592-.275-3.067-.63-4.368-1.064-.032-.011-.067-.02-.104-.027-3.244-1.096-4.402-2.377-4.402-3.216,0-.007-.004-.013-.004-.019v-5.099c1.835,1.357,4.878,2.433,8.879,3.089v6.337ZM14.97,55.034c0-.007-.004-.013-.004-.019v-5.084c.957.706,2.234,1.341,3.855,1.882.033.011.069.021.106.028,1.464.482,3.128.868,4.917,1.161v6.341c-5.625-.973-8.875-2.844-8.875-4.31ZM25.845,59.636v-6.354c1.957.23,4.027.357,6.157.357s4.191-.126,6.149-.356v6.355c-1.854.226-3.903.363-6.149.363s-4.301-.137-6.157-.364ZM40.151,59.345v-6.342c1.832-.299,3.538-.695,5.037-1.192,1.726-.587,2.958-1.227,3.837-1.873v5.1c0,.007.004.013.004.021-.035,1.463-3.279,3.319-8.878,4.286ZM49.029,38.299c0,.006-.004.011-.004.018v.038c-.062,1.508-3.498,3.506-10.021,4.445-4.394.631-9.603.631-14.02,0-6.576-.947-10.017-2.974-10.017-4.487,0-.789.948-1.676,2.608-2.471,1.599,1.03,3.496,1.635,5.535,1.635,1.295,0,2.567-.245,3.758-.716l-.547,4.337c-.036.285.053.571.242.787.189.215.463.338.75.338h9.369c.286,0,.559-.123.749-.337.189-.214.278-.5.243-.784l-.598-4.879c1.205.484,2.494.735,3.809.735,1.832,0,3.55-.489,5.04-1.334,1.936.835,3.089,1.818,3.101,2.677Z"/>
</svg>