<?xml version="1.0" encoding="UTF-8"?>
<svg id="Layer_1" data-name="Layer 1" xmlns="http://www.w3.org/2000/svg" viewBox="0 0 64 64">
  <defs>
    <style>
      .cls-1 {
        fill: #000;
        stroke-width: 0px;
      }
    </style>
  </defs>
  <path class="cls-1" d="M36.053,2H7.811c-1.919,0-3.48,1.561-3.48,3.479v53.041c0,1.919,1.561,3.479,3.48,3.479h28.242c1.919,0,3.48-1.561,3.48-3.479v-8.402h2.948c.535,0,.976-.422.999-.956.092-2.085,1.85-3.331,3.497-3.331.848,0,1.646.32,2.309.927.394.361,1.002.349,1.381-.029l5.61-5.591c.382-.381.393-.997.024-1.392-.602-.643-.92-1.445-.92-2.32,0-1.65,1.244-3.401,3.324-3.478.538-.02.964-.461.964-.999v-7.934c0-.538-.426-.979-.963-.999-2.081-.076-3.325-1.828-3.325-3.479,0-.862.318-1.658.92-2.301.369-.394.358-1.009-.023-1.391l-5.61-5.61c-.378-.379-.988-.393-1.382-.03-.663.606-1.462.928-2.309.928-1.647,0-3.405-1.246-3.497-3.332-.023-.534-.464-.956-.999-.956h-2.948v-2.366c0-1.919-1.561-3.479-3.48-3.479ZM39.533,20.102c4.458.499,7.936,4.291,7.936,8.881s-3.478,8.381-7.936,8.88v-17.761ZM7.811,4h28.242c.816,0,1.48.664,1.48,1.479v45.131H6.331V5.479c0-.815.664-1.479,1.48-1.479ZM36.053,60H7.811c-.816,0-1.48-.664-1.48-1.479v-5.91h31.202v5.91c0,.815-.664,1.479-1.48,1.479ZM41.603,9.846c.581,2.704,3.048,4.288,5.374,4.288,1.023,0,2.024-.302,2.896-.864l4.366,4.366c-.563.862-.857,1.85-.857,2.902,0,2.333,1.584,4.796,4.288,5.36v6.167c-2.704.564-4.288,3.027-4.288,5.36,0,1.062.294,2.056.857,2.92l-4.364,4.35c-.873-.562-1.875-.864-2.898-.864-2.326,0-4.793,1.584-5.374,4.287h-2.07v-8.251c5.563-.507,9.936-5.192,9.936-10.885s-4.373-10.379-9.936-10.886v-8.251h2.07Z"/>
  <path class="cls-1" d="M28.383,55.113h-12.903c-.552,0-1,.447-1,1s.448,1,1,1h12.903c.552,0,1-.447,1-1s-.448-1-1-1Z"/>
  <path class="cls-1" d="M13.899,9.113h.678c.552,0,1-.447,1-1s-.448-1-1-1h-.678c-.552,0-1,.447-1,1s.448,1,1,1Z"/>
  <path class="cls-1" d="M19.851,9.113h10.113c.552,0,1-.447,1-1s-.448-1-1-1h-10.113c-.552,0-1,.447-1,1s.448,1,1,1Z"/>
  <path class="cls-1" d="M16.639,37.753c.625,0,1.241-.09,1.833-.264l-.327,3.967c-.023.278.072.554.261.76.189.205.456.322.735.322h5.58c.279,0,.546-.117.736-.322.189-.206.284-.481.261-.76l-.354-4.284c.6.18,1.225.271,1.859.271,3.592,0,6.514-2.922,6.514-6.514,0-3.301-2.467-6.035-5.654-6.457.238-.684.361-1.404.361-2.141,0-3.592-2.922-6.514-6.514-6.514s-6.514,2.922-6.514,6.514c0,.839.164,1.666.474,2.437-3.241.372-5.766,3.132-5.766,6.471,0,3.592,2.922,6.514,6.514,6.514ZM17.479,26.808c.416.078.832-.109,1.046-.472.215-.361.181-.819-.086-1.145-.659-.804-1.021-1.819-1.021-2.859,0-2.489,2.025-4.514,4.514-4.514s4.514,2.024,4.514,4.514c0,.923-.279,1.812-.808,2.572-.227.327-.239.757-.031,1.095.208.34.599.524.991.467.206-.028.414-.05.627-.05,2.489,0,4.514,2.024,4.514,4.514s-2.025,4.514-4.514,4.514c-.873,0-1.72-.251-2.451-.727-.32-.209-.731-.217-1.058-.021-.328.195-.515.561-.484.94l.404,4.901h-3.408l.377-4.576c.031-.379-.155-.743-.482-.939-.326-.195-.735-.189-1.056.017-.727.467-1.566.714-2.428.714-2.489,0-4.514-2.024-4.514-4.514,0-2.762,2.453-4.989,5.354-4.432Z"/>
</svg>