<?xml version="1.0" encoding="UTF-8"?>
<svg id="Layer_1" data-name="Layer 1" xmlns="http://www.w3.org/2000/svg" viewBox="0 0 64 64">
  <defs>
    <style>
      .cls-1 {
        fill: #000;
        stroke-width: 0px;
      }
    </style>
  </defs>
  <path class="cls-1" d="M19.582,50.773c2.02,0,4-.438,5.818-1.279l-.943,11.424c-.022.278.072.554.262.759s.456.323.735.323h13.092c.279,0,.546-.117.735-.323s.284-.481.262-.759l-1.005-12.176c1.835.857,3.836,1.305,5.88,1.305,7.685,0,13.937-6.252,13.937-13.937s-6.229-13.914-13.895-13.937c.971-1.928,1.477-4.051,1.477-6.236,0-7.685-6.252-13.937-13.937-13.937s-13.937,6.252-13.937,13.937c0,2.453.653,4.861,1.868,6.967-.117-.003-.233-.005-.35-.005-7.685,0-13.937,6.252-13.937,13.937s6.252,13.937,13.937,13.937ZM19.582,24.899c.719,0,1.467.073,2.225.215.417.078.831-.111,1.046-.472.214-.362.18-.819-.087-1.144-1.742-2.125-2.702-4.811-2.702-7.562,0-6.582,5.354-11.937,11.937-11.937s11.937,5.354,11.937,11.937c0,2.443-.739,4.796-2.137,6.805-.228.326-.24.756-.031,1.095.207.338.59.525.99.467.633-.088,1.16-.13,1.659-.13,6.582,0,11.937,5.355,11.937,11.937s-5.354,11.937-11.937,11.937c-2.306,0-4.549-.665-6.485-1.923-.322-.209-.731-.216-1.058-.02-.328.196-.516.561-.484.94l1.069,12.956h-10.92l1.007-12.193c.031-.379-.156-.743-.482-.939s-.735-.188-1.056.016c-1.923,1.236-4.146,1.89-6.427,1.89-6.582,0-11.937-5.355-11.937-11.937s5.354-11.937,11.937-11.937Z"/>
  <path class="cls-1" d="M12.577,41.585c.165,0,.333-.041.487-.127.481-.27.654-.879.385-1.361-.203-.363-1.937-3.635-.311-6.724.719-1.366,1.827-2.18,2.63-2.622.484-.267.66-.875.394-1.358-.267-.484-.877-.659-1.358-.394-1.043.575-2.484,1.638-3.435,3.442-2.117,4.022.077,8.172.334,8.632.184.328.523.512.874.512Z"/>
  <path class="cls-1" d="M13.91,43.07c-.19.18-.301.44-.301.7,0,.27.11.53.301.71.18.19.439.29.699.29.271,0,.521-.1.71-.29.19-.18.29-.44.29-.71,0-.26-.1-.52-.29-.7-.369-.38-1.039-.37-1.409,0Z"/>
</svg>