<?xml version="1.0" encoding="UTF-8"?>
<svg id="Layer_1" data-name="Layer 1" xmlns="http://www.w3.org/2000/svg" viewBox="0 0 64 64">
  <defs>
    <style>
      .cls-1 {
        fill: #000;
        stroke-width: 0px;
      }
    </style>
  </defs>
  <path class="cls-1" d="M17.879,2c-1.919,0-3.48,1.561-3.48,3.48v53.04c0,1.919,1.561,3.48,3.48,3.48h28.242c1.919,0,3.48-1.561,3.48-3.48V5.48c0-1.919-1.561-3.48-3.48-3.48h-28.242ZM46.121,60h-28.242c-.816,0-1.48-.664-1.48-1.48v-5.91h31.202v5.91c0,.816-.664,1.48-1.48,1.48ZM47.601,5.48v45.13h-31.202V5.48c0-.816.664-1.48,1.48-1.48h28.242c.816,0,1.48.664,1.48,1.48Z"/>
  <path class="cls-1" d="M38.452,55.113h-12.903c-.552,0-1,.448-1,1s.448,1,1,1h12.903c.552,0,1-.448,1-1s-.448-1-1-1Z"/>
  <path class="cls-1" d="M23.968,9.113h.677c.552,0,1-.448,1-1s-.448-1-1-1h-.677c-.552,0-1,.448-1,1s.448,1,1,1Z"/>
  <path class="cls-1" d="M29.919,9.113h10.113c.552,0,1-.448,1-1s-.448-1-1-1h-10.113c-.552,0-1,.448-1,1s.448,1,1,1Z"/>
  <path class="cls-1" d="M38.152,24.473c.238-.683.361-1.404.361-2.141,0-3.592-2.922-6.514-6.514-6.514s-6.514,2.922-6.514,6.514c0,.839.164,1.667.474,2.436-3.241.372-5.767,3.132-5.767,6.471,0,3.592,2.922,6.514,6.514,6.514.625,0,1.242-.089,1.833-.264l-.327,3.967c-.023.278.072.554.261.759.189.206.456.323.735.323h5.579c.279,0,.546-.117.735-.323.189-.206.284-.481.261-.759l-.353-4.284c.6.179,1.225.271,1.859.271,3.592,0,6.514-2.922,6.514-6.514,0-3.3-2.467-6.035-5.654-6.457ZM37.292,35.443c-.872,0-1.72-.251-2.451-.727-.32-.209-.73-.217-1.058-.02-.328.195-.515.561-.484.94l.404,4.901h-3.407l.377-4.576c.031-.379-.156-.744-.482-.939-.327-.196-.736-.189-1.056.017-.726.467-1.565.714-2.428.714-2.489,0-4.514-2.025-4.514-4.514,0-2.76,2.442-4.982,5.355-4.432.415.076.832-.111,1.046-.472.215-.362.18-.819-.086-1.144-.668-.815-1.021-1.804-1.021-2.859,0-2.489,2.025-4.514,4.514-4.514s4.514,2.025,4.514,4.514c0,.923-.279,1.813-.808,2.572-.227.326-.239.756-.031,1.095.208.338.597.524.991.467.206-.029.414-.05.627-.05,2.489,0,4.514,2.025,4.514,4.514s-2.025,4.514-4.514,4.514Z"/>
</svg>