<?xml version="1.0" encoding="UTF-8"?>
<svg id="Layer_1" data-name="Layer 1" xmlns="http://www.w3.org/2000/svg" viewBox="0 0 64 64">
  <defs>
    <style>
      .cls-1 {
        fill: #000;
        stroke-width: 0px;
      }
    </style>
  </defs>
  <path class="cls-1" d="M10.68,35.438s0,.002,0,.003v18.84c0,.014.007.025.008.039.047,3.662,5.959,6.084,13.177,7.114.026.002.049.015.076.015.005,0,.008-.003.013-.003,2.588.365,5.34.552,8.049.552s5.458-.188,8.046-.552c.004,0,.007.002.011.002.024,0,.043-.012.067-.013,7.253-1.033,13.194-3.471,13.194-7.159,0-.017-.009-.031-.01-.048v-9.295c0-.026.01-.051.01-.078,0-.017-.009-.031-.01-.048v-9.366s0-.002,0-.003c-.001-2.442-2.657-4.534-7.51-5.966,2.136-2.868,3.416-6.409,3.416-10.252,0-9.496-7.725-17.221-17.221-17.221S14.774,9.725,14.774,19.221c0,3.843,1.281,7.384,3.417,10.252-4.853,1.433-7.51,3.526-7.511,5.965ZM51.311,44.909c-.052,1.255-1.958,2.642-5.128,3.721-1.525.505-3.257.914-5.123,1.228v-7.413c4.315-.698,8.072-1.908,10.25-3.596v6.06ZM39.06,50.148c-2.23.278-4.607.43-7.058.43s-4.834-.152-7.062-.43v-7.42c2.294.278,4.693.422,7.059.422s4.765-.143,7.06-.422v7.421ZM22.941,49.857c-1.858-.314-3.58-.722-5.092-1.227-.034-.011-.071-.021-.109-.028-3.121-1.054-5.055-2.486-5.055-3.746,0-.009-.005-.016-.005-.024v-5.983c2.18,1.689,5.942,2.899,10.261,3.597v7.411ZM12.685,54.277c0-.009-.005-.016-.005-.024v-5.979c1.083.848,2.579,1.609,4.512,2.254.035.011.073.021.112.029,1.674.552,3.584.992,5.638,1.323v7.395c-6.496-1.112-10.256-3.292-10.256-4.998ZM24.941,59.57v-7.41c2.241.269,4.616.418,7.062.418s4.814-.148,7.058-.418v7.41c-2.124.267-4.476.429-7.058.429s-4.936-.162-7.062-.43ZM41.06,59.276v-7.396c2.097-.338,4.048-.788,5.759-1.354,1.922-.654,3.411-1.417,4.491-2.261v6.017c0,.008.004.015.005.023-.039,1.702-3.79,3.865-10.255,4.971ZM31.995,4c8.393,0,15.221,6.828,15.221,15.221s-6.828,15.221-15.221,15.221-15.221-6.828-15.221-15.221,6.828-15.221,15.221-15.221ZM19.607,31.153c3.135,3.253,7.525,5.288,12.388,5.288s9.254-2.035,12.388-5.288c5.092,1.343,6.927,3.132,6.927,4.287,0,2.695-8.258,5.71-19.31,5.71s-19.32-3.015-19.32-5.71c0-1.153,1.835-2.942,6.927-4.287Z"/>
  <path class="cls-1" d="M27.043,27.315c.56,0,1.113-.076,1.646-.225l-.299,3.624c-.023.278.072.554.261.759.189.206.456.323.735.323h5.226c.279,0,.546-.117.736-.323.189-.206.284-.481.261-.759l-.323-3.92c.54.153,1.102.231,1.67.231,3.399,0,6.164-2.765,6.164-6.164,0-3.097-2.295-5.667-5.274-6.1.209-.625.317-1.282.317-1.952,0-3.399-2.765-6.164-6.164-6.164s-6.164,2.765-6.164,6.164c0,.766.144,1.522.418,2.229-3.028.388-5.375,2.982-5.375,6.113,0,3.399,2.765,6.164,6.164,6.164ZM27.043,16.987c.252,0,.506.025.777.076.412.076.831-.112,1.045-.473.214-.362.179-.819-.087-1.144-.617-.751-.942-1.663-.942-2.637,0-2.296,1.868-4.164,4.164-4.164s4.164,1.868,4.164,4.164c0,.852-.258,1.672-.745,2.373-.227.326-.239.756-.031,1.094.208.34.6.529.99.467.189-.026.382-.046.579-.046,2.296,0,4.164,1.868,4.164,4.164s-1.868,4.164-4.164,4.164c-.804,0-1.586-.232-2.261-.67-.321-.209-.731-.217-1.058-.02-.328.196-.515.561-.484.94l.373,4.521h-3.054l.348-4.217c.031-.379-.155-.744-.482-.939-.326-.196-.735-.19-1.056.017-.67.431-1.444.659-2.24.659-2.296,0-4.164-1.868-4.164-4.164s1.868-4.164,4.164-4.164Z"/>
</svg>