<?xml version="1.0" encoding="UTF-8"?>
<svg id="Layer_1" data-name="Layer 1" xmlns="http://www.w3.org/2000/svg" viewBox="0 0 64 64">
  <defs>
    <style>
      .cls-1 {
        fill: #000;
        stroke-width: 0px;
      }
    </style>
  </defs>
  <path class="cls-1" d="M14.229,32.77v8.129c0,.552.448,1,1,1h7.682c.552,0,1-.448,1-1v-8.129c3.308.94,6.94.041,9.416-2.436,1.814-1.814,2.813-4.225,2.813-6.788s-.999-4.974-2.813-6.788L19.774,3.205c-.375-.375-1.039-.375-1.414,0l-13.546,13.552c-1.814,1.808-2.813,4.219-2.813,6.79s.999,4.981,2.812,6.788c2.476,2.476,6.109,3.376,9.417,2.436ZM6.227,18.172l12.84-12.846,12.846,12.846c1.436,1.436,2.227,3.345,2.227,5.374s-.791,3.938-2.227,5.374c-2.246,2.246-5.692,2.853-8.58,1.507-.31-.144-.671-.12-.959.063-.288.184-.462.501-.462.843v8.565h-5.682v-8.565c0-.342-.174-.66-.462-.843s-.649-.208-.959-.063c-2.887,1.345-6.335.738-8.582-1.508-1.435-1.431-2.226-3.339-2.226-5.373s.791-3.943,2.227-5.374Z"/>
  <path class="cls-1" d="M53.853,36.35c.445-1.063.675-2.206.675-3.377,0-4.843-3.94-8.784-8.784-8.784s-8.784,3.94-8.784,8.784c0,1.322.301,2.624.867,3.803-4.637.232-8.339,4.079-8.339,8.773,0,4.843,3.94,8.784,8.784,8.784,1.048,0,2.079-.187,3.05-.548l-.513,6.222c-.023.278.072.554.261.759.189.206.456.323.735.323h7.876c.279,0,.546-.117.735-.323.189-.206.284-.481.261-.759l-.55-6.672c.981.37,2.025.562,3.087.562,4.844,0,8.784-3.94,8.784-8.784,0-4.629-3.6-8.434-8.147-8.761ZM53.216,51.896c-1.311,0-2.585-.378-3.685-1.093-.32-.208-.73-.217-1.058-.02-.328.195-.515.561-.484.94l.607,7.365h-5.705l.569-6.906c.031-.379-.155-.743-.482-.939-.326-.195-.735-.189-1.056.016-1.092.703-2.354,1.074-3.651,1.074-3.741,0-6.784-3.043-6.784-6.784s3.043-6.784,6.784-6.784c.407,0,.833.041,1.266.123.413.078.831-.112,1.045-.473.214-.362.179-.819-.087-1.144-.99-1.207-1.535-2.733-1.535-4.297,0-3.741,3.043-6.784,6.784-6.784s6.784,3.043,6.784,6.784c0,1.388-.42,2.725-1.214,3.867-.227.326-.239.756-.031,1.094.208.339.598.526.99.467.363-.05.663-.074.944-.074,3.741,0,6.784,3.043,6.784,6.784s-3.043,6.784-6.784,6.784Z"/>
  <path class="cls-1" d="M9.506,28.5c.117.044.236.065.354.065.403,0,.784-.246.935-.646.196-.517-.064-1.094-.581-1.29-1.309-.496-2.195-1.538-2.259-2.654-.037-.645.214-1.195.431-1.542.292-.469.149-1.085-.319-1.378-.469-.292-1.085-.149-1.378.319-.531.851-.783,1.79-.73,2.715.109,1.903,1.501,3.634,3.547,4.41Z"/>
  <path class="cls-1" d="M35.221,45.54c-.031-.644.248-1.17.487-1.5.325-.447.226-1.072-.22-1.397-.447-.325-1.073-.226-1.397.22-.428.589-.926,1.547-.868,2.771.1,2.093,1.772,3.368,2.282,3.709.17.114.364.168.555.168.323,0,.64-.156.833-.444.307-.459.184-1.08-.276-1.387-.223-.149-1.339-.953-1.396-2.142Z"/>
</svg>