<?xml version="1.0" encoding="UTF-8"?>
<svg id="Layer_1" data-name="Layer 1" xmlns="http://www.w3.org/2000/svg" viewBox="0 0 64 64">
  <defs>
    <style>
      .cls-1 {
        fill: #000;
        stroke-width: 0px;
      }
    </style>
  </defs>
  <path class="cls-1" d="M39.908,25.341l9.887-10.319s.004-.004.006-.006l10.85-11.324c.277-.289.355-.716.198-1.084-.157-.368-.52-.607-.92-.607H4.071c-.4,0-.763.239-.92.607-.157.369-.079.795.198,1.084l20.743,21.649c1.795,1.874,2.784,4.335,2.784,6.931v21.319h-2.553c-2.827,0-5.126,2.3-5.126,5.126v2.283c0,.552.448,1,1,1h23.606c.552,0,1-.448,1-1v-2.283c0-2.827-2.3-5.126-5.126-5.126h-2.553v-21.319c0-2.596.989-5.057,2.784-6.931ZM57.585,4l-8.878,9.266c-1.855-.495-3.686-.718-5.452-.635-2.739.116-4.472.852-6,1.501-1.695.721-3.159,1.337-5.876,1.236-2.513-.1-4.247-.761-5.924-1.4-2.051-.782-3.988-1.52-6.763-.928-.915.202-1.812.533-2.679.978L6.415,4h51.171ZM42.803,58.717v1.283h-21.606v-1.283c0-1.724,1.402-3.126,3.126-3.126h15.354c1.724,0,3.126,1.402,3.126,3.126ZM28.876,53.59v-21.319c0-3.114-1.186-6.066-3.34-8.314l-8.064-8.416c.541-.236,1.091-.424,1.645-.546,2.19-.468,3.706.11,5.625.842,1.742.665,3.717,1.417,6.558,1.529.228.009.448.013.662.013,2.764,0,4.445-.714,6.075-1.407,1.505-.639,2.926-1.243,5.308-1.344,1.219-.06,2.479.051,3.76.309l-8.643,9.02c-2.154,2.248-3.34,5.201-3.34,8.314v21.319h-6.247Z"/>
</svg>