<?xml version="1.0" encoding="UTF-8"?>
<svg id="Layer_1" data-name="Layer 1" xmlns="http://www.w3.org/2000/svg" viewBox="0 0 64 64">
  <defs>
    <style>
      .cls-1 {
        fill: #000;
        stroke-width: 0px;
      }
    </style>
  </defs>
  <path class="cls-1" d="M58.248,16.483h-7.529v-3.869c0-.552-.447-1-1-1H3c-.553,0-1,.448-1,1v15.412c0,13.432,10.928,24.359,24.359,24.359,10.006,0,18.62-6.067,22.364-14.714h9.525c2.068,0,3.752-1.683,3.752-3.752v-13.684c0-2.069-1.684-3.752-3.752-3.752ZM50.719,24.033h3.732v6.09h-3.829c.059-.692.096-1.39.096-2.097v-3.994ZM26.359,50.386c-12.329,0-22.359-10.03-22.359-22.359v-14.412h44.719v3.845c0,.009-.005.016-.005.024s.005.016.005.024v5.501c0,.009-.005.016-.005.024s.005.016.005.024v4.969c0,12.329-10.03,22.359-22.359,22.359ZM60,33.919c0,.966-.786,1.752-1.752,1.752h-8.765c.38-1.148.678-2.333.885-3.549h5.084c.553,0,1-.448,1-1v-8.09c0-.552-.447-1-1-1h-4.732v-3.549h7.529c.966,0,1.752.786,1.752,1.752v13.684Z"/>
  <path class="cls-1" d="M23.411,44.983c-2.415-.463-6.975-1.871-10.377-6.097-1.541-1.914-2.626-4.128-3.227-6.579-.132-.537-.677-.866-1.21-.733-.536.131-.864.673-.733,1.209.671,2.738,1.886,5.213,3.611,7.357,3.804,4.724,8.875,6.292,11.559,6.807.063.012.127.018.189.018.471,0,.89-.333.981-.812.104-.542-.252-1.066-.794-1.17Z"/>
  <path class="cls-1" d="M28.93,44.66c-.06.02-.12.04-.18.06l-.181.09c-.05.04-.1.08-.149.13-.19.18-.29.44-.29.71,0,.13.02.26.07.38.06.12.13.23.22.32.05.05.1.09.149.13.061.03.12.06.181.09.06.02.12.04.18.06.07.01.13.02.2.02.26,0,.52-.11.71-.3.09-.09.16-.2.21-.32s.08-.25.08-.38c0-.27-.11-.53-.29-.71-.24-.23-.58-.34-.91-.28Z"/>
</svg>