<?xml version="1.0" encoding="UTF-8"?>
<svg id="Layer_1" data-name="Layer 1" xmlns="http://www.w3.org/2000/svg" viewBox="0 0 64 64">
  <defs>
    <style>
      .cls-1 {
        fill: #000;
        stroke-width: 0px;
      }
    </style>
  </defs>
  <path class="cls-1" d="M14.309,53.787c5.971,0,12.316-1.919,12.316-5.475,0-.005-.003-.009-.003-.015v-6.483c0-.009.003-.017.003-.026,0-.005-.003-.009-.003-.015v-6.483c0-.009.003-.017.003-.026,0-.005-.003-.009-.003-.015v-6.491c0-.009.003-.017.003-.026,0-.005-.003-.009-.003-.015v-6.483c0-.009.003-.017.003-.026,0-.005-.003-.009-.003-.015v-6.511c0-3.554-6.343-5.472-12.312-5.472s-12.311,1.917-12.311,5.472v32.628c0,.008.004.014.005.022.028,3.541,6.351,5.452,12.304,5.452ZM24.622,41.806c-.016.759-1.129,1.642-2.913,2.307-2.005.737-4.633,1.143-7.4,1.143s-5.395-.406-7.387-1.142c-1.801-.671-2.92-1.562-2.92-2.325,0-.003-.002-.006-.002-.01v-3.438c.614.416,1.349.797,2.227,1.124,2.211.817,5.081,1.267,8.082,1.267s5.871-.45,8.094-1.268c.874-.326,1.607-.705,2.22-1.119v3.46ZM24.622,35.282c-.016.759-1.129,1.642-2.913,2.307-2.005.737-4.633,1.143-7.4,1.143s-5.395-.406-7.387-1.142c-1.801-.671-2.92-1.562-2.92-2.325,0-.003-.002-.006-.002-.01v-3.439c.614.417,1.349.798,2.227,1.125,2.213.817,5.083,1.267,8.082,1.267s5.869-.45,8.095-1.268c.874-.326,1.606-.705,2.219-1.12v3.462ZM24.622,28.751c-.016.764-1.129,1.65-2.913,2.315-2.006.737-4.634,1.143-7.4,1.143s-5.393-.406-7.386-1.142c-1.802-.671-2.921-1.565-2.921-2.333,0-.003-.002-.006-.002-.01v-3.438c.614.416,1.348.796,2.224,1.122,2.203.822,5.074,1.275,8.085,1.275s5.881-.453,8.095-1.275c.874-.326,1.606-.705,2.219-1.12v3.461ZM24.622,22.227c-.016.759-1.129,1.642-2.917,2.308-1.994.742-4.621,1.15-7.396,1.15s-5.4-.408-7.386-1.149c-1.802-.671-2.921-1.562-2.921-2.325,0-.003-.002-.006-.002-.01v-3.439c2.343,1.567,6.401,2.395,10.311,2.395s7.969-.828,10.312-2.395v3.465ZM14.309,51.787c-6.292,0-10.307-2.058-10.307-3.475,0-.003-.002-.006-.002-.01v-3.438c.614.416,1.349.797,2.227,1.124,2.211.817,5.081,1.267,8.082,1.267s5.871-.45,8.094-1.268c.874-.326,1.607-.705,2.22-1.119v3.444s.001.005.001.008c-.015,1.416-4.029,3.466-10.315,3.466ZM14.311,12.213c6.295,0,10.312,2.056,10.312,3.472s-4.017,3.472-10.312,3.472-10.311-2.056-10.311-3.472,4.017-3.472,10.311-3.472Z"/>
  <path class="cls-1" d="M45.553,11.106c-9.069,0-16.448,5.182-16.448,11.551,0,2.433,1.083,4.795,3.072,6.745l-3.1,3.099c-.286.286-.372.716-.217,1.09.154.374.52.617.924.617h15.769c9.069,0,16.447-5.182,16.447-11.551s-7.378-11.551-16.447-11.551ZM45.553,32.208h-13.354l2.137-2.136c.199-.199.305-.473.292-.754-.014-.281-.145-.543-.361-.723-2.068-1.713-3.161-3.767-3.161-5.938,0-5.267,6.481-9.551,14.448-9.551s14.447,4.285,14.447,9.551-6.481,9.551-14.447,9.551Z"/>
  <path class="cls-1" d="M44.636,17.88c-.527-.143-1.082.172-1.226.706l-1.101,4.087-1.133-4.093c-.118-.428-.505-.727-.948-.733h-.016c-.438,0-.825.285-.955.704l-1.279,4.122-.956-4.055c-.128-.538-.669-.873-1.203-.744-.538.127-.871.666-.744,1.203l1.799,7.623c.104.439.488.754.939.77.012,0,.022,0,.034,0,.437,0,.825-.284.955-.704l1.355-4.369,1.201,4.339c.12.434.515.733.964.733h.004c.45-.001.845-.305.962-.74l2.053-7.623c.144-.534-.173-1.082-.706-1.226Z"/>
  <path class="cls-1" d="M47.464,17.846c-.553,0-1,.448-1,1v7.623c0,.552.447,1,1,1s1-.448,1-1v-7.623c0-.552-.447-1-1-1Z"/>
  <path class="cls-1" d="M54.735,17.846c-.553,0-1,.448-1,1v3.589l-2.143-4.056c-.215-.407-.682-.615-1.124-.504-.446.111-.76.511-.76.971v7.623c0,.552.447,1,1,1s1-.448,1-1v-3.588l2.143,4.055c.176.333.52.533.884.533.08,0,.16-.009.24-.029.446-.111.76-.511.76-.971v-7.623c0-.552-.447-1-1-1Z"/>
</svg>