<?xml version="1.0" encoding="UTF-8"?>
<svg id="Layer_1" data-name="Layer 1" xmlns="http://www.w3.org/2000/svg" viewBox="0 0 64 64">
  <defs>
    <style>
      .cls-1 {
        fill: #000;
        stroke-width: 0px;
      }
    </style>
  </defs>
  <path class="cls-1" d="M31.998,27.019c11.287,0,19.799-3.599,19.799-8.371s-8.512-8.37-19.799-8.37-19.798,3.599-19.798,8.37,8.511,8.371,19.798,8.371ZM31.998,12.277c10.489,0,17.799,3.357,17.799,6.37s-7.31,6.371-17.799,6.371-17.798-3.357-17.798-6.371,7.31-6.37,17.798-6.37Z"/>
  <path class="cls-1" d="M61.996,27.592v-8.945c0-9.16-13.177-16.336-29.998-16.336S2,9.487,2,18.647v8.966s.002.006.002.01c.002,1.535.381,3.012,1.078,4.411-.703,1.406-1.08,2.866-1.08,4.354,0,0,0,0,0,0v8.966s.002.006.002.01c.011,9.154,13.184,16.324,29.999,16.324s29.999-7.176,29.999-16.336c0-.007-.004-.013-.004-.019v-8.857c0-.029.004-.058.004-.087,0-1.485-.377-2.943-1.082-4.349.701-1.404,1.082-2.888,1.082-4.429,0-.007-.004-.013-.004-.019ZM31.998,4.312c15.438,0,27.998,6.431,27.998,14.336s-12.56,14.337-27.998,14.337S4,26.553,4,18.647,16.56,4.312,31.998,4.312ZM31.998,34.984c12.935,0,23.708-4.245,27.998-10.372v3.001c0,.005.003.01.003.015-.003,1.304-.354,2.566-.996,3.767-.015.019-.021.041-.034.061-1.852,3.401-6.094,6.295-11.74,8.177-.087.019-.169.041-.246.081-4.336,1.412-9.474,2.235-14.982,2.235s-10.649-.823-14.986-2.236c-.075-.039-.156-.06-.24-.079-5.611-1.87-9.835-4.739-11.706-8.112-.027-.049-.045-.101-.081-.145-.639-1.201-.987-2.463-.987-3.766,0-.003-.001-.005-.001-.007v-2.991c4.291,6.126,15.063,10.372,27.998,10.372ZM59.999,45.37c-.018,7.897-12.571,14.319-27.998,14.319s-28-6.431-28-14.336c0-.003-.001-.005-.001-.007v-2.99c4.291,6.127,15.064,10.374,28,10.374s23.703-4.244,27.996-10.368v2.993c0,.005.003.01.003.015ZM59.999,36.375c0,.005-.003.009-.003.014v.08c-.084,7.871-12.608,14.261-27.996,14.261s-28-6.433-28-14.34c0-.771.138-1.535.382-2.289,4.526,5.844,15.054,9.848,27.619,9.848s23.089-4.003,27.616-9.844c.243.749.38,1.507.382,2.271Z"/>
</svg>