<?xml version="1.0" encoding="UTF-8"?>
<svg id="Layer_1" data-name="Layer 1" xmlns="http://www.w3.org/2000/svg" viewBox="0 0 64 64">
  <defs>
    <style>
      .cls-1 {
        fill: #000;
        stroke-width: 0px;
      }
    </style>
  </defs>
  <path class="cls-1" d="M31.995,62c9.57,0,16.787-3.113,16.787-7.242,0-.009-.005-.016-.005-.024v-9.034c0-.014.005-.028.005-.042,0-.009-.005-.016-.005-.024v-9.034c0-.014.005-.028.005-.042,0-.009-.005-.016-.005-.024v-9.046c0-.014.005-.028.005-.042,0-.009-.005-.016-.005-.024v-9.034c0-.014.005-.028.005-.042,0-.009-.005-.016-.005-.024v-9.08c0-4.126-7.214-7.238-16.779-7.238s-16.78,3.112-16.78,7.238v45.52c0,.008.004.014.004.022.026,4.118,7.226,7.22,16.772,7.22ZM46.777,45.688c-.026,1.243-1.636,2.58-4.323,3.581-2.837,1.044-6.552,1.619-10.459,1.619s-7.621-.575-10.443-1.617c-2.712-1.01-4.332-2.361-4.332-3.613,0-.003-.002-.006-.002-.01v-5.576c.919.742,2.129,1.411,3.638,1.973,3.042,1.124,6.998,1.742,11.139,1.742s8.097-.619,11.154-1.743c1.504-.561,2.71-1.227,3.628-1.966v5.611ZM46.777,36.587c-.026,1.243-1.636,2.58-4.323,3.581-2.837,1.044-6.552,1.619-10.459,1.619s-7.621-.575-10.443-1.617c-2.712-1.011-4.332-2.361-4.332-3.613,0-.003-.002-.006-.002-.01v-5.578c.919.743,2.129,1.413,3.638,1.975,3.042,1.124,6.998,1.742,11.139,1.742s8.097-.619,11.154-1.743c1.504-.561,2.71-1.228,3.628-1.969v5.613ZM46.777,27.474c-.026,1.25-1.636,2.591-4.323,3.593-2.837,1.044-6.552,1.619-10.459,1.619s-7.621-.575-10.443-1.617c-2.712-1.011-4.332-2.366-4.332-3.625,0-.003-.002-.006-.002-.01v-5.576c.919.741,2.127,1.41,3.635,1.972,3.031,1.131,6.988,1.755,11.142,1.755s8.11-.623,11.154-1.755c1.504-.561,2.71-1.227,3.628-1.966v5.611ZM46.777,18.373c-.026,1.243-1.636,2.58-4.326,3.582-2.825,1.051-6.539,1.629-10.456,1.629s-7.629-.579-10.443-1.629c-2.712-1.011-4.332-2.362-4.332-3.614,0-.003-.002-.006-.002-.01v-5.561c2.783,2.246,8.229,3.706,14.78,3.706s11.996-1.46,14.779-3.706v5.602ZM31.995,60c-8.707,0-14.775-2.763-14.775-5.242,0-.003-.002-.006-.002-.01v-5.576c.919.741,2.129,1.411,3.638,1.973,3.042,1.124,6.998,1.742,11.139,1.742s8.097-.619,11.153-1.743c1.504-.56,2.71-1.227,3.629-1.966v5.58s.003.009.003.014c-.023,2.476-6.088,5.228-14.785,5.228ZM31.998,4c8.71,0,14.779,2.761,14.779,5.238s-6.069,5.239-14.779,5.239-14.78-2.761-14.78-5.239,6.07-5.238,14.78-5.238Z"/>
</svg>