<?xml version="1.0" encoding="UTF-8"?>
<svg id="Layer_1" data-name="Layer 1" xmlns="http://www.w3.org/2000/svg" viewBox="0 0 64 64">
  <defs>
    <style>
      .cls-1 {
        fill: #000;
        stroke-width: 0px;
      }
    </style>
  </defs>
  <path class="cls-1" d="M39.561,9.238c0-4.126-7.214-7.238-16.779-7.238S6.002,5.112,6.002,9.238v45.519c0,.026.013.047.015.072.083,4.092,7.26,7.17,16.767,7.17,5.198,0,10.026-.994,13.141-2.661,2.283,1.614,5.061,2.571,8.063,2.571,7.727,0,14.012-6.286,14.012-14.013s-6.285-14.012-14.012-14.012c-1.549,0-3.035.263-4.429.729v-7.111c0-.02.007-.039.007-.06,0-.012-.006-.022-.007-.034v-9.007c0-.02.007-.039.007-.059,0-.012-.006-.022-.007-.034v-9.043c0-.009.003-.018.003-.027ZM37.558,27.486c-.036,1.247-1.643,2.582-4.319,3.58-2.839,1.044-6.554,1.619-10.46,1.619s-7.62-.575-10.443-1.617c-2.712-1.011-4.331-2.366-4.331-3.625,0-.003-.002-.006-.002-.01v-5.575c.919.741,2.127,1.41,3.634,1.971,3.032,1.132,6.989,1.755,11.143,1.755s8.109-.623,11.154-1.755c1.502-.56,2.707-1.226,3.625-1.964v5.621ZM30.167,50.12c-2.24.496-4.76.771-7.384.771-3.903,0-7.614-.577-10.446-1.624-2.71-1.011-4.328-2.363-4.328-3.617,0-.012-.006-.022-.007-.034v-5.548c.919.743,2.129,1.414,3.639,1.977,3.031,1.12,6.988,1.737,11.143,1.737,2.908,0,5.671-.297,8.12-.861-.591,1.549-.929,3.221-.929,4.975,0,.758.077,1.497.194,2.223ZM37.558,18.385c-.036,1.24-1.643,2.571-4.323,3.57-2.826,1.051-6.54,1.629-10.456,1.629s-7.629-.579-10.443-1.629c-2.712-1.011-4.331-2.361-4.331-3.613,0-.003-.002-.006-.002-.01v-5.561c2.783,2.245,8.229,3.706,14.779,3.706s11.992-1.459,14.776-3.704v5.612ZM22.781,4c8.702,0,14.766,2.755,14.778,5.231,0,.003-.002.006-.002.009v.018c-.031,2.473-6.089,5.219-14.776,5.219s-14.779-2.761-14.779-5.239,6.069-5.238,14.779-5.238ZM22.783,60c-8.707,0-14.774-2.762-14.774-5.241,0-.012-.006-.022-.007-.034v-5.56c.919.743,2.129,1.414,3.639,1.977,3.052,1.128,7.009,1.749,11.143,1.749,2.77,0,5.441-.293,7.825-.822.707,2.262,1.979,4.273,3.641,5.883-2.835,1.293-6.987,2.047-11.466,2.047ZM55.998,47.897c0,6.624-5.389,12.013-12.012,12.013s-12.013-5.389-12.013-12.013,5.389-12.012,12.013-12.012,12.012,5.389,12.012,12.012ZM32.086,40.535c-2.631.804-5.914,1.248-9.303,1.248-3.924,0-7.635-.573-10.446-1.612-2.71-1.011-4.328-2.363-4.328-3.617,0-.012-.006-.022-.007-.034v-5.552c.919.743,2.128,1.413,3.637,1.975,3.043,1.124,6.999,1.742,11.14,1.742s8.096-.619,11.154-1.743c1.502-.56,2.707-1.227,3.625-1.966v4.484c-2.251,1.168-4.139,2.929-5.472,5.075Z"/>
  <path class="cls-1" d="M43.986,54.339c-1.501,0-2.722-1.221-2.722-2.721,0-.552-.447-1-1-1s-1,.448-1,1c0,2.26,1.598,4.149,3.722,4.61v.543c0,.552.447,1,1,1s1-.448,1-1v-.543c2.123-.461,3.721-2.35,3.721-4.61,0-2.604-2.118-4.721-4.721-4.721-1.501,0-2.722-1.221-2.722-2.721s1.221-2.721,2.722-2.721,2.721,1.221,2.721,2.721c0,.552.447,1,1,1s1-.448,1-1c0-2.259-1.598-4.148-3.721-4.609v-.543c0-.552-.447-1-1-1s-1,.448-1,1v.543c-2.124.461-3.722,2.35-3.722,4.609,0,2.603,2.118,4.721,4.722,4.721,1.5,0,2.721,1.221,2.721,2.721s-1.221,2.721-2.721,2.721Z"/>
</svg>