<?xml version="1.0" encoding="UTF-8"?>
<svg id="Layer_1" data-name="Layer 1" xmlns="http://www.w3.org/2000/svg" viewBox="0 0 64 64">
  <defs>
    <style>
      .cls-1 {
        fill: #000;
        stroke-width: 0px;
      }
    </style>
  </defs>
  <path class="cls-1" d="M37.49,17.85c0,.552.448,1,1,1s1-.448,1-1c0-3.79-2.832-6.924-6.489-7.415v-1.576c0-.552-.448-1-1-1s-1,.448-1,1v1.576c-3.658.491-6.49,3.625-6.49,7.415s2.832,6.924,6.49,7.415v10.958c-2.55-.472-4.49-2.709-4.49-5.394,0-.552-.448-1-1-1s-1,.448-1,1c0,3.79,2.832,6.924,6.49,7.415v1.576c0,.552.448,1,1,1s1-.448,1-1v-1.576c3.657-.491,6.489-3.625,6.489-7.415s-2.832-6.923-6.489-7.414v-10.959c2.55.472,4.489,2.709,4.489,5.394ZM26.511,17.85c0-2.685,1.939-4.922,4.49-5.394v10.788c-2.55-.472-4.49-2.709-4.49-5.394ZM37.49,30.829c0,2.685-1.939,4.922-4.489,5.394v-10.788c2.55.472,4.489,2.709,4.489,5.394Z"/>
  <path class="cls-1" d="M3.631,62h56.737c.552,0,1-.448,1-1v-7.66c0-.552-.448-1-1-1h-4.809v-6.661c0-.552-.448-1-1-1h-13.339c7.729-3.518,13.119-11.309,13.119-20.339,0-12.318-10.021-22.34-22.34-22.34S9.66,12.021,9.66,24.34c0,9.031,5.39,16.821,13.119,20.339h-13.339c-.552,0-1,.448-1,1v6.661H3.631c-.552,0-1,.448-1,1v7.66c0,.552.448,1,1,1ZM11.66,24.34c0-11.215,9.125-20.34,20.34-20.34s20.34,9.125,20.34,20.34-9.125,20.339-20.34,20.339-20.34-9.124-20.34-20.339ZM10.44,46.679h43.12v5.661H10.44v-5.661ZM4.631,54.34h54.737v5.66H4.631v-5.66Z"/>
</svg>