<?xml version="1.0" encoding="UTF-8"?>
<svg id="Layer_1" data-name="Layer 1" xmlns="http://www.w3.org/2000/svg" viewBox="0 0 64 64">
  <defs>
    <style>
      .cls-1 {
        fill: #000;
        stroke-width: 0px;
      }
    </style>
  </defs>
  <path class="cls-1" d="M34.23,32.819c0,3.661,2.979,6.639,6.639,6.639s6.639-2.979,6.639-6.639-2.978-6.639-6.639-6.639-6.639,2.979-6.639,6.639ZM40.87,28.18c2.558,0,4.639,2.081,4.639,4.639s-2.081,4.639-4.639,4.639-4.639-2.081-4.639-4.639,2.081-4.639,4.639-4.639Z"/>
  <path class="cls-1" d="M40.87,45.329c-3.661,0-6.639,2.979-6.639,6.639s2.979,6.639,6.639,6.639,6.639-2.978,6.639-6.639-2.978-6.639-6.639-6.639ZM40.87,56.607c-2.558,0-4.639-2.081-4.639-4.639s2.081-4.639,4.639-4.639,4.639,2.081,4.639,4.639-2.081,4.639-4.639,4.639Z"/>
  <path class="cls-1" d="M41.864,8.421c-.024-4.17-7.613-6.421-14.757-6.421s-14.758,2.257-14.758,6.439v39.689c0,.005.003.01.003.015.017,4.175,7.61,6.428,14.757,6.428,1.027,0,2.014-.057,2.976-.141v5.14c0,1.34,1.094,2.43,2.438,2.43h16.697c1.34,0,2.43-1.09,2.43-2.43v-17.174s0-.002,0-.002,0-.002,0-.002v-17.175c0-1.34-1.09-2.43-2.43-2.43h-7.353v-6.392c0-.006.002-.011.002-.017,0-.003-.002-.006-.002-.01v-7.927c0-.007-.004-.013-.004-.02ZM14.349,35.6c.784.587,1.79,1.115,3,1.568,2.685.984,6.151,1.526,9.761,1.526,1.023,0,2.011-.057,2.976-.141v5.927c-.959.089-1.947.148-2.976.148-3.406,0-6.627-.498-9.066-1.401-2.312-.866-3.693-1.999-3.693-3.03,0-.003-.001-.005-.001-.007v-4.589ZM30.085,36.545c-.96.089-1.949.148-2.976.148-3.381,0-6.603-.499-9.065-1.401-2.312-.866-3.693-2-3.693-3.031,0-.003-.001-.005-.001-.007v-4.592c.784.588,1.79,1.117,3,1.571,2.685.984,6.151,1.526,9.761,1.526,1.022,0,2.01-.057,2.976-.141v5.927ZM14.349,11.798c2.731,2.018,7.85,3.081,12.758,3.081s10.03-1.063,12.761-3.082v4.592c-.011,1.033-1.388,2.16-3.691,3.018-2.449.911-5.671,1.413-9.072,1.413s-6.622-.501-9.062-1.412c-2.312-.862-3.693-1.995-3.693-3.031,0-.003-.002-.006-.002-.01v-4.57ZM27.107,4c7.302,0,12.759,2.344,12.759,4.439s-5.457,4.439-12.759,4.439-12.758-2.344-12.758-4.439,5.456-4.439,12.758-4.439ZM27.109,52.571c-7.302,0-12.759-2.345-12.759-4.441,0-.003-.001-.005-.001-.007v-4.589c.784.586,1.788,1.114,2.997,1.567,2.659.984,6.126,1.527,9.764,1.527,1.024,0,2.012-.057,2.976-.141v5.936c-.957.089-1.945.148-2.976.148ZM49.221,60h-16.697c-.242,0-.438-.193-.438-.43v-16.177h17.566v16.177c0,.237-.193.43-.43.43ZM49.651,25.216v16.177h-17.566v-16.177c0-.233.201-.43.438-.43h16.697c.233,0,.43.197.43.43ZM32.523,22.787c-1.345,0-2.438,1.09-2.438,2.43v3.395c-.961.089-1.95.148-2.976.148-3.381,0-6.603-.499-9.065-1.401-2.312-.866-3.693-2.006-3.693-3.048,0-.003-.001-.005-.001-.007v-4.583c.784.586,1.788,1.112,2.996,1.563,2.657.992,6.123,1.538,9.76,1.538s7.102-.546,9.77-1.538c1.207-.45,2.21-.975,2.993-1.56v3.064h-7.344Z"/>
</svg>