<?xml version="1.0" encoding="UTF-8"?>
<svg id="Layer_1" data-name="Layer 1" xmlns="http://www.w3.org/2000/svg" viewBox="0 0 64 64">
  <defs>
    <style>
      .cls-1 {
        fill: #000;
        stroke-width: 0px;
      }
    </style>
  </defs>
  <path class="cls-1" d="M59.711,28.881V8.049c0-2.596-2.116-4.708-4.718-4.708s-4.708,2.112-4.708,4.708v20.833c0,.072-.055.131-.122.131h-9.017c2.905-1.979,4.818-5.312,4.818-9.085,0-6.057-4.928-10.985-10.985-10.985s-10.985,4.928-10.985,10.985c0,3.773,1.913,7.106,4.818,9.085h-9.017c-.067,0-.122-.059-.122-.131V6.708c0-2.596-2.112-4.708-4.708-4.708s-4.718,2.112-4.718,4.708v22.173c0,5.27,4.283,9.557,9.548,9.557h2.214v2.789H5.289c-.553,0-1,.448-1,1v18.772c0,.552.447,1,1,1h29.689c.553,0,1-.448,1-1v-1.853h10.971c.553,0,1-.448,1-1v-19.709h2.214c5.265,0,9.548-4.287,9.548-9.557ZM25.993,19.928c0-4.955,4.031-8.985,8.985-8.985s8.985,4.031,8.985,8.985-4.031,8.986-8.985,8.986-8.985-4.031-8.985-8.986ZM33.979,60H6.289v-16.772h16.702c.006,0,.011.003.017.003s.011-.003.017-.003h10.954v16.772ZM50.163,36.438h-3.214c-.553,0-1,.448-1,1v19.709h-9.971v-14.92c0-.552-.447-1-1-1h-10.971v-3.789c0-.552-.447-1-1-1h-3.214c-4.162,0-7.548-3.39-7.548-7.557V6.708c0-1.493,1.219-2.708,2.718-2.708s2.708,1.215,2.708,2.708v22.173c0,1.175.952,2.131,2.122,2.131h30.369c1.17,0,2.122-.956,2.122-2.131V8.049c0-1.493,1.215-2.708,2.708-2.708s2.718,1.215,2.718,2.708v20.833c0,4.167-3.386,7.557-7.548,7.557Z"/>
  <path class="cls-1" d="M31.037,46.997c-.475,0-.86-.386-.86-.86,0-.552-.447-1-1-1H11.091c-.553,0-1,.448-1,1,0,.475-.386.86-.86.86-.553,0-1,.448-1,1v7.234c0,.552.447,1,1,1,.475,0,.86.386.86.86,0,.552.447,1,1,1h18.086c.553,0,1-.448,1-1,0-.475.386-.86.86-.86.553,0,1-.448,1-1v-7.234c0-.552-.447-1-1-1ZM30.037,54.411c-.774.29-1.391.906-1.68,1.68H11.91c-.289-.774-.905-1.39-1.68-1.68v-5.595c.774-.29,1.391-.906,1.68-1.68h16.447c.289.774.905,1.39,1.68,1.68v5.595Z"/>
</svg>