<?xml version="1.0" encoding="UTF-8"?>
<svg id="Layer_1" data-name="Layer 1" xmlns="http://www.w3.org/2000/svg" viewBox="0 0 64 64">
  <defs>
    <style>
      .cls-1 {
        fill: #000;
        stroke-width: 0px;
      }
    </style>
  </defs>
  <path class="cls-1" d="M58.969,5.537H5.031c-1.671,0-3.031,1.359-3.031,3.031v37.967c0,1.672,1.36,3.031,3.031,3.031h18.859v1.853h-3.273c-.552,0-1,.447-1,1v5.044c0,.553.448,1,1,1h22.766c.552,0,1-.447,1-1v-5.044c0-.553-.448-1-1-1h-3.273v-1.853h18.859c1.671,0,3.031-1.359,3.031-3.031V8.568c0-1.672-1.36-3.031-3.031-3.031ZM5.031,7.537h53.938c.569,0,1.031.463,1.031,1.031v32.292H4V8.568c0-.568.462-1.031,1.031-1.031ZM42.383,56.463h-20.766v-3.044h20.766v3.044ZM38.11,51.419h-12.22v-1.853h12.22v1.853ZM58.969,47.566H5.031c-.569,0-1.031-.463-1.031-1.031v-3.675h56v3.675c0,.568-.462,1.031-1.031,1.031Z"/>
  <path class="cls-1" d="M8.64,44.399c-.24-.1-.52-.1-.76,0-.13.051-.24.12-.33.221-.09.09-.16.199-.22.319-.05.12-.07.25-.07.38,0,.271.1.521.29.711.19.189.44.289.71.289s.52-.1.71-.289c.18-.19.29-.44.29-.711,0-.26-.11-.52-.29-.699-.1-.101-.21-.17-.33-.221Z"/>
  <path class="cls-1" d="M14.05,44.62c-.1-.101-.21-.17-.33-.221-.24-.1-.52-.1-.76,0-.13.051-.24.12-.33.221-.09.09-.16.199-.21.319-.05.12-.08.25-.08.38,0,.271.1.521.29.711.19.189.44.289.71.289s.52-.1.71-.289c.18-.19.29-.44.29-.711,0-.13-.03-.26-.08-.38-.05-.12-.12-.229-.21-.319Z"/>
  <path class="cls-1" d="M19.13,44.62c-.1-.101-.2-.17-.33-.221-.24-.1-.52-.1-.76,0-.13.051-.23.12-.33.221-.18.18-.29.439-.29.699,0,.271.1.521.29.711.19.189.44.289.71.289s.52-.1.71-.289c.19-.19.29-.44.29-.711,0-.13-.03-.26-.08-.38s-.12-.229-.21-.319Z"/>
  <path class="cls-1" d="M11.75,36.786h40.499c1.374,0,2.492-1.118,2.492-2.492V15.361c0-1.375-1.118-2.493-2.492-2.493H11.75c-1.374,0-2.492,1.118-2.492,2.493v18.933c0,1.374,1.118,2.492,2.492,2.492ZM25.237,34.786V14.868h13.525v19.918h-13.525ZM52.742,15.361v18.933c0,.271-.221.492-.492.492h-11.487V14.868h11.487c.271,0,.492.222.492.493ZM11.258,15.361c0-.271.221-.493.492-.493h11.487v19.918h-11.487c-.271,0-.492-.221-.492-.492V15.361Z"/>
  <path class="cls-1" d="M13.774,20.868h4.543l-3.299,8.56c-.199.515.058,1.094.574,1.292.118.046.24.067.359.067.401,0,.78-.243.933-.641l3.823-9.919c.119-.308.078-.653-.108-.925-.187-.272-.495-.435-.825-.435h-6c-.552,0-1,.447-1,1s.448,1,1,1Z"/>
  <path class="cls-1" d="M35.825,19.303c-.187-.272-.495-.435-.825-.435h-6c-.552,0-1,.447-1,1s.448,1,1,1h4.543l-3.299,8.56c-.199.515.058,1.094.574,1.292.118.046.24.067.359.067.401,0,.78-.243.933-.641l3.823-9.919c.119-.308.078-.653-.108-.925Z"/>
  <path class="cls-1" d="M44.226,20.868h4.543l-3.298,8.56c-.199.516.058,1.094.574,1.293.118.045.24.066.359.066.401,0,.78-.243.933-.641l3.822-9.919c.119-.308.078-.653-.108-.925-.187-.272-.495-.435-.825-.435h-6c-.552,0-1,.447-1,1s.448,1,1,1Z"/>
</svg>