<?xml version="1.0" encoding="UTF-8"?>
<svg id="Layer_1" data-name="Layer 1" xmlns="http://www.w3.org/2000/svg" viewBox="0 0 64 64">
  <defs>
    <style>
      .cls-1 {
        fill: #000;
        stroke-width: 0px;
      }
    </style>
  </defs>
  <path class="cls-1" d="M61,50.452h-2.93v-30.194c0-1.511-1.233-2.74-2.75-2.74h-9.128v-6.029c0-1.324-1.077-2.401-2.4-2.401h-4.572l-.327-3.564c-.059-.635-.363-1.211-.856-1.623-.494-.412-1.112-.609-1.752-.547l-16.288,1.492c-1.314.12-2.295,1.286-2.186,2.609l.922,10.062h-10.054c-1.517,0-2.75,1.229-2.75,2.74v30.194h-2.93c-.553,0-1,.448-1,1,0,5.076,4.129,9.206,9.205,9.206h41.59c5.076,0,9.205-4.129,9.205-9.206,0-.552-.447-1-1-1ZM38.385,52.452l-.77,1.618c-.14.294-.441.485-.769.485h-9.693c-.327,0-.629-.19-.769-.485l-.77-1.617h12.77ZM27.024,29.317h17.168v15.823c0,.225-.18.408-.4.408h-16.359c-.225,0-.408-.183-.408-.408v-15.823ZM44.192,11.488v7.019s-.002.006-.002.01.002.006.002.01v8.79h-17.168v-15.829c0-.221.184-.401.408-.401h16.359c.217,0,.4.184.4.401ZM20.179,6.837l16.289-1.493c.144-.009.241.053.289.093.049.041.132.129.145.269l.31,3.381h-9.779c-1.328,0-2.408,1.077-2.408,2.401v16.824s0,.003,0,.005,0,.003,0,.005v12.68l-1.701.157c-.225.02-.429-.145-.449-.369l-3.07-33.509c-.019-.224.149-.422.375-.443ZM7.93,20.257c0-.408.337-.74.75-.74h10.237l1.965,21.455c.115,1.248,1.17,2.188,2.403,2.188.073,0,.146-.003.221-.01l1.519-.14v2.13c0,1.328,1.08,2.408,2.408,2.408h16.359c1.323,0,2.4-1.08,2.4-2.408v-16.799c0-.009.005-.016.005-.024s-.005-.016-.005-.024v-8.776h9.128c.413,0,.75.332.75.74v30.19H7.93v-30.19ZM52.795,58.657H11.205c-3.634,0-6.647-2.704-7.136-6.206h19.331l1.178,2.476c.47.988,1.48,1.626,2.575,1.626h9.693c1.095,0,2.105-.638,2.575-1.626l1.178-2.477h19.331c-.488,3.501-3.502,6.206-7.136,6.206Z"/>
  <path class="cls-1" d="M31.747,18.65c1.726,0,3.129-1.404,3.129-3.129s-1.403-3.129-3.129-3.129-3.13,1.404-3.13,3.129,1.404,3.129,3.13,3.129ZM31.747,14.392c.622,0,1.129.507,1.129,1.129s-.507,1.129-1.129,1.129-1.13-.506-1.13-1.129.507-1.129,1.13-1.129Z"/>
  <path class="cls-1" d="M39.475,24.741c1.726,0,3.129-1.404,3.129-3.129s-1.403-3.129-3.129-3.129-3.13,1.404-3.13,3.129,1.404,3.129,3.13,3.129ZM39.475,20.483c.622,0,1.129.506,1.129,1.129s-.507,1.129-1.129,1.129-1.13-.507-1.13-1.129.507-1.129,1.13-1.129Z"/>
  <path class="cls-1" d="M35.61,43.624c3.353,0,6.08-2.728,6.08-6.08s-2.728-6.08-6.08-6.08-6.08,2.727-6.08,6.08,2.728,6.08,6.08,6.08ZM35.61,33.464c2.25,0,4.08,1.83,4.08,4.08s-1.83,4.08-4.08,4.08-4.08-1.83-4.08-4.08,1.83-4.08,4.08-4.08Z"/>
</svg>