<?xml version="1.0" encoding="UTF-8"?>
<svg id="Layer_1" data-name="Layer 1" xmlns="http://www.w3.org/2000/svg" viewBox="0 0 64 64">
  <defs>
    <style>
      .cls-1 {
        fill: #000;
        stroke-width: 0px;
      }
    </style>
  </defs>
  <path class="cls-1" d="M54.608,17.312h-8.533c-.258-1.33-.704-2.591-1.3-3.765,1.715-1.162,2.784-3.111,2.784-5.221,0-3.488-2.834-6.326-6.317-6.326-2.639,0-4.972,1.652-5.899,4.048-1.107-.272-2.257-.433-3.447-.433-7.026,0-12.89,5.042-14.179,11.697h-8.326c-1.489,0-2.701,1.212-2.701,2.702v31.829c0,1.49,1.212,2.702,2.701,2.702h15.648v1.227h-2.582c-.553,0-1,.447-1,1v4.228c0,.553.447,1,1,1h19.084c.553,0,1-.447,1-1v-4.228c0-.553-.447-1-1-1h-2.582v-1.227h15.648c1.489,0,2.701-1.212,2.701-2.702v-31.829c0-1.49-1.212-2.702-2.701-2.702ZM54.608,19.312c.387,0,.701.315.701.702v26.906h-8.963c-.222-2.586-1.298-5.018-3.094-6.932-1.798-1.905-4.163-3.135-6.739-3.519v-2.727c5.614-1.9,9.684-7.153,9.817-13.369.002-.023.003-.044.003-.067.001-.082.012-.161.012-.244,0-.254-.025-.501-.038-.752h8.301ZM41.779,46.921c-.08-1.333-.617-2.576-1.568-3.518-1.033-1.033-2.402-1.603-3.855-1.603-1.844,0-3.473.92-4.461,2.321-.18-.252-.372-.497-.596-.719-1.033-1.033-2.402-1.603-3.854-1.603-2.898,0-5.269,2.269-5.439,5.12h-2.546c.479-4.57,4.21-8.244,8.886-8.556.525-.035.934-.472.934-.998v-3.103c.851.157,1.724.25,2.619.25s1.766-.093,2.616-.249v3.103c0,.525.407.962.932.998,2.431.166,4.687,1.23,6.351,2.995,1.445,1.54,2.331,3.485,2.547,5.561h-2.562ZM39.796,46.921h-6.881c.166-1.748,1.646-3.12,3.44-3.12.919,0,1.785.361,2.444,1.021.574.568.922,1.304.996,2.1ZM30.884,46.921h-6.881c.166-1.748,1.646-3.12,3.44-3.12.918,0,1.785.361,2.444,1.021.574.568.922,1.304.996,2.1ZM31.896,32.514c-5.51,0-10.189-3.602-11.823-8.573,2.589-.606,5.149-1.433,7.623-2.494,3.758-1.624,7.269-3.741,10.452-6.301.732,1.115,1.576,2.134,2.519,3.039,1.095,1.048,2.321,1.935,3.639,2.664-.409,6.498-5.81,11.664-12.409,11.664ZM41.242,4c2.381,0,4.317,1.94,4.317,4.326,0,1.402-.694,2.697-1.81,3.497-1.604-2.299-3.856-4.108-6.492-5.166.661-1.577,2.221-2.658,3.985-2.658ZM31.896,7.615c6.323,0,11.549,4.743,12.335,10.855-.773-.511-1.507-1.083-2.18-1.728-1.079-1.037-2.016-2.246-2.783-3.595-.147-.258-.402-.438-.695-.489-.291-.054-.593.029-.82.222-3.267,2.767-6.917,5.031-10.847,6.73-2.366,1.014-4.816,1.806-7.293,2.386-.099-.631-.166-1.273-.166-1.932,0-6.864,5.585-12.449,12.449-12.449ZM9.392,19.312h8.094c-.013.251-.038.498-.038.752,0,1.132.144,2.228.391,3.285.003.022-.004.043,0,.064.009.042.032.075.046.115,1.186,4.793,4.761,8.646,9.393,10.214v2.727c-5.278.785-9.365,5.139-9.826,10.451h-8.761v-26.906c0-.387.314-.702.701-.702ZM40.542,60h-17.084v-2.228h17.084v2.228ZM36.96,55.772h-9.92v-1.227h9.92v1.227ZM54.608,52.546h-16.634c-.005,0-.009-.003-.015-.003h-11.92c-.005,0-.009.003-.015.003H9.392c-.387,0-.701-.315-.701-.702v-2.923h46.619v2.923c0,.387-.314.702-.701.702Z"/>
  <path class="cls-1" d="M12.81,50.12c-.279-.28-.729-.37-1.1-.221-.12.051-.23.12-.32.221-.09.09-.16.199-.22.319-.05.12-.07.25-.07.38,0,.141.021.271.07.391s.13.229.22.32c.09.09.2.17.33.22.12.05.25.069.38.069s.26-.02.38-.069.23-.13.33-.22c.181-.19.29-.44.29-.711,0-.13-.03-.26-.08-.38s-.12-.229-.21-.319Z"/>
  <path class="cls-1" d="M17.06,50.12c-.37-.38-1.04-.38-1.41,0-.09.09-.17.199-.22.319s-.07.25-.07.38c0,.271.101.521.29.711.19.189.44.289.71.289.131,0,.261-.02.381-.069.119-.05.229-.13.319-.22.19-.19.3-.44.3-.711,0-.13-.029-.26-.079-.38-.051-.12-.12-.229-.221-.319Z"/>
  <path class="cls-1" d="M21.319,50.12c-.229-.24-.579-.351-.899-.28-.061.02-.13.03-.19.06-.06.03-.12.061-.17.091-.06.04-.109.079-.149.13-.19.18-.301.439-.301.699,0,.141.03.261.08.391.051.12.12.229.221.32.18.189.439.289.699.289.141,0,.271-.02.391-.069s.229-.13.319-.22c.101-.091.171-.2.221-.32.05-.13.069-.25.069-.391,0-.13-.02-.26-.069-.38s-.13-.229-.221-.319Z"/>
  <path class="cls-1" d="M37.29,25.373c-.553,0-1,.447-1,1,0,1.065-1.998,2.258-4.673,2.258s-4.674-1.192-4.674-2.258c0-.553-.447-1-1-1s-1,.447-1,1c0,2.388,2.932,4.258,6.674,4.258s6.673-1.87,6.673-4.258c0-.553-.447-1-1-1Z"/>
</svg>