<?xml version="1.0" encoding="UTF-8"?>
<svg id="Layer_1" data-name="Layer 1" xmlns="http://www.w3.org/2000/svg" viewBox="0 0 64 64">
  <defs>
    <style>
      .cls-1 {
        fill: #000;
        stroke-width: 0px;
      }
    </style>
  </defs>
  <path class="cls-1" d="M7.819,48.02c-.06-.029-.109-.06-.17-.09-.069-.02-.13-.04-.189-.06-.2-.04-.4-.021-.58.06-.12.05-.23.13-.32.22-.189.181-.3.44-.3.7,0,.271.11.521.3.71.09.101.2.17.32.221.12.05.25.079.38.079.271,0,.521-.109.71-.3.19-.189.29-.439.29-.71,0-.26-.1-.51-.29-.7-.05-.05-.1-.09-.15-.13Z"/>
  <path class="cls-1" d="M12.09,48.149c-.09-.09-.2-.17-.33-.22-.24-.1-.52-.1-.76,0-.12.05-.23.13-.33.22-.09.091-.16.2-.21.32-.05.13-.08.26-.08.39,0,.261.1.511.29.7.189.19.439.29.71.29s.52-.1.71-.29c.19-.189.29-.439.29-.7,0-.14-.03-.26-.08-.39-.05-.12-.12-.229-.21-.32Z"/>
  <path class="cls-1" d="M16.21,48.149c-.38-.38-1.05-.369-1.42,0-.09.091-.16.2-.21.32-.05.13-.08.25-.08.39,0,.261.109.511.29.7.189.19.439.29.71.29s.52-.1.71-.29c.189-.189.29-.439.29-.7,0-.14-.021-.26-.08-.39-.05-.12-.12-.229-.21-.32Z"/>
  <path class="cls-1" d="M10.095,42.125h32.833c1.219,0,2.211-.991,2.211-2.21v-15.35c0-1.219-.992-2.21-2.211-2.21H10.095c-1.219,0-2.21.991-2.21,2.21v15.35c0,1.219.991,2.21,2.21,2.21ZM21.218,40.125v-15.77h10.587v15.77h-10.587ZM43.139,24.565v15.35c0,.116-.095.21-.211.21h-9.123v-15.77h9.123c.116,0,.211.094.211.21ZM9.885,24.565c0-.116.094-.21.21-.21h9.123v15.77h-9.123c-.116,0-.21-.094-.21-.21v-15.35Z"/>
  <path class="cls-1" d="M11.735,29.219h3.407l-2.575,6.683c-.199.515.058,1.094.573,1.292.118.046.239.067.359.067.401,0,.78-.243.933-.641l3.1-8.042c.119-.308.078-.653-.108-.925-.187-.272-.495-.435-.824-.435h-4.864c-.553,0-1,.447-1,1s.447,1,1,1Z"/>
  <path class="cls-1" d="M29.768,27.653c-.187-.272-.495-.435-.824-.435h-4.864c-.553,0-1,.447-1,1s.447,1,1,1h3.407l-2.575,6.683c-.198.516.059,1.094.574,1.293.118.045.239.066.359.066.401,0,.78-.243.934-.641l3.099-8.042c.118-.308.077-.653-.109-.925Z"/>
  <path class="cls-1" d="M36.423,29.219h3.407l-2.575,6.683c-.198.516.059,1.094.574,1.293.118.045.239.066.359.066.401,0,.78-.243.934-.641l3.099-8.042c.118-.308.077-.653-.109-.925-.187-.272-.495-.435-.824-.435h-4.864c-.553,0-1,.447-1,1s.447,1,1,1Z"/>
  <path class="cls-1" d="M56.942,2.131c-2.789,0-5.058,2.27-5.058,5.059,0,1.522.69,2.873,1.757,3.801v11.665h-2.619v-3.597c0-1.46-1.188-2.647-2.646-2.647H4.646c-1.459,0-2.646,1.188-2.646,2.647v30.78c0,1.459,1.188,2.646,2.646,2.646h15.101v3.294h-2.464c-.553,0-1,.447-1,1v4.09c0,.553.447,1,1,1h18.457c.553,0,1-.447,1-1v-4.09c0-.553-.447-1-1-1h-2.465v-3.294h15.101c1.459,0,2.646-1.188,2.646-2.646v-14.42h8.227c.553,0,1-.447,1-1v-10.758s0-.003,0-.005v-12.672c1.063-.928,1.75-2.276,1.75-3.795,0-2.789-2.269-5.059-5.058-5.059ZM56.942,4.131c1.686,0,3.058,1.372,3.058,3.059s-1.372,3.058-3.058,3.058-3.058-1.372-3.058-3.058,1.372-3.059,3.058-3.059ZM4.646,18.411h43.729c.356,0,.646.29.646.647v25.99H4v-25.99c0-.357.29-.647.646-.647ZM34.74,59.869h-16.457v-2.09h16.457v2.09ZM31.275,55.779h-9.528v-3.294h9.528v3.294ZM48.376,50.485H4.646c-.356,0-.646-.29-.646-.646v-2.79h45.022v2.79c0,.356-.29.646-.646.646ZM51.022,33.419v-8.764h3.614s.003,0,.005,0h3.607v8.763h-7.227ZM58.25,22.655h-2.608v-10.599c.418.112.848.191,1.301.191.455,0,.888-.08,1.308-.193v10.601Z"/>
</svg>