<?xml version="1.0" encoding="UTF-8"?>
<svg id="Layer_1" data-name="Layer 1" xmlns="http://www.w3.org/2000/svg" viewBox="0 0 64 64">
  <defs>
    <style>
      .cls-1 {
        fill: #000;
        stroke-width: 0px;
      }
    </style>
  </defs>
  <path class="cls-1" d="M57.34,9.41H6.66c-2.57,0-4.66,2.09-4.66,4.66v35.86c0,2.569,2.09,4.66,4.66,4.66h50.68c2.57,0,4.66-2.09,4.66-4.66V14.07c0-2.569-2.09-4.66-4.66-4.66ZM6.66,11.41h50.68c1.467,0,2.66,1.193,2.66,2.66v3.93H4v-3.93c0-1.466,1.193-2.66,2.66-2.66ZM60,28.06H4v-8.06h56v8.06ZM57.34,52.59H6.66c-1.467,0-2.66-1.193-2.66-2.66v-19.87h56v19.87c0,1.466-1.193,2.66-2.66,2.66Z"/>
  <path class="cls-1" d="M23.936,38.935h-15.097c-.552,0-1,.448-1,1v9.123c0,.552.448,1,1,1h15.097c.552,0,1-.448,1-1v-9.123c0-.552-.448-1-1-1ZM22.936,48.058h-13.097v-7.123h13.097v7.123Z"/>
  <path class="cls-1" d="M55.677,41.006h-6c-.552,0-1,.448-1,1s.448,1,1,1h6c.552,0,1-.448,1-1s-.448-1-1-1Z"/>
  <path class="cls-1" d="M55.677,45.987h-11.274c-.552,0-1,.448-1,1s.448,1,1,1h11.274c.552,0,1-.448,1-1s-.448-1-1-1Z"/>
</svg>