<?xml version="1.0" encoding="UTF-8"?>
<svg id="Layer_1" data-name="Layer 1" xmlns="http://www.w3.org/2000/svg" viewBox="0 0 64 64">
  <defs>
    <style>
      .cls-1 {
        fill: #000;
        stroke-width: 0px;
      }
    </style>
  </defs>
  <path class="cls-1" d="M60.674,17.92c-1.183-.982-2.81-1.124-4.144-.356l-9.802,5.628c-.388.224-.837.278-1.269.157-.43-.122-.785-.406-.998-.8l-9.256-17.068c-.647-1.194-1.846-1.907-3.205-1.907s-2.558.713-3.205,1.907l-9.257,17.068c-.213.394-.567.678-.998.8-.431.12-.881.065-1.269-.157l-9.802-5.628c-1.333-.766-2.96-.626-4.144.356s-1.621,2.555-1.115,4.007l9.482,27.169h-.895c-1.17,0-2.122.952-2.122,2.122v7.088c0,1.17.952,2.122,2.122,2.122h42.404c1.17,0,2.122-.952,2.122-2.122v-7.088c0-1.17-.952-2.122-2.122-2.122h-.895l9.482-27.169c.506-1.452.069-3.024-1.115-4.007ZM53.324,51.218v7.088c0,.067-.055.122-.122.122H10.798c-.067,0-.122-.055-.122-.122v-7.088c0-.067.055-.122.122-.122h42.404c.067,0,.122.055.122.122ZM59.9,21.269l-9.711,27.827H13.811L4.1,21.269c-.278-.796.078-1.457.503-1.81.425-.354,1.14-.582,1.871-.161l9.801,5.628c.859.493,1.857.617,2.811.347.954-.271,1.739-.899,2.21-1.771L30.553,6.434c.292-.539.833-.86,1.447-.86s1.155.321,1.447.86l9.256,17.068c.472.871,1.257,1.5,2.211,1.771.953.271,1.952.147,2.811-.347l9.802-5.628c.731-.42,1.446-.191,1.871.161s.781,1.014.503,1.81Z"/>
  <path class="cls-1" d="M32.826,21.613c-.372-.547-1.28-.547-1.652,0l-5.968,8.759c-.232.34-.232.787,0,1.127l5.968,8.759c.186.273.496.437.826.437s.64-.163.826-.437l5.968-8.759c.232-.34.232-.787,0-1.127l-5.968-8.759ZM32,37.918l-4.758-6.982,4.758-6.982,4.758,6.982-4.758,6.982Z"/>
  <path class="cls-1" d="M16.527,53.762h-.871c-.552,0-1,.447-1,1s.448,1,1,1h.871c.552,0,1-.447,1-1s-.448-1-1-1Z"/>
  <path class="cls-1" d="M21.83,53.762h-.871c-.552,0-1,.447-1,1s.448,1,1,1h.871c.552,0,1-.447,1-1s-.448-1-1-1Z"/>
  <path class="cls-1" d="M27.133,53.762h-.871c-.552,0-1,.447-1,1s.448,1,1,1h.871c.552,0,1-.447,1-1s-.448-1-1-1Z"/>
  <path class="cls-1" d="M32.436,53.762h-.871c-.552,0-1,.447-1,1s.448,1,1,1h.871c.552,0,1-.447,1-1s-.448-1-1-1Z"/>
  <path class="cls-1" d="M37.738,53.762h-.871c-.552,0-1,.447-1,1s.448,1,1,1h.871c.552,0,1-.447,1-1s-.448-1-1-1Z"/>
  <path class="cls-1" d="M43.041,53.762h-.871c-.552,0-1,.447-1,1s.448,1,1,1h.871c.552,0,1-.447,1-1s-.448-1-1-1Z"/>
  <path class="cls-1" d="M48.344,53.762h-.871c-.552,0-1,.447-1,1s.448,1,1,1h.871c.552,0,1-.447,1-1s-.448-1-1-1Z"/>
</svg>