<?xml version="1.0" encoding="UTF-8"?>
<svg id="Layer_1" data-name="Layer 1" xmlns="http://www.w3.org/2000/svg" viewBox="0 0 64 64">
  <defs>
    <style>
      .cls-1 {
        fill: #000;
        stroke-width: 0px;
      }
    </style>
  </defs>
  <path class="cls-1" d="M8.229,61c0,.553.447,1,1,1h45.541c.553,0,1-.447,1-1,0-10.781-7.625-19.812-17.764-21.993,4.228-1.965,7.51-5.732,8.763-10.477.021-.045.038-.091.053-.14.726-2.444,1.745-8.707,1.835-12.008v-.004l.008-.517c.021-2.605-1.055-5.104-2.954-6.856-2.509-2.314-5.346-4.092-8.432-5.28C25.349-.89,14.175,5.154,12.055,6.412c-.364.216-.553.638-.471,1.054l3.904,19.754c.045.257.093.513.143.729l.069.356c.017.081.044.159.079.232,1.303,4.928,4.795,8.802,9.262,10.694-9.661,2.526-16.812,11.327-16.812,21.768ZM13.686,7.783c2.994-1.644,12.665-6.142,22.874-2.191,2.85,1.098,5.473,2.741,7.796,4.885,1.485,1.37,2.327,3.327,2.31,5.371l-.008.483c-.065,2.403-.671,6.584-1.256,9.417l-3.727-6.197c-.539-.896-1.584-1.349-2.598-1.125-2.665.587-5.412.868-8.129.848-2.513-.022-5.034-.309-7.494-.852-1-.224-2.034.222-2.578,1.098l-3.693,5.955-3.497-17.691ZM17.795,28.28l4.779-7.705c.098-.157.283-.234.448-.2,2.596.573,5.256.875,7.907.898,2.882.029,5.766-.275,8.576-.895.182-.034.359.044.454.203l4.738,7.88c-1.776,5.939-7.202,10.04-13.425,10.04-6.285,0-11.76-4.184-13.478-10.222ZM30.728,40.502h2.545c10.968,0,19.95,8.658,20.474,19.498H10.254c.523-10.84,9.506-19.498,20.474-19.498Z"/>
  <path class="cls-1" d="M26.666,50.059c.309.178.691.178,1,0l4.334-2.503,4.334,2.503c.154.089.327.134.5.134s.346-.045.5-.134c.31-.179.5-.509.5-.866v-6.698c0-.357-.19-.688-.5-.866-.309-.178-.691-.178-1,0l-4.334,2.503-4.334-2.503c-.309-.178-.691-.178-1,0-.31.179-.5.509-.5.866v6.698c0,.357.19.688.5.866ZM35.834,44.227v3.233l-2.801-1.617,2.801-1.616ZM28.166,44.227l2.801,1.616-2.801,1.617v-3.233Z"/>
  <path class="cls-1" d="M37.96,31.267v-.218c0-.553-.447-1-1-1h-9.92c-.553,0-1,.447-1,1v.218c0,3.286,2.674,5.959,5.96,5.959s5.96-2.673,5.96-5.959ZM28.117,32.049h7.766c-.364,1.81-1.967,3.177-3.883,3.177s-3.519-1.367-3.883-3.177Z"/>
</svg>