<?xml version="1.0" encoding="UTF-8"?>
<svg id="Layer_1" data-name="Layer 1" xmlns="http://www.w3.org/2000/svg" viewBox="0 0 64 64">
  <defs>
    <style>
      .cls-1 {
        fill: #000;
        stroke-width: 0px;
      }
    </style>
  </defs>
  <path class="cls-1" d="M50.336,26.488V10.482c0-1.732-1.409-3.142-3.142-3.142h-4.929l-1.417-3.363c-.697-1.639-2.596-2.412-4.236-1.724l-12.07,5.087h-7.737c-1.732,0-3.142,1.409-3.142,3.142v1.451l-6.179,2.601c-1.64.698-2.413,2.599-1.723,4.237l7.902,18.74v16.005c0,1.732,1.409,3.142,3.142,3.142h4.929l1.417,3.363c.524,1.232,1.729,1.976,2.99,1.976.417,0,.839-.081,1.246-.252l12.07-5.087h7.737c1.732,0,3.142-1.409,3.142-3.142v-1.451l6.179-2.601c1.64-.698,2.413-2.599,1.723-4.237l-7.902-18.74ZM37.389,4.098c.625-.264,1.353.034,1.619.66l1.088,2.583h-10.402l7.695-3.243ZM7.604,17.996c-.264-.626.034-1.354.659-1.619l5.4-2.273v18.261l-6.059-14.369ZM26.611,59.902c-.624.266-1.352-.033-1.619-.66l-1.088-2.583h10.402l-7.695,3.243ZM48.336,53.518c0,.63-.512,1.142-1.142,1.142h-7.906c-.015,0-.029,0-.044,0h-16.825c-.015,0-.029,0-.044,0h-5.57c-.629,0-1.142-.512-1.142-1.142V10.482c0-.63.512-1.142,1.142-1.142h7.896c.011,0,.022.005.033.005.008,0,.016-.005.024-.005h16.824c.014,0,.027,0,.04,0h5.572c.629,0,1.142.512,1.142,1.142v43.035ZM55.736,47.623l-5.4,2.273v-18.261l6.059,14.369c.264.626-.034,1.354-.659,1.619Z"/>
  <path class="cls-1" d="M32.78,17.743c-.38-.473-1.18-.473-1.56,0l-10.946,13.631c-.293.365-.293.887,0,1.252l10.946,13.631c.19.236.477.374.78.374s.59-.138.78-.374l10.946-13.631c.293-.365.293-.887,0-1.252l-10.946-13.631ZM32,44.034l-9.663-12.034,9.663-12.034,9.663,12.034-9.663,12.034Z"/>
  <path class="cls-1" d="M43.575,11.586h-4.309c-.552,0-1,.447-1,1s.448,1,1,1l4.354.045v4.462c0,.553.448,1,1,1s1-.447,1-1v-4.462c0-1.128-.917-2.045-2.045-2.045Z"/>
  <path class="cls-1" d="M24.887,50.414l-4.507-.045v-4.309c0-.553-.448-1-1-1s-1,.447-1,1v4.309c0,1.128.917,2.045,2.045,2.045h4.461c.552,0,1-.447,1-1s-.448-1-1-1Z"/>
</svg>