<?xml version="1.0" encoding="UTF-8"?>
<svg id="Layer_1" data-name="Layer 1" xmlns="http://www.w3.org/2000/svg" viewBox="0 0 64 64">
  <defs>
    <style>
      .cls-1 {
        fill: #000;
        stroke-width: 0px;
      }
    </style>
  </defs>
  <path class="cls-1" d="M11.542,32.676l10.55,10.55c.195.195.451.293.707.293s.512-.098.707-.292l10.557-10.55c.188-.188.293-.442.293-.708s-.105-.52-.293-.708l-1.757-1.755c1.095-.471,1.865-1.559,1.865-2.825,0-1.695-1.378-3.074-3.073-3.074-.801,0-1.526.316-2.074.82-.548-.504-1.272-.82-2.073-.82-.172,0-.338.023-.502.051l-2.94-2.947c-.188-.188-.442-.293-.708-.293h0c-.265,0-.52.105-.707.293l-2.946,2.946c-.161-.026-.323-.05-.491-.05-.801,0-1.526.316-2.073.82-.548-.504-1.272-.82-2.074-.82-1.695,0-3.074,1.379-3.074,3.074,0,1.265.769,2.353,1.864,2.824l-1.756,1.756c-.391.391-.391,1.023,0,1.414ZM22.798,41.105l-9.136-9.136,2.981-2.981c.54.472,1.238.768,2.011.768.801,0,1.526-.316,2.074-.82.548.504,1.272.82,2.073.82s1.526-.315,2.074-.82c.548.504,1.272.82,2.074.82.771,0,1.468-.295,2.008-.766l2.983,2.979-9.142,9.136ZM21.728,26.683c0-.592.481-1.074,1.073-1.074s1.074.481,1.074,1.074-.481,1.074-1.074,1.074-1.073-.481-1.073-1.074ZM31.096,25.609c.592,0,1.073.481,1.073,1.074s-.481,1.074-1.073,1.074-1.074-.481-1.074-1.074.481-1.074,1.074-1.074ZM28.022,26.683c0,.146-.03.285-.083.412-.002.005-.006.01-.008.016-.166.379-.543.646-.982.646-.592,0-1.074-.481-1.074-1.074,0-.442.268-.82.65-.985.007-.003.015-.004.022-.007.125-.051.26-.081.402-.081.592,0,1.073.481,1.073,1.074ZM22.798,22.834l.931.933c-.295-.094-.602-.159-.928-.159-.33,0-.642.066-.941.163l.937-.937ZM18.654,25.609c.592,0,1.074.481,1.074,1.074s-.481,1.074-1.074,1.074-1.073-.481-1.073-1.074.481-1.074,1.073-1.074ZM14.507,25.609c.592,0,1.074.481,1.074,1.074s-.481,1.074-1.074,1.074-1.074-.481-1.074-1.074.481-1.074,1.074-1.074Z"/>
  <path class="cls-1" d="M3,50.27h58c.35,0,.675-.183.856-.482.181-.3.192-.672.029-.982l-2.214-4.219,2.208-4.073c.17-.313.16-.693-.025-.997l-2.144-3.52,2.141-3.472c.202-.327.198-.741-.009-1.064l-2.083-3.25,2.033-2.638c.242-.313.275-.739.087-1.087l-2.23-4.115,2.27-5.244c.133-.309.103-.665-.082-.946-.185-.282-.499-.451-.836-.451H3c-.552,0-1,.448-1,1v34.54c0,.552.448,1,1,1ZM57.659,20.896l2.152,3.97-2.065,2.68c-.258.334-.278.794-.05,1.15l2.123,3.314-2.132,3.458c-.197.32-.199.724-.003,1.045l2.163,3.552-2.188,4.037c-.159.293-.162.646-.006.941l1.693,3.227h-15.215V15.73h15.347l-1.858,4.293c-.122.282-.107.604.039.874ZM4,15.73h38.131v32.54H4V15.73Z"/>
  <path class="cls-1" d="M38.905,17.673H6.76c-.552,0-1,.448-1,1v26.654c0,.552.448,1,1,1h32.145c.552,0,1-.448,1-1v-26.654c0-.552-.448-1-1-1ZM37.905,44.327H7.76v-24.654h30.145v24.654Z"/>
</svg>