<?xml version="1.0" encoding="UTF-8"?>
<svg id="Layer_1" data-name="Layer 1" xmlns="http://www.w3.org/2000/svg" viewBox="0 0 64 64">
  <defs>
    <style>
      .cls-1 {
        fill: #000;
        stroke-width: 0px;
      }
    </style>
  </defs>
  <path class="cls-1" d="M31.231,51.688c.195.195.451.293.707.293s.512-.098.707-.293l19.048-19.036c.188-.188.293-.441.293-.707s-.105-.521-.293-.708l-4.16-4.153c2.317-.309,4.117-2.278,4.117-4.678,0-2.614-2.127-4.741-4.741-4.741-1.527,0-2.874.738-3.741,1.863-.868-1.125-2.214-1.863-3.742-1.863-.405,0-.792.067-1.167.163l-5.613-5.624c-.188-.188-.442-.294-.708-.294h0c-.265,0-.52.105-.707.293l-5.62,5.619c-.37-.093-.751-.157-1.15-.157-1.527,0-2.874.738-3.741,1.863-.868-1.125-2.214-1.863-3.742-1.863-2.614,0-4.741,2.127-4.741,4.741,0,2.399,1.798,4.367,4.113,4.678l-4.155,4.154c-.188.188-.293.441-.293.707s.105.52.293.707l19.036,19.036ZM46.91,19.664c1.512,0,2.741,1.229,2.741,2.741s-1.229,2.741-2.741,2.741-2.741-1.229-2.741-2.741,1.229-2.741,2.741-2.741ZM42.168,22.405c0,.371-.076.724-.21,1.047-.005.012-.01.023-.015.036-.421.974-1.39,1.658-2.517,1.658-1.512,0-2.741-1.229-2.741-2.741,0-1.128.685-2.097,1.66-2.517.017-.007.034-.012.05-.019.319-.13.666-.205,1.03-.205,1.512,0,2.742,1.229,2.742,2.741ZM31.937,14.324l4.458,4.466c-.262.221-.5.465-.71.737-.868-1.125-2.214-1.863-3.741-1.863s-2.874.738-3.742,1.863c-.213-.276-.455-.524-.722-.747l4.457-4.456ZM34.686,22.405c0,1.512-1.229,2.741-2.741,2.741s-2.742-1.229-2.742-2.741,1.23-2.741,2.742-2.741,2.741,1.229,2.741,2.741ZM24.461,19.664c1.512,0,2.741,1.229,2.741,2.741s-1.229,2.741-2.741,2.741-2.741-1.229-2.741-2.741,1.229-2.741,2.741-2.741ZM14.237,22.405c0-1.512,1.229-2.741,2.741-2.741s2.742,1.229,2.742,2.741-1.23,2.741-2.742,2.741-2.741-1.229-2.741-2.741ZM20.837,25.425c.87,1.043,2.163,1.722,3.625,1.722,1.527,0,2.874-.738,3.741-1.863.868,1.125,2.214,1.863,3.742,1.863s2.874-.738,3.741-1.863c.868,1.125,2.214,1.863,3.741,1.863,1.459,0,2.75-.676,3.62-1.716l6.525,6.514-17.633,17.622L14.317,31.944l6.52-6.52Z"/>
  <path class="cls-1" d="M61,6.953H3c-.552,0-1,.447-1,1v48.094c0,.553.448,1,1,1h58c.552,0,1-.447,1-1V7.953c0-.553-.448-1-1-1ZM60,55.047H4V8.953h56v46.094Z"/>
</svg>