<?xml version="1.0" encoding="UTF-8"?>
<svg id="Layer_1" data-name="Layer 1" xmlns="http://www.w3.org/2000/svg" viewBox="0 0 64 64">
  <defs>
    <style>
      .cls-1 {
        fill: #000;
        stroke-width: 0px;
      }
    </style>
  </defs>
  <path class="cls-1" d="M4.062,8.543v46.914c0,1.919,1.561,3.479,3.479,3.479h7.954c.272,1.731,1.762,3.063,3.568,3.063h37.25c1.999,0,3.625-1.626,3.625-3.625V5.625c0-1.999-1.626-3.625-3.625-3.625H19.063c-1.807,0-3.296,1.332-3.568,3.063h-7.954c-1.919,0-3.479,1.561-3.479,3.479ZM19.063,4h37.25c.896,0,1.625.729,1.625,1.625v52.75c0,.896-.729,1.625-1.625,1.625H19.063c-.896,0-1.625-.729-1.625-1.625v-.429s.002-.006.002-.01-.002-.006-.002-.01V6.073s.002-.006.002-.01-.002-.006-.002-.01v-.429c0-.896.729-1.625,1.625-1.625ZM6.062,8.543c0-.815.664-1.479,1.479-1.479h7.897v49.873h-7.897c-.815,0-1.479-.664-1.479-1.479V8.543Z"/>
  <path class="cls-1" d="M36.909,49.334c.189.236.477.374.779.374s.59-.138.779-.374l13.417-16.708c.294-.365.294-.887,0-1.252l-13.417-16.708c-.379-.473-1.18-.473-1.559,0l-13.416,16.708c-.294.365-.294.887,0,1.252l13.416,16.708ZM37.688,16.889l12.135,15.111-12.135,15.111-12.134-15.111,12.134-15.111Z"/>
  <path class="cls-1" d="M46.595,9.203h5.281c.155,0,.281.126.281.281v5.469c0,.553.447,1,1,1s1-.447,1-1v-5.469c0-1.258-1.023-2.281-2.281-2.281h-5.281c-.553,0-1,.447-1,1s.447,1,1,1Z"/>
  <path class="cls-1" d="M23.501,56.797h5.469c.553,0,1-.447,1-1s-.447-1-1-1h-5.469c-.155,0-.281-.126-.281-.281v-5.281c0-.553-.447-1-1-1s-1,.447-1,1v5.281c0,1.258,1.023,2.281,2.281,2.281Z"/>
</svg>