<?xml version="1.0" encoding="UTF-8"?>
<svg id="Layer_1" data-name="Layer 1" xmlns="http://www.w3.org/2000/svg" viewBox="0 0 64 64">
  <defs>
    <style>
      .cls-1 {
        fill: #000;
        stroke-width: 0px;
      }
    </style>
  </defs>
  <path class="cls-1" d="M14.296,6.121l-4.832,42.761c-.139,1.231.209,2.442.98,3.411.772.97,1.878,1.581,3.111,1.72l5.627.637v2.708c0,2.56,2.083,4.643,4.643,4.643h26.098c2.56,0,4.643-2.083,4.643-4.643V14.326c0-2.56-2.083-4.643-4.643-4.643h-.459c.052-2.375-1.695-4.45-4.096-4.722l-25.931-2.932c-2.562-.29-4.854,1.549-5.141,4.091ZM52.565,14.326v43.031c0,1.457-1.186,2.643-2.643,2.643h-26.098c-1.457,0-2.643-1.186-2.643-2.643V14.326c0-1.457,1.186-2.643,2.643-2.643h26.098c1.457,0,2.643,1.186,2.643,2.643ZM47.473,9.684h-23.648c-2.56,0-4.643,2.083-4.643,4.643v38.31l-5.402-.612c-.703-.079-1.332-.426-1.771-.978-.438-.551-.637-1.24-.557-1.941L16.284,6.345c.163-1.447,1.477-2.491,2.928-2.328l25.931,2.932c1.382.156,2.384,1.363,2.33,2.734Z"/>
  <path class="cls-1" d="M25.201,34.964c-.321.175-.521.512-.521.877s.199.702.521.877l2.954,1.616c2.633,1.44,4.786,3.593,6.227,6.227l1.616,2.954c.175.321.512.52.877.52s.702-.2.877-.52l1.615-2.954c1.44-2.633,3.594-4.787,6.227-6.227l2.954-1.616c.321-.175.521-.512.521-.877s-.199-.702-.521-.877l-2.954-1.616c-2.633-1.44-4.786-3.593-6.227-6.227l-1.615-2.954c-.175-.32-.512-.52-.877-.52s-.702.199-.877.52l-1.616,2.954c-1.44,2.633-3.594,4.787-6.227,6.227l-2.954,1.616ZM36.136,28.082l.739-1.35.738,1.35c1.624,2.969,4.052,5.397,7.021,7.021l1.35.738-1.35.738c-2.97,1.625-5.397,4.052-7.021,7.021l-.738,1.35-.739-1.35c-1.624-2.969-4.052-5.397-7.021-7.021l-1.35-.738,1.35-.738c2.97-1.625,5.397-4.052,7.021-7.021Z"/>
  <path class="cls-1" d="M23.365,19.079c0,1.014.825,1.839,1.84,1.839h3.414c1.015,0,1.84-.825,1.84-1.839v-3.415c0-1.014-.825-1.839-1.84-1.839h-3.414c-1.015,0-1.84.825-1.84,1.839v3.415ZM25.365,15.825h3.094v3.093h-3.094v-3.093Z"/>
  <path class="cls-1" d="M45.13,50.765c-1.015,0-1.84.825-1.84,1.839v3.414c0,1.015.825,1.84,1.84,1.84h3.414c1.015,0,1.84-.825,1.84-1.84v-3.414c0-1.014-.825-1.839-1.84-1.839h-3.414ZM48.384,55.858h-3.094v-3.093h3.094v3.093Z"/>
</svg>