<?xml version="1.0" encoding="UTF-8"?>
<svg id="Layer_1" data-name="Layer 1" xmlns="http://www.w3.org/2000/svg" viewBox="0 0 64 64">
  <defs>
    <style>
      .cls-1 {
        fill: #000;
        stroke-width: 0px;
      }
    </style>
  </defs>
  <path class="cls-1" d="M19.463,35.435l7.847,7.847c.195.195.451.293.707.293s.512-.098.707-.293l7.853-7.847c.188-.188.293-.441.293-.707s-.105-.521-.293-.708l-1.066-1.064c.729-.448,1.22-1.245,1.22-2.161,0-1.401-1.141-2.542-2.542-2.542-.583,0-1.113.205-1.543.536-.429-.331-.96-.536-1.542-.536-.094,0-.184.018-.276.028l-2.103-2.107c-.188-.188-.442-.294-.708-.294h0c-.265,0-.52.105-.707.293l-2.107,2.107c-.089-.01-.176-.027-.268-.027-.583,0-1.113.205-1.542.535-.429-.331-.96-.535-1.542-.535-1.402,0-2.542,1.141-2.542,2.542,0,.916.491,1.713,1.22,2.16l-1.065,1.065c-.391.391-.391,1.023,0,1.414ZM28.018,41.16l-6.434-6.433,1.873-1.873c.417.301.926.482,1.478.482.582,0,1.113-.205,1.542-.535.429.331.96.535,1.542.535s1.113-.205,1.542-.535c.429.331.96.535,1.542.535.552,0,1.059-.181,1.476-.481l1.874,1.872-6.437,6.433ZM28.02,30.253c.299,0,.542.243.542.542s-.243.542-.542.542-.542-.243-.542-.542.243-.542.542-.542ZM34.189,30.253c.299,0,.542.243.542.542s-.243.542-.542.542-.542-.243-.542-.542.243-.542.542-.542ZM31.605,31.003s-.005.007-.006.011c-.085.189-.273.323-.494.323-.299,0-.542-.243-.542-.542,0-.223.136-.414.328-.497.004-.002.009-.002.013-.004.062-.025.13-.041.201-.041.299,0,.542.243.542.542,0,.074-.015.144-.042.208ZM24.936,30.253c.299,0,.542.243.542.542s-.243.542-.542.542-.542-.243-.542-.542.243-.542.542-.542ZM21.851,30.253c.299,0,.542.243.542.542s-.243.542-.542.542-.542-.243-.542-.542.243-.542.542-.542Z"/>
  <path class="cls-1" d="M3,45.162h6.918v4.5c0,.553.448,1,1,1h50.082c.35,0,.675-.183.855-.482.182-.3.192-.672.03-.982l-1.878-3.578,1.871-3.453c.17-.313.16-.692-.024-.997l-1.808-2.968,1.805-2.927c.201-.327.197-.74-.01-1.063l-1.746-2.727,1.696-2.201c.241-.313.275-.739.087-1.087l-1.894-3.494,1.933-4.467c.134-.31.103-.665-.082-.946s-.499-.451-.836-.451h-8.774l1.774-4.104c.134-.309.103-.664-.082-.945-.186-.281-.499-.451-.836-.451H3c-.552,0-1,.447-1,1v29.824c0,.553.448,1,1,1ZM11.918,20.838h32.652v27.824H11.918v-27.824ZM57.995,25.228l1.815,3.35-1.729,2.244c-.258.334-.277.794-.05,1.149l1.787,2.789-1.797,2.914c-.197.319-.198.724-.003,1.045l1.827,3-1.852,3.416c-.159.293-.161.646-.007.941l1.357,2.586h-12.775v-27.824h12.907l-1.521,3.516c-.122.282-.107.604.039.874ZM4,15.338h47.561l-1.513,3.5H10.918c-.552,0-1,.447-1,1v23.324h-5.918V15.338Z"/>
  <path class="cls-1" d="M39.998,23.837h-23.91c-.552,0-1,.447-1,1v19.826c0,.553.448,1,1,1h23.91c.553,0,1-.447,1-1v-19.826c0-.553-.447-1-1-1ZM38.998,43.663h-21.91v-17.826h21.91v17.826Z"/>
</svg>