<?xml version="1.0" encoding="UTF-8"?>
<svg id="Layer_1" data-name="Layer 1" xmlns="http://www.w3.org/2000/svg" viewBox="0 0 64 64">
  <defs>
    <style>
      .cls-1 {
        fill: #000;
        stroke-width: 0px;
      }
    </style>
  </defs>
  <path class="cls-1" d="M27.731,21.882c4.037,0,8.123-1.297,8.123-3.776s-4.086-3.776-8.123-3.776-8.123,1.297-8.123,3.776,4.086,3.776,8.123,3.776ZM27.731,16.33c3.978,0,6.123,1.26,6.123,1.776s-2.146,1.776-6.123,1.776-6.123-1.261-6.123-1.776,2.146-1.776,6.123-1.776Z"/>
  <path class="cls-1" d="M11.222,39.195c2.223,0,4.031-2.284,4.031-5.091s-1.809-5.091-4.031-5.091-4.032,2.284-4.032,5.091,1.809,5.091,4.032,5.091ZM11.222,31.013c1.101,0,2.031,1.416,2.031,3.091s-.931,3.091-2.031,3.091-2.032-1.416-2.032-3.091.931-3.091,2.032-3.091Z"/>
  <path class="cls-1" d="M20.042,49.897c2.224,0,4.032-2.284,4.032-5.091s-1.809-5.091-4.032-5.091-4.031,2.284-4.031,5.091,1.809,5.091,4.031,5.091ZM20.042,41.716c1.102,0,2.032,1.416,2.032,3.091s-.931,3.091-2.032,3.091-2.031-1.416-2.031-3.091.931-3.091,2.031-3.091Z"/>
  <path class="cls-1" d="M35.208,41.06c-1.882,0-3.355,1.835-3.355,4.178s1.474,4.178,3.355,4.178,3.355-1.835,3.355-4.178-1.474-4.178-3.355-4.178ZM35.208,47.416c-.642,0-1.355-.895-1.355-2.178s.714-2.178,1.355-2.178,1.355.895,1.355,2.178-.714,2.178-1.355,2.178Z"/>
  <path class="cls-1" d="M40.662,33.798c-1.882,0-3.355,1.835-3.355,4.178s1.474,4.178,3.355,4.178,3.355-1.835,3.355-4.178-1.474-4.178-3.355-4.178ZM40.662,40.154c-.642,0-1.355-.895-1.355-2.178s.714-2.178,1.355-2.178,1.355.895,1.355,2.178-.714,2.178-1.355,2.178Z"/>
  <path class="cls-1" d="M46.116,26.537c-1.882,0-3.355,1.835-3.355,4.178s1.474,4.178,3.355,4.178,3.355-1.835,3.355-4.178-1.474-4.178-3.355-4.178ZM46.116,32.893c-.642,0-1.355-.895-1.355-2.178s.714-2.178,1.355-2.178,1.355.895,1.355,2.178-.714,2.178-1.355,2.178Z"/>
  <path class="cls-1" d="M55.362,5.592c-1.773,0-3.44.69-4.694,1.945l-.201.202-.203-.203c-1.253-1.253-2.92-1.944-4.693-1.944s-3.44.69-4.693,1.944c-1.109,1.109-1.776,2.542-1.915,4.085l-12.243-5.457c-.287-.127-.617-.113-.893.039L2.515,19.134c-.006.003-.009.01-.015.013-.016.009-.034.014-.049.024-.084.056-.154.126-.216.202-.016.02-.029.041-.043.062-.055.079-.099.164-.13.256-.007.021-.018.039-.023.06-.022.082-.034.168-.034.255v26.299c0,.402.24.765.611.921l26.299,11.104c.022.009.045.006.067.014.09.031.181.051.275.056.016,0,.031.009.046.009.028,0,.056-.01.084-.012.062-.005.124-.01.184-.027.03-.008.057-.023.085-.034.046-.017.093-.03.137-.054l22.717-12.565c.318-.176.516-.511.516-.875v-20.885l7.03-7.032c1.254-1.25,1.945-2.917,1.945-4.695s-.691-3.445-1.945-4.694c-1.254-1.252-2.92-1.942-4.692-1.942ZM26.36,8.194l12.79,5.701c.293,1.134.876,2.177,1.726,3.027l4.274,4.274-15.904,8.805L5.287,19.884l21.074-11.689ZM28.302,55.9l-24.299-10.259v-24.128l24.299,10.26v24.128ZM30.308,55.71v-24.011l16.315-9.032,3.138,3.138c.188.188.441.293.707.293.204,0,.391-.078.557-.192v18.345l-20.717,11.459ZM58.642,15.508l-7.323,7.325s-.002.002-.003.003l-.848.849-8.177-8.176c-.876-.876-1.358-2.041-1.358-3.279s.482-2.403,1.358-3.279c.904-.904,2.092-1.356,3.279-1.356s2.375.452,3.279,1.356l.911.912c.188.188.441.293.707.293h0c.266,0,.52-.106.707-.294l.907-.91c.876-.875,2.04-1.358,3.279-1.358s2.403.482,3.279,1.358c0,0,0,0,0,.001.875.872,1.357,2.036,1.357,3.277s-.482,2.406-1.358,3.279Z"/>
</svg>