<?xml version="1.0" encoding="UTF-8"?>
<svg id="Layer_1" data-name="Layer 1" xmlns="http://www.w3.org/2000/svg" viewBox="0 0 64 64">
  <defs>
    <style>
      .cls-1 {
        fill: #000;
        stroke-width: 0px;
      }
    </style>
  </defs>
  <path class="cls-1" d="M17.5,25.604c-3.492,0-6.333,2.841-6.333,6.333s2.841,6.334,6.333,6.334,6.333-2.842,6.333-6.334-2.841-6.333-6.333-6.333ZM17.5,36.271c-2.39,0-4.333-1.944-4.333-4.334s1.943-4.333,4.333-4.333,4.333,1.943,4.333,4.333-1.943,4.334-4.333,4.334Z"/>
  <path class="cls-1" d="M58.875,16.562h-24.75c-.787,0-1.499.303-2.049.785-.565-.562-1.343-.91-2.201-.91H5.125c-1.723,0-3.125,1.402-3.125,3.125v24.75c0,1.723,1.402,3.125,3.125,3.125h24.75c.787,0,1.499-.303,2.049-.785.565.562,1.343.91,2.201.91h24.75c1.723,0,3.125-1.402,3.125-3.125v-24.75c0-1.723-1.402-3.125-3.125-3.125ZM29.875,45.438H5.125c-.62,0-1.125-.505-1.125-1.125v-24.75c0-.62.505-1.125,1.125-1.125h24.75c.62,0,1.125.505,1.125,1.125v24.75c0,.62-.505,1.125-1.125,1.125ZM60,44.438c0,.62-.505,1.125-1.125,1.125h-24.75c-.62,0-1.125-.505-1.125-1.125v-24.75c0-.62.505-1.125,1.125-1.125h24.75c.62,0,1.125.505,1.125,1.125v24.75Z"/>
  <path class="cls-1" d="M41.275,32.104c-2.918,0-5.292,2.374-5.292,5.292s2.374,5.292,5.292,5.292,5.291-2.374,5.291-5.292-2.374-5.292-5.291-5.292ZM41.275,40.688c-1.815,0-3.292-1.477-3.292-3.292s1.477-3.292,3.292-3.292,3.291,1.477,3.291,3.292-1.477,3.292-3.291,3.292Z"/>
  <path class="cls-1" d="M51.725,21.438c-2.917,0-5.291,2.374-5.291,5.291s2.374,5.292,5.291,5.292,5.292-2.374,5.292-5.292-2.374-5.291-5.292-5.291ZM51.725,30.021c-1.814,0-3.291-1.477-3.291-3.292s1.477-3.291,3.291-3.291,3.292,1.477,3.292,3.291-1.477,3.292-3.292,3.292Z"/>
</svg>