<?xml version="1.0" encoding="UTF-8"?>
<svg id="Layer_1" data-name="Layer 1" xmlns="http://www.w3.org/2000/svg" viewBox="0 0 64 64">
  <defs>
    <style>
      .cls-1 {
        fill: #000;
        stroke-width: 0px;
      }
    </style>
  </defs>
  <path class="cls-1" d="M56.726,3.964H7.274c-2.908,0-5.274,2.366-5.274,5.275v45.521c0,2.909,2.366,5.275,5.274,5.275h49.451c2.908,0,5.274-2.366,5.274-5.275V9.239c0-2.909-2.366-5.275-5.274-5.275ZM60,54.761c0,1.806-1.469,3.275-3.274,3.275H7.274c-1.806,0-3.274-1.469-3.274-3.275V9.239c0-1.806,1.469-3.275,3.274-3.275h49.451c1.806,0,3.274,1.469,3.274,3.275v45.521Z"/>
  <path class="cls-1" d="M14.455,9.615c-3.673,0-6.661,2.988-6.661,6.661s2.988,6.661,6.661,6.661,6.661-2.988,6.661-6.661-2.988-6.661-6.661-6.661ZM14.455,20.937c-2.57,0-4.661-2.091-4.661-4.661s2.091-4.661,4.661-4.661,4.661,2.091,4.661,4.661-2.091,4.661-4.661,4.661Z"/>
  <path class="cls-1" d="M49.545,9.615c-3.673,0-6.661,2.988-6.661,6.661s2.988,6.661,6.661,6.661,6.661-2.988,6.661-6.661-2.988-6.661-6.661-6.661ZM49.545,20.937c-2.57,0-4.661-2.091-4.661-4.661s2.091-4.661,4.661-4.661,4.661,2.091,4.661,4.661-2.091,4.661-4.661,4.661Z"/>
  <path class="cls-1" d="M14.455,41.063c-3.673,0-6.661,2.988-6.661,6.661s2.988,6.661,6.661,6.661,6.661-2.988,6.661-6.661-2.988-6.661-6.661-6.661ZM14.455,52.385c-2.57,0-4.661-2.091-4.661-4.661s2.091-4.661,4.661-4.661,4.661,2.091,4.661,4.661-2.091,4.661-4.661,4.661Z"/>
  <path class="cls-1" d="M49.545,41.063c-3.673,0-6.661,2.988-6.661,6.661s2.988,6.661,6.661,6.661,6.661-2.988,6.661-6.661-2.988-6.661-6.661-6.661ZM49.545,52.385c-2.57,0-4.661-2.091-4.661-4.661s2.091-4.661,4.661-4.661,4.661,2.091,4.661,4.661-2.091,4.661-4.661,4.661Z"/>
  <path class="cls-1" d="M32,23.774c-4.535,0-8.226,3.69-8.226,8.226s3.69,8.226,8.226,8.226,8.226-3.69,8.226-8.226-3.69-8.226-8.226-8.226ZM32,38.226c-3.433,0-6.226-2.793-6.226-6.226s2.793-6.226,6.226-6.226,6.226,2.793,6.226,6.226-2.793,6.226-6.226,6.226Z"/>
</svg>