<?xml version="1.0" encoding="UTF-8"?>
<svg id="Layer_1" data-name="Layer 1" xmlns="http://www.w3.org/2000/svg" viewBox="0 0 64 64">
  <defs>
    <style>
      .cls-1 {
        fill: #000;
        stroke-width: 0px;
      }
    </style>
  </defs>
  <path class="cls-1" d="M9.859,25.169c-2.419,0-4.388,1.968-4.388,4.387s1.968,4.387,4.388,4.387,4.387-1.968,4.387-4.387-1.968-4.387-4.387-4.387ZM9.859,31.944c-1.316,0-2.388-1.071-2.388-2.387s1.071-2.387,2.388-2.387,2.387,1.071,2.387,2.387-1.071,2.387-2.387,2.387Z"/>
  <path class="cls-1" d="M9.859,43.985c-2.419,0-4.388,1.968-4.388,4.387s1.968,4.388,4.388,4.388,4.387-1.968,4.387-4.388-1.968-4.387-4.387-4.387ZM9.859,50.76c-1.316,0-2.388-1.071-2.388-2.388s1.071-2.387,2.388-2.387,2.387,1.071,2.387,2.387-1.071,2.388-2.387,2.388Z"/>
  <path class="cls-1" d="M30.854,43.985c-2.419,0-4.387,1.968-4.387,4.387s1.968,4.388,4.387,4.388,4.388-1.968,4.388-4.388-1.968-4.387-4.388-4.387ZM30.854,50.76c-1.316,0-2.387-1.071-2.387-2.388s1.071-2.387,2.387-2.387,2.388,1.071,2.388,2.387-1.071,2.388-2.388,2.388Z"/>
  <path class="cls-1" d="M20.356,33.642c-2.936,0-5.324,2.388-5.324,5.323s2.388,5.323,5.324,5.323,5.323-2.388,5.323-5.323-2.388-5.323-5.323-5.323ZM20.356,42.288c-1.833,0-3.324-1.491-3.324-3.323s1.491-3.323,3.324-3.323,3.323,1.491,3.323,3.323-1.491,3.323-3.323,3.323Z"/>
  <path class="cls-1" d="M45.723,7.856c-8.976,0-16.277,5.129-16.277,11.435,0,.846.139,1.681.396,2.495H5.562c-1.964,0-3.562,1.598-3.562,3.562v27.236c0,1.964,1.598,3.562,3.562,3.562h29.589c1.964,0,3.562-1.598,3.562-3.562v-21.857h7.011c8.975,0,16.277-5.129,16.277-11.435s-7.302-11.435-16.277-11.435ZM29.206,30.108c.155.374.52.617.924.617h2.797c-.408.725-1.181,1.217-2.077,1.217-1.313,0-2.382-1.069-2.382-2.382s1.069-2.392,2.382-2.392c.132,0,.263.012.392.032l-1.818,1.818c-.286.286-.372.716-.217,1.09ZM36.712,52.583c0,.861-.701,1.562-1.562,1.562H5.562c-.861,0-1.562-.701-1.562-1.562v-27.236c0-.861.701-1.562,1.562-1.562h25.19c.315.522.683,1.029,1.107,1.513-.329-.077-.665-.131-1.009-.131-2.417,0-4.382,1.97-4.382,4.392s1.966,4.382,4.382,4.382c2.021,0,3.717-1.354,4.224-3.217h1.639v21.857ZM45.723,28.725h-13.18l2.094-2.094c.199-.199.305-.473.292-.754s-.145-.543-.361-.723c-1.018-.844-1.797-1.771-2.322-2.754-.002-.005-.006-.01-.008-.015-.523-.984-.792-2.025-.792-3.095,0-5.202,6.405-9.435,14.277-9.435s14.277,4.232,14.277,9.435-6.405,9.435-14.277,9.435Z"/>
  <path class="cls-1" d="M44.819,14.555c-.531-.141-1.082.173-1.226.706l-1.078,4.003-1.11-4.01c-.119-.428-.505-.726-.949-.733-.435.007-.839.28-.97.704l-1.252,4.037-.937-3.97c-.127-.538-.667-.873-1.203-.744-.538.126-.871.665-.744,1.203l1.778,7.539c.104.439.488.754.938.77.012,0,.023,0,.035,0,.437,0,.824-.284.955-.704l1.33-4.285,1.178,4.256c.12.433.515.733.964.733h.003c.451-.001.845-.305.962-.74l2.03-7.539c.144-.533-.172-1.082-.706-1.226Z"/>
  <path class="cls-1" d="M47.614,14.521c-.552,0-1,.448-1,1v7.539c0,.552.448,1,1,1s1-.448,1-1v-7.539c0-.552-.448-1-1-1Z"/>
  <path class="cls-1" d="M54.805,14.521c-.552,0-1,.448-1,1v3.505l-2.098-3.972c-.214-.406-.677-.615-1.125-.503-.446.111-.759.511-.759.971v7.539c0,.552.448,1,1,1s1-.448,1-1v-3.505l2.098,3.972c.176.333.52.533.884.533.08,0,.161-.009.241-.029.446-.111.759-.511.759-.971v-7.539c0-.552-.448-1-1-1Z"/>
</svg>