<?xml version="1.0" encoding="UTF-8"?>
<svg id="Layer_1" data-name="Layer 1" xmlns="http://www.w3.org/2000/svg" viewBox="0 0 64 64">
  <defs>
    <style>
      .cls-1 {
        fill: #000;
        stroke-width: 0px;
      }
    </style>
  </defs>
  <path class="cls-1" d="M61,46.92h-2.93s0-30.194,0-30.194c0-1.511-1.233-2.739-2.75-2.739h-8.008l-15.751-7.025c-.288-.13-.618-.114-.893.039l-12.59,6.986h-9.399c-1.517,0-2.75,1.229-2.75,2.739v30.195h-2.93c-.553,0-1,.447-1,1,0,5.076,4.129,9.205,9.205,9.205h41.59c5.076,0,9.205-4.13,9.205-9.206,0-.266-.105-.52-.293-.707s-.441-.293-.707-.293ZM38.385,48.921l-.769,1.618c-.14.295-.441.485-.769.485h-9.693c-.327,0-.629-.19-.769-.485l-.769-1.618h12.769ZM34.256,25.324l13.938-7.708v16.163l-13.938,7.708v-16.163ZM31.203,8.99l15.504,6.915s.004.002.006.003l.241.107-13.757,7.609-16.109-6.801,14.116-7.833ZM15.807,18.453l16.449,6.944v16.278l-16.449-6.944v-16.278ZM7.93,16.726c0-.407.337-.739.75-.739h5.795l-.153.085c-.008.005-.013.013-.021.018-.015.009-.032.013-.046.023-.083.055-.153.124-.215.2-.015.018-.026.037-.04.056-.06.084-.107.175-.139.273-.005.014-.012.026-.016.04-.023.085-.038.173-.038.264v18.449c0,.402.24.765.611.921l18.449,7.789c.014.006.029.003.042.009.112.042.228.07.346.07.091,0,.18-.015.268-.039.028-.008.053-.022.08-.032.046-.017.092-.03.136-.054l15.938-8.814c.318-.176.516-.511.516-.875V15.986h5.127c.413,0,.75.332.75.739v30.19H7.93v-30.19ZM52.795,55.126H11.205c-3.634,0-6.647-2.704-7.136-6.206h19.331s1.178,2.478,1.178,2.478c.471.987,1.48,1.626,2.575,1.626h9.693c1.095,0,2.104-.639,2.575-1.626l1.178-2.477h19.331c-.488,3.501-3.502,6.205-7.136,6.205Z"/>
  <path class="cls-1" d="M32.153,18.56c2.889,0,5.997-.922,5.997-2.947s-3.108-2.947-5.997-2.947-5.996.922-5.996,2.947,3.108,2.947,5.996,2.947ZM32.153,14.665c2.309,0,3.652.618,3.957.947-.305.33-1.648.947-3.957.947s-3.651-.617-3.956-.947c.305-.329,1.648-.947,3.956-.947Z"/>
  <path class="cls-1" d="M20.572,22.966c-1.754,0-3.127,1.7-3.127,3.87s1.373,3.87,3.127,3.87,3.126-1.7,3.126-3.87-1.373-3.87-3.126-3.87ZM20.572,28.706c-.533,0-1.127-.768-1.127-1.87s.594-1.87,1.127-1.87,1.126.768,1.126,1.87-.594,1.87-1.126,1.87Z"/>
  <path class="cls-1" d="M26.76,30.474c-1.754,0-3.127,1.7-3.127,3.87s1.373,3.87,3.127,3.87,3.127-1.7,3.127-3.87-1.373-3.87-3.127-3.87ZM26.76,36.214c-.533,0-1.127-.768-1.127-1.87s.594-1.87,1.127-1.87,1.127.768,1.127,1.87-.594,1.87-1.127,1.87Z"/>
  <path class="cls-1" d="M37.398,31.417c-1.487,0-2.652,1.419-2.652,3.229s1.165,3.229,2.652,3.229,2.652-1.419,2.652-3.229-1.165-3.229-2.652-3.229ZM37.398,35.876c-.26,0-.652-.49-.652-1.229s.393-1.229.652-1.229.652.49.652,1.229-.393,1.229-.652,1.229Z"/>
  <path class="cls-1" d="M41.225,26.322c-1.487,0-2.652,1.419-2.652,3.229s1.165,3.229,2.652,3.229,2.652-1.419,2.652-3.229-1.165-3.229-2.652-3.229ZM41.225,30.781c-.26,0-.652-.49-.652-1.229s.393-1.229.652-1.229.652.49.652,1.229-.393,1.229-.652,1.229Z"/>
  <path class="cls-1" d="M45.051,21.229c-1.487,0-2.652,1.419-2.652,3.229s1.165,3.229,2.652,3.229,2.652-1.419,2.652-3.229-1.165-3.229-2.652-3.229ZM45.051,25.688c-.26,0-.652-.49-.652-1.229s.393-1.229.652-1.229.652.49.652,1.229-.393,1.229-.652,1.229Z"/>
</svg>