<?xml version="1.0" encoding="UTF-8"?>
<svg id="Layer_1" data-name="Layer 1" xmlns="http://www.w3.org/2000/svg" viewBox="0 0 64 64">
  <defs>
    <style>
      .cls-1 {
        fill: #000;
        stroke-width: 0px;
      }
    </style>
  </defs>
  <path class="cls-1" d="M15.755,32.024v26.74c0,1.784,1.451,3.235,3.235,3.235h26.02c1.784,0,3.235-1.451,3.235-3.235v-26.74c0-.009.005-.016.005-.024s-.005-.016-.005-.024V5.235c0-1.784-1.451-3.235-3.235-3.235h-26.02c-1.784,0-3.235,1.451-3.235,3.235v26.74c0,.009-.005.016-.005.024s.005.016.005.024ZM45.01,60h-26.02c-.682,0-1.235-.554-1.235-1.235v-25.765h28.49v25.765c0,.681-.554,1.235-1.235,1.235ZM18.99,4h26.02c.682,0,1.235.554,1.235,1.235v25.765h-28.49V5.235c0-.681.554-1.235,1.235-1.235Z"/>
  <path class="cls-1" d="M25.854,16.032c2.419,0,4.387-1.968,4.387-4.387s-1.968-4.387-4.387-4.387-4.388,1.968-4.388,4.387,1.969,4.387,4.388,4.387ZM25.854,9.258c1.316,0,2.387,1.071,2.387,2.387s-1.07,2.387-2.387,2.387-2.388-1.071-2.388-2.387,1.071-2.387,2.388-2.387Z"/>
  <path class="cls-1" d="M38.146,25.722c2.419,0,4.388-1.968,4.388-4.387s-1.969-4.387-4.388-4.387-4.387,1.968-4.387,4.387,1.968,4.387,4.387,4.387ZM38.146,18.947c1.316,0,2.388,1.071,2.388,2.387s-1.071,2.387-2.388,2.387-2.387-1.071-2.387-2.387,1.07-2.387,2.387-2.387Z"/>
  <path class="cls-1" d="M32,37.597c-5.007,0-9.081,4.074-9.081,9.081s4.074,9.081,9.081,9.081,9.081-4.074,9.081-9.081-4.074-9.081-9.081-9.081ZM32,53.758c-3.904,0-7.081-3.177-7.081-7.081s3.177-7.081,7.081-7.081,7.081,3.176,7.081,7.081-3.177,7.081-7.081,7.081Z"/>
</svg>