<?xml version="1.0" encoding="UTF-8"?>
<svg id="Layer_1" data-name="Layer 1" xmlns="http://www.w3.org/2000/svg" viewBox="0 0 64 64">
  <defs>
    <style>
      .cls-1 {
        fill: #000;
        stroke-width: 0px;
      }
    </style>
  </defs>
  <path class="cls-1" d="M3.369,49.126l30.305,12.795c.015.006.031.004.046.009.111.041.226.069.343.069.09,0,.18-.015.268-.039.029-.008.056-.023.085-.034.044-.017.089-.029.131-.052l26.18-14.479c.318-.176.516-.511.516-.875v-30.305c0-.112-.025-.219-.06-.322-.009-.026-.02-.05-.031-.076-.041-.093-.093-.179-.16-.256-.01-.011-.016-.024-.026-.035-.063-.066-.134-.125-.215-.172-.022-.013-.047-.018-.069-.029-.012-.006-.019-.017-.031-.022L31.018,2.087c-.287-.128-.618-.114-.893.039L3.272,17.025c-.008.005-.013.013-.021.018-.015.009-.032.013-.046.023-.083.055-.152.124-.214.199-.016.019-.028.039-.042.059-.059.083-.106.172-.137.269-.005.015-.013.028-.017.043-.023.085-.037.173-.037.263v30.305c0,.402.241.765.611.921ZM4.758,19.408l28.305,11.951v28.134l-28.305-11.951v-28.134ZM59.242,45.931l-24.18,13.373v-28.019l24.18-13.373v28.019ZM30.66,4.117l27.343,12.195-23.999,13.273L6.04,17.778,30.66,4.117Z"/>
  <path class="cls-1" d="M32.252,19.91c4.576,0,9.208-1.442,9.208-4.199s-4.632-4.199-9.208-4.199-9.208,1.442-9.208,4.199,4.632,4.199,9.208,4.199ZM32.252,13.512c4.471,0,7.208,1.423,7.208,2.199s-2.736,2.199-7.208,2.199-7.208-1.424-7.208-2.199,2.736-2.199,7.208-2.199Z"/>
  <path class="cls-1" d="M13.228,28.433c-2.478,0-4.494,2.563-4.494,5.714s2.016,5.714,4.494,5.714,4.493-2.563,4.493-5.714-2.016-5.714-4.493-5.714ZM13.228,37.86c-1.352,0-2.494-1.701-2.494-3.714s1.142-3.714,2.494-3.714,2.493,1.701,2.493,3.714-1.142,3.714-2.493,3.714Z"/>
  <path class="cls-1" d="M23.392,40.765c-2.478,0-4.494,2.563-4.494,5.714s2.016,5.714,4.494,5.714,4.493-2.563,4.493-5.714-2.016-5.714-4.493-5.714ZM23.392,50.193c-1.352,0-2.494-1.701-2.494-3.714s1.142-3.714,2.494-3.714,2.493,1.701,2.493,3.714-1.142,3.714-2.493,3.714Z"/>
  <path class="cls-1" d="M40.868,51.638c2.083,0,3.714-2.048,3.714-4.663s-1.631-4.662-3.714-4.662-3.714,2.048-3.714,4.662,1.631,4.663,3.714,4.663ZM40.868,44.313c.929,0,1.714,1.219,1.714,2.662s-.785,2.663-1.714,2.663-1.714-1.219-1.714-2.663.785-2.662,1.714-2.662Z"/>
  <path class="cls-1" d="M47.152,43.271c2.083,0,3.714-2.048,3.714-4.663s-1.631-4.662-3.714-4.662-3.714,2.048-3.714,4.662,1.631,4.663,3.714,4.663ZM47.152,35.946c.929,0,1.714,1.219,1.714,2.662s-.785,2.663-1.714,2.663-1.714-1.219-1.714-2.663.785-2.662,1.714-2.662Z"/>
  <path class="cls-1" d="M53.437,34.903c2.083,0,3.714-2.048,3.714-4.663s-1.631-4.662-3.714-4.662-3.714,2.048-3.714,4.662,1.631,4.663,3.714,4.663ZM53.437,27.578c.929,0,1.714,1.219,1.714,2.662s-.785,2.663-1.714,2.663-1.714-1.219-1.714-2.663.785-2.662,1.714-2.662Z"/>
</svg>