<?xml version="1.0" encoding="UTF-8"?>
<svg id="Layer_1" data-name="Layer 1" xmlns="http://www.w3.org/2000/svg" viewBox="0 0 64 64">
  <defs>
    <style>
      .cls-1 {
        fill: #000;
        stroke-width: 0px;
      }
    </style>
  </defs>
  <path class="cls-1" d="M32.152,18.073c2.861,0,5.94-.916,5.94-2.925s-3.079-2.925-5.94-2.925-5.94.916-5.94,2.925,3.079,2.925,5.94,2.925ZM32.152,14.223c2.257,0,3.583.6,3.896.925-.313.325-1.64.925-3.896.925s-3.583-.6-3.896-.925c.313-.325,1.64-.925,3.896-.925Z"/>
  <path class="cls-1" d="M20.7,22.407c-1.739,0-3.103,1.686-3.103,3.837s1.363,3.838,3.103,3.838,3.104-1.686,3.104-3.838-1.363-3.837-3.104-3.837ZM20.7,28.083c-.521,0-1.103-.755-1.103-1.838s.581-1.837,1.103-1.837,1.104.786,1.104,1.837c0,1.083-.582,1.838-1.104,1.838Z"/>
  <path class="cls-1" d="M26.818,29.831c-1.739,0-3.103,1.686-3.103,3.837s1.363,3.837,3.103,3.837,3.103-1.686,3.103-3.837-1.363-3.837-3.103-3.837ZM26.818,35.505c-.521,0-1.103-.754-1.103-1.837s.581-1.837,1.103-1.837,1.103.754,1.103,1.837-.581,1.837-1.103,1.837Z"/>
  <path class="cls-1" d="M37.338,37.171c1.477,0,2.634-1.407,2.634-3.204s-1.157-3.205-2.634-3.205-2.634,1.408-2.634,3.205,1.157,3.204,2.634,3.204ZM37.338,32.763c.252,0,.634.48.634,1.205s-.382,1.204-.634,1.204-.634-.48-.634-1.204.382-1.205.634-1.205Z"/>
  <path class="cls-1" d="M41.121,32.135c1.477,0,2.634-1.408,2.634-3.205s-1.157-3.204-2.634-3.204-2.634,1.407-2.634,3.204,1.157,3.205,2.634,3.205ZM41.121,27.726c.252,0,.634.48.634,1.204s-.382,1.205-.634,1.205-.634-.48-.634-1.205.382-1.204.634-1.204Z"/>
  <path class="cls-1" d="M44.904,27.098c1.477,0,2.633-1.408,2.633-3.205s-1.156-3.205-2.633-3.205-2.634,1.408-2.634,3.205,1.157,3.205,2.634,3.205ZM44.904,22.689c.252,0,.633.48.633,1.205s-.381,1.205-.633,1.205-.634-.48-.634-1.205.382-1.205.634-1.205Z"/>
  <path class="cls-1" d="M5.276,51.091l-3.118,4.873c-.197.308-.211.699-.035,1.019.175.321.512.52.877.52h18.758c.553,0,1-.448,1-1v-3.24h18.484v3.24c0,.552.447,1,1,1h18.758c.365,0,.702-.199.877-.52.176-.32.162-.711-.035-1.019l-3.118-4.873,3.119-4.882c.196-.308.21-.699.034-1.019s-.512-.52-.877-.52h-9.852v-4.552c0-.552-.447-1-1-1h-8.896l8.232-4.555c.318-.176.516-.511.516-.875V15.449c0-.112-.025-.219-.06-.322-.008-.024-.018-.046-.029-.07-.043-.099-.098-.192-.17-.273-.005-.006-.009-.013-.015-.019-.064-.068-.136-.129-.219-.178-.025-.015-.054-.022-.08-.034-.008-.004-.012-.011-.021-.015l-17.836-7.956c-.287-.128-.617-.114-.893.039L14.515,15.591c-.013.007-.02.02-.032.027-.011.007-.024.01-.035.018-.08.053-.147.118-.208.19-.021.025-.036.051-.055.077-.053.076-.095.158-.125.246-.007.02-.017.037-.022.058-.023.085-.037.173-.037.263v18.24c0,.402.241.765.611.921l8.267,3.489h-9.024c-.553,0-1,.448-1,1v4.552H3c-.365,0-.701.199-.877.52s-.162.711.034,1.019l3.119,4.882ZM59.174,46.671l-2.48,3.882c-.21.329-.21.75,0,1.078l2.479,3.873h-15.931v-2.24h6.906c.553,0,1-.448,1-1v-5.592h8.025ZM48,33.1l-10.879,6.02h-2.881v-14.361l13.76-7.613v15.954ZM31.213,8.613l15.545,6.934-13.577,7.512-15.903-6.713,13.935-7.732ZM16,34.045v-16.068l16.24,6.855v14.287h-4.218l-12.023-5.074ZM14.854,41.119h12.963s.002,0,.002,0c.001,0,.002,0,.003,0h21.325v10.144h-6.904s-.002,0-.002,0-.002,0-.002,0h-20.479s-.002,0-.002,0-.002,0-.002,0h-6.901v-10.144ZM12.854,46.671v5.592c0,.552.447,1,1,1h6.903v2.24H4.827l2.479-3.873c.211-.328.211-.749,0-1.078l-2.48-3.882h8.028Z"/>
</svg>