<?xml version="1.0" encoding="UTF-8"?>
<svg id="Layer_1" data-name="Layer 1" xmlns="http://www.w3.org/2000/svg" viewBox="0 0 64 64">
  <defs>
    <style>
      .cls-1 {
        fill: #000;
        stroke-width: 0px;
      }
    </style>
  </defs>
  <path class="cls-1" d="M17.5,40.167c-3.492,0-6.333,2.841-6.333,6.333s2.841,6.333,6.333,6.333,6.333-2.841,6.333-6.333-2.841-6.333-6.333-6.333ZM17.5,50.833c-2.39,0-4.333-1.943-4.333-4.333s1.944-4.333,4.333-4.333,4.333,1.943,4.333,4.333-1.944,4.333-4.333,4.333Z"/>
  <path class="cls-1" d="M58.875,30.999h-11.27c.136-.35.218-.727.218-1.124V5.125c0-1.723-1.402-3.125-3.125-3.125h-24.75c-1.723,0-3.125,1.402-3.125,3.125v24.75c0,.398.082.775.218,1.125H5.125c-1.723,0-3.125,1.402-3.125,3.125v24.75c0,1.723,1.402,3.125,3.125,3.125h24.75c.823,0,1.567-.326,2.126-.848.559.521,1.302.847,2.124.847h24.75c1.723,0,3.125-1.402,3.125-3.125v-24.75c0-1.723-1.402-3.125-3.125-3.125ZM18.823,29.875V5.125c0-.62.505-1.125,1.125-1.125h24.75c.62,0,1.125.505,1.125,1.125v24.75c0,.618-.502,1.121-1.12,1.124h-10.578s-.006,0-.01,0h-14.168c-.62,0-1.125-.505-1.125-1.125ZM31,58.875c0,.62-.505,1.125-1.125,1.125H5.125c-.62,0-1.125-.505-1.125-1.125v-24.75c0-.62.505-1.125,1.125-1.125h24.75c.62,0,1.125.505,1.125,1.125v24.749h0ZM60,58.874c0,.62-.505,1.125-1.125,1.125h-24.75c-.62,0-1.125-.505-1.125-1.125v-24.749h0c0-.619.502-1.122,1.12-1.125h10.578s.006,0,.01,0h14.168c.62,0,1.125.505,1.125,1.125v24.75Z"/>
  <path class="cls-1" d="M41.275,46.54c-2.918,0-5.292,2.374-5.292,5.292s2.374,5.292,5.292,5.292,5.292-2.374,5.292-5.292-2.374-5.292-5.292-5.292ZM41.275,55.124c-1.815,0-3.292-1.477-3.292-3.292s1.477-3.292,3.292-3.292,3.292,1.477,3.292,3.292-1.477,3.292-3.292,3.292Z"/>
  <path class="cls-1" d="M51.725,35.874c-2.918,0-5.292,2.374-5.292,5.291s2.374,5.292,5.292,5.292,5.292-2.374,5.292-5.292-2.374-5.291-5.292-5.291ZM51.725,44.457c-1.815,0-3.292-1.477-3.292-3.292s1.477-3.291,3.292-3.291,3.292,1.477,3.292,3.291-1.477,3.292-3.292,3.292Z"/>
  <path class="cls-1" d="M25.408,20.358c-2.236,0-4.055,1.819-4.055,4.056s1.819,4.056,4.055,4.056,4.056-1.819,4.056-4.056-1.819-4.056-4.056-4.056ZM25.408,26.47c-1.133,0-2.055-.922-2.055-2.056s.922-2.056,2.055-2.056,2.056.922,2.056,2.056-.922,2.056-2.056,2.056Z"/>
  <path class="cls-1" d="M32.323,21.556c2.236,0,4.055-1.819,4.055-4.056s-1.819-4.056-4.055-4.056-4.056,1.819-4.056,4.056,1.819,4.056,4.056,4.056ZM32.323,15.444c1.133,0,2.055.922,2.055,2.056s-.922,2.056-2.055,2.056-2.056-.922-2.056-2.056.922-2.056,2.056-2.056Z"/>
  <path class="cls-1" d="M39.237,14.642c2.236,0,4.056-1.819,4.056-4.056s-1.819-4.056-4.056-4.056-4.055,1.819-4.055,4.056,1.819,4.056,4.055,4.056ZM39.237,8.53c1.133,0,2.056.922,2.056,2.056s-.922,2.056-2.056,2.056-2.055-.922-2.055-2.056.922-2.056,2.055-2.056Z"/>
</svg>