<?xml version="1.0" encoding="UTF-8"?>
<svg id="Layer_1" data-name="Layer 1" xmlns="http://www.w3.org/2000/svg" viewBox="0 0 64 64">
  <defs>
    <style>
      .cls-1 {
        fill: #000;
        stroke-width: 0px;
      }
    </style>
  </defs>
  <path class="cls-1" d="M12.122,44.104l20.912,8.83c.014.006.03.004.044.009.112.042.228.07.345.07.092,0,.182-.015.271-.04.023-.007.045-.019.068-.027.049-.018.099-.032.146-.058l18.065-9.992c.318-.176.516-.511.516-.875v-20.913c0-.111-.024-.218-.059-.32-.01-.028-.021-.053-.033-.08-.04-.091-.091-.175-.156-.25-.011-.013-.018-.027-.03-.039-.063-.066-.134-.124-.214-.172-.022-.013-.047-.018-.069-.03-.012-.006-.019-.017-.031-.022l-20.448-9.121c-.287-.129-.618-.114-.893.039l-18.53,10.282c-.008.005-.013.013-.021.018-.015.009-.032.013-.046.023-.083.055-.153.125-.215.2-.015.018-.027.038-.041.057-.06.084-.107.174-.139.273-.004.014-.012.026-.016.04-.023.085-.038.173-.038.264v20.913c0,.402.24.765.611.921ZM32.423,50.504l-18.912-7.985v-18.742l18.912,7.985v18.742ZM50.489,41.431l-16.065,8.886v-18.627l16.065-8.886v18.627ZM31.09,13.104l18.16,8.1-15.885,8.786-18.572-7.842,16.298-9.043Z"/>
  <path class="cls-1" d="M32.174,23.967c3.21,0,6.664-1.004,6.664-3.208s-3.454-3.208-6.664-3.208-6.663,1.004-6.663,3.208,3.454,3.208,6.663,3.208ZM32.174,19.552c2.848,0,4.457.848,4.654,1.208-.197.36-1.807,1.208-4.654,1.208-2.927,0-4.546-.896-4.667-1.178.121-.341,1.74-1.237,4.667-1.237Z"/>
  <path class="cls-1" d="M19.046,37.734c1.912,0,3.41-1.868,3.41-4.253s-1.498-4.253-3.41-4.253-3.411,1.868-3.411,4.253,1.498,4.253,3.411,4.253ZM19.046,31.228c.667,0,1.41.925,1.41,2.253s-.743,2.253-1.41,2.253-1.411-.925-1.411-2.253.744-2.253,1.411-2.253Z"/>
  <path class="cls-1" d="M26.06,46.245c1.913,0,3.411-1.868,3.411-4.253s-1.498-4.253-3.411-4.253-3.411,1.868-3.411,4.253,1.498,4.253,3.411,4.253ZM26.06,39.739c.667,0,1.411.925,1.411,2.253s-.744,2.253-1.411,2.253-1.411-.925-1.411-2.253.744-2.253,1.411-2.253Z"/>
  <path class="cls-1" d="M38.119,45.862c1.611,0,2.873-1.549,2.873-3.527s-1.262-3.527-2.873-3.527-2.873,1.549-2.873,3.527,1.262,3.527,2.873,3.527ZM38.119,40.807c.412,0,.873.653.873,1.527s-.461,1.527-.873,1.527-.873-.653-.873-1.527.461-1.527.873-1.527Z"/>
  <path class="cls-1" d="M42.456,40.087c1.611,0,2.873-1.549,2.873-3.527s-1.262-3.527-2.873-3.527-2.872,1.549-2.872,3.527,1.262,3.527,2.872,3.527ZM42.456,35.033c.412,0,.873.653.873,1.527s-.461,1.527-.873,1.527-.872-.653-.872-1.527.46-1.527.872-1.527Z"/>
  <path class="cls-1" d="M46.794,34.313c1.611,0,2.873-1.549,2.873-3.527s-1.262-3.527-2.873-3.527-2.873,1.549-2.873,3.527,1.262,3.527,2.873,3.527ZM46.794,29.258c.412,0,.873.653.873,1.527s-.461,1.527-.873,1.527-.873-.653-.873-1.527.461-1.527.873-1.527Z"/>
  <path class="cls-1" d="M3.468,37.791c-.755,2.328.067,4.857,2.046,6.295l3.972,2.886c.624.453,1.08,1.081,1.318,1.815l1.517,4.668c.757,2.327,2.909,3.891,5.356,3.891h4.908c.771,0,1.51.24,2.134.693l3.972,2.885c.99.719,2.149,1.079,3.31,1.079s2.319-.36,3.31-1.079l3.972-2.885c.624-.454,1.362-.693,2.134-.693h4.908c2.447,0,4.6-1.564,5.356-3.891l1.517-4.669c.238-.734.694-1.361,1.319-1.815l3.971-2.885c1.979-1.438,2.801-3.968,2.046-6.296l-1.518-4.667c-.238-.734-.238-1.511,0-2.245l1.518-4.668c.755-2.328-.067-4.857-2.046-6.295l-3.972-2.886c-.624-.453-1.08-1.081-1.318-1.815l-1.517-4.668c-.757-2.327-2.909-3.891-5.356-3.891h-4.908c-.771,0-1.51-.24-2.134-.693l-3.972-2.885c-1.98-1.438-4.639-1.438-6.619,0l-3.972,2.885c-.624.454-1.362.693-2.134.693h-4.908c-2.447,0-4.6,1.564-5.356,3.891l-1.517,4.669c-.238.734-.694,1.361-1.319,1.815l-3.971,2.885c-1.979,1.438-2.801,3.968-2.046,6.296l1.518,4.667c.238.734.238,1.511,0,2.245l-1.518,4.668ZM6.888,30.26l-1.518-4.667c-.487-1.501.043-3.133,1.319-4.06l3.97-2.885c.97-.704,1.678-1.677,2.047-2.816l1.517-4.668c.487-1.501,1.876-2.509,3.454-2.509h4.908c1.197,0,2.341-.372,3.31-1.075l3.972-2.885c1.275-.928,2.992-.928,4.268,0l3.972,2.885c.969.704,2.112,1.075,3.31,1.075h4.908c1.578,0,2.967,1.008,3.454,2.509l1.517,4.668c.369,1.139,1.077,2.113,2.046,2.816l3.971,2.885c1.276.927,1.807,2.559,1.319,4.06l-1.518,4.668c-.369,1.138-.369,2.341,0,3.48l1.518,4.667c.487,1.501-.043,3.133-1.319,4.06l-3.97,2.885c-.97.704-1.678,1.677-2.047,2.816l-1.517,4.668c-.487,1.501-1.876,2.509-3.454,2.509h-4.908c-1.197,0-2.341.372-3.31,1.075l-3.972,2.885c-1.275.928-2.992.928-4.268,0l-3.972-2.885c-.969-.704-2.112-1.075-3.31-1.075h-4.908c-1.578,0-2.967-1.008-3.454-2.509l-1.517-4.668c-.369-1.139-1.077-2.113-2.046-2.816l-3.971-2.885c-1.276-.927-1.807-2.559-1.319-4.06l1.518-4.668c.369-1.138.369-2.341,0-3.48Z"/>
</svg>