<?xml version="1.0" encoding="UTF-8"?>
<svg id="Layer_1" data-name="Layer 1" xmlns="http://www.w3.org/2000/svg" viewBox="0 0 64 64">
  <defs>
    <style>
      .cls-1 {
        fill: #000;
        stroke-width: 0px;
      }
    </style>
  </defs>
  <path class="cls-1" d="M50.631,9.128H13.369c-2.338,0-4.24,1.902-4.24,4.24v37.263c0,2.338,1.902,4.24,4.24,4.24h37.262c2.338,0,4.24-1.902,4.24-4.24V13.369c0-2.338-1.902-4.24-4.24-4.24ZM52.871,50.631c0,1.235-1.005,2.24-2.24,2.24H13.369c-1.235,0-2.24-1.005-2.24-2.24V13.369c0-1.235,1.005-2.24,2.24-2.24h37.262c1.235,0,2.24,1.005,2.24,2.24v37.263Z"/>
  <path class="cls-1" d="M57.76,2H6.24c-2.338,0-4.24,1.902-4.24,4.24v51.52c0,2.338,1.902,4.24,4.24,4.24h51.52c2.338,0,4.24-1.902,4.24-4.24V6.24c0-2.338-1.902-4.24-4.24-4.24ZM60,57.76c0,1.235-1.005,2.24-2.24,2.24H6.24c-1.235,0-2.24-1.005-2.24-2.24V6.24c0-1.235,1.005-2.24,2.24-2.24h51.52c1.235,0,2.24,1.005,2.24,2.24v51.52Z"/>
  <path class="cls-1" d="M20.354,38.323c-3.06,0-5.548,2.489-5.548,5.548s2.488,5.548,5.548,5.548,5.549-2.489,5.549-5.548-2.489-5.548-5.549-5.548ZM20.354,47.419c-1.956,0-3.548-1.592-3.548-3.548s1.592-3.548,3.548-3.548,3.549,1.592,3.549,3.548-1.592,3.548-3.549,3.548Z"/>
  <path class="cls-1" d="M32,26.452c-3.06,0-5.549,2.489-5.549,5.548s2.489,5.548,5.549,5.548,5.549-2.489,5.549-5.548-2.489-5.548-5.549-5.548ZM32,35.548c-1.957,0-3.549-1.592-3.549-3.548s1.592-3.548,3.549-3.548,3.549,1.592,3.549,3.548-1.592,3.548-3.549,3.548Z"/>
  <path class="cls-1" d="M43.646,14.581c-3.06,0-5.549,2.489-5.549,5.548s2.489,5.548,5.549,5.548,5.548-2.489,5.548-5.548-2.488-5.548-5.548-5.548ZM43.646,23.677c-1.957,0-3.549-1.592-3.549-3.548s1.592-3.548,3.549-3.548,3.548,1.592,3.548,3.548-1.592,3.548-3.548,3.548Z"/>
  <path class="cls-1" d="M14.483,20.193c.553,0,1-.448,1-1v-.968c0-.552-.447-1-1-1s-1,.448-1,1v.968c0,.552.447,1,1,1Z"/>
  <path class="cls-1" d="M15.483,31v-7.83c0-.552-.447-1-1-1s-1,.448-1,1v7.83c0,.552.447,1,1,1s1-.448,1-1Z"/>
</svg>