<?xml version="1.0" encoding="UTF-8"?>
<svg id="Layer_1" data-name="Layer 1" xmlns="http://www.w3.org/2000/svg" viewBox="0 0 64 64">
  <defs>
    <style>
      .cls-1 {
        fill: #000;
        stroke-width: 0px;
      }
    </style>
  </defs>
  <path class="cls-1" d="M59.801,18.953h-4.402v-3.945c0-1.211-.985-2.196-2.196-2.196H4.196c-1.211,0-2.196.985-2.196,2.196v27.835c0,1.211.985,2.196,2.196,2.196h4.405v3.949c0,1.213.986,2.199,2.199,2.199h37.553s.006.001.009.001c.003,0,.006-.001.009-.001h11.428c1.213,0,2.199-.986,2.199-2.199v-27.836c0-1.213-.986-2.199-2.199-2.199ZM4.196,43.039c-.112,0-.196-.084-.196-.196V15.008c0-.112.084-.196.196-.196h49.006c.108,0,.196.088.196.196v3.945H10.801c-1.213,0-2.199.986-2.199,2.199v21.887h-4.405ZM10.602,48.988v-27.836c0-.11.09-.199.199-.199h49c.109,0,.199.089.199.199v17.543c-1.133.264-1.978.77-2.489,1.535-.622.93-.541,1.895-.481,2.6.049.57.067.905-.111,1.161-.307.441-1.151.446-2.406.403-.95-.032-2.023-.069-2.991.245-1.677.543-2.942,2.043-3.863,4.55H10.801c-.109,0-.199-.089-.199-.199ZM59.801,49.188h-9.992c.64-1.459,1.419-2.353,2.328-2.647.635-.206,1.48-.178,2.307-.148,1.485.049,3.166.108,4.116-1.259.599-.859.523-1.753.463-2.472-.053-.621-.071-.988.15-1.319.163-.244.447-.432.827-.574v8.22c0,.11-.09.199-.199.199Z"/>
  <path class="cls-1" d="M14.136,34.669h9.491c.553,0,1-.448,1-1v-9.49c0-.552-.447-1-1-1h-9.491c-.553,0-1,.448-1,1v9.49c0,.552.447,1,1,1ZM15.136,25.179h7.491v7.49h-7.491v-7.49Z"/>
  <path class="cls-1" d="M29.727,27.837h10.005c.553,0,1-.448,1-1s-.447-1-1-1h-10.005c-.553,0-1,.448-1,1s.447,1,1,1Z"/>
  <path class="cls-1" d="M29.727,32.011h23.366c.553,0,1-.448,1-1s-.447-1-1-1h-23.366c-.553,0-1,.448-1,1s.447,1,1,1Z"/>
  <path class="cls-1" d="M14.136,39.586h20.279c.553,0,1-.448,1-1s-.447-1-1-1H14.136c-.553,0-1,.448-1,1s.447,1,1,1Z"/>
  <path class="cls-1" d="M46.078,41.103H14.136c-.553,0-1,.448-1,1s.447,1,1,1h31.942c.553,0,1-.448,1-1s-.447-1-1-1Z"/>
  <path class="cls-1" d="M29.155,44.619h-15.02c-.553,0-1,.448-1,1s.447,1,1,1h15.02c.553,0,1-.448,1-1s-.447-1-1-1Z"/>
</svg>