<?xml version="1.0" encoding="UTF-8"?>
<svg id="Layer_1" data-name="Layer 1" xmlns="http://www.w3.org/2000/svg" viewBox="0 0 64 64">
  <defs>
    <style>
      .cls-1 {
        fill: #000;
        stroke-width: 0px;
      }
    </style>
  </defs>
  <path class="cls-1" d="M59.647,13.94H4.353c-1.297,0-2.353,1.056-2.353,2.353v31.412c0,1.297,1.056,2.353,2.353,2.353h42.375s.008.002.012.002c.004,0,.008-.002.012-.002h12.894c1.297,0,2.353-1.056,2.353-2.353v-31.412c0-1.297-1.056-2.353-2.353-2.353ZM4,47.705v-31.412c0-.195.158-.353.353-.353h55.294c.195,0,.353.158.353.353v19.903c-1.294.283-2.257.841-2.831,1.697-.677,1.012-.591,2.032-.521,2.851.057.673.078,1.069-.148,1.395-.385.552-1.321.56-2.826.509-1.11-.038-2.259-.077-3.331.27-1.871.605-3.281,2.3-4.308,5.14H4.353c-.195,0-.353-.158-.353-.353ZM59.647,48.058h-11.469c.753-1.787,1.683-2.882,2.781-3.237.739-.239,1.709-.206,2.646-.174,1.64.058,3.502.12,4.535-1.365.651-.932.567-1.916.5-2.706-.06-.708-.083-1.162.19-1.57.223-.333.627-.578,1.169-.751v9.45c0,.195-.158.353-.353.353Z"/>
  <path class="cls-1" d="M8.117,31.419h10.709c.552,0,1-.448,1-1v-10.71c0-.552-.448-1-1-1h-10.709c-.552,0-1,.448-1,1v10.71c0,.552.448,1,1,1ZM9.117,20.709h8.709v8.71h-8.709v-8.71Z"/>
  <path class="cls-1" d="M25.709,23.709h11.291c.552,0,1-.448,1-1s-.448-1-1-1h-11.291c-.552,0-1,.448-1,1s.448,1,1,1Z"/>
  <path class="cls-1" d="M25.709,28.419h26.367c.552,0,1-.448,1-1s-.448-1-1-1h-26.367c-.552,0-1,.448-1,1s.448,1,1,1Z"/>
  <path class="cls-1" d="M8.117,36.967h22.883c.552,0,1-.448,1-1s-.448-1-1-1H8.117c-.552,0-1,.448-1,1s.448,1,1,1Z"/>
  <path class="cls-1" d="M44.161,38.935H8.117c-.552,0-1,.448-1,1s.448,1,1,1h36.044c.552,0,1-.448,1-1s-.448-1-1-1Z"/>
  <path class="cls-1" d="M25.064,42.903H8.117c-.552,0-1,.448-1,1s.448,1,1,1h16.948c.552,0,1-.448,1-1s-.448-1-1-1Z"/>
</svg>