<?xml version="1.0" encoding="UTF-8"?>
<svg id="Layer_1" data-name="Layer 1" xmlns="http://www.w3.org/2000/svg" viewBox="0 0 64 64">
  <defs>
    <style>
      .cls-1 {
        fill: #000;
        stroke-width: 0px;
      }
    </style>
  </defs>
  <path class="cls-1" d="M7.76,23.682h9.963c.553,0,1-.448,1-1v-9.963c0-.552-.447-1-1-1H7.76c-.553,0-1,.448-1,1v9.963c0,.552.447,1,1,1ZM8.76,13.719h7.963v7.963h-7.963v-7.963Z"/>
  <path class="cls-1" d="M24.126,16.51h10.503c.553,0,1-.448,1-1s-.447-1-1-1h-10.503c-.553,0-1,.448-1,1s.447,1,1,1Z"/>
  <path class="cls-1" d="M24.126,20.891h24.528c.553,0,1-.448,1-1s-.447-1-1-1h-24.528c-.553,0-1,.448-1,1s.447,1,1,1Z"/>
  <path class="cls-1" d="M7.76,28.843h21.288c.553,0,1-.448,1-1s-.447-1-1-1H7.76c-.553,0-1,.448-1,1s.447,1,1,1Z"/>
  <path class="cls-1" d="M23.526,34.226H7.76c-.553,0-1,.448-1,1s.447,1,1,1h15.767c.553,0,1-.448,1-1s-.447-1-1-1Z"/>
  <path class="cls-1" d="M57.956,20.399v-10.861c0-1.244-1.012-2.256-2.256-2.256H4.256c-1.244,0-2.256,1.012-2.256,2.256v29.229c0,1.244,1.012,2.256,2.256,2.256h36.385c1.331,1.82,3.187,3.224,5.349,3.993v1.727c-4.311.74-7.565,4.515-7.565,8.975,0,.552.447,1,1,1h20.683c.553,0,1-.448,1-1,0-2.324-.877-4.539-2.471-6.239-1.368-1.45-3.153-2.401-5.102-2.735v-1.727c4.308-1.531,7.417-5.594,7.523-10.394.001-.017.002-.034.002-.051.001-.068.01-.133.01-.201,0-1.767-.419-3.433-1.144-4.924,1.28-.944,2.074-2.446,2.074-4.072,0-2.448-1.739-4.497-4.044-4.975ZM4.256,39.023c-.137,0-.256-.12-.256-.256V9.538c0-.136.119-.256.256-.256h51.444c.137,0,.256.12.256.256v10.855c-1.637.321-3.017,1.436-3.682,2.961-.809-.184-1.647-.291-2.512-.291-4.885,0-9.044,3.12-10.621,7.467H7.763c-.553,0-1,.448-1,1s.447,1,1,1h30.857c-.099.6-.163,1.212-.163,1.84,0,.884.112,1.741.305,2.568.003.016-.003.031,0,.047.006.03.024.054.033.083.167.678.391,1.332.675,1.956H4.256ZM58.903,32.641c-.417-.304-.821-.628-1.195-.987-.811-.778-1.515-1.688-2.092-2.701-.147-.258-.402-.438-.695-.49-.291-.053-.593.029-.82.222-2.486,2.105-5.265,3.829-8.255,5.121-1.721.739-3.502,1.322-5.304,1.758-.051-.392-.086-.789-.086-1.195,0-5.132,4.175-9.307,9.307-9.307,4.541,0,8.327,3.271,9.14,7.578ZM52.466,48.628c1.804.123,3.478.913,4.713,2.222,1.013,1.079,1.654,2.426,1.857,3.868h-2.41c-.009,0-.017-.005-.027-.005h-13.662c-.01,0-.017.005-.027.005h-2.417c.466-3.27,3.181-5.864,6.562-6.09.525-.035.934-.471.934-.998v-2.106c.579.092,1.169.153,1.773.153s1.193-.061,1.771-.153v2.106c0,.526.407.962.932.998ZM49.763,43.677c-4.03,0-7.459-2.579-8.75-6.169,1.911-.462,3.798-1.081,5.625-1.865,2.82-1.219,5.461-2.798,7.865-4.702.537.787,1.147,1.509,1.821,2.156.818.783,1.729,1.452,2.71,2.007-.377,4.789-4.387,8.572-9.27,8.572ZM58.893,27.727c-1.196-1.638-2.812-2.951-4.699-3.758.518-1.003,1.559-1.677,2.732-1.677.006,0,.011.002.017.002.005,0,.009.003.013.003.001,0,.003,0,.004,0,1.679.019,3.04,1.391,3.04,3.078,0,.92-.419,1.778-1.107,2.353Z"/>
</svg>