<?xml version="1.0" encoding="UTF-8"?>
<svg id="Layer_1" data-name="Layer 1" xmlns="http://www.w3.org/2000/svg" viewBox="0 0 64 64">
  <defs>
    <style>
      .cls-1 {
        fill: #000;
        stroke-width: 0px;
      }
    </style>
  </defs>
  <path class="cls-1" d="M7.642,27.307h9.715c.552,0,1-.448,1-1v-9.715c0-.552-.448-1-1-1H7.642c-.552,0-1,.448-1,1v9.715c0,.552.448,1,1,1ZM8.642,17.592h7.715v7.715h-7.715v-7.715Z"/>
  <path class="cls-1" d="M23.602,20.313h10.242c.552,0,1-.448,1-1s-.448-1-1-1h-10.242c-.552,0-1,.448-1,1s.448,1,1,1Z"/>
  <path class="cls-1" d="M23.602,24.586h23.919c.552,0,1-.448,1-1s-.448-1-1-1h-23.919c-.552,0-1,.448-1,1s.448,1,1,1Z"/>
  <path class="cls-1" d="M7.642,32.341h20.759c.552,0,1-.448,1-1s-.448-1-1-1H7.642c-.552,0-1,.448-1,1s.448,1,1,1Z"/>
  <path class="cls-1" d="M23.016,37.54H7.642c-.552,0-1,.448-1,1s.448,1,1,1h15.375c.552,0,1-.448,1-1s-.448-1-1-1Z"/>
  <path class="cls-1" d="M56.616,28.971v-15.481c0-1.227-.998-2.225-2.225-2.225H4.225c-1.227,0-2.225.998-2.225,2.225v28.503c0,1.227.998,2.225,2.225,2.225h35.245l8.225,8.225c.188.188.442.293.707.293s.52-.105.707-.293l10.623-10.626c1.463-1.459,2.27-3.404,2.27-5.477s-.806-4.017-2.269-5.476c-.903-.902-1.976-1.529-3.116-1.892ZM4.225,42.217c-.12,0-.225-.105-.225-.225V13.49c0-.12.105-.225.225-.225h50.166c.12,0,.225.105.225.225v15.126c-2.102-.097-4.236.646-5.837,2.249l-.379.38-.382-.382c-3.02-3.02-7.933-3.02-10.951,0-.879.878-1.515,1.933-1.888,3.082H7.645c-.552,0-1,.448-1,1s.448,1,1,1h27.172c-.007.131-.019.262-.019.394,0,2.068.806,4.013,2.269,5.476l.403.403H4.225ZM58.317,40.4l-9.917,9.92-7.804-7.804-.01-.01-2.106-2.106c-1.085-1.085-1.683-2.527-1.683-4.062s.598-2.977,1.683-4.062c1.12-1.12,2.591-1.68,4.062-1.68s2.942.56,4.062,1.68l1.091,1.09c.188.188.442.293.707.293h0c.266,0,.52-.106.708-.294l1.084-1.089c2.24-2.239,5.884-2.238,8.124,0,0,0,0,0,0,.001,1.084,1.081,1.682,2.522,1.682,4.06s-.597,2.979-1.683,4.062Z"/>
</svg>