<?xml version="1.0" encoding="UTF-8"?>
<svg id="Layer_1" data-name="Layer 1" xmlns="http://www.w3.org/2000/svg" viewBox="0 0 64 64">
  <defs>
    <style>
      .cls-1 {
        fill: #000;
        stroke-width: 0px;
      }
    </style>
  </defs>
  <path class="cls-1" d="M25.254,16.226c-.028.275-.061.566-.101.873-.543,4.206-3.154,7.95-7.165,10.272-6.195,3.586-9.894,9.377-9.894,15.491,0,10.553,10.724,19.138,23.905,19.138s23.905-8.585,23.905-19.138c0-6.102-3.683-11.887-9.852-15.475-3.143-1.828-5.477-4.914-6.404-8.465-.233-.89-.432-1.795-.601-2.69v-5.077c2.034-.654,3.66-2.297,4.223-4.447l.903-3.456c.078-.3.013-.619-.177-.864-.188-.245-.481-.389-.791-.389h-21.332c-.31,0-.603.144-.791.389-.189.245-.255.564-.177.864l.903,3.456c.488,1.867,1.784,3.342,3.445,4.131v5.379s-.002.004-.002.007ZM45.048,29.116c5.546,3.227,8.857,8.365,8.857,13.746,0,9.45-9.827,17.138-21.905,17.138s-21.905-7.688-21.905-17.138c0-5.393,3.325-10.536,8.896-13.761,4.555-2.636,7.523-6.918,8.146-11.746.002-.009.003-.019.004-.027h10.083c.145.702.31,1.405.49,2.1h0c1.062,4.063,3.734,7.594,7.334,9.688ZM23.746,6.203l-.576-2.203h18.742l-.576,2.203c-.503,1.924-2.243,3.268-4.232,3.268h-9.126c-1.988,0-3.729-1.344-4.231-3.268ZM27.978,11.471h9.071v3.853h-9.793v-3.913c.239.027.477.061.722.061Z"/>
  <path class="cls-1" d="M33,27.64v-1.414c0-.553-.447-1-1-1s-1,.447-1,1v1.414c-3.417.488-6.057,3.427-6.057,6.977s2.639,6.489,6.057,6.977v10.091c-2.311-.466-4.057-2.51-4.057-4.956,0-.553-.447-1-1-1s-1,.447-1,1c0,3.55,2.639,6.489,6.057,6.977v1.413c0,.553.447,1,1,1s1-.447,1-1v-1.413c3.417-.488,6.057-3.427,6.057-6.977s-2.639-6.489-6.057-6.977v-10.091c2.311.466,4.057,2.51,4.057,4.956,0,.553.447,1,1,1s1-.447,1-1c0-3.55-2.639-6.489-6.057-6.977ZM26.943,34.617c0-2.446,1.746-4.49,4.057-4.956v9.911c-2.311-.466-4.057-2.51-4.057-4.956ZM37.057,46.73c0,2.446-1.746,4.49-4.057,4.956v-9.911c2.311.466,4.057,2.51,4.057,4.956Z"/>
  <path class="cls-1" d="M15.723,48.886c-.394-.598-.742-1.234-1.035-1.891-.225-.503-.814-.733-1.321-.505-.504.226-.73.816-.505,1.321.337.754.737,1.485,1.189,2.174,1.084,1.647,2.475,3.072,4.133,4.236.175.123.375.182.573.182.314,0,.625-.148.819-.426.317-.452.208-1.075-.244-1.393-1.451-1.019-2.665-2.263-3.609-3.699Z"/>
  <path class="cls-1" d="M21.149,54.41c-.189.189-.3.449-.3.71,0,.27.11.52.3.71.181.189.44.29.71.29.261,0,.511-.101.7-.29.19-.19.3-.44.3-.71,0-.261-.109-.521-.3-.71-.37-.37-1.04-.37-1.41,0Z"/>
</svg>