<?xml version="1.0" encoding="UTF-8"?>
<svg id="Layer_1" data-name="Layer 1" xmlns="http://www.w3.org/2000/svg" viewBox="0 0 64 64">
  <defs>
    <style>
      .cls-1 {
        fill: #000;
        stroke-width: 0px;
      }
    </style>
  </defs>
  <path class="cls-1" d="M16.033,40.215h2.375v20.785c0,.552.448,1,1,1h25.185c.552,0,1-.448,1-1v-20.785h2.375c5.509,0,9.991-4.482,9.991-9.991V8.314c0-2.704-2.2-4.903-4.903-4.903s-4.904,2.2-4.904,4.903v21.91c0,.102-.083.184-.184.184h-9.655c3.122-2.059,5.19-5.593,5.19-9.604,0-6.342-5.16-11.502-11.502-11.502s-11.502,5.16-11.502,11.502c0,4.012,2.068,7.546,5.19,9.604h-9.655c-.101,0-.184-.083-.184-.184V6.904c0-2.704-2.2-4.904-4.904-4.904s-4.903,2.2-4.903,4.904v23.32c0,5.509,4.482,9.991,9.991,9.991ZM22.498,20.804c0-5.239,4.263-9.502,9.502-9.502s9.502,4.263,9.502,9.502-4.263,9.502-9.502,9.502-9.502-4.263-9.502-9.502ZM20.408,60v-4.1h23.185v4.1h-23.185ZM8.042,6.904c0-1.601,1.302-2.904,2.903-2.904s2.904,1.303,2.904,2.904v23.32c0,1.204.979,2.184,2.184,2.184h31.934c1.204,0,2.184-.98,2.184-2.184V8.314c0-1.601,1.303-2.903,2.904-2.903s2.903,1.302,2.903,2.903v21.91c0,4.406-3.584,7.991-7.991,7.991h-3.375c-.552,0-1,.448-1,1v14.685h-23.185v-14.685c0-.552-.448-1-1-1h-3.375c-4.406,0-7.991-3.585-7.991-7.991V6.904Z"/>
  <path class="cls-1" d="M33,27.965v-.297c1.722-.447,3.003-2.001,3.003-3.861,0-2.207-1.796-4.003-4.003-4.003-1.104,0-2.003-.899-2.003-2.003s.898-2.003,2.003-2.003,2.003.898,2.003,2.003c0,.552.448,1,1,1s1-.448,1-1c0-1.86-1.281-3.414-3.003-3.861v-.297c0-.552-.448-1-1-1s-1,.448-1,1v.297c-1.722.447-3.003,2.001-3.003,3.861,0,2.208,1.796,4.003,4.003,4.003,1.104,0,2.003.898,2.003,2.003s-.898,2.003-2.003,2.003-2.003-.898-2.003-2.003c0-.552-.448-1-1-1s-1,.448-1,1c0,1.86,1.281,3.414,3.003,3.861v.297c0,.552.448,1,1,1s1-.448,1-1Z"/>
</svg>