<?xml version="1.0" encoding="UTF-8"?>
<svg id="Layer_1" data-name="Layer 1" xmlns="http://www.w3.org/2000/svg" viewBox="0 0 64 64">
  <defs>
    <style>
      .cls-1 {
        fill: #000;
        stroke-width: 0px;
      }
    </style>
  </defs>
  <path class="cls-1" d="M32,27.119c1.07,0,1.94.871,1.94,1.941,0,.552.448,1,1,1s1-.448,1-1c0-1.825-1.253-3.35-2.94-3.796v-.275c0-.552-.448-1-1-1s-1,.448-1,1v.275c-1.687.446-2.94,1.971-2.94,3.796,0,2.173,1.768,3.94,3.94,3.94,1.07,0,1.94.871,1.94,1.94s-.871,1.941-1.94,1.941-1.94-.871-1.94-1.941c0-.552-.448-1-1-1s-1,.448-1,1c0,1.825,1.253,3.35,2.94,3.796v.275c0,.552.448,1,1,1s1-.448,1-1v-.275c1.687-.446,2.94-1.971,2.94-3.796,0-2.173-1.768-3.94-3.94-3.94-1.07,0-1.94-.871-1.94-1.94s.871-1.941,1.94-1.941Z"/>
  <path class="cls-1" d="M61,15.34H3c-.552,0-1,.448-1,1v31.32c0,.552.448,1,1,1h58c.552,0,1-.448,1-1v-31.32c0-.552-.448-1-1-1ZM60,46.66H4v-29.32h56v29.32Z"/>
  <path class="cls-1" d="M8.032,39.504c1.533,0,2.779,1.247,2.779,2.779,0,.552.448,1,1,1h40.377c.552,0,1-.448,1-1,0-1.532,1.247-2.779,2.779-2.779.552,0,1-.448,1-1v-13.009c0-.552-.448-1-1-1-1.533,0-2.779-1.247-2.779-2.779,0-.552-.448-1-1-1H11.812c-.552,0-1,.448-1,1,0,1.532-1.247,2.779-2.779,2.779-.552,0-1,.448-1,1v13.009c0,.552.448,1,1,1ZM51.294,22.717c.392,1.834,1.84,3.282,3.674,3.674v11.219c-1.834.392-3.282,1.84-3.674,3.674h-12.896c2.947-2.038,4.885-5.437,4.885-9.283s-1.938-7.245-4.885-9.283h12.896ZM32,41.283c-5.119,0-9.283-4.165-9.283-9.283s4.165-9.283,9.283-9.283,9.283,4.165,9.283,9.283-4.165,9.283-9.283,9.283ZM9.032,26.391c1.834-.392,3.282-1.84,3.674-3.674h12.896c-2.947,2.038-4.885,5.437-4.885,9.283s1.938,7.245,4.885,9.283h-12.896c-.392-1.834-1.84-3.282-3.674-3.674v-11.219Z"/>
</svg>