<?xml version="1.0" encoding="UTF-8"?>
<svg id="Layer_1" data-name="Layer 1" xmlns="http://www.w3.org/2000/svg" viewBox="0 0 64 64">
  <defs>
    <style>
      .cls-1 {
        fill: #000;
        stroke-width: 0px;
      }
    </style>
  </defs>
  <path class="cls-1" d="M26.625,57.123c1.229,0,2.455-.102,3.669-.254v.174c0,.015.008.028.009.043.062,3.226,6.549,4.915,12.963,4.915s12.969-1.704,12.969-4.96c0-.01-.006-.019-.006-.029v-5.386c.003-.045.006-.091.006-.135,0-.01-.006-.019-.006-.029v-5.517c0-2.935-5.314-4.602-11.087-4.9-1.107-6.774-5.254-20.508-11.339-27.428l4.152-7.711c.195-.364.147-.812-.122-1.125-1.513-1.765-3.053-2.607-4.53-2.489-1.055.086-1.732.609-2.276,1.03-.516.398-.807.606-1.294.606h-.01c-.434,0-.691-.174-1.143-.506-.529-.39-1.252-.922-2.405-.857-1.095.061-1.724.606-2.184,1.005-.388.336-.537.445-.833.45-.409.002-.705-.239-1.223-.718-.556-.515-1.248-1.156-2.335-1.282-1.528-.177-3.055.743-4.676,2.79-.258.324-.288.773-.078,1.129l4.553,7.719c-7.018,8.048-11.634,25.516-11.634,30.678,0,7.29,8.107,12.787,18.859,12.787ZM54.229,51.515c-.031.437-.889,1.178-2.739,1.808-.747.247-1.584.454-2.479.623v-3.524c2.086-.365,3.917-.942,5.218-1.718v2.811ZM47.011,54.243c-1.191.134-2.449.207-3.745.207-1.284,0-2.55-.076-3.751-.212v-3.538c1.219.13,2.483.197,3.746.197s2.53-.068,3.75-.198v3.543ZM37.515,53.94c-.895-.169-1.728-.373-2.457-.617-.027-.009-.056-.017-.085-.023-2.114-.718-2.676-1.496-2.676-1.81,0-.005-.003-.009-.003-.015v-2.771c1.301.776,3.133,1.353,5.221,1.718v3.518ZM32.297,57.04c0-.005-.003-.009-.003-.015v-2.74c.552.328,1.245.644,2.116.935.028.009.058.018.088.024.907.297,1.924.543,3.017.733v3.524c-3.408-.647-5.218-1.777-5.218-2.463ZM39.515,59.8v-3.545c1.201.127,2.461.195,3.751.195s2.544-.067,3.745-.194v3.545c-1.126.125-2.374.199-3.745.199s-2.624-.075-3.751-.2ZM49.011,59.504v-3.526c1.128-.196,2.18-.45,3.115-.76.865-.294,1.553-.611,2.103-.938v2.762s.002.008.002.012c-.024.688-1.832,1.807-5.22,2.449ZM54.229,45.944c0,1.002-3.871,2.954-10.968,2.954s-10.967-1.951-10.967-2.954,3.871-2.953,10.967-2.953,10.968,1.951,10.968,2.953ZM16.928,5.531c.942-1.059,1.812-1.59,2.447-1.524.412.048.726.321,1.202.762.615.569,1.352,1.277,2.617,1.25,1.041-.014,1.657-.548,2.107-.938.387-.335.59-.497.987-.519.415-.026.639.127,1.105.471.515.378,1.217.896,2.323.896,1.176.006,1.938-.565,2.531-1.023.48-.372.774-.583,1.21-.619.814-.053,1.702.589,2.398,1.297l-3.878,7.202h-10.773l-4.278-7.253ZM21.082,14.784h11.065c5.326,5.923,9.673,18.657,10.961,26.21-6.393.027-12.814,1.724-12.814,4.951v8.912c-1.212.163-2.438.267-3.669.267-9.454,0-16.859-4.738-16.859-10.787,0-5.155,4.761-22.241,11.316-29.552Z"/>
  <path class="cls-1" d="M22.958,37.326c0-.552-.447-1-1-1s-1,.448-1,1c0,2.783,2.018,5.099,4.667,5.573v.893c0,.552.447,1,1,1s1-.448,1-1v-.893c2.649-.474,4.667-2.79,4.667-5.573s-2.018-5.099-4.667-5.574v-7.272c1.534.439,2.667,1.838,2.667,3.511,0,.552.447,1,1,1s1-.448,1-1c0-2.783-2.018-5.099-4.667-5.573v-.893c0-.552-.447-1-1-1s-1,.448-1,1v.893c-2.649.474-4.667,2.79-4.667,5.573s2.018,5.099,4.667,5.573v7.272c-1.534-.439-2.667-1.838-2.667-3.511ZM30.292,37.326c0,1.673-1.133,3.072-2.667,3.511v-7.022c1.534.439,2.667,1.838,2.667,3.511ZM22.958,27.991c0-1.673,1.133-3.072,2.667-3.511v7.022c-1.534-.439-2.667-1.838-2.667-3.511Z"/>
</svg>