<?xml version="1.0" encoding="UTF-8"?>
<svg id="Layer_1" data-name="Layer 1" xmlns="http://www.w3.org/2000/svg" viewBox="0 0 64 64">
  <defs>
    <style>
      .cls-1 {
        fill: #000;
        stroke-width: 0px;
      }
    </style>
  </defs>
  <path class="cls-1" d="M58.724,39.447c0-4.407-3.458-8.451-9.52-11.206,1-2.293,1.562-4.818,1.562-7.475,0-10.348-8.419-18.767-18.767-18.767S13.233,10.419,13.233,20.767c0,2.654.561,5.177,1.559,7.468-6.059,2.763-9.515,6.808-9.516,11.21,0,0,0,0,0,0v7.953s.003.008.003.013c.014,8.181,11.747,14.589,26.722,14.589s26.723-6.415,26.723-14.604c0-.007-.004-.013-.004-.019v-7.843c0-.029.004-.058.004-.087ZM32,4c9.245,0,16.767,7.521,16.767,16.767s-7.521,16.767-16.767,16.767-16.767-7.521-16.767-16.767S22.755,4,32,4ZM32,39.533c4.241,0,8.144-1.431,11.29-3.812,2.748,1.048,4.385,2.421,4.385,3.726,0,2.619-6.438,5.537-15.676,5.537s-15.676-2.918-15.676-5.537c0-1.305,1.637-2.678,4.385-3.726,3.146,2.381,7.05,3.812,11.29,3.812ZM15.695,30.022c.895,1.57,2.006,2.996,3.298,4.242-3.021,1.359-4.669,3.166-4.669,5.184,0,4.297,7.599,7.537,17.676,7.537s17.676-3.24,17.676-7.537c0-2.017-1.648-3.825-4.669-5.184,1.291-1.244,2.401-2.669,3.295-4.236,5.354,2.41,8.411,5.806,8.421,9.403,0,.005-.003.01-.003.015v.08c-.083,6.91-11.139,12.519-24.72,12.519s-24.724-5.651-24.724-12.598c0-3.6,3.058-7.004,8.418-9.426ZM56.723,47.414c-.018,6.941-11.101,12.586-24.722,12.586s-24.723-5.654-24.723-12.604c0-.003-.002-.006-.002-.01v-2.302c3.962,5.308,13.417,8.96,24.724,8.96s20.755-3.649,24.72-8.954v2.308c0,.005.003.01.003.015Z"/>
  <path class="cls-1" d="M32,29.928c-2.25,0-4.08-1.831-4.08-4.081,0-.553-.447-1-1-1s-1,.447-1,1c0,3.012,2.203,5.512,5.08,5.992v1.044c0,.553.447,1,1,1s1-.447,1-1v-1.044c2.877-.479,5.08-2.979,5.08-5.992,0-3.353-2.728-6.08-6.08-6.08-2.25,0-4.08-1.83-4.08-4.08s1.83-4.081,4.08-4.081,4.08,1.831,4.08,4.081c0,.553.447,1,1,1s1-.447,1-1c0-3.012-2.203-5.512-5.08-5.992v-1.044c0-.553-.447-1-1-1s-1,.447-1,1v1.044c-2.877.479-5.08,2.979-5.08,5.992,0,3.353,2.728,6.08,6.08,6.08,2.25,0,4.08,1.83,4.08,4.08s-1.83,4.081-4.08,4.081Z"/>
</svg>