<?xml version="1.0" encoding="UTF-8"?>
<svg id="Layer_1" data-name="Layer 1" xmlns="http://www.w3.org/2000/svg" viewBox="0 0 64 64">
  <defs>
    <style>
      .cls-1 {
        fill: #000;
        stroke-width: 0px;
      }
    </style>
  </defs>
  <path class="cls-1" d="M61,50.645h-2.93v-30.194c0-1.511-1.234-2.74-2.75-2.74h-13.974c-1.017-1.932-2.142-3.691-3.358-5.099l3.253-6.044c.196-.364.148-.812-.122-1.125-1.257-1.463-2.533-2.159-3.79-2.06-.905.071-1.498.53-1.931.865-.387.3-.588.444-.909.444h-.002c-.291,0-.457-.113-.804-.368-.447-.329-1.064-.771-2.056-.724-.942.054-1.498.534-1.866.852-.292.252-.376.311-.539.314-.256.014-.424-.139-.836-.521-.443-.41-1.05-.972-1.987-1.077-1.291-.143-2.576.609-3.921,2.305-.257.324-.288.773-.078,1.129l3.574,6.052c-1.201,1.401-2.314,3.144-3.32,5.057h-13.975c-1.516,0-2.75,1.229-2.75,2.74v30.194h-2.93c-.552,0-1,.448-1,1,0,5.076,4.129,9.206,9.206,9.206h41.589c5.076,0,9.206-4.129,9.206-9.206,0-.552-.448-1-1-1ZM38.385,52.645l-.769,1.617c-.141.295-.442.485-.769.485h-9.694c-.326,0-.628-.19-.769-.485l-.769-1.617h12.77ZM24.486,6.199c.663-.718,1.269-1.086,1.69-1.044.27.03.488.222.851.558.489.453,1.156,1.047,2.233,1.053.902-.018,1.447-.489,1.809-.8.291-.251.419-.354.671-.368.259-.017.399.075.758.339.435.319,1.029.756,1.989.756h.006c1.017-.002,1.66-.5,2.129-.863.364-.282.567-.43.862-.453.563-.033,1.152.382,1.656.874l-2.974,5.525h-8.387l-3.293-5.577ZM27.656,13.776h8.688c1.247,1.406,2.412,3.25,3.461,5.304.007.018.018.034.026.052,3.301,6.484,5.46,14.99,5.46,18.093,0,4.727-5.838,8.43-13.291,8.43s-13.291-3.703-13.291-8.43c0-3.099,2.159-11.608,5.46-18.094.008-.018.018-.033.026-.051,1.049-2.055,2.214-3.899,3.46-5.304ZM7.93,20.45c0-.408.336-.74.75-.74h12.987c-3.094,6.664-4.958,14.572-4.958,17.516,0,5.946,6.574,10.43,15.291,10.43s15.291-4.484,15.291-10.43c0-2.947-1.864-10.853-4.958-17.516h12.987c.414,0,.75.332.75.74v30.19H7.93v-30.19ZM52.794,58.85H11.206c-3.634,0-6.648-2.704-7.136-6.206h19.331l1.178,2.477c.47.988,1.48,1.626,2.574,1.626h9.694c1.094,0,2.104-.638,2.574-1.626l1.178-2.477h19.331c-.488,3.501-3.502,6.206-7.136,6.206Z"/>
  <path class="cls-1" d="M31,28.768v5.385c-1.013-.401-1.734-1.385-1.734-2.539,0-.552-.448-1-1-1s-1,.448-1,1c0,2.267,1.603,4.163,3.734,4.624v.55c0,.552.448,1,1,1s1-.448,1-1v-.55c2.131-.461,3.735-2.357,3.735-4.624s-1.604-4.163-3.735-4.623v-5.385c1.013.401,1.735,1.385,1.735,2.539,0,.552.448,1,1,1s1-.448,1-1c0-2.267-1.604-4.163-3.735-4.624v-.55c0-.552-.448-1-1-1s-1,.448-1,1v.55c-2.131.461-3.734,2.357-3.734,4.624s1.603,4.162,3.734,4.623ZM34.735,31.614c0,1.154-.721,2.139-1.735,2.539v-5.078c1.013.401,1.735,1.385,1.735,2.539ZM31,21.606v5.078c-1.013-.401-1.734-1.385-1.734-2.539s.721-2.138,1.734-2.539Z"/>
</svg>