<?xml version="1.0" encoding="UTF-8"?>
<svg id="Layer_1" data-name="Layer 1" xmlns="http://www.w3.org/2000/svg" viewBox="0 0 64 64">
  <defs>
    <style>
      .cls-1 {
        fill: #000;
        stroke-width: 0px;
      }
    </style>
  </defs>
  <path class="cls-1" d="M61,17.598h-14.429V5.534c0-.552-.447-1-1-1H9.532c-4.153,0-7.532,3.379-7.532,7.532v40.769c0,3.656,2.975,6.631,6.631,6.631h52.369c.553,0,1-.448,1-1V18.598c0-.552-.447-1-1-1ZM9.532,6.534h35.039v11.064H9.532c-3.051,0-5.532-2.482-5.532-5.532s2.481-5.532,5.532-5.532ZM8.631,57.466c-2.554,0-4.631-2.078-4.631-4.631V17.16c1.377,1.495,3.344,2.438,5.532,2.438h50.468v13.429h-10.713c-4.401,0-7.982,3.581-7.982,7.982s3.581,7.982,7.982,7.982h10.713v8.474H8.631ZM60,46.992h-10.713c-3.299,0-5.982-2.684-5.982-5.982s2.684-5.982,5.982-5.982h10.713v11.965Z"/>
  <path class="cls-1" d="M22.229,33.351c1.296,0,2.35,1.058,2.35,2.359,0,.552.447,1,1,1s1-.448,1-1c0-2.057-1.434-3.776-3.35-4.231v-.418c0-.552-.447-1-1-1s-1,.448-1,1v.417c-1.921.455-3.358,2.174-3.358,4.232,0,2.398,1.955,4.349,4.358,4.349,1.296,0,2.35,1.054,2.35,2.349s-1.054,2.359-2.35,2.359-2.358-1.059-2.358-2.359c0-.552-.447-1-1-1s-1,.448-1,1c0,2.058,1.438,3.778,3.358,4.232v.417c0,.552.447,1,1,1s1-.448,1-1v-.418c1.916-.456,3.35-2.174,3.35-4.232,0-2.398-1.951-4.349-4.35-4.349-1.301,0-2.358-1.054-2.358-2.349s1.058-2.359,2.358-2.359Z"/>
  <path class="cls-1" d="M22.228,27.032c-6.632,0-12.026,5.395-12.026,12.026s5.395,12.026,12.026,12.026,12.026-5.395,12.026-12.026-5.395-12.026-12.026-12.026ZM22.228,49.085c-5.528,0-10.026-4.498-10.026-10.026s4.498-10.026,10.026-10.026,10.026,4.498,10.026,10.026-4.498,10.026-10.026,10.026Z"/>
</svg>