<?xml version="1.0" encoding="UTF-8"?>
<svg id="Layer_1" data-name="Layer 1" xmlns="http://www.w3.org/2000/svg" viewBox="0 0 64 64">
  <defs>
    <style>
      .cls-1 {
        fill: #000;
        stroke-width: 0px;
      }
    </style>
  </defs>
  <path class="cls-1" d="M22.321,49.832c.129.398.49.674.907.692.444.008.803-.224.966-.609l1.762-4.156,1.559,4.12c.147.389.52.646.936.646h.005c.417-.002.789-.263.934-.655l2.374-6.452c.19-.518-.075-1.093-.593-1.284-.518-.188-1.094.075-1.284.593l-1.448,3.937-1.493-3.945c-.145-.382-.508-.638-.916-.646-.419-.005-.78.233-.94.61l-1.687,3.979-1.256-3.896c-.169-.525-.734-.816-1.259-.645-.525.169-.814.733-.646,1.258l2.08,6.452Z"/>
  <path class="cls-1" d="M34.396,50.525c.553,0,1-.448,1-1v-6.452c0-.552-.447-1-1-1s-1,.448-1,1v6.452c0,.552.447,1,1,1Z"/>
  <path class="cls-1" d="M38.149,50.525c.553,0,1-.448,1-1v-3.358l2.847,3.943c.191.265.495.415.811.415.103,0,.206-.016.308-.048.413-.134.692-.518.692-.952v-6.452c0-.552-.447-1-1-1s-1,.448-1,1v3.358l-2.847-3.943c-.254-.352-.703-.499-1.118-.366-.413.133-.692.518-.692.952v6.452c0,.552.447,1,1,1Z"/>
  <path class="cls-1" d="M12.854,40.227v4.552H3c-.365,0-.701.199-.877.52s-.162.711.034,1.019l3.119,4.882-3.118,4.873c-.197.308-.211.699-.035,1.019.175.321.512.52.877.52h18.758c.553,0,1-.448,1-1v-3.24h18.484v3.24c0,.552.447,1,1,1h18.758c.365,0,.702-.199.877-.52.176-.32.162-.711-.035-1.019l-3.118-4.873,3.119-4.882c.196-.308.21-.699.034-1.019s-.512-.52-.877-.52h-9.852v-4.552c0-.552-.447-1-1-1h-10.071c5.546-2.917,9.342-8.73,9.342-15.419,0-9.605-7.814-17.419-17.419-17.419S14.581,14.203,14.581,23.808c0,6.69,3.796,12.502,9.342,15.419h-10.068c-.553,0-1,.448-1,1ZM20.758,55.611H4.827l2.479-3.872c.211-.328.211-.749,0-1.078l-2.48-3.882h8.028v5.592c0,.552.447,1,1,1h6.903v2.24ZM59.174,46.779l-2.48,3.882c-.21.329-.21.75,0,1.078l2.479,3.872h-15.931v-2.24h6.906c.553,0,1-.448,1-1v-5.592h8.025ZM16.581,23.808c0-8.502,6.917-15.419,15.419-15.419s15.419,6.917,15.419,15.419-6.917,15.419-15.419,15.419-15.419-6.917-15.419-15.419ZM14.854,41.227h34.294v10.145h-6.901s-.003,0-.005,0-.003,0-.005,0h-20.475s-.003,0-.005,0-.003,0-.005,0h-6.898v-10.145Z"/>
  <path class="cls-1" d="M35.994,18.814c0,.552.447,1,1,1s1-.448,1-1c0-2.963-2.164-5.424-4.993-5.903v-1.015c0-.552-.447-1-1-1s-1,.448-1,1v1.015c-2.83.478-4.994,2.939-4.994,5.903s2.164,5.425,4.994,5.903v7.935c-1.717-.447-2.994-1.996-2.994-3.851,0-.552-.447-1-1-1s-1,.448-1,1c0,2.963,2.164,5.425,4.994,5.903v1.015c0,.552.447,1,1,1s1-.448,1-1v-1.015c2.829-.478,4.993-2.94,4.993-5.903s-2.164-5.425-4.993-5.903v-7.934c1.717.447,2.993,1.996,2.993,3.851ZM28.007,18.814c0-1.854,1.277-3.404,2.994-3.851v7.702c-1.717-.447-2.994-1.996-2.994-3.851ZM35.994,28.801c0,1.854-1.277,3.404-2.993,3.851v-7.702c1.717.447,2.993,1.997,2.993,3.851Z"/>
</svg>