<?xml version="1.0" encoding="UTF-8"?>
<svg id="Layer_1" data-name="Layer 1" xmlns="http://www.w3.org/2000/svg" viewBox="0 0 64 64">
  <defs>
    <style>
      .cls-1 {
        fill: #000;
        stroke-width: 0px;
      }
    </style>
  </defs>
  <path class="cls-1" d="M38.058,24.943c0,.552.448,1,1,1s1-.448,1-1c0-4.104-3.086-7.493-7.057-7.988v-1.789c0-.552-.448-1-1-1s-1,.448-1,1v1.789c-3.972.495-7.057,3.885-7.057,7.988s3.086,7.493,7.057,7.988v12.093c-2.865-.479-5.057-2.969-5.057-5.967,0-.552-.448-1-1-1s-1,.448-1,1c0,4.104,3.086,7.493,7.057,7.988v1.789c0,.552.448,1,1,1s1-.448,1-1v-1.789c3.972-.495,7.057-3.885,7.057-7.988s-3.086-7.493-7.057-7.988v-12.093c2.865.479,5.057,2.969,5.057,5.967ZM25.944,24.943c0-2.999,2.193-5.488,5.057-5.967v11.935c-2.865-.479-5.057-2.969-5.057-5.967ZM38.058,39.057c0,2.999-2.193,5.488-5.057,5.967v-11.935c2.865.479,5.057,2.969,5.057,5.967Z"/>
  <path class="cls-1" d="M32,7.794c-13.347,0-24.206,10.858-24.206,24.206s10.858,24.206,24.206,24.206,24.206-10.858,24.206-24.206S45.347,7.794,32,7.794ZM32,54.206c-12.244,0-22.206-9.961-22.206-22.206s9.961-22.206,22.206-22.206,22.206,9.961,22.206,22.206-9.961,22.206-22.206,22.206Z"/>
  <path class="cls-1" d="M32,2C15.458,2,2,15.458,2,32s13.458,30,30,30,30-13.458,30-30S48.542,2,32,2ZM32,60c-15.439,0-28-12.561-28-28S16.561,4,32,4s28,12.561,28,28-12.561,28-28,28Z"/>
  <path class="cls-1" d="M14.562,37.027c-.32-1.028-.552-2.094-.688-3.167-.07-.547-.565-.933-1.118-.866-.548.07-.936.57-.866,1.118.151,1.189.408,2.37.763,3.51.786,2.521,2.051,4.863,3.76,6.963.197.243.485.369.776.369.222,0,.445-.073.631-.225.428-.349.493-.979.144-1.407-1.547-1.901-2.691-4.019-3.401-6.295Z"/>
  <path class="cls-1" d="M20.63,45.83c-.37-.38-1.04-.38-1.42,0-.09.09-.16.2-.21.32-.05.12-.08.25-.08.38,0,.27.11.52.29.71.19.18.45.29.71.29s.52-.11.71-.29c.18-.19.29-.44.29-.71,0-.13-.03-.26-.08-.38s-.12-.23-.21-.32Z"/>
</svg>