<?xml version="1.0" encoding="UTF-8"?>
<svg id="Layer_1" data-name="Layer 1" xmlns="http://www.w3.org/2000/svg" viewBox="0 0 64 64">
  <defs>
    <style>
      .cls-1 {
        fill: #000;
        stroke-width: 0px;
      }
    </style>
  </defs>
  <path class="cls-1" d="M33.06,40.476c0-.552-.447-1-1-1s-1,.448-1,1c0,3.02,2.21,5.527,5.096,6.007v1.053c0,.552.447,1,1,1s1-.448,1-1v-1.053c2.886-.479,5.096-2.987,5.096-6.007s-2.21-5.527-5.096-6.007v-8.143c1.774.449,3.096,2.046,3.096,3.958,0,.552.447,1,1,1s1-.448,1-1c0-3.02-2.21-5.527-5.096-6.007v-1.053c0-.552-.447-1-1-1s-1,.448-1,1v1.053c-2.886.479-5.096,2.987-5.096,6.007s2.21,5.527,5.096,6.006v8.144c-1.774-.449-3.096-2.046-3.096-3.958ZM41.251,40.476c0,1.912-1.322,3.509-3.096,3.958v-7.917c1.774.449,3.096,2.046,3.096,3.958ZM33.06,30.284c0-1.912,1.322-3.509,3.096-3.958v7.916c-1.774-.449-3.096-2.046-3.096-3.958Z"/>
  <path class="cls-1" d="M17.65,34.042c-5.48,0-11.305,1.778-11.305,5.074,0,.006.002.012.002.018v5.923s0,.003,0,.005c0,.003,0,.006,0,.009v5.93s0,.003,0,.005c0,.003,0,.006,0,.009v5.937c0,1.589,1.386,2.979,3.907,3.915,2.041.748,4.668,1.16,7.395,1.16s5.354-.412,7.4-1.162c.598-.222,1.129-.469,1.595-.735,3.134,1.221,6.752,1.871,10.51,1.871,11.687,0,20.5-5.963,20.5-13.87,0-5.659-5.07-24.813-12.773-33.53l4.564-8.476c.195-.364.147-.812-.122-1.125-1.632-1.902-3.277-2.809-4.87-2.686-1.124.091-1.853.654-2.438,1.106-.562.435-.907.681-1.467.681h-.011c-.503,0-.794-.197-1.303-.571-.566-.417-1.328-.981-2.566-.917-1.164.064-1.838.649-2.33,1.076-.406.352-.601.508-.967.513-.512-.012-.833-.285-1.399-.809-.598-.553-1.341-1.242-2.498-1.376-1.625-.179-3.273.804-5.024,3.013-.257.324-.287.773-.077,1.129l5.006,8.485c-4.876,5.557-8.287,14.918-9.748,19.476-.658-.051-1.322-.078-1.981-.078ZM17.65,36.042c5.666,0,9.285,1.811,9.304,3.064,0,.004-.002.007-.002.011v.021c-.042,1.253-3.654,3.051-9.302,3.051s-9.282-1.81-9.303-3.063v-.01s-.001-.004-.001-.006c.009-1.253,3.631-3.07,9.304-3.07ZM26.952,45.102c-.035.495-.724,1.296-2.596,1.993-1.808.672-4.189,1.042-6.707,1.042s-4.899-.37-6.7-1.042c-1.914-.713-2.596-1.537-2.602-2.029v-2.986c2.174,1.381,5.805,2.108,9.303,2.108s7.127-.727,9.302-2.107v3.02ZM8.348,48.031c.537.346,1.165.664,1.903.939,2.019.753,4.646,1.168,7.398,1.168s5.379-.415,7.405-1.168c.735-.274,1.361-.59,1.897-.935v3.011c-.035.499-.724,1.303-2.593,2-1.815.668-4.198,1.036-6.71,1.036s-4.895-.368-6.699-1.034c-1.915-.714-2.597-1.541-2.603-2.037v-2.979ZM24.357,58.988c-1.827.669-4.209,1.038-6.708,1.038s-4.88-.369-6.703-1.037c-1.578-.586-2.599-1.386-2.599-2.039v-2.97c.538.347,1.167.665,1.906.941,2.024.748,4.651,1.159,7.396,1.159s5.37-.412,7.405-1.16c.735-.274,1.361-.591,1.897-.936v3.081c-.095.504-.82,1.261-2.595,1.921ZM26.453,5.748c1.077-1.229,2.049-1.822,2.796-1.745.479.056.831.362,1.365.857.659.61,1.461,1.367,2.794,1.34,1.104-.015,1.761-.585,2.241-1.002.427-.37.671-.564,1.134-.59.487-.032.753.153,1.267.531.552.406,1.305.96,2.483.96h.021c1.264,0,2.052-.609,2.685-1.098.538-.417.868-.654,1.37-.695.95-.062,1.956.686,2.739,1.492l-4.293,7.971h-11.87l-4.733-8.022ZM31.062,15.771h12.175c7.192,7.97,12.418,26.7,12.418,32.359,0,6.656-8.126,11.87-18.5,11.87-3.108,0-6.104-.473-8.767-1.365.295-.414.49-.851.553-1.312.007-.043.005-.091.008-.137,0-.006.003-.011.003-.017v-.04c.003-.061.011-.122.011-.178,0-.019-.01-.034-.011-.052v-5.832c0-.021.007-.041.007-.062,0-.012-.006-.022-.007-.034v-5.848c0-.021.007-.041.007-.062,0-.012-.006-.022-.007-.034v-5.876c0-.012.004-.023.004-.035,0-2.487-3.317-4.108-7.299-4.755,2.635-8.135,6.021-14.833,9.404-18.59Z"/>
</svg>