<?xml version="1.0" encoding="UTF-8"?>
<svg id="Layer_1" data-name="Layer 1" xmlns="http://www.w3.org/2000/svg" viewBox="0 0 64 64">
  <defs>
    <style>
      .cls-1 {
        fill: #000;
        stroke-width: 0px;
      }
    </style>
  </defs>
  <path class="cls-1" d="M48.205,9.894h-6.624l-.481-5.238c-.071-.773-.442-1.475-1.043-1.976-.603-.503-1.362-.741-2.134-.667l-22.383,2.051c-1.604.146-2.799,1.568-2.665,3.178l4.22,46.061c.139,1.521,1.424,2.667,2.927,2.667.089,0,.18-.004.271-.013l2.497-.23v3.338c0,1.618,1.316,2.935,2.935,2.935h22.481c1.613,0,2.925-1.317,2.925-2.935v-23.085c0-.012.007-.022.007-.034s-.006-.022-.007-.034V12.819c0-1.613-1.312-2.925-2.925-2.925ZM49.13,12.819v22.127h-24.341V12.819c0-.51.419-.925.935-.925h22.481c.51,0,.925.415.925.925ZM20.109,53.965c-.521.052-.977-.332-1.023-.845L14.867,7.067c-.042-.511.341-.965.855-1.012l22.385-2.051c.243-.021.479.053.669.212.192.16.31.382.333.624l.464,5.054h-13.85c-1.618,0-2.935,1.312-2.935,2.925v23.117s-.002.006-.002.01.002.006.002.01v17.763l-2.679.247ZM48.205,60h-22.481c-.515,0-.935-.419-.935-.935v-22.119h24.341v22.119c0,.516-.415.935-.925.935Z"/>
  <path class="cls-1" d="M31.652,22.287c2.165,0,3.926-1.761,3.926-3.926s-1.761-3.926-3.926-3.926-3.926,1.761-3.926,3.926,1.761,3.926,3.926,3.926ZM31.652,16.435c1.062,0,1.926.864,1.926,1.926s-.864,1.926-1.926,1.926-1.926-.864-1.926-1.926.864-1.926,1.926-1.926Z"/>
  <path class="cls-1" d="M42.271,30.658c2.165,0,3.926-1.761,3.926-3.926s-1.761-3.926-3.926-3.926-3.926,1.761-3.926,3.926,1.761,3.926,3.926,3.926ZM42.271,24.806c1.062,0,1.926.864,1.926,1.926s-.864,1.926-1.926,1.926-1.926-.864-1.926-1.926.864-1.926,1.926-1.926Z"/>
  <path class="cls-1" d="M36.961,40.645c-4.401,0-7.981,3.581-7.981,7.981s3.58,7.981,7.981,7.981,7.981-3.58,7.981-7.981-3.581-7.981-7.981-7.981ZM36.961,54.607c-3.298,0-5.981-2.683-5.981-5.981s2.683-5.981,5.981-5.981,5.981,2.683,5.981,5.981-2.683,5.981-5.981,5.981Z"/>
</svg>