<?xml version="1.0" encoding="UTF-8"?>
<svg id="Layer_1" data-name="Layer 1" xmlns="http://www.w3.org/2000/svg" viewBox="0 0 64 64">
  <defs>
    <style>
      .cls-1 {
        fill: #000;
        stroke-width: 0px;
      }
    </style>
  </defs>
  <path class="cls-1" d="M21.101,57.45l19.929,4.483c.201.045.402.066.601.066,1.261,0,2.401-.872,2.688-2.149l9.233-41c.331-1.481-.604-2.957-2.083-3.29l-5.669-1.275.345-3.98c.123-1.507-1.003-2.843-2.512-2.978l-7.311-.636v-1.936c0-1.519-1.235-2.755-2.755-2.755H13.14c-1.519,0-2.755,1.236-2.755,2.755v20.994c0,.007-.004.013-.004.019s.004.013.004.019v20.994c0,1.519,1.236,2.755,2.755,2.755h3.56l-.034.394c-.066.734.16,1.45.637,2.016.477.566,1.145.911,1.874.97l.117.01-.275,1.226c-.332,1.488.603,2.967,2.082,3.297ZM13.14,4h20.429c.416,0,.755.339.755.755v20.014H12.385V4.755c0-.416.339-.755.755-.755ZM12.385,46.782v-20.013h21.938v20.013c0,.416-.339.755-.755.755H13.14c-.416,0-.755-.339-.755-.755ZM18.832,50.658c-.13-.154-.191-.349-.174-.553l.048-.568h14.862c1.52,0,2.755-1.236,2.755-2.755v-20.994c0-.007.004-.012.004-.019s-.004-.013-.004-.019V8.699l7.135.621c.417.037.728.406.694.817l-3.635,41.868c-.018.202-.113.385-.268.515-.153.129-.355.188-.549.172l-20.356-1.767c-.2-.017-.382-.111-.513-.266ZM39.525,54.683c.083.007.167.011.25.011.644,0,1.262-.224,1.762-.644.562-.472.907-1.136.973-1.871l3.116-35.885,5.404,1.216c.405.091.661.497.571.901l-9.233,40.999c-.092.405-.502.661-.9.57l-19.929-4.483c-.405-.09-.66-.499-.568-.909l.334-1.488,18.221,1.582Z"/>
  <path class="cls-1" d="M18.529,13.447c2.018,0,3.659-1.642,3.659-3.659s-1.642-3.659-3.659-3.659-3.66,1.642-3.66,3.659,1.642,3.659,3.66,3.659ZM18.529,8.128c.915,0,1.659.744,1.659,1.659s-.744,1.659-1.659,1.659-1.66-.744-1.66-1.659.745-1.659,1.66-1.659Z"/>
  <path class="cls-1" d="M28.18,21.054c2.018,0,3.659-1.642,3.659-3.659s-1.642-3.659-3.659-3.659-3.659,1.642-3.659,3.659,1.642,3.659,3.659,3.659ZM28.18,15.735c.915,0,1.659.744,1.659,1.659s-.744,1.659-1.659,1.659-1.659-.744-1.659-1.659.744-1.659,1.659-1.659Z"/>
  <path class="cls-1" d="M23.354,29.947c-4.05,0-7.345,3.295-7.345,7.345s3.295,7.344,7.345,7.344,7.344-3.294,7.344-7.344-3.294-7.345-7.344-7.345ZM23.354,42.636c-2.947,0-5.345-2.397-5.345-5.344s2.397-5.345,5.345-5.345,5.344,2.397,5.344,5.345-2.397,5.344-5.344,5.344Z"/>
</svg>