<?xml version="1.0" encoding="UTF-8"?>
<svg id="Layer_1" data-name="Layer 1" xmlns="http://www.w3.org/2000/svg" viewBox="0 0 64 64">
  <defs>
    <style>
      .cls-1 {
        fill: #000;
        stroke-width: 0px;
      }
    </style>
  </defs>
  <path class="cls-1" d="M59.022,20.423h-22.876c-1.081,0-2.02.585-2.542,1.449-.223-.12-.456-.223-.708-.285l-22.225-5.419c-.775-.188-1.573-.064-2.252.349-.68.413-1.158,1.066-1.347,1.839l-4.988,20.459c-.188.772-.064,1.572.349,2.252s1.066,1.158,1.839,1.347l22.225,5.419c.236.058.475.086.711.086.539,0,1.069-.147,1.541-.435.68-.413,1.158-1.066,1.347-1.839l3.073-12.605v11.419c0,1.642,1.336,2.978,2.978,2.978h22.876c1.642,0,2.978-1.336,2.978-2.978v-21.059c0-1.642-1.336-2.978-2.978-2.978ZM33.141,24.711l-4.988,20.459c-.062.254-.219.469-.442.604-.222.136-.482.18-.738.114l-22.225-5.419c-.254-.062-.469-.219-.604-.442-.136-.223-.177-.485-.114-.738l4.988-20.459c.062-.254.219-.469.442-.604.154-.095.328-.143.506-.143.077,0,.155.01.232.028l22.225,5.419c.254.062.469.219.604.442.136.223.177.485.114.738ZM60,44.459c0,.539-.438.978-.978.978h-22.876c-.539,0-.978-.438-.978-.978v-21.059c0-.539.438-.978.978-.978h22.876c.539,0,.978.438.978.978v21.059Z"/>
  <path class="cls-1" d="M39.468,23.037c-1.995,0-3.618,1.623-3.618,3.618s1.623,3.619,3.618,3.619,3.619-1.624,3.619-3.619-1.624-3.618-3.619-3.618ZM39.468,28.274c-.893,0-1.618-.727-1.618-1.619s.726-1.618,1.618-1.618,1.619.726,1.619,1.618-.727,1.619-1.619,1.619Z"/>
  <path class="cls-1" d="M55.701,23.037c-1.995,0-3.619,1.623-3.619,3.618s1.624,3.619,3.619,3.619,3.619-1.624,3.619-3.619-1.624-3.618-3.619-3.618ZM55.701,28.274c-.893,0-1.619-.727-1.619-1.619s.727-1.618,1.619-1.618,1.619.726,1.619,1.618-.727,1.619-1.619,1.619Z"/>
  <path class="cls-1" d="M39.468,37.585c-1.995,0-3.618,1.624-3.618,3.619s1.623,3.618,3.618,3.618,3.619-1.623,3.619-3.618-1.624-3.619-3.619-3.619ZM39.468,42.822c-.893,0-1.618-.726-1.618-1.618s.726-1.619,1.618-1.619,1.619.727,1.619,1.619-.727,1.618-1.619,1.618Z"/>
  <path class="cls-1" d="M55.701,37.585c-1.995,0-3.619,1.624-3.619,3.619s1.624,3.618,3.619,3.618,3.619-1.623,3.619-3.618-1.624-3.619-3.619-3.619ZM55.701,42.822c-.893,0-1.619-.726-1.619-1.618s.727-1.619,1.619-1.619,1.619.727,1.619,1.619-.727,1.618-1.619,1.618Z"/>
  <path class="cls-1" d="M47.585,29.587c-2.395,0-4.343,1.948-4.343,4.343s1.948,4.343,4.343,4.343,4.342-1.948,4.342-4.343-1.947-4.343-4.342-4.343ZM47.585,36.272c-1.292,0-2.343-1.051-2.343-2.343s1.051-2.343,2.343-2.343,2.342,1.051,2.342,2.343-1.051,2.343-2.342,2.343Z"/>
  <path class="cls-1" d="M11.564,26.526c.287.069.577.104.864.104.655,0,1.3-.18,1.873-.528.826-.502,1.407-1.296,1.637-2.234.473-1.939-.72-3.901-2.658-4.374-1.941-.475-3.9.72-4.374,2.658-.473,1.939.72,3.901,2.658,4.374ZM10.85,22.627c.103-.421.362-.775.731-1,.257-.156.545-.236.838-.236.129,0,.259.016.387.047.421.103.775.362,1,.731.225.37.292.805.189,1.225-.103.421-.362.775-.731,1-.37.225-.808.29-1.225.189-.421-.103-.775-.362-1-.731-.225-.37-.292-.805-.189-1.225Z"/>
  <path class="cls-1" d="M29.051,23.34c-1.939-.475-3.901.72-4.374,2.658-.229.939-.078,1.912.424,2.737.502.826,1.296,1.407,2.235,1.637.286.069.573.103.855.103,1.63,0,3.114-1.11,3.518-2.762.229-.939.078-1.911-.424-2.737-.502-.825-1.296-1.406-2.234-1.636ZM29.766,27.238c-.211.867-1.089,1.4-1.956,1.19-.421-.103-.775-.362-1-.731-.225-.37-.292-.805-.189-1.225.103-.421.362-.775.731-1,.257-.156.545-.236.838-.236.129,0,.259.016.387.047.421.103.775.362,1,.731.225.37.292.804.189,1.224Z"/>
  <path class="cls-1" d="M9.833,33.628c-1.939-.47-3.899.722-4.373,2.659-.229.939-.078,1.911.424,2.737.502.825,1.296,1.406,2.234,1.636.287.07.574.104.857.104,1.63,0,3.113-1.11,3.517-2.762.473-1.939-.72-3.901-2.659-4.374ZM10.549,37.527c-.103.421-.362.775-.731,1-.37.225-.807.291-1.225.189-.421-.103-.775-.362-1-.731-.225-.37-.292-.804-.189-1.224.18-.739.845-1.236,1.574-1.236.126,0,.254.015.382.046.421.103.775.362,1,.731.225.37.292.805.189,1.225Z"/>
  <path class="cls-1" d="M25.604,37.474c-1.939-.475-3.9.72-4.374,2.658-.473,1.938.72,3.9,2.658,4.374.287.07.574.104.857.104,1.63,0,3.113-1.11,3.517-2.762.229-.939.078-1.912-.424-2.737-.502-.826-1.296-1.407-2.234-1.637ZM26.319,41.373c-.103.421-.362.775-.731,1-.37.225-.807.291-1.225.189-.867-.212-1.401-1.089-1.189-1.956.103-.421.362-.775.731-1,.257-.156.545-.236.838-.236.129,0,.259.016.387.047.421.103.775.362,1,.731.225.37.292.805.189,1.225Z"/>
  <path class="cls-1" d="M22.804,33.029c.274-1.128.094-2.294-.509-3.285s-1.556-1.688-2.682-1.963c-1.124-.274-2.293-.095-3.284.508s-1.688,1.556-1.964,2.682c-.274,1.128-.094,2.294.509,3.285s1.556,1.688,2.682,1.963c.345.084.689.124,1.029.124,1.955,0,3.735-1.332,4.219-3.313ZM20.86,32.555c-.148.608-.524,1.122-1.059,1.446-.536.326-1.166.422-1.772.274-.607-.147-1.122-.523-1.446-1.059-.325-.534-.423-1.164-.274-1.771.261-1.069,1.221-1.788,2.275-1.788.184,0,.37.022.556.067.607.147,1.122.523,1.446,1.059.325.534.423,1.164.274,1.771Z"/>
</svg>