<?xml version="1.0" encoding="UTF-8"?>
<svg id="Layer_1" data-name="Layer 1" xmlns="http://www.w3.org/2000/svg" viewBox="0 0 64 64">
  <defs>
    <style>
      .cls-1 {
        fill: #000;
        stroke-width: 0px;
      }
    </style>
  </defs>
  <path class="cls-1" d="M33.79,10.366l-1.783,1.797-1.8-1.8c-6.441-6.441-16.922-6.441-23.363,0-3.124,3.113-4.844,7.261-4.844,11.678,0,1.811.307,3.592.888,5.305-.58,1.434-.888,2.978-.888,4.571,0,3.256,1.269,6.319,3.573,8.624l17.643,17.643c.188.188.442.293.707.293s.52-.105.707-.293l3.333-3.335,3.339,3.339c.188.188.442.293.707.293s.52-.105.708-.293l24.439-24.458c3.124-3.113,4.844-7.264,4.844-11.688s-1.721-8.576-4.843-11.677c-6.441-6.441-16.923-6.441-23.367.003ZM23.923,56.061L6.987,39.125c-1.926-1.927-2.987-4.487-2.987-7.209s1.061-5.282,2.987-7.209c1.988-1.987,4.599-2.981,7.209-2.981s5.221.994,7.209,2.981l1.811,1.811c.188.188.442.293.707.293h0c.266,0,.521-.106.708-.294l1.801-1.809c3.976-3.975,10.443-3.975,14.419,0,0,0,0,0,0,.001,1.925,1.919,2.986,4.479,2.986,7.208s-1.061,5.289-2.987,7.209l-13.578,13.584c-.006.006-.015.008-.021.014s-.008.015-.014.021l-3.316,3.317ZM55.743,32.313l-23.733,23.752-2.632-2.632,12.888-12.893c2.305-2.297,3.574-5.36,3.574-8.625s-1.269-6.327-3.574-8.625c-4.755-4.753-12.492-4.752-17.248.003l-1.096,1.101-1.102-1.102c-4.755-4.755-12.492-4.754-17.247,0-.481.481-.905,1.001-1.293,1.542-.18-.919-.28-1.852-.28-2.795,0-3.882,1.511-7.526,4.257-10.263,5.663-5.662,14.875-5.661,20.536,0l2.51,2.51c.188.188.4.275.709.293.266,0,.521-.107.708-.296l2.487-2.507c5.662-5.662,14.875-5.662,20.539.002,2.744,2.726,4.254,6.37,4.254,10.261s-1.511,7.537-4.257,10.273Z"/>
  <path class="cls-1" d="M55.371,15.625c-.872-1.264-2.826-3.548-6.119-4.65-1.673-.559-3.5-.737-5.28-.516-.548.068-.937.568-.868,1.116.068.548.572.935,1.116.868,1.486-.185,3.007-.038,4.397.428,2.743.918,4.377,2.831,5.107,3.89.194.281.506.432.824.432.196,0,.394-.057.567-.177.455-.313.569-.937.255-1.391Z"/>
  <path class="cls-1" d="M55.14,20.6c-.05.12-.08.25-.08.38,0,.27.11.53.3.71.18.19.44.29.7.29.14,0,.26-.02.39-.07.12-.05.23-.13.32-.22.05-.04.09-.1.13-.15.03-.06.06-.11.09-.17.02-.06.04-.13.05-.19.02-.07.02-.13.02-.2,0-.26-.1-.52-.29-.7-.09-.1-.2-.17-.32-.22-.37-.15-.81-.06-1.09.22-.1.09-.17.2-.22.32Z"/>
</svg>