<?xml version="1.0" encoding="UTF-8"?>
<svg id="Layer_1" data-name="Layer 1" xmlns="http://www.w3.org/2000/svg" viewBox="0 0 64 64">
  <defs>
    <style>
      .cls-1 {
        fill: #000;
        stroke-width: 0px;
      }
    </style>
  </defs>
  <path class="cls-1" d="M17.444,12.399H7.67c-.552,0-1,.448-1,1v9.774c0,.552.448,1,1,1h9.774c.552,0,1-.448,1-1v-9.774c0-.552-.448-1-1-1ZM16.444,22.173h-7.774v-7.774h7.774v7.774Z"/>
  <path class="cls-1" d="M23.727,17.137h10.304c.552,0,1-.448,1-1s-.448-1-1-1h-10.304c-.552,0-1,.448-1,1s.448,1,1,1Z"/>
  <path class="cls-1" d="M23.727,21.435h24.065c.552,0,1-.448,1-1s-.448-1-1-1h-24.065c-.552,0-1,.448-1,1s.448,1,1,1Z"/>
  <path class="cls-1" d="M58.566,25.24h-1.63v-14.962c0-1.231-1.001-2.232-2.232-2.232H4.232c-1.23,0-2.232,1.001-2.232,2.232v28.677c0,1.23,1.001,2.232,2.232,2.232h17.2v11.333c0,1.894,1.541,3.434,3.434,3.434h33.701c1.893,0,3.434-1.541,3.434-3.434v-23.846c0-1.894-1.541-3.434-3.434-3.434ZM60,28.674v2.278H23.432v-2.278c0-.791.643-1.434,1.434-1.434h31.066s.003,0,.005,0,.003,0,.005,0h2.626c.791,0,1.434.644,1.434,1.434ZM60,37.642H23.432v-4.689h36.568v4.689ZM4.232,39.187c-.124,0-.232-.108-.232-.232V10.278c0-.124.108-.232.232-.232h50.472c.124,0,.232.108.232.232v14.962h-30.071c-1.893,0-3.434,1.541-3.434,3.434v10.513H4.232ZM58.566,53.954H24.865c-.791,0-1.434-.644-1.434-1.434v-12.878h36.568v12.878c0,.791-.643,1.434-1.434,1.434Z"/>
</svg>