<svg width="231" height="223" viewBox="0 0 231 223" fill="none" xmlns="http://www.w3.org/2000/svg">
<g clip-path="url(#clip0_195_287)">
<path d="M75.9814 7.79041C62.1505 13.3349 49.856 21.651 39.0985 32.1231C28.341 42.9035 20.3501 55.2239 14.8174 69.0847C9.28496 82.6372 6.51904 96.8057 6.51904 111.282C6.51904 125.759 9.28496 139.927 14.8174 153.172C20.3501 167.032 28.6485 179.353 39.0985 190.133C49.856 200.914 62.1501 208.922 75.9814 214.466C89.1975 220.011 103.336 222.475 117.782 222.475C132.228 222.475 146.366 219.702 159.582 214.466C173.413 208.922 185.707 200.606 196.465 190.133C207.222 179.353 215.213 167.033 220.746 153.172C226.278 139.927 228.737 125.759 228.737 111.282C228.737 96.8055 225.971 82.6372 220.746 69.3926C215.213 55.5322 206.915 43.2115 196.465 32.431C186.015 21.6506 173.413 13.6426 159.582 8.09812C146.366 2.55383 132.228 -0.217773 117.782 -0.217773C103.336 -0.217773 89.1977 2.55405 75.9814 7.79041ZM34.1812 158.1C28.9562 154.711 24.0385 150.707 19.4281 146.395C12.6663 127.607 11.7443 107.278 16.0472 87.8731C18.1988 83.8691 20.3504 79.8651 23.1163 76.1689C24.3456 74.629 24.9604 73.7048 25.8824 72.4728L51.0857 87.2575V87.8735C51.0857 101.426 52.3151 114.978 55.0812 127.915L35.7181 158.408C35.1031 158.716 34.796 158.408 34.1812 158.1V158.1ZM108.868 209.846C113.171 212.002 117.782 213.85 122.084 215.39C102.721 216.314 83.0505 211.694 65.5312 201.838L107.946 209.23C108.254 209.538 108.561 209.538 108.869 209.846L108.868 209.846ZM108.868 202.146L59.0769 193.213C53.2371 186.129 48.0121 178.737 43.4015 170.728C42.1724 168.572 40.9428 166.724 40.0208 164.568L59.3839 134.075C59.6912 134.075 60.306 134.383 60.9207 134.383C73.2152 137.771 85.5093 139.927 97.8036 141.776C98.4181 141.776 99.0329 142.083 99.6477 142.083L123.314 182.433C119.318 187.977 115.323 193.829 111.02 199.373C110.405 200.605 109.483 201.221 108.868 202.146ZM191.547 184.897C187.551 188.901 183.248 192.289 178.945 195.677C178.331 189.825 177.101 183.973 175.257 178.429L199.845 132.227C206.607 129.147 213.369 125.451 219.516 121.139C220.438 120.523 221.053 119.906 221.36 119.291C219.824 143.315 209.681 166.724 191.547 184.897ZM190.317 124.835C191.24 126.683 192.162 128.531 193.084 130.071L169.11 175.04H168.803C155.894 177.504 142.678 178.736 129.461 178.736L105.488 137.155C109.176 130.071 112.864 123.295 116.552 116.21C119.011 111.59 121.47 106.662 123.929 102.042L173.413 96.8055C179.56 106.046 185.4 115.286 190.318 124.834L190.317 124.835ZM180.175 71.5488L172.798 90.0295L124.544 94.9577C123.929 94.3416 123.314 93.4176 122.699 92.8015C116.859 86.3332 111.327 79.8654 105.487 73.3968L105.795 73.0889L98.7256 66.0047L112.249 25.3473C113.172 25.0394 114.094 25.0394 115.016 24.7314C122.392 24.1151 129.769 23.1913 136.838 22.575C141.448 22.2671 145.751 22.2671 150.361 22.575L183.555 60.1523C182.633 64.1565 181.712 67.8528 180.175 71.5488ZM191.547 37.3595C200.767 46.6 207.837 57.0723 212.754 68.1607C206.607 63.8483 199.846 60.4602 192.776 57.3803C191.547 57.0723 190.625 56.4562 189.395 56.1483L156.508 19.1867C157.123 17.955 157.123 16.1065 157.123 14.5666C169.725 19.8028 181.404 27.1953 191.547 37.3595ZM84.28 12.7186C84.5873 12.7186 84.5873 12.7186 84.28 12.7186C91.9641 15.4907 98.7256 19.1869 105.18 23.807L92.5786 61.6924H92.2713C89.8125 62.6164 87.0466 63.8488 84.5875 64.7726C74.1375 69.3929 63.9948 74.9371 54.4666 81.0969L29.571 66.3125C29.571 65.3884 29.8783 64.7724 29.8783 64.1563C31.4151 59.8441 33.2592 55.2239 35.1033 50.9117C36.6401 47.5236 38.1769 44.4434 40.021 41.0553C41.2503 39.8234 42.4799 38.5912 43.7092 37.0511C55.3887 25.3467 69.5273 16.7224 84.28 11.7942C84.5873 12.4103 84.5873 12.4103 84.28 12.7182V12.7186Z" fill="white"/>
</g>
<defs>
<clipPath id="clip0_195_287">
<rect width="231" height="223" fill="white"/>
</clipPath>
</defs>
</svg>
