<?xml version="1.0" encoding="UTF-8"?>
<svg id="Layer_1" data-name="Layer 1" xmlns="http://www.w3.org/2000/svg" viewBox="0 0 64 64">
  <defs>
    <style>
      .cls-1 {
        fill: #000;
        stroke-width: 0px;
      }
    </style>
  </defs>
  <path class="cls-1" d="M14.924,12.386l7.283,4.797c.165.108.356.165.55.165.067,0,.135-.007.202-.021.26-.054.488-.208.634-.43l4.793-7.281c.724-1.094.976-2.406.711-3.694-.265-1.288-1.015-2.394-2.111-3.113-2.232-1.47-5.233-.877-6.745,1.313-1.078-.678-2.35-.911-3.604-.652-1.285.264-2.391,1.013-3.112,2.109-.722,1.096-.975,2.408-.71,3.693.264,1.285,1.014,2.391,2.109,3.113ZM15.195,6.681c.428-.65,1.083-1.094,1.846-1.25.198-.041.396-.061.593-.061.563,0,1.115.164,1.596.481l.748.492c.222.145.491.197.752.144.26-.054.488-.209.633-.431l.489-.745c.428-.65,1.083-1.094,1.846-1.25.763-.158,1.539-.008,2.189.42,0,0,0,0,.001,0,.649.426,1.093,1.081,1.25,1.845s.008,1.541-.421,2.189l-4.244,6.447-6.448-4.247c-.65-.428-1.094-1.084-1.251-1.846-.157-.762-.007-1.539.421-2.189Z"/>
  <path class="cls-1" d="M32.061,30.761c-1.096-.721-2.406-.972-3.691-.708-1.25.257-2.331.973-3.054,2.021-1.077-.677-2.353-.911-3.604-.651-1.286.264-2.391,1.013-3.113,2.109-.722,1.096-.975,2.408-.71,3.693.264,1.285,1.014,2.39,2.11,3.112l7.283,4.797c.165.108.356.165.55.165.067,0,.135-.007.202-.021.26-.054.488-.208.634-.43l4.793-7.28c.723-1.093.976-2.405.711-3.694-.265-1.288-1.015-2.394-2.111-3.113ZM31.792,36.467l-4.245,6.447-6.447-4.247c-.65-.429-1.095-1.084-1.251-1.846s-.007-1.539.421-2.189,1.083-1.094,1.846-1.25c.198-.041.396-.061.594-.061.563,0,1.115.164,1.596.481l.747.492c.222.146.492.198.753.145.26-.054.488-.209.633-.431l.489-.745c.428-.649,1.083-1.094,1.846-1.25.763-.157,1.54-.008,2.189.42,0,0,0,0,.001,0,.649.426,1.093,1.081,1.25,1.844.157.764.008,1.542-.421,2.19Z"/>
  <path class="cls-1" d="M43.759,14.027c-.722-1.048-1.803-1.764-3.054-2.021-1.283-.263-2.596-.013-3.691.708-1.097.72-1.846,1.826-2.11,3.113-.266,1.289-.014,2.601.709,3.693l4.795,7.282c.146.222.373.376.634.43.066.014.134.021.201.021.194,0,.386-.057.55-.165l7.283-4.797c1.096-.722,1.846-1.827,2.11-3.113.264-1.285.012-2.596-.71-3.692-.722-1.096-1.827-1.845-3.113-2.11-1.252-.257-2.525-.025-3.604.652ZM48.806,16.584c.428.65.577,1.428.421,2.189-.157.762-.602,1.418-1.251,1.846l-6.448,4.247-4.246-6.449c-.428-.647-.576-1.424-.419-2.188.156-.764.601-1.418,1.249-1.844,0,0,0,0,0,0,.493-.324,1.049-.479,1.6-.479.947,0,1.877.46,2.436,1.308l.489.747c.146.222.373.377.633.431.262.053.532.001.753-.145l.747-.492c.65-.428,1.431-.576,2.19-.42.763.157,1.418.601,1.846,1.25Z"/>
  <path class="cls-1" d="M33.084,54.268l4.795,7.282c.146.222.373.376.634.43.066.014.134.021.201.021.194,0,.386-.057.55-.165l7.283-4.797c1.096-.722,1.846-1.827,2.11-3.113.264-1.285.012-2.596-.71-3.693-.722-1.096-1.827-1.845-3.113-2.109-1.247-.256-2.524-.026-3.604.652-1.51-2.191-4.514-2.783-6.745-1.313-1.096.719-1.846,1.825-2.111,3.114-.265,1.288-.012,2.6.71,3.692ZM34.333,50.979c.157-.765.602-1.42,1.25-1.846,0,0,0,0,0,0,.493-.324,1.049-.479,1.599-.479.947,0,1.878.46,2.436,1.307l.489.747c.146.222.374.377.634.431.262.055.532.002.753-.144l.747-.492c.649-.428,1.43-.577,2.19-.42.762.157,1.418.601,1.846,1.25.428.65.577,1.428.421,2.189-.157.762-.602,1.418-1.251,1.846l-6.448,4.247-4.246-6.448c-.428-.647-.577-1.424-.42-2.188Z"/>
</svg>