<?xml version="1.0" encoding="UTF-8"?>
<svg id="Layer_1" data-name="Layer 1" xmlns="http://www.w3.org/2000/svg" viewBox="0 0 64 64">
  <defs>
    <style>
      .cls-1 {
        fill: #000;
        stroke-width: 0px;
      }
    </style>
  </defs>
  <path class="cls-1" d="M46.659,20.238c-1.831,0-3.581.239-5.21.655v-1.555c0-.552-.448-1-1-1h-5.074c.882-1.748.789-3.902-.43-5.589-.845-1.173-2.098-1.946-3.526-2.177-1.424-.229-2.853.11-4.018.953-1.418,1.02-4.23,4.13-5.645,6.812h-.066c-1.416-2.682-4.228-5.793-5.643-6.811-1.168-.845-2.595-1.184-4.021-.955-1.428.23-2.681,1.003-3.525,2.176-1.219,1.688-1.313,3.842-.431,5.59H3c-.552,0-1,.448-1,1v9.853c0,.552.448,1,1,1h1.925v22.305c0,.552.448,1,1,1h31.59c.552,0,1-.448,1-1v-10.667h8.145c8.459,0,15.341-4.843,15.341-10.795s-6.882-10.795-15.341-10.795ZM39.449,21.511c-3.677,1.384-6.451,3.794-7.573,6.681h-.877v-7.853h8.45v1.172ZM14.446,28.191v-7.852h6.623c.006,0,.011.002.017.002.004,0,.007-.002.011-.002h1.249s.007.002.011.002c.006,0,.011-.002.017-.002h6.623v7.852h-14.552ZM28.571,13.147c.735-.532,1.633-.747,2.529-.6.9.145,1.689.632,2.223,1.372.998,1.381.8,3.256-.399,4.419h-8.86c1.335-2.112,3.421-4.41,4.507-5.191ZM10.123,13.918c.532-.739,1.321-1.226,2.221-1.371.897-.147,1.795.068,2.532.602,1.083.779,3.169,3.078,4.504,5.189h-8.86c-1.2-1.162-1.396-3.037-.398-4.42ZM4,20.338h8.446v7.853H4v-7.853ZM6.925,30.191h6.509s.008.002.012.002h1.743v21.303H6.925v-21.305ZM17.189,51.497v-21.303h9.067v21.303h-9.067ZM36.515,51.497h-8.259v-21.303h1.743s.008-.002.012-.002h1.368c-.031.279-.061.558-.061.842,0,2.258.994,4.448,2.822,6.262l-2.826,2.826c-.286.286-.372.716-.217,1.09s.52.617.924.617h4.494v9.667ZM46.659,39.829h-9.128c-.006,0-.011-.003-.017-.003s-.011.003-.017.003h-3.063l1.861-1.861c.199-.199.305-.473.292-.754s-.145-.544-.361-.723c-1.903-1.576-2.909-3.463-2.909-5.457,0-4.85,5.985-8.795,13.341-8.795s13.341,3.946,13.341,8.795-5.985,8.795-13.341,8.795Z"/>
  <path class="cls-1" d="M45.827,26.529c-.533-.142-1.082.173-1.226.706l-.953,3.541-.982-3.548c-.119-.428-.505-.726-.949-.733-.43.022-.839.28-.97.704l-1.109,3.575-.828-3.508c-.126-.538-.669-.874-1.203-.744-.538.126-.871.665-.744,1.203l1.669,7.077c.104.439.488.754.938.77.012,0,.023,0,.035,0,.437,0,.824-.284.955-.704l1.186-3.823,1.051,3.794c.12.434.533.748.967.733.451-.001.845-.305.962-.74l1.905-7.077c.144-.533-.172-1.082-.706-1.226Z"/>
  <path class="cls-1" d="M48.434,26.495c-.552,0-1,.448-1,1v7.077c0,.552.448,1,1,1s1-.448,1-1v-7.077c0-.552-.448-1-1-1Z"/>
  <path class="cls-1" d="M55.184,26.495c-.552,0-1,.448-1,1v3.042l-1.854-3.509c-.215-.407-.678-.614-1.125-.504-.446.111-.759.511-.759.971v7.077c0,.552.448,1,1,1s1-.448,1-1v-3.042l1.854,3.509c.176.333.52.533.884.533.08,0,.161-.009.241-.029.446-.111.759-.511.759-.971v-7.077c0-.552-.448-1-1-1Z"/>
</svg>