<?xml version="1.0" encoding="UTF-8"?>
<svg id="Layer_1" data-name="Layer 1" xmlns="http://www.w3.org/2000/svg" viewBox="0 0 64 64">
  <defs>
    <style>
      .cls-1 {
        fill: #000;
        stroke-width: 0px;
      }
    </style>
  </defs>
  <path class="cls-1" d="M27.775,43.85v9.886h-6.377c-2.408,0-4.367,1.959-4.367,4.368v2.896c0,.552.448,1,1,1h27.938c.552,0,1-.448,1-1v-2.896c0-2.408-1.959-4.368-4.367-4.368h-6.379v-9.888c6.379-1.839,11.063-7.714,11.063-14.672,0-2.573-.67-9.816-1.952-18.679-.353-2.483-.755-5.062-1.195-7.664-.081-.481-.498-.833-.986-.833h-22.306c-.488,0-.905.352-.986.833-.451,2.667-.841,5.256-1.195,7.663-1.149,8.032-1.952,15.714-1.952,18.68,0,6.961,4.683,12.837,11.061,14.674ZM44.969,58.104v1.896h-25.938v-1.896c0-1.306,1.062-2.368,2.367-2.368h21.203c1.305,0,2.367,1.062,2.367,2.368ZM34.222,53.731h-4.447v-9.456c.726.106,1.463.18,2.218.18.759,0,1.499-.074,2.229-.181v9.457ZM21.694,4h20.613c.317,1.909.607,3.791.878,5.638h-22.367c.269-1.81.554-3.69.877-5.638ZM20.525,11.638h22.95c1.188,8.374,1.81,15.119,1.81,17.538,0,7.322-5.963,13.279-13.292,13.279s-13.279-5.957-13.279-13.279c0-2.353.623-9.081,1.811-17.538Z"/>
  <path class="cls-1" d="M32.234,39.751c.221,0,.393-.007.505-.013.551-.032.972-.505.94-1.057-.032-.551-.51-.968-1.057-.94-.728.044-4.488.109-6.959-2.752-1.188-1.374-1.635-2.909-1.801-3.955-.087-.545-.599-.914-1.145-.831-.545.087-.917.6-.831,1.145.208,1.302.769,3.218,2.263,4.948,2.696,3.121,6.556,3.455,8.083,3.455Z"/>
  <path class="cls-1" d="M36.86,38.41c.12.05.25.07.38.07.26,0,.52-.1.71-.29s.29-.44.29-.71c0-.26-.1-.52-.29-.7-.28-.28-.72-.37-1.09-.22-.12.05-.23.12-.33.22-.18.18-.29.44-.29.7,0,.27.11.52.29.71.1.09.21.17.33.22Z"/>
</svg>