<?xml version="1.0" encoding="UTF-8"?>
<svg id="Layer_1" data-name="Layer 1" xmlns="http://www.w3.org/2000/svg" viewBox="0 0 64 64">
  <defs>
    <style>
      .cls-1 {
        fill: #000;
        stroke-width: 0px;
      }
    </style>
  </defs>
  <path class="cls-1" d="M37.635,19.82c-1.153,1.404-2.154,3.102-2.986,5.009-.001.003-.004.004-.005.007-.003.005-.002.012-.005.017-1.749,4.023-2.735,8.986-2.735,14.169,0,4.777.817,9.372,2.364,13.287.341.862.561,1.585.691,2.275l.862,4.534c.058.306.255.567.533.707,1.991,1.001,5.175,2.176,9.151,2.176.116,0,.232,0,.35-.003,3.038-.052,6.081-.804,8.802-2.175.192-.096.347-.252.443-.443l.811-1.61c.096-.191.129-.408.093-.618-.25-1.456-.029-2.904.736-4.842,1.547-3.916,2.364-8.51,2.364-13.287,0-4.893-.879-9.587-2.448-13.481-.005-.013-.003-.028-.008-.041-.006-.013-.017-.021-.023-.034-.88-2.167-1.972-4.087-3.251-5.645-1.402-1.707-2.216-3.754-2.354-5.921l-.133-2.103h.766c.552,0,1-.448,1-1V3c0-.552-.448-1-1-1h-12.298c-.552,0-1,.448-1,1v7.796c0,.552.448,1,1,1h.766l-.133,2.103c-.138,2.167-.951,4.214-2.354,5.921ZM54.881,51.574c-.575,1.456-1.185,3.387-.898,5.579l-.517,1.027c-2.378,1.145-5.014,1.772-7.644,1.817-3.458.079-6.263-.871-8.129-1.746l-.768-4.041c-.155-.816-.408-1.654-.796-2.636-.626-1.586-1.117-3.298-1.483-5.089,2.919,1.518,6.089,2.478,9.288,2.781.788.075,1.575.113,2.36.113,3.35,0,6.664-.696,9.896-2.062-.344,1.49-.779,2.918-1.308,4.257ZM56.647,44.911c-4.068,1.967-8.278,2.77-12.524,2.363-3.444-.326-6.856-1.477-9.905-3.321-.207-1.603-.314-3.255-.314-4.933,0-4.513.774-8.829,2.165-12.413,2.519,1.127,5.154,1.855,7.865,2.116.776.074,1.551.111,2.326.111,2.993,0,5.972-.556,8.891-1.652,1.256,3.467,1.955,7.562,1.955,11.838,0,2.016-.161,3.99-.458,5.89ZM40.355,4h10.298v5.796h-.829s-.002,0-.003,0h-8.636s-.002,0-.003,0h-.829v-5.796ZM48.884,11.796l.141,2.23c.165,2.587,1.134,5.03,2.804,7.063.98,1.193,1.839,2.627,2.568,4.236-3.372,1.257-6.824,1.738-10.273,1.408-2.499-.241-4.931-.913-7.256-1.956.672-1.386,1.445-2.631,2.312-3.688,1.67-2.034,2.639-4.477,2.804-7.064l.141-2.229h6.759Z"/>
  <path class="cls-1" d="M27.986,37.507c0-1.909-.496-7.272-1.443-13.826-.26-1.829-.557-3.735-.883-5.665-.081-.481-.498-.833-.986-.833H8.207c-.488,0-.905.352-.986.833-.326,1.928-.614,3.837-.883,5.664-.85,5.939-1.444,11.625-1.444,13.827,0,5.19,3.444,9.588,8.166,11.035v6.833h-4.446c-1.922,0-3.486,1.564-3.486,3.486v2.138c0,.552.448,1,1,1h20.625c.552,0,1-.448,1-1v-2.138c0-1.922-1.564-3.486-3.486-3.486h-4.447v-6.835c4.723-1.449,8.167-5.846,8.167-11.034ZM25.753,58.862v1.138H7.128v-1.138c0-.819.667-1.486,1.486-1.486h15.652c.819,0,1.486.667,1.486,1.486ZM23.827,19.183c.204,1.234.39,2.445.567,3.639h-15.905c.178-1.192.363-2.405.565-3.639h14.773ZM6.895,37.507c0-1.709.448-6.562,1.303-12.686h16.488c.854,6.065,1.302,10.93,1.302,12.686,0,5.261-4.285,9.542-9.551,9.542s-9.541-4.28-9.541-9.542ZM17.819,55.372h-2.759v-6.414c.452.054.909.09,1.375.09.469,0,.929-.036,1.384-.091v6.415Z"/>
</svg>