<?xml version="1.0" encoding="UTF-8"?>
<svg id="Layer_1" data-name="Layer 1" xmlns="http://www.w3.org/2000/svg" viewBox="0 0 64 64">
  <defs>
    <style>
      .cls-1 {
        fill: #000;
        stroke-width: 0px;
      }
    </style>
  </defs>
  <path class="cls-1" d="M22.231,25.044c-.818,5.728-1.391,11.208-1.391,13.325,0,5.006,3.316,9.252,7.866,10.658v6.518h-4.246c-1.872,0-3.395,1.523-3.395,3.395v2.06c0,.552.447,1,1,1h19.867c.553,0,1-.448,1-1v-2.06c0-1.872-1.522-3.395-3.395-3.395h-4.248v-6.519c4.552-1.408,7.868-5.653,7.868-10.657,0-1.84-.478-7.009-1.391-13.324-.255-1.788-.541-3.624-.852-5.458-.082-.481-.498-.833-.986-.833h-15.861c-.488,0-.904.352-.986.833-.314,1.858-.592,3.697-.852,5.457ZM40.934,58.94v1.06h-17.867v-1.06c0-.769.626-1.395,1.395-1.395h15.078c.769,0,1.395.626,1.395,1.395ZM33.291,55.542h-2.584v-6.099c.423.049.852.081,1.288.081.439,0,.87-.032,1.296-.082v6.1ZM31.995,47.523c-5.048,0-9.154-4.106-9.154-9.154,0-1.638.429-6.296,1.25-12.183h15.82c.82,5.826,1.249,10.496,1.249,12.183,0,5.048-4.111,9.154-9.164,9.154ZM39.084,20.754c.191,1.154.36,2.294.529,3.432h-15.23c.168-1.125.343-2.268.533-3.432h14.168Z"/>
  <path class="cls-1" d="M32.427,44.172c-.494.029-3.048.071-4.714-1.857-.8-.926-1.102-1.962-1.215-2.669-.086-.545-.598-.922-1.145-.83-.546.087-.917.599-.83,1.145.153.963.568,2.381,1.676,3.663,1.997,2.311,4.854,2.556,5.977,2.556.159,0,.284-.005.366-.009.551-.032.973-.504.94-1.056-.031-.551-.524-.973-1.056-.941Z"/>
  <path class="cls-1" d="M36.649,43.89c-.02-.06-.06-.11-.09-.17-.04-.05-.08-.1-.13-.15-.36-.37-1.04-.37-1.41,0-.189.18-.29.44-.29.71,0,.26.101.52.29.7.05.05.101.09.15.13.06.03.11.06.18.09.061.03.12.04.181.06.069.01.13.02.199.02.061,0,.13-.01.19-.02.07-.02.13-.03.189-.06.061-.03.12-.06.171-.09.06-.04.109-.08.149-.13.05-.04.09-.09.13-.15.03-.05.07-.11.09-.17.03-.06.04-.12.061-.19.01-.06.02-.13.02-.19,0-.07-.01-.13-.02-.2-.021-.06-.03-.12-.061-.19Z"/>
  <path class="cls-1" d="M31.294,17.275c.188.188.441.293.707.293s.52-.105.707-.293l6.51-6.512c.971-.967,1.505-2.257,1.505-3.631s-.534-2.665-1.505-3.631c-.97-.969-2.258-1.502-3.628-1.502-1.353,0-2.625.519-3.59,1.464-.965-.944-2.237-1.464-3.59-1.464-1.371,0-2.66.534-3.629,1.503s-1.504,2.259-1.504,3.63.534,2.66,1.504,3.629l6.513,6.513ZM26.195,4.917c.592-.592,1.378-.917,2.215-.917s1.624.326,2.216.917l.668.668c.188.188.441.293.707.293h0c.266,0,.52-.106.707-.294l.665-.667c1.184-1.183,3.247-1.184,4.431,0,0,0,0,0,0,.001.592.589.917,1.375.917,2.214s-.325,1.625-.918,2.215l-5.804,5.806-5.806-5.806c-.592-.592-.918-1.379-.918-2.215s.326-1.624.918-2.215Z"/>
</svg>