<?xml version="1.0" encoding="UTF-8"?>
<svg id="Layer_1" data-name="Layer 1" xmlns="http://www.w3.org/2000/svg" viewBox="0 0 64 64">
  <defs>
    <style>
      .cls-1 {
        fill: #000;
        stroke-width: 0px;
      }
    </style>
  </defs>
  <path class="cls-1" d="M3,44.6h58c.329,0,.638-.162.824-.434.187-.271.228-.617.109-.925l-4.462-11.6c-.148-.386-.52-.641-.934-.641h-9.351l-4.215-10.959c-.148-.386-.52-.641-.934-.641h-20.076c-.414,0-.785.255-.934.641l-4.215,10.959H7.462c-.414,0-.785.255-.934.641l-4.462,11.6c-.118.308-.077.653.109.925.187.272.495.434.824.434ZM32,40.814l-3.006-7.814h6.011l-3.006,7.814ZM59.544,42.6h-26.088l3.692-9.6h18.703l3.692,9.6ZM22.648,21.4h18.703l3.692,9.6h-26.088l3.692-9.6ZM8.148,33h18.703l3.692,9.6H4.456l3.692-9.6Z"/>
</svg>