<svg width="1054" height="1024" viewBox="0 0 1054 1024" fill="none" xmlns="http://www.w3.org/2000/svg">
<g clip-path="url(#clip0_195_311)">
<path d="M704 683.4C654.6 706 599.8 718.8 542 718.8C484.2 718.8 429.4 706.2 380 683.4C425.6 728 501.4 821.799 511 962.4H422.2C405.6 962.4 392.2 975.8 392.2 992.4C392.2 1009 405.6 1022.4 422.2 1022.4H661.8C678.4 1022.4 691.8 1009 691.8 992.4C691.8 975.8 678.4 962.4 661.8 962.4H573C578.4 881.8 605.8 807.4 654.6 740.4C672 716.4 689.4 697.4 704 683.4ZM542 -0.200195C360.4 -0.200195 212.6 147.6 212.6 329.2C212.6 510.8 360.401 658.8 542 658.8C723.599 658.8 871.4 511 871.4 329.2C871.4 147.4 723.599 -0.200195 542 -0.200195ZM362.2 359.2C345.6 359.2 332.2 345.8 332.2 329.2C332.2 312.6 345.6 299.2 362.2 299.2C378.8 299.2 392.2 312.6 392.2 329.2C392.2 345.8 378.8 359.2 362.2 359.2ZM401 230.6C389.4 219 389.4 200 401 188.2C412.6 176.4 431.6 176.6 443.4 188.2C455 199.8 455 218.8 443.4 230.6C431.6 242.4 412.8 242.4 401 230.6ZM503.2 410.4C491.6 422 472.6 422 460.8 410.4C449 398.8 449.2 379.8 460.8 368C472.4 356.4 491.4 356.4 503.2 368C515 379.8 515 398.6 503.2 410.4ZM563.2 290.6C551.6 302.2 532.6 302.2 520.8 290.6C509 279 509.2 260 520.8 248.2C532.4 236.6 551.4 236.6 563.2 248.2C574.8 260 574.8 278.8 563.2 290.6Z" fill="white"/>
</g>
<defs>
<clipPath id="clip0_195_311">
<rect width="1054" height="1024" fill="white"/>
</clipPath>
</defs>
</svg>
