<?xml version="1.0" encoding="UTF-8"?>
<svg id="Layer_1" data-name="Layer 1" xmlns="http://www.w3.org/2000/svg" viewBox="0 0 64 64">
  <defs>
    <style>
      .cls-1 {
        fill: #000;
        stroke-width: 0px;
      }
    </style>
  </defs>
  <path class="cls-1" d="M55.671,16.855H8.475c-.552,0-1,.448-1,1v37.529c0,.552.448,1,1,1h47.196c.553,0,1-.448,1-1V17.855c0-.552-.447-1-1-1ZM38.939,35.62h-5.866v-4.255h5.866v4.255ZM40.939,31.365h5.866v4.255h-5.866v-4.255ZM33.073,29.365v-4.255h5.866v4.255h-5.866ZM31.073,29.365h-5.866v-4.255h5.866v4.255ZM31.073,31.365v4.255h-5.866v-4.255h5.866ZM23.207,35.62h-5.866v-4.255h5.866v4.255ZM15.341,35.62h-5.866v-4.255h5.866v4.255ZM15.341,37.62v4.255h-5.866v-4.255h5.866ZM17.341,37.62h5.866v4.255h-5.866v-4.255ZM25.207,37.62h5.866v4.255h-5.866v-4.255ZM31.073,43.875v4.255h-5.866v-4.255h5.866ZM33.073,43.875h5.866v4.255h-5.866v-4.255ZM33.073,41.875v-4.255h5.866v4.255h-5.866ZM40.939,37.62h5.866v4.255h-5.866v-4.255ZM48.806,37.62h5.865v4.255h-5.865v-4.255ZM48.806,35.62v-4.255h5.865v4.255h-5.865ZM48.806,29.365v-4.255h5.865v4.255h-5.865ZM46.806,29.365h-5.866v-4.255h5.866v4.255ZM40.939,23.11v-4.255h5.866v4.255h-5.866ZM38.939,23.11h-5.866v-4.255h5.866v4.255ZM31.073,23.11h-5.866v-4.255h5.866v4.255ZM23.207,23.11h-5.866v-4.255h5.866v4.255ZM23.207,25.11v4.255h-5.866v-4.255h5.866ZM15.341,29.365h-5.866v-4.255h5.866v4.255ZM9.475,43.875h5.866v4.255h-5.866v-4.255ZM17.341,43.875h5.866v4.255h-5.866v-4.255ZM23.207,50.13v4.255h-5.866v-4.255h5.866ZM25.207,50.13h5.866v4.255h-5.866v-4.255ZM33.073,50.13h5.866v4.255h-5.866v-4.255ZM40.939,50.13h5.866v4.255h-5.866v-4.255ZM40.939,48.13v-4.255h5.866v4.255h-5.866ZM48.806,43.875h5.865v4.255h-5.865v-4.255ZM54.671,23.11h-5.865v-4.255h5.865v4.255ZM15.341,18.855v4.255h-5.866v-4.255h5.866ZM9.475,50.13h5.866v4.255h-5.866v-4.255ZM48.806,54.385v-4.255h5.865v4.255h-5.865Z"/>
  <path class="cls-1" d="M3.566,12.83v45.398c0,2.08,1.692,3.772,3.772,3.772h49.328c2.08,0,3.772-1.692,3.772-3.772V5.772c0-2.08-1.692-3.772-3.772-3.772H7.338c-2.08,0-3.772,1.692-3.772,3.772v7.015c0,.008-.004.014-.004.022s.004.014.004.022ZM56.666,60H7.338c-.977,0-1.772-.795-1.772-1.772V13.809h52.873v44.419c0,.977-.795,1.772-1.772,1.772ZM7.338,4h49.328c.978,0,1.772.795,1.772,1.772v6.037H5.566v-6.037c0-.977.795-1.772,1.772-1.772Z"/>
  <path class="cls-1" d="M8.16,7.96c.02.06.05.12.09.18.04.05.08.1.12.15.1.09.21.16.33.21.12.05.25.08.38.08.07,0,.13-.01.2-.02.06-.01.12-.03.18-.06.06-.02.12-.05.18-.09.05-.03.1-.08.15-.12.04-.05.09-.1.12-.15.04-.06.07-.12.09-.18.03-.06.05-.12.06-.18.01-.07.02-.13.02-.2,0-.13-.03-.26-.08-.38-.05-.12-.12-.23-.21-.33-.05-.04-.1-.08-.15-.12-.06-.04-.12-.07-.18-.09-.06-.03-.12-.05-.18-.06-.2-.04-.4-.02-.58.06-.12.05-.23.12-.33.21-.09.1-.16.21-.21.33-.05.12-.08.25-.08.38,0,.07.01.13.02.2.01.06.03.12.06.18Z"/>
  <path class="cls-1" d="M12.59,8.41c.05.04.11.07.17.09.06.03.13.05.19.06.06.01.13.02.19.02.14,0,.27-.02.39-.08.12-.05.23-.12.32-.21.19-.19.3-.45.3-.71,0-.13-.03-.26-.08-.38s-.12-.23-.22-.33c-.09-.09-.2-.16-.32-.21-.18-.08-.38-.1-.58-.06-.06.01-.13.03-.19.06-.06.02-.12.05-.17.09s-.11.08-.15.12c-.09.1-.17.21-.22.33-.05.12-.07.25-.07.38,0,.26.1.52.29.71.04.04.1.09.15.12Z"/>
  <path class="cls-1" d="M16.5,8.29c.1.09.21.16.33.21.12.05.25.08.38.08.26,0,.52-.11.71-.29.09-.09.16-.2.21-.33.05-.12.08-.25.08-.38s-.03-.26-.08-.38c-.05-.12-.12-.23-.21-.33-.28-.28-.73-.37-1.09-.21-.13.05-.23.12-.33.21-.09.1-.16.21-.21.33-.05.12-.08.25-.08.38s.03.26.08.38c.05.13.12.24.21.33Z"/>
</svg>