<?xml version="1.0" encoding="UTF-8"?>
<svg id="Layer_1" data-name="Layer 1" xmlns="http://www.w3.org/2000/svg" viewBox="0 0 64 64">
  <defs>
    <style>
      .cls-1 {
        fill: #000;
        stroke-width: 0px;
      }
    </style>
  </defs>
  <path class="cls-1" d="M6.999,61c0,.552.447,1,1,1h48.002c.553,0,1-.448,1-1v-25.922c0-.552-.447-1-1-1h-17.605v-1.002c0-.461.096-.897.287-1.301l3.155-6.735,4.827-7.453c.253-.379.387-.825.387-1.289,0-1.191-.887-2.196-2.05-2.335-1.51-.202-3.018.288-4.121,1.346l-2.104,2.008V6.012c0-1.178-.837-2.196-1.988-2.42-.664-.13-1.337.008-1.891.393-.553.384-.916.962-1.025,1.629l-.316,1.951-.226-2.937c-.117-1.473-1.367-2.627-2.847-2.627-1.571,0-2.85,1.278-2.85,2.85v2.863l-.479-1.94c-.278-1.126-1.281-1.914-2.439-1.914-.305,0-.611.057-.867.156-1.131.414-1.815,1.573-1.627,2.752l.67,4.279-.814-1.634c-.453-.918-1.399-1.511-2.413-1.511-.452,0-.9.116-1.271.322-1.201.624-1.75,2.049-1.28,3.305l2.459,6.828c.558,1.535.914,3.144,1.061,4.778l.495,5.76c.107,1.21.646,2.345,1.518,3.192l.824.806c.342.329.587.741.742,1.187H7.999c-.553,0-1,.448-1,1v25.922ZM24.863,31.456l-.821-.802c-.529-.515-.857-1.203-.922-1.933l-.495-5.761c-.162-1.81-.557-3.588-1.172-5.284l-2.463-6.836c-.12-.321.02-.682.35-.854.325-.182.771-.039.946.315l3.698,7.417c.22.441.729.657,1.198.506.47-.15.761-.62.685-1.107l-1.669-10.661c-.037-.236.108-.478.357-.569.226-.089.588.077.659.365l2.449,9.934c.121.491.597.814,1.091.753.502-.061.88-.487.88-.993V4.85c0-.468.381-.85.85-.85.451,0,.817.338.853.783l.867,11.287c.039.505.449.901.955.922.498.019.948-.338,1.029-.839l1.659-10.218c.027-.17.132-.266.192-.308s.188-.108.364-.073c.216.042.373.235.373.458v13.642c0,.4.238.762.606.919.368.157.795.08,1.084-.196l3.795-3.623c.663-.636,1.561-.93,2.488-.808.221.027.301.225.301.352,0,.068-.018.128-.058.19l-4.872,7.521c-.025.038-.048.078-.066.119l-3.182,6.793c-.317.668-.479,1.393-.479,2.154v1.002h-10.102c-.202-.995-.7-1.918-1.431-2.623ZM8.999,36.078h46.002v23.922H8.999v-23.922Z"/>
  <path class="cls-1" d="M51.836,41.656c-1.173,0-2.127-.955-2.127-2.127,0-.552-.447-1-1-1H15.291c-.553,0-1,.448-1,1,0,1.173-.954,2.127-2.127,2.127-.553,0-1,.448-1,1v10.767c0,.552.447,1,1,1,1.173,0,2.127.955,2.127,2.127,0,.552.447,1,1,1h33.418c.553,0,1-.448,1-1,0-1.173.954-2.127,2.127-2.127.553,0,1-.448,1-1v-10.767c0-.552-.447-1-1-1ZM39.511,48.039c0,4.142-3.369,7.511-7.511,7.511s-7.511-3.369-7.511-7.511,3.369-7.511,7.511-7.511,7.511,3.369,7.511,7.511ZM16.169,55.55c-.368-1.474-1.531-2.637-3.005-3.005v-9.012c1.474-.368,2.637-1.531,3.005-3.005h10.018c-2.245,1.741-3.698,4.457-3.698,7.511s1.453,5.769,3.698,7.511h-10.018ZM50.836,52.545c-1.474.368-2.637,1.531-3.005,3.005h-10.018c2.245-1.741,3.698-4.457,3.698-7.511s-1.453-5.769-3.698-7.511h10.018c.368,1.474,1.531,2.637,3.005,3.005v9.012Z"/>
</svg>