<?xml version="1.0" encoding="UTF-8"?>
<svg id="Layer_1" data-name="Layer 1" xmlns="http://www.w3.org/2000/svg" viewBox="0 0 64 64">
  <defs>
    <style>
      .cls-1 {
        fill: #000;
        stroke-width: 0px;
      }
    </style>
  </defs>
  <path class="cls-1" d="M19.354,62h27.77c.552,0,1-.448,1-1v-9.83c0-.552-.448-1-1-1h-3.57v-2c0-.765.159-1.489.476-2.155l4.761-10.148,7.27-11.237c.323-.492.494-1.065.494-1.659,0-1.521-1.135-2.815-2.645-3.012-2.126-.27-4.23.423-5.776,1.898l-4.009,3.827V7.52c0-1.526-1.09-2.844-2.585-3.131-.853-.167-1.717.012-2.436.51-.72.499-1.195,1.248-1.336,2.111l-1.15,7.087-.666-8.609c-.079-.962-.505-1.845-1.2-2.483-.703-.647-1.615-1.004-2.567-1.004-2.084,0-3.78,1.696-3.78,3.78v8.457l-1.719-6.947c-.364-1.472-1.672-2.5-3.181-2.5-.355,0-.724.066-1.116.202-1.472.542-2.364,2.054-2.122,3.592l1.501,9.615-2.657-5.343c-.603-1.219-1.828-1.977-3.196-1.977-.601,0-1.167.141-1.682.418-1.555.833-2.272,2.706-1.668,4.351l3.701,10.253c.787,2.16,1.296,4.411,1.542,6.706-5.824.681-10.361,5.639-10.361,11.644,0,6.191,4.824,11.264,10.909,11.688v5.059c0,.552.448,1,1,1ZM46.125,60h-25.77v-4.077c2.941-.295,5.555-1.688,7.451-3.753h18.319v7.83ZM14.443,14.966c-.264-.72.051-1.539.735-1.905.73-.392,1.758-.089,2.14.685l5.54,11.14c.22.441.729.659,1.199.507.47-.149.761-.62.685-1.107l-2.5-16.011c-.096-.611.249-1.189.82-1.4.162-.057.311-.085.442-.085.587,0,1.097.403,1.239.98l3.69,14.91c.122.491.591.816,1.092.752.501-.061.879-.487.879-.993V5.78c0-.981.799-1.78,1.78-1.78.575,0,.977.259,1.212.476.329.302.522.709.561,1.171l1.31,16.94c.039.505.449.901.955.922.499.013.948-.339,1.029-.839l2.489-15.338c.053-.321.231-.602.501-.79.269-.186.59-.254.913-.19.562.108.969.599.969,1.168v20.5c0,.4.239.762.606.919.367.157.794.081,1.084-.196l5.7-5.44c1.108-1.057,2.619-1.557,4.14-1.361.584.076.899.586.899,1.028,0,.208-.054.392-.169.567l-7.31,11.3c-.024.038-.046.077-.065.118l-4.788,10.206c-.442.932-.667,1.944-.667,3.009v2h-12.267c1.022-1.74,1.619-3.758,1.619-5.917,0-6.253-4.921-11.364-11.092-11.698-.254-2.504-.807-4.971-1.669-7.334l-3.702-10.255ZM9.446,44.252c0-5.365,4.365-9.73,9.73-9.73s9.73,4.365,9.73,9.73-4.365,9.73-9.73,9.73-9.73-4.365-9.73-9.73Z"/>
  <path class="cls-1" d="M20.176,51.569v-.319c1.758-.449,3.068-2.033,3.068-3.929,0-2.243-1.825-4.068-4.068-4.068-1.141,0-2.068-.928-2.068-2.068s.928-2.068,2.068-2.068,2.068.928,2.068,2.068c0,.552.448,1,1,1s1-.448,1-1c0-1.896-1.31-3.48-3.068-3.929v-.319c0-.552-.448-1-1-1s-1,.448-1,1v.319c-1.758.449-3.068,2.033-3.068,3.929,0,2.243,1.825,4.068,4.068,4.068,1.141,0,2.068.928,2.068,2.068s-.928,2.068-2.068,2.068-2.068-.928-2.068-2.068c0-.552-.448-1-1-1s-1,.448-1,1c0,1.896,1.31,3.48,3.068,3.929v.319c0,.552.448,1,1,1s1-.448,1-1Z"/>
</svg>