<?xml version="1.0" encoding="UTF-8"?>
<svg id="Layer_1" data-name="Layer 1" xmlns="http://www.w3.org/2000/svg" viewBox="0 0 64 64">
  <defs>
    <style>
      .cls-1 {
        fill: #000;
        stroke-width: 0px;
      }
    </style>
  </defs>
  <path class="cls-1" d="M13.814,25.899c.851,2.355,1.393,4.813,1.61,7.306l.752,8.647c.147,1.696.901,3.284,2.125,4.47l1.242,1.204c.739.716,1.239,1.647,1.442,2.646h-4.08c-.552,0-1,.448-1,1v4.896c0,.008-.004.014-.004.022s.004.014.004.022v4.888c0,.552.448,1,1,1h27.767c.552,0,1-.448,1-1v-9.828c0-.552-.448-1-1-1h-3.574v-2.005c0-.741.166-1.486.48-2.156l4.757-10.147,7.28-11.235c.571-.881.648-1.977.208-2.929-.441-.953-1.327-1.603-2.368-1.737-2.123-.274-4.228.415-5.776,1.892l-4.009,3.826V7.524c0-1.524-1.086-2.844-2.582-3.137-.858-.171-1.725.013-2.442.512-.718.499-1.19,1.249-1.33,2.112l-1.152,7.085-.662-8.603c-.15-1.958-1.807-3.493-3.772-3.493-2.086,0-3.783,1.697-3.783,3.783v8.435l-1.71-6.927c-.222-.9-.819-1.668-1.637-2.105-.82-.438-1.789-.506-2.662-.191-1.472.533-2.365,2.042-2.123,3.588l1.501,9.623-2.663-5.354c-.433-.87-1.181-1.512-2.105-1.808-.924-.295-1.906-.207-2.763.25-1.554.828-2.274,2.701-1.675,4.357l3.707,10.25ZM17.904,60v-2.91h25.767v2.91h-25.767ZM43.671,55.09h-25.767v-2.917h25.767v2.917ZM12.724,13.058c.377-.201.808-.239,1.213-.11.406.13.734.412.924.793l5.543,11.146c.22.441.729.657,1.199.508.47-.15.761-.62.685-1.107l-2.499-16.014c-.094-.603.254-1.191.828-1.399.346-.126.713-.099,1.038.075.324.173.551.464.639.821l3.681,14.91c.122.491.601.813,1.091.753.502-.061.879-.487.879-.993V5.783c0-.983.8-1.783,1.783-1.783.926,0,1.707.723,1.778,1.646l1.303,16.942c.039.505.449.901.955.922.497.011.948-.339,1.029-.838l2.495-15.341c.053-.323.229-.604.499-.791.268-.187.591-.257.915-.191.56.11.967.604.967,1.175v20.492c0,.4.239.762.606.919.368.157.794.08,1.084-.196l5.699-5.438c1.109-1.059,2.617-1.553,4.138-1.356.362.047.657.263.81.594.153.331.127.696-.071,1.001l-7.317,11.293c-.024.039-.047.078-.066.12l-4.786,10.209c-.438.934-.669,1.973-.669,3.005v2.005h-16.083c-.223-1.541-.953-2.99-2.079-4.083l-1.242-1.204c-.877-.851-1.418-1.99-1.524-3.207l-.752-8.647c-.232-2.666-.811-5.294-1.721-7.812l-3.707-10.25c-.263-.727.053-1.549.735-1.913Z"/>
</svg>