<?xml version="1.0" encoding="UTF-8"?>
<svg id="Layer_1" data-name="Layer 1" xmlns="http://www.w3.org/2000/svg" viewBox="0 0 64 64">
  <defs>
    <style>
      .cls-1 {
        fill: #000;
        stroke-width: 0px;
      }
    </style>
  </defs>
  <path class="cls-1" d="M55.686,22.274c-2.638,0-4.969,1.651-5.896,4.046-.433-.106-.872-.192-1.319-.258.37-1.212.558-2.479.558-3.783,0-3.499-1.358-6.778-3.823-9.231-5.087-5.087-13.364-5.086-18.451,0l-1.241,1.241-1.241-1.241c-5.086-5.086-13.363-5.087-18.451,0-2.465,2.465-3.823,5.744-3.823,9.231s1.358,6.755,3.823,9.22l18.984,18.995c.188.188.442.293.708.293s.52-.105.707-.293l6.238-6.238c1.716,6.059,7.284,10.515,13.885,10.515,7.859,0,14.26-6.314,14.426-14.134.002-.022.003-.042.003-.064.001-.082.012-.162.012-.245,0-2.345-.574-4.554-1.57-6.514,1.714-1.161,2.783-3.109,2.783-5.219,0-3.487-2.833-6.323-6.314-6.323ZM58.673,38.735c-.772-.51-1.505-1.082-2.178-1.727-1.079-1.036-2.014-2.244-2.781-3.591-.147-.258-.402-.438-.695-.49-.294-.053-.594.029-.82.222-3.267,2.766-6.916,5.03-10.843,6.727-2.362,1.014-4.81,1.805-7.288,2.385-.099-.63-.165-1.272-.165-1.929,0-6.86,5.582-12.442,12.442-12.442,6.319,0,11.541,4.739,12.328,10.847ZM25.515,48.373L7.237,30.085c-2.087-2.088-3.237-4.86-3.237-7.806s1.15-5.729,3.237-7.817c4.307-4.307,11.315-4.308,15.623,0l1.948,1.948c.188.188.442.293.707.293s.52-.105.707-.293l1.948-1.948c4.308-4.307,11.315-4.307,15.624.001,2.086,2.077,3.235,4.853,3.235,7.815,0,1.256-.216,2.465-.618,3.612-.022,0-.044-.003-.066-.003-7.963,0-14.442,6.479-14.442,14.442,0,.53.033,1.052.089,1.567l-6.478,6.477ZM46.345,52.772c-5.507,0-10.182-3.6-11.816-8.567,2.59-.606,5.149-1.434,7.618-2.493,3.754-1.622,7.263-3.738,10.446-6.296.732,1.114,1.576,2.132,2.517,3.036,1.095,1.048,2.32,1.935,3.637,2.663-.408,6.495-5.807,11.658-12.402,11.658ZM58.191,32.092c-1.603-2.298-3.854-4.105-6.488-5.162.661-1.576,2.221-2.656,3.983-2.656,2.379,0,4.314,1.939,4.314,4.323,0,1.401-.694,2.695-1.809,3.495Z"/>
  <path class="cls-1" d="M52.489,44.594c-.552,0-1,.448-1,1,0,2.158-2.433,3.914-5.423,3.914s-5.424-1.756-5.424-3.914c0-.552-.448-1-1-1s-1,.448-1,1c0,3.261,3.33,5.914,7.424,5.914s7.423-2.653,7.423-5.914c0-.552-.448-1-1-1Z"/>
  <path class="cls-1" d="M13.514,29.97c-.391-.391-1.023-.391-1.414,0-.391.39-.391,1.023,0,1.414l2.129,2.129c.195.195.451.293.707.293s.512-.098.707-.293c.391-.39.391-1.023,0-1.414l-2.129-2.129Z"/>
  <path class="cls-1" d="M18.417,34.422c-.391-.391-1.023-.391-1.414,0s-.391,1.023,0,1.414l4.807,4.807c.195.195.451.293.707.293s.512-.098.707-.293c.391-.391.391-1.023,0-1.414l-4.807-4.807Z"/>
</svg>