<?xml version="1.0" encoding="UTF-8"?>
<svg id="Layer_1" data-name="Layer 1" xmlns="http://www.w3.org/2000/svg" viewBox="0 0 64 64">
  <defs>
    <style>
      .cls-1 {
        fill: #000;
        stroke-width: 0px;
      }
    </style>
  </defs>
  <path class="cls-1" d="M38.227,37.071c-.553,0-1,.448-1,1,0,2.241-2.521,4.065-5.621,4.065s-5.621-1.824-5.621-4.065c0-.552-.447-1-1-1s-1,.448-1,1c0,3.344,3.419,6.065,7.621,6.065s7.621-2.721,7.621-6.065c0-.552-.447-1-1-1Z"/>
  <path class="cls-1" d="M18.179,38.001c1.64,3.931,4.924,7.003,8.986,8.372v2.856c-5.773.846-10.17,5.845-10.17,11.771,0,.552.447,1,1,1h27.803c.553,0,1-.448,1-1,0-3.037-1.146-5.931-3.229-8.149-1.853-1.965-4.293-3.23-6.95-3.62v-2.856c.377-.127.751-.26,1.114-.416.038-.013.071-.034.107-.052,3.359-1.474,6.065-4.157,7.579-7.495l10.042-10.051c2.918-2.91,4.525-6.787,4.525-10.916s-1.607-8.014-4.524-10.923c-2.916-2.917-6.794-4.522-10.919-4.522s-8.003,1.606-10.92,4.523l-1.618,1.624-1.631-1.625c-2.916-2.917-6.794-4.522-10.919-4.522s-8.003,1.606-10.919,4.522c-2.918,2.917-4.524,6.797-4.524,10.923s1.606,7.997,4.524,10.915l9.642,9.641ZM19.038,32.303c0-7.088,5.767-12.855,12.855-12.855,6.553,0,11.965,4.931,12.748,11.275-.82-.537-1.595-1.14-2.308-1.822-1.113-1.068-2.079-2.316-2.872-3.708-.147-.259-.402-.438-.694-.49-.297-.053-.594.029-.821.222-3.367,2.852-7.13,5.187-11.183,6.938-2.447,1.05-4.984,1.869-7.55,2.467-.106-.662-.176-1.335-.176-2.026ZM44.098,23.854c-1.656-2.385-3.991-4.257-6.724-5.347.678-1.652,2.307-2.785,4.148-2.785,2.469,0,4.478,2.013,4.478,4.487,0,1.464-.729,2.816-1.901,3.645ZM23.728,60c.157-1.832,1.702-3.274,3.578-3.274.954,0,1.854.375,2.539,1.06.604.599.968,1.376,1.039,2.215h-7.156ZM32.909,60c.157-1.832,1.702-3.274,3.578-3.274.954,0,1.854.375,2.539,1.06.604.599.968,1.376,1.039,2.215h-7.156ZM35.551,51.125c2.512.172,4.842,1.271,6.562,3.096,1.502,1.6,2.418,3.622,2.636,5.779h-2.7c-.075-1.376-.628-2.66-1.611-3.633-1.058-1.059-2.46-1.642-3.949-1.642-1.903,0-3.585.956-4.595,2.41-.19-.271-.398-.531-.637-.768-1.058-1.059-2.46-1.642-3.949-1.642-2.979,0-5.414,2.34-5.575,5.274h-2.685c.48-4.738,4.343-8.551,9.186-8.875.525-.035.934-.471.934-.998v-3.232c.886.165,1.796.262,2.729.262s1.841-.097,2.726-.262v3.232c0,.526.407.962.932.998ZM31.894,45.158c-5.702,0-10.542-3.734-12.22-8.883,2.678-.625,5.326-1.48,7.881-2.576,3.879-1.676,7.502-3.863,10.786-6.507.759,1.159,1.633,2.215,2.609,3.152,1.13,1.083,2.396,1.999,3.759,2.75-.412,6.719-5.994,12.064-12.815,12.064ZM9.951,7.937c2.539-2.539,5.914-3.937,9.505-3.937s6.967,1.398,9.506,3.938l2.341,2.332c.393.391,1.025.388,1.414-.002l2.322-2.331c2.538-2.539,5.914-3.937,9.505-3.937s6.966,1.398,9.506,3.938c2.539,2.532,3.938,5.909,3.938,9.508s-1.398,6.967-3.938,9.5l-7.469,7.475c.085-.592.14-1.193.153-1.805.002-.021.002-.04.003-.06.001-.085.013-.168.013-.253,0-2.421-.594-4.702-1.626-6.724,1.772-1.189,2.876-3.197,2.876-5.37,0-3.577-2.906-6.487-6.478-6.487-2.715,0-5.112,1.706-6.056,4.177-1.146-.285-2.339-.452-3.572-.452-8.191,0-14.855,6.664-14.855,14.855,0,.631.052,1.249.129,1.859l-7.216-7.216c-2.54-2.54-3.938-5.914-3.938-9.5s1.398-6.969,3.938-9.509Z"/>
</svg>