<?xml version="1.0" encoding="UTF-8"?>
<svg id="Layer_1" data-name="Layer 1" xmlns="http://www.w3.org/2000/svg" viewBox="0 0 64 64">
  <defs>
    <style>
      .cls-1 {
        fill: #000;
        stroke-width: 0px;
      }
    </style>
  </defs>
  <path class="cls-1" d="M33.79,10.365l-1.79,1.799-1.792-1.801c-6.442-6.442-16.924-6.443-23.367,0-3.122,3.122-4.841,7.269-4.841,11.677s1.719,8.556,4.84,11.678l24.452,24.464c.188.188.442.293.708.293h0c.265,0,.52-.106.708-.293l5.681-5.693c2.002,1.091,4.296,1.711,6.733,1.711,7.787,0,14.122-6.335,14.122-14.122,0-2.446-.626-4.747-1.725-6.755,2.885-3.063,4.482-7.042,4.482-11.283,0-4.421-1.72-8.569-4.841-11.677-6.442-6.442-16.925-6.442-23.369.002ZM45.122,52.2c-6.684,0-12.122-5.438-12.122-12.122s5.437-12.122,12.122-12.122,12.122,5.438,12.122,12.122-5.438,12.122-12.122,12.122ZM56.387,31.599c-2.58-3.419-6.663-5.642-11.265-5.642-7.787,0-14.122,6.335-14.122,14.122,0,4.619,2.239,8.715,5.678,11.293l-4.679,4.689-23.745-23.756c-2.744-2.744-4.255-6.389-4.255-10.264s1.511-7.519,4.255-10.263c5.663-5.663,14.875-5.662,20.537-.002l2.499,2.512c.376.378,1.042.378,1.418,0l2.497-2.51c5.662-5.662,14.876-5.663,20.541.001,2.743,2.732,4.253,6.376,4.253,10.262,0,3.565-1.285,6.918-3.613,9.559Z"/>
  <path class="cls-1" d="M45.122,33.574c1.518,0,2.752,1.235,2.752,2.752,0,.552.448,1,1,1s1-.448,1-1c0-2.277-1.611-4.181-3.752-4.642v-.553c0-.552-.448-1-1-1s-1,.448-1,1v.553c-2.141.461-3.752,2.365-3.752,4.642,0,2.621,2.132,4.752,4.752,4.752,1.518,0,2.752,1.234,2.752,2.752s-1.235,2.752-2.752,2.752-2.752-1.235-2.752-2.752c0-.552-.448-1-1-1s-1,.448-1,1c0,2.277,1.611,4.181,3.752,4.642v.554c0,.552.448,1,1,1s1-.448,1-1v-.554c2.141-.461,3.752-2.365,3.752-4.642,0-2.62-2.132-4.752-4.752-4.752-1.518,0-2.752-1.235-2.752-2.752s1.234-2.752,2.752-2.752Z"/>
  <path class="cls-1" d="M17.312,9.829c-1.285.103-5.709.738-8.694,4.594-1.792,2.314-2.312,4.782-2.433,6.443-.04.551.375,1.03.925,1.07.025.001.049.002.073.002.52,0,.958-.401.997-.928.1-1.387.532-3.443,2.019-5.363,2.484-3.208,6.195-3.739,7.273-3.825.55-.044.961-.526.917-1.077-.044-.55-.532-.971-1.077-.917Z"/>
  <path class="cls-1" d="M21.48,10.58c-.04-.04-.09-.08-.15-.12-.05-.04-.11-.07-.17-.09-.06-.03-.13-.05-.19-.06-.33-.06-.67.04-.9.27-.09.1-.17.21-.22.33-.05.12-.07.25-.07.38,0,.26.1.52.29.71.18.18.44.29.7.29.27,0,.53-.11.71-.29.19-.19.29-.45.29-.71,0-.13-.02-.26-.07-.38-.05-.12-.13-.23-.22-.33Z"/>
</svg>