<?xml version="1.0" encoding="UTF-8"?>
<svg id="Layer_1" data-name="Layer 1" xmlns="http://www.w3.org/2000/svg" viewBox="0 0 64 64">
  <defs>
    <style>
      .cls-1 {
        fill: #000;
        stroke-width: 0px;
      }
    </style>
  </defs>
  <path class="cls-1" d="M28.312,31.911c-1.093-1.092-2.546-1.693-4.092-1.693s-3,.602-4.095,1.696l-.064.064-.066-.065c-1.094-1.094-2.547-1.695-4.094-1.695s-3,.602-4.093,1.695c-1.094,1.093-1.696,2.546-1.696,4.093s.603,3,1.696,4.094l7.547,7.548c.188.188.441.293.707.293s.52-.105.707-.293l7.543-7.547c1.095-1.091,1.697-2.545,1.697-4.095s-.603-3.004-1.697-4.095ZM26.898,38.686l-6.837,6.841-6.84-6.841c-.716-.716-1.11-1.668-1.11-2.68s.395-1.963,1.11-2.679,1.667-1.109,2.679-1.109,1.964.394,2.68,1.109l.774.774c.188.188.441.293.707.293h0c.266,0,.521-.106.707-.294l.771-.773c1.431-1.432,3.926-1.433,5.358,0,0,0,0,0,0,.002.716.712,1.109,1.662,1.109,2.677s-.394,1.966-1.11,2.68Z"/>
  <path class="cls-1" d="M58.273,2h-28.674c-1.364,0-2.475,1.11-2.475,2.475v11.683H5.727c-1.365,0-2.476,1.11-2.476,2.476v40.892c0,1.365,1.11,2.476,2.476,2.476h28.667c1.364,0,2.475-1.11,2.475-2.476v-11.672h21.405c1.365,0,2.476-1.11,2.476-2.475V4.475c0-1.364-1.11-2.475-2.476-2.475ZM34.868,59.524c0,.263-.213.476-.475.476H5.727c-.263,0-.476-.213-.476-.476V18.633c0-.263.213-.476.476-.476h28.667c.262,0,.475.213.475.476v40.892ZM36.868,24.06l7.075-8.812,7.761,9.679-7.761,9.678-7.075-8.812v-1.733ZM58.749,45.378c0,.257-.218.475-.476.475h-21.405v-16.867l6.297,7.842c.189.236.477.374.779.374s.591-.138.78-.374l9.042-11.275c.293-.366.293-.886,0-1.252l-9.042-11.276c-.189-.236-.477-.374-.78-.374s-.59.138-.779.374l-6.297,7.842v-2.234c0-1.365-1.11-2.476-2.475-2.476h-5.269V4.475c0-.253.222-.475.475-.475h28.674c.258,0,.476.218.476.475v40.903Z"/>
  <path class="cls-1" d="M8.79,20.322c-.553,0-1,.447-1,1v2.71c0,.553.447,1,1,1s1-.447,1-1v-2.71c0-.553-.447-1-1-1Z"/>
  <path class="cls-1" d="M30.807,52.322c-.553,0-1,.447-1,1v2.71c0,.553.447,1,1,1s1-.447,1-1v-2.71c0-.553-.447-1-1-1Z"/>
  <path class="cls-1" d="M32.929,6.571c-.553,0-1,.447-1,1v2.71c0,.553.447,1,1,1s1-.447,1-1v-2.71c0-.553-.447-1-1-1Z"/>
  <path class="cls-1" d="M54.945,38.571c-.553,0-1,.447-1,1v2.71c0,.553.447,1,1,1s1-.447,1-1v-2.71c0-.553-.447-1-1-1Z"/>
</svg>