<?xml version="1.0" encoding="UTF-8"?>
<svg id="Layer_1" data-name="Layer 1" xmlns="http://www.w3.org/2000/svg" viewBox="0 0 64 64">
  <defs>
    <style>
      .cls-1 {
        fill: #000;
        stroke-width: 0px;
      }
    </style>
  </defs>
  <path class="cls-1" d="M13.038,2c-1.627,0-2.951,1.324-2.951,2.952v54.096c0,1.628,1.324,2.952,2.951,2.952h37.924c1.627,0,2.951-1.324,2.951-2.952V4.952c0-1.628-1.324-2.952-2.951-2.952H13.038ZM51.913,4.952v54.096c0,.525-.427.952-.951.952H13.038c-.524,0-.951-.427-.951-.952V4.952c0-.525.427-.952.951-.952h37.924c.524,0,.951.427.951.952Z"/>
  <path class="cls-1" d="M44.839,27.936c0-1.963-.764-3.806-2.149-5.188-2.859-2.859-7.514-2.86-10.375,0l-.313.314-.316-.315c-2.86-2.86-7.516-2.859-10.374,0-1.386,1.387-2.149,3.229-2.149,5.188s.764,3.801,2.149,5.187l9.984,9.984c.188.188.441.293.707.293s.52-.105.707-.293l9.979-9.982c1.387-1.382,2.15-3.225,2.15-5.188ZM32.002,40.985l-9.277-9.277c-1.008-1.009-1.563-2.348-1.563-3.772s.556-2.765,1.563-3.773c1.04-1.04,2.406-1.561,3.772-1.561s2.733.521,3.773,1.561l1.024,1.024c.188.188.441.293.707.293h0c.266,0,.521-.106.707-.294l1.02-1.023c2.08-2.079,5.466-2.081,7.546,0h0c1.008,1.006,1.562,2.346,1.562,3.773s-.555,2.768-1.563,3.772l-9.273,9.277Z"/>
  <path class="cls-1" d="M18.745,16.629c.188.188.441.293.707.293s.52-.105.707-.293l4.116-4.118c.684-.681,1.06-1.588,1.06-2.556s-.376-1.874-1.06-2.556c-1.316-1.314-3.405-1.401-4.823-.256-1.419-1.146-3.509-1.061-4.826.258-.682.683-1.058,1.59-1.058,2.554s.376,1.872,1.059,2.555l4.118,4.119ZM16.041,8.814c.314-.314.729-.472,1.142-.472s.825.157,1.14.471l.422.423c.188.188.442.294.708.294h0c.266,0,.521-.106.708-.295l.419-.421c.628-.628,1.652-.63,2.282,0,0,0,0,0,0,0,.304.304.472.708.472,1.14s-.167.836-.473,1.141l-3.41,3.412-3.411-3.412c-.305-.305-.473-.71-.473-1.141s.168-.835.473-1.141Z"/>
  <path class="cls-1" d="M44.549,7.144c-1.42-1.146-3.508-1.061-4.826.258-.682.683-1.058,1.59-1.058,2.554s.376,1.872,1.059,2.555l4.118,4.119c.188.188.441.293.707.293s.52-.105.707-.293l4.116-4.118c.684-.681,1.06-1.588,1.06-2.556s-.376-1.874-1.06-2.556c-1.316-1.314-3.404-1.401-4.823-.256ZM47.959,11.096l-3.41,3.412-3.411-3.412c-.305-.305-.473-.71-.473-1.141s.168-.835.473-1.141c.314-.314.729-.472,1.142-.472s.825.157,1.14.471l.422.423c.188.188.442.294.708.294h0c.266,0,.521-.106.708-.295l.419-.421c.629-.628,1.653-.63,2.282,0,0,0,0,0,0,0,.304.304.472.708.472,1.14s-.167.836-.473,1.141Z"/>
  <path class="cls-1" d="M19.452,47.88c-1.419-1.146-3.509-1.06-4.825.257-.683.683-1.059,1.59-1.059,2.555s.376,1.872,1.059,2.555l4.118,4.119c.188.188.441.293.707.293s.52-.105.707-.293l4.116-4.118c.684-.681,1.06-1.588,1.06-2.556s-.376-1.874-1.059-2.555c-1.316-1.316-3.404-1.403-4.824-.257ZM22.862,51.832l-3.41,3.412-3.411-3.412c-.305-.305-.473-.71-.473-1.141s.168-.836.473-1.141c.314-.314.729-.472,1.142-.472s.825.157,1.14.471l.422.423c.188.188.442.294.708.294h0c.266,0,.521-.106.708-.295l.419-.421c.628-.629,1.652-.629,2.282,0,0,0,0,0,0,0,.305.304.472.708.472,1.14s-.167.836-.473,1.141Z"/>
  <path class="cls-1" d="M44.549,47.88c-1.418-1.145-3.507-1.06-4.825.257-.683.683-1.059,1.59-1.059,2.555s.376,1.872,1.059,2.555l4.118,4.119c.188.188.441.293.707.293s.52-.105.707-.293l4.116-4.118c.684-.681,1.06-1.588,1.06-2.556s-.376-1.875-1.06-2.556c-1.316-1.317-3.404-1.401-4.823-.256ZM47.959,51.832l-3.41,3.412-3.411-3.412c-.305-.305-.473-.71-.473-1.141s.168-.836.473-1.141c.314-.314.729-.472,1.142-.472s.825.157,1.14.471l.422.423c.188.188.442.294.708.294h0c.266,0,.521-.106.708-.295l.419-.421c.629-.629,1.653-.629,2.282,0,0,0,0,0,0,0,.305.304.472.708.472,1.14s-.167.836-.473,1.141Z"/>
</svg>