<?xml version="1.0" encoding="UTF-8"?>
<svg id="Layer_1" data-name="Layer 1" xmlns="http://www.w3.org/2000/svg" viewBox="0 0 64 64">
  <defs>
    <style>
      .cls-1 {
        fill: #000;
        stroke-width: 0px;
      }
    </style>
  </defs>
  <path class="cls-1" d="M58.986,8.789h-8.073c-.021-1.456-1.207-2.634-2.668-2.634H15.755c-1.461,0-2.647,1.178-2.668,2.634H5.014c-1.662,0-3.014,1.352-3.014,3.014v40.395c0,1.662,1.352,3.014,3.014,3.014h8.073c.021,1.456,1.207,2.634,2.668,2.634h32.49c1.461,0,2.647-1.178,2.668-2.634h8.073c1.662,0,3.014-1.352,3.014-3.014V11.803c0-1.662-1.352-3.014-3.014-3.014ZM4,52.197V11.803c0-.559.455-1.014,1.014-1.014h8.069v42.422H5.014c-.559,0-1.014-.455-1.014-1.014ZM48.245,55.845H15.755c-.37,0-.672-.302-.672-.672v-.957s0-.003,0-.005,0-.003,0-.005V9.794s0-.003,0-.005,0-.003,0-.005v-.957c0-.37.302-.672.672-.672h32.49c.37,0,.672.302.672.672v.957s0,.003,0,.005,0,.003,0,.005v44.412s0,.003,0,.005,0,.003,0,.005v.957c0,.37-.302.672-.672.672ZM60,52.197c0,.559-.455,1.014-1.014,1.014h-8.069V10.789h8.069c.559,0,1.014.455,1.014,1.014v40.395Z"/>
  <path class="cls-1" d="M43.143,28.518c0-1.72-.669-3.335-1.884-4.546-2.507-2.505-6.585-2.504-9.092.003l-.167.167-.169-.169c-2.506-2.506-6.584-2.506-9.09,0-1.215,1.215-1.884,2.829-1.884,4.545s.669,3.33,1.884,4.545l8.554,8.555c.188.188.441.293.707.293s.52-.105.707-.293l8.55-8.554c1.215-1.211,1.884-2.826,1.884-4.546ZM39.846,31.648l-7.844,7.848-7.847-7.848c-.837-.837-1.298-1.949-1.298-3.131s.461-2.294,1.298-3.131c.863-.863,1.997-1.295,3.131-1.295s2.268.432,3.131,1.295l.878.878c.188.188.441.293.707.293h0c.266,0,.521-.106.708-.295l.872-.876c1.727-1.727,4.536-1.727,6.263,0,0,0,0,0,0,0,.836.833,1.296,1.945,1.296,3.13s-.46,2.297-1.297,3.131Z"/>
  <path class="cls-1" d="M20.543,18.933c.188.188.441.293.707.293s.52-.105.707-.293l3.526-3.527c.612-.61.949-1.424.949-2.291s-.337-1.682-.949-2.292c-1.152-1.153-2.965-1.251-4.233-.3-1.269-.951-3.082-.853-4.236.302-.61.612-.947,1.426-.947,2.29s.337,1.677.948,2.29l3.528,3.528ZM18.429,12.237c.241-.241.56-.362.877-.362s.634.121.875.361l.361.362c.188.188.442.294.708.294h0c.266,0,.521-.106.708-.295l.358-.36c.482-.482,1.271-.482,1.753,0,0,0,0,0,0,0,.233.232.361.544.361.876s-.128.643-.362.876l-2.82,2.821-2.82-2.82c-.234-.235-.363-.546-.363-.877s.129-.643.362-.877Z"/>
  <path class="cls-1" d="M42.751,10.522c-1.269-.951-3.083-.853-4.236.302-.61.612-.947,1.426-.947,2.29s.337,1.677.948,2.29l3.528,3.528c.188.188.441.293.707.293s.52-.105.707-.293l3.526-3.527c.612-.61.949-1.424.949-2.291s-.337-1.682-.949-2.292c-1.152-1.153-2.965-1.251-4.233-.3ZM45.571,13.99l-2.82,2.821-2.82-2.82c-.234-.235-.363-.546-.363-.877s.129-.643.362-.877c.241-.241.56-.362.877-.362s.634.121.875.361l.361.362c.188.188.442.294.708.294h0c.266,0,.521-.106.708-.295l.358-.36c.482-.482,1.271-.482,1.753,0,0,0,0,0,0,0,.233.232.361.544.361.876s-.128.643-.362.876Z"/>
  <path class="cls-1" d="M21.25,45.423c-1.269-.952-3.083-.852-4.235.301-.611.611-.948,1.425-.948,2.29s.337,1.677.948,2.29l3.528,3.528c.188.188.441.293.707.293s.52-.105.707-.293l3.526-3.527c.612-.61.949-1.424.949-2.291s-.337-1.682-.95-2.292c-1.152-1.15-2.963-1.252-4.232-.299ZM24.07,48.89l-2.82,2.821-2.82-2.82c-.234-.235-.363-.546-.363-.877s.129-.643.362-.876c.241-.241.559-.362.876-.362s.635.121.877.362l.361.361c.188.188.441.293.707.293h0c.266,0,.52-.105.707-.294l.359-.36c.482-.482,1.271-.482,1.753,0,0,0,0,0,.002.002.232.231.36.542.36.874s-.128.643-.362.876Z"/>
  <path class="cls-1" d="M42.751,45.423c-1.269-.952-3.083-.852-4.235.301-.611.611-.948,1.425-.948,2.29s.337,1.677.948,2.29l3.528,3.528c.188.188.441.293.707.293s.52-.105.707-.293l3.526-3.527c.612-.61.949-1.424.949-2.291s-.337-1.681-.948-2.29c-1.151-1.151-2.965-1.253-4.234-.301ZM45.571,48.89l-2.82,2.821-2.82-2.82c-.234-.235-.363-.546-.363-.877s.129-.643.362-.876c.241-.241.559-.362.876-.362s.635.121.877.362l.361.361c.188.188.441.293.707.293h0c.266,0,.52-.105.707-.294l.359-.36c.482-.482,1.271-.482,1.753,0,0,0,0,0,.002.002.232.231.36.542.36.874s-.128.643-.362.876Z"/>
</svg>