<?xml version="1.0" encoding="UTF-8"?>
<svg id="Layer_1" data-name="Layer 1" xmlns="http://www.w3.org/2000/svg" viewBox="0 0 64 64">
  <defs>
    <style>
      .cls-1 {
        fill: #000;
        stroke-width: 0px;
      }
    </style>
  </defs>
  <path class="cls-1" d="M13.556,26.925v31.416c0,2.018,1.642,3.659,3.659,3.659h19.053c2.018,0,3.659-1.642,3.659-3.659v-17.608h6.855c2.019,0,3.661-1.642,3.661-3.66V5.66c0-2.018-1.643-3.66-3.661-3.66h-19.054c-2.018,0-3.66,1.642-3.66,3.66v17.605h-6.854c-2.018,0-3.659,1.642-3.659,3.659ZM36.269,60h-19.053c-.915,0-1.659-.744-1.659-1.659v-31.416c0-.915.744-1.659,1.659-1.659h7.851s.002,0,.002,0,.002,0,.002,0h11.197c.915,0,1.659.744,1.659,1.659v12.803s0,.003,0,.005,0,.003,0,.005v18.603c0,.915-.744,1.659-1.659,1.659ZM31.721,21.673l-.559-.307.557-.305c2.215-1.208,4.024-3.018,5.231-5.23l.306-.558.306.557c1.208,2.214,3.017,4.023,5.23,5.231l.559.306-.556.305c-1.396.759-2.642,1.779-3.677,2.987-.671-.842-1.692-1.392-2.85-1.392h-2.286c-.702-.607-1.454-1.153-2.262-1.593ZM26.069,5.66c0-.916.745-1.66,1.66-1.66h19.054c.916,0,1.661.745,1.661,1.66v31.413c0,.916-.745,1.66-1.661,1.66h-6.855v-11.808c0-.009-.003-.017-.003-.026.989-1.439,2.298-2.641,3.828-3.472l2.158-1.184c.32-.176.52-.512.52-.877s-.199-.701-.52-.877l-2.16-1.184c-1.877-1.024-3.41-2.557-4.435-4.436l-1.184-2.158c-.352-.641-1.402-.64-1.754,0l-1.184,2.159c-1.023,1.877-2.557,3.41-4.437,4.435l-2.157,1.183c-.32.176-.519.512-.519.877s.199.701.519.877l1.864,1.022h-4.396V5.66Z"/>
  <path class="cls-1" d="M26.7,37.774c-1.934-1.859-5.018-1.835-6.923.069-.934.935-1.448,2.176-1.448,3.497s.515,2.562,1.449,3.496l6.217,6.217c.188.188.442.293.707.293s.52-.105.707-.293l6.212-6.216c.936-.932,1.45-2.174,1.45-3.497s-.515-2.564-1.449-3.497c-1.903-1.904-4.986-1.928-6.922-.069ZM32.208,43.422l-5.507,5.509-5.51-5.509c-.556-.557-.863-1.296-.863-2.082s.307-1.526.863-2.083c.574-.574,1.328-.861,2.082-.861s1.508.287,2.083.861l.638.638c.188.188.442.293.707.293h0c.266,0,.521-.106.708-.294l.634-.637c1.148-1.147,3.016-1.147,4.165,0h0c.556.555.862,1.294.862,2.083s-.306,1.527-.863,2.082Z"/>
  <path class="cls-1" d="M44.693,32.709c-.553,0-1,.448-1,1v1.936c0,.552.447,1,1,1s1-.448,1-1v-1.936c0-.552-.447-1-1-1Z"/>
  <path class="cls-1" d="M29.742,10.129c.552,0,1-.448,1-1v-1.936c0-.552-.448-1-1-1s-1,.448-1,1v1.936c0,.552.448,1,1,1Z"/>
  <path class="cls-1" d="M19.329,31.677c.552,0,1-.448,1-1v-2.258c0-.552-.448-1-1-1s-1,.448-1,1v2.258c0,.552.448,1,1,1Z"/>
  <path class="cls-1" d="M33.273,52.968c-.552,0-1,.448-1,1v2.258c0,.552.448,1,1,1s1-.448,1-1v-2.258c0-.552-.447-1-1-1Z"/>
</svg>