<svg xmlns="http://www.w3.org/2000/svg" width="48" height="48" viewBox="0 0 48 48"><g class="nc-icon-wrapper" fill="#FFFFFF"><path d="M28.546,7a9.514,9.514,0,0,1,2.01.221A8.953,8.953,0,0,0,16,3.335,8.965,8.965,0,0,0,1,10c0,7.306,10.412,15.781,13.55,18.168a7.833,7.833,0,0,0,.743,10.2,5.812,5.812,0,0,1,.865,7.1,1,1,0,1,0,1.717,1.025,7.809,7.809,0,0,0-1.168-9.536,5.824,5.824,0,0,1-.041-8.2,62.1,62.1,0,0,0,5.2-4.275A14.4,14.4,0,0,1,19,16.545,9.556,9.556,0,0,1,28.546,7ZM10,5a5.006,5.006,0,0,0-5,5,1,1,0,0,1-2,0,7.009,7.009,0,0,1,7-7,1,1,0,0,1,0,2Z" fill="#FFFFFF"></path><path d="M47,16.545a7.541,7.541,0,0,0-13-5.207,7.541,7.541,0,0,0-13,5.207c0,6.732,8.666,13.569,11.543,15.654a7.834,7.834,0,0,0,.764,10.165,5.775,5.775,0,0,1,1.662,3.7,1,1,0,0,0,1,.934l.067,0a1,1,0,0,0,.932-1.064,7.777,7.777,0,0,0-2.244-4.984,5.837,5.837,0,0,1-.021-8.217C36.13,31.757,47,24.085,47,16.545ZM28.5,13A3.5,3.5,0,0,0,25,16.5a1,1,0,0,1-2,0A5.507,5.507,0,0,1,28.5,11a1,1,0,0,1,0,2Z" fill="#FFFFFF" data-color="color-2"></path></g></svg>