<?xml version="1.0" encoding="UTF-8"?>
<svg id="Layer_1" data-name="Layer 1" xmlns="http://www.w3.org/2000/svg" viewBox="0 0 64 64">
  <defs>
    <style>
      .cls-1 {
        fill: #000;
        stroke-width: 0px;
      }
    </style>
  </defs>
  <path class="cls-1" d="M18.191,24.514c-1.137,0-2.209.419-3.042,1.184-.832-.765-1.904-1.184-3.042-1.184-1.203,0-2.334.469-3.184,1.319-.851.851-1.319,1.981-1.319,3.184s.469,2.333,1.319,3.184l5.52,5.52c.188.188.441.293.707.293s.52-.105.707-.293l5.517-5.519c.852-.849,1.32-1.979,1.32-3.185s-.469-2.336-1.32-3.185c-.85-.85-1.98-1.318-3.183-1.318ZM19.961,30.786l-4.811,4.812-4.812-4.812c-.473-.473-.733-1.102-.733-1.77s.261-1.297.733-1.77,1.101-.733,1.77-.733,1.297.261,1.77.733l.566.566c.188.188.441.293.707.293h0c.266,0,.52-.106.707-.294l.563-.565c.945-.945,2.594-.945,3.539,0h0c.473.472.732,1.101.732,1.77s-.26,1.298-.733,1.77Z"/>
  <path class="cls-1" d="M59.334,27.938h-13.195V4.078c0-1.146-.933-2.078-2.078-2.078h-20.96c-1.146,0-2.079.933-2.079,2.078v10.153H4.667c-1.146,0-2.079.933-2.079,2.079v29.906c0,1.146.933,2.079,2.079,2.079h20.965c1.146,0,2.079-.933,2.079-2.079v-10.155h8.573v23.86c0,1.146.933,2.078,2.079,2.078h20.971c1.146,0,2.078-.933,2.078-2.078v-29.904c0-1.146-.933-2.079-2.078-2.079ZM25.632,46.296H4.667c-.044,0-.079-.035-.079-.079v-29.906c0-.044.035-.079.079-.079h17.34c.005,0,.009.003.015.003s.009-.003.015-.003h3.596c.044,0,.079.035.079.079v18.727c0,.009-.005.016-.005.024s.005.016.005.024v11.131c0,.044-.035.079-.079.079ZM27.711,21.564l5.088,6.337c.189.236.477.374.779.374s.59-.138.779-.374l6.622-8.246c.294-.365.294-.887,0-1.252l-6.622-8.246c-.379-.473-1.18-.473-1.559,0l-5.088,6.337v-.182c0-1.146-.933-2.079-2.079-2.079h-2.61V4.078c0-.047.032-.078.079-.078h20.96c.046,0,.078.032.078.078v29.904c0,.047-.031.079-.078.079h-16.35v-12.498ZM28.239,19.028l5.339-6.649,5.34,6.649-5.34,6.649-5.339-6.649ZM59.412,59.922c0,.046-.032.078-.078.078h-20.971c-.037,0-.079-.033-.079-.078v-23.86h5.776c1.146,0,2.078-.933,2.078-2.079v-4.044h13.195c.047,0,.078.032.078.079v29.904Z"/>
  <path class="cls-1" d="M53.152,41.75c.081-.335.122-.682.122-1.032,0-2.439-1.984-4.425-4.424-4.425s-4.424,1.985-4.424,4.425c0,.412.059.821.171,1.214-1.977.441-3.458,2.21-3.458,4.317,0,2.439,1.984,4.424,4.424,4.424.242,0,.482-.02.719-.059l-.161,1.948c-.022.278.072.554.262.76.189.205.456.322.735.322h3.465c.279,0,.546-.117.735-.322.189-.206.284-.481.262-.76l-.178-2.144c.242.041.487.062.735.062,2.439,0,4.424-1.984,4.424-4.424,0-2.09-1.457-3.847-3.409-4.307ZM52.138,48.48c-.469,0-.924-.135-1.316-.39-.318-.209-.729-.217-1.058-.021-.327.195-.516.561-.484.94l.218,2.634h-1.293l.201-2.432c.031-.379-.156-.743-.482-.939-.326-.195-.736-.189-1.055.016-.391.251-.842.384-1.305.384-1.337,0-2.424-1.087-2.424-2.424s1.087-2.424,2.424-2.424c.155,0,.307.017.453.044.414.077.831-.111,1.046-.473.214-.361.18-.818-.087-1.144-.359-.438-.549-.969-.549-1.535,0-1.337,1.087-2.425,2.424-2.425s2.424,1.088,2.424,2.425c0,.495-.15.973-.434,1.382-.228.327-.238.758-.029,1.097.21.338.599.528.994.463.108-.016.219-.026.332-.026,1.337,0,2.424,1.087,2.424,2.424s-1.087,2.424-2.424,2.424Z"/>
</svg>