<svg width="1064" height="1024" viewBox="0 0 1064 1024" fill="none" xmlns="http://www.w3.org/2000/svg">
<path d="M506.599 545.875L237.796 7.75781L181.132 36.0658L471.198 616.746L506.599 545.875ZM980.103 824.222H645.639L612.803 758.489L577.403 829.358L642.136 958.948C657.88 990.471 696.326 1014.24 731.565 1014.24H980.103C1020.85 1014.24 1054 981.094 1054 940.346V898.12C1054 857.371 1020.85 824.223 980.103 824.223V824.222ZM846.204 7.75781L438.361 824.222H103.897C63.15 824.222 29.999 857.372 29.999 898.119V940.346C29.999 981.093 63.149 1014.24 103.897 1014.24H352.435C387.673 1014.24 426.12 990.471 441.864 958.95L902.869 36.0658L846.204 7.75781Z" fill="white"/>
</svg>
