<svg width="27" height="27" viewBox="0 0 27 27" fill="none" xmlns="http://www.w3.org/2000/svg">
<path d="M18.1 10.9L15.5 8.40002H13.5L9.4 5.60002L4.8 4.90002L7.5 8.30002H5.9L0 15.9V17.9L0.6 17.2L1 16.7L1.4 16.2L6.5 9.60002H10.1L7.8 6.70002L9 6.90002L13.3 9.70002H15.1L17.7 12.2H24.4L23.6 14.8L22.6 15.7H19.4V16.6H21.5L20.5 17.5H15.7L13.2 19.8H9.6L6.6 16.7L6.5 16.6L6.2 16.3H4.5L5.7 17.5L9 21.1H13.5L16 18.8H20.8L24.5 15.5L26 10.9H18.1ZM13.3 10.5V13.3H17.1L13.3 10.5ZM13.9 11.7L15.3 12.7H13.9V11.7Z" fill="white"/>
</svg>
