<svg width="32" height="32" viewBox="0 0 32 32" fill="none" xmlns="http://www.w3.org/2000/svg">
<g clip-path="url(#clip0_59_953)">
<path d="M31.928 9.86497C31.928 9.86497 31.371 4.11997 30.584 3.26297L30.25 1.32397L28.971 3.06597C28.971 3.06597 23.697 1.37397 20.714 9.13397C20.714 9.13397 20.602 9.32997 20.388 9.62997C20.016 9.50597 19.63 9.34297 19.496 9.17197C19.325 8.95097 19.25 8.32397 19.344 8.05897C19.498 7.63697 19.346 5.85797 19.346 5.85797C20.368 5.83497 20.78 4.70097 20.78 4.70097L21.359 4.98097C21.628 4.55697 21.393 3.52097 21.242 3.17997C20.371 1.23397 18.371 2.37997 18.371 2.37997C17.082 3.28597 18.107 3.94497 18.107 3.94497C17.534 3.92797 15.826 4.27297 15.095 4.53797C13.703 5.04197 11.215 7.59497 11.215 7.59497C9.94799 8.83797 10.636 9.97297 10.636 9.97297C11.009 10.821 14.358 12.638 14.358 12.638C14.514 12.769 14.608 12.943 14.673 13.13C13.929 13.172 13.127 13.095 12.257 12.82C10.546 12.28 9.07299 10.83 5.39199 14.91C5.39199 14.91 -1.27501 14.91 0.216993 23.268C0.216993 23.268 2.70499 22.074 3.40099 18.69C3.40099 18.69 3.89799 16.104 5.19199 16.401C5.19199 16.401 4.29699 20.482 9.36999 22.57C9.36999 22.57 9.46999 23.863 8.67399 24.461C8.67399 24.461 7.67799 25.951 10.663 27.047C10.663 27.047 13.611 28.341 14.208 29.46C14.208 29.46 14.805 29.833 15.626 29.685C15.626 29.685 15.29 30.654 16.709 30.654C16.709 30.654 17.938 30.842 17.938 30.206C17.938 30.206 17.528 29.161 16.746 29.05C16.746 29.05 15.738 27.633 14.394 27.519C14.394 27.519 12.118 27.258 12.193 25.096C12.193 25.096 13.648 22.631 13.312 20.471C13.312 20.471 20.959 22.075 23.348 20.246C23.348 20.246 23.534 21.027 24.205 20.99L24.28 21.59C24.28 21.59 23.833 21.628 23.646 22.111C23.646 22.111 23.534 22.446 24.204 22.409V23.118C24.204 23.118 24.242 23.753 25.435 22.968C25.435 22.968 27.71 22.67 28.457 21.327C28.457 21.327 31.702 19.945 30.732 18.415C30.732 18.415 30.097 16.996 28.568 17.371L26.926 17.444C26.926 17.444 27.86 15.839 26.739 14.384C26.739 14.384 27.86 10.394 27.597 8.04297C27.597 8.04297 28.379 10.021 29.351 10.318C29.351 10.318 29.239 11.773 31.106 11.626C31.104 11.625 32.297 11.513 31.925 9.86997L31.928 9.86497ZM17.826 7.84197C17.826 7.84197 18.004 9.10297 18.263 9.28597C18.263 9.28597 17.522 9.23997 17.398 9.01597C17.302 8.83897 17.265 8.01498 17.265 8.01498L17.826 7.84197ZM17.675 12.183C17.13 11.237 15.449 9.93797 15.449 9.93797C14.497 9.03797 15.96 8.71197 15.96 8.71197L16.311 10.095C16.913 11.169 19.519 10.648 19.519 10.648L19.54 10.664C19.063 11.174 18.438 11.726 17.675 12.183ZM28.159 19.714C27.638 20.574 25.883 20.973 25.883 20.973C26.182 20.401 28.159 19.714 28.159 19.714Z" fill="white"/>
</g>
<defs>
<clipPath id="clip0_59_953">
<rect width="32" height="32" fill="white"/>
</clipPath>
</defs>
</svg>
