<svg xmlns="http://www.w3.org/2000/svg" width="48" height="48" viewBox="0 0 48 48"><g class="nc-icon-wrapper" fill="#FFFFFF"><path d="M24,1A23,23,0,1,0,47,24,23.026,23.026,0,0,0,24,1ZM42.257,34.337l-8.945.906L30.6,32.413l3.616-9.942L38.278,20.5l6.578,5.877A20.81,20.81,0,0,1,42.257,34.337Zm-27.569.906-8.946-.906a20.821,20.821,0,0,1-2.6-7.96L9.722,20.5l4.06,1.972L17.4,32.413Zm24.781-25.4-1.9,8.773-4.05,1.968L25,14.4V9.387l7.692-4.48A21.074,21.074,0,0,1,39.469,9.847ZM15.307,4.907,23,9.387V14.4l-8.52,6.189L10.43,18.62,8.53,9.848A21.062,21.062,0,0,1,15.307,4.907ZM19.82,44.58,16.258,36.5l2.718-2.841H29.024l2.718,2.84L28.18,44.58a21.01,21.01,0,0,1-8.36,0Z" fill="#FFFFFF"></path></g></svg>