<svg width="1062" height="1024" viewBox="0 0 1062 1024" fill="none" xmlns="http://www.w3.org/2000/svg">
<g clip-path="url(#clip0_195_302)">
<path d="M932.8 307.512L891.388 266.46L841.206 317.075L808.086 284.233L873.78 217.981L832.368 176.921L766.674 243.186L733.554 210.359L783.737 159.744L742.324 118.68L692.14 169.29L642.436 120.018L601.384 161.43L651.067 210.702L618.224 243.822L551.96 178.142L510.908 219.567L577.174 285.247L544.332 318.367L494.628 269.094L453.576 310.518L503.28 359.79L453.098 410.392L494.488 451.454L544.67 400.84L577.814 433.668L512.12 499.934L553.532 541L619.226 474.734L652.37 507.598L602.21 558.188L643.622 599.25L693.782 548.648L743.486 597.908L784.538 556.485L734.856 507.235L767.674 474.09L833.94 539.77L874.992 498.346L808.752 432.676L841.57 399.544L891.273 448.821L932.324 407.397L882.62 358.137L932.8 307.512ZM618.878 392.252L585.758 359.42L618.6 326.3L651.72 359.118L618.878 392.252ZM692.49 251.754L725.634 284.596L692.792 317.716L659.672 284.888L692.49 251.754ZM693.446 466.176L660.28 433.324L693.122 400.193L726.265 433.044L693.446 466.176ZM767.336 391.62L734.192 358.778L767.034 325.646L800.154 358.498L767.336 391.62ZM1029.44 193.736C1014.41 154.668 991.467 118.561 960.692 88.066C930.324 57.929 894.544 35.492 855.942 20.797C817.292 6.055 775.858 -1 733.63 -1C620.122 -0.85 500.584 49.487 406.656 144.112C313.744 237.946 264.506 356.538 264.387 469.045C264.387 494.831 267.057 520.312 272.421 545.023L207.347 764.298L32.251 940.898L115.077 1023L289.8 846.76L503.78 779.015C529.356 784.822 555.758 787.682 582.5 787.682C695.974 787.542 815.51 737.22 909.45 642.604H909.471C1002.36 548.734 1051.6 430.153 1051.74 317.647C1051.74 274.822 1044.5 232.827 1029.44 193.737L1029.44 193.736ZM293.838 759.856L323.216 660.82C332.778 674.162 343.484 686.816 355.404 698.627C366.558 709.681 378.569 719.835 391.324 728.996L293.838 759.856ZM851.48 585.13C772.013 665.448 671.509 706.172 582.503 706.032C549.337 706.032 517.837 700.494 489.253 689.599C460.648 678.672 434.931 662.508 412.877 640.664C390.555 618.506 374.019 592.57 362.859 563.624C351.697 534.69 346.029 502.7 346.029 469.056C345.889 380.668 385.773 280.991 464.633 201.584C544.099 121.265 644.603 80.518 733.633 80.658C766.778 80.658 798.278 86.209 826.86 97.101C855.465 108.017 881.16 124.179 903.211 146.047C925.555 168.205 942.091 194.141 953.276 223.087C964.414 252.009 970.106 283.987 970.106 317.646C970.223 406.034 930.339 505.676 851.48 585.13Z" fill="white"/>
</g>
<defs>
<clipPath id="clip0_195_302">
<rect width="1062" height="1024" fill="white"/>
</clipPath>
</defs>
</svg>
