<svg width="1064" height="1024" viewBox="0 0 1064 1024" fill="none" xmlns="http://www.w3.org/2000/svg">
<g clip-path="url(#clip0_195_314)">
<path d="M694.078 21.598C481.802 86.884 332 288.27 332 511C332 521.095 333.048 530.93 333.63 540.881C390.996 540.591 450.844 524.336 515.815 491.303C531.829 310.429 646.083 170.557 838.715 93.526C795.008 62.428 746.456 37.756 694.078 21.598ZM892.97 138.102C803.26 169.655 706.388 224.462 642.981 312C827.327 348.266 976.027 481.574 1031.05 662.43C1045.96 614.573 1054 563.708 1054 511C1054 364.82 991.836 231.178 892.97 138.102ZM978.386 693.052C931.422 519.588 787.323 392.49 610.233 366.384C592.695 402.876 581.174 444.636 576.424 491.474C747.254 559.464 835.386 737.044 866.636 905.586C916.971 864.339 959.005 813.899 990.5 756.952C987.86 735.576 984.128 714.244 978.386 693.052ZM545.242 543.644C470.052 582.214 400.404 601 332 601C230.116 601 118.788 566.237 30.766 495.854C30.616 500.931 30 505.889 30 511.001C30 576.949 42.994 639.813 65.882 697.717C90.04 695.629 169.872 781 332 781C462.064 781 584.612 722.18 664.886 619.652C631.382 586.704 591.615 560.509 545.242 543.644ZM585.942 1.124C572.074 -0.0139999 558.158 -1 544 -1C292.856 -1 80.046 183.626 38.144 422.948C102.07 484.811 185.623 524.101 273.384 536.422C273.008 527.926 272 519.594 272 511C272 295.162 398.306 97.096 585.942 1.124ZM704.51 665.314C612.884 776.866 476.76 841 332 841C255.686 841 179.924 823.144 113.1 789.182C204.228 928.55 365.407 1023 544 1023C642.482 1023 734.21 992.471 812.256 943.933C798.084 847.21 764.118 744.963 704.51 665.314Z" fill="white"/>
</g>
<defs>
<clipPath id="clip0_195_314">
<rect width="1064" height="1024" fill="white"/>
</clipPath>
</defs>
</svg>
